<svg xmlns="http://www.w3.org/2000/svg" viewBox="0 0 238.11 187.09">
    <path fill="#67A9DC" d="M207.812 54.632V89.77c-.943.524-1.582 1.53-1.582 2.682 0 1.69 1.375 3.065 3.065 3.065V54.632h-1.483zM212.36 92.452c0-1.152-.64-2.158-1.582-2.68V54.63h-1.483v40.886c1.69 0 3.065-1.375 3.065-3.066z"/>
    <path fill="#83BBE6" d="M200.16 53.35h2.968V64.74h-2.967z"/>
    <path fill="#4278A7" d="M215.982 53.35h2.966V64.74h-2.966zM103.964 28.923h32.575v61.904h-32.576z"/>
    <path fill="#FFF" d="M99.545 32.487h37.91V82.43h-37.91z"/>
    <g fill="#356282">
        <path d="M30.407 118.87v2.772c0 .488-.147.872-.442 1.15s-.7.42-1.216.42-.916-.14-1.198-.422-.423-.668-.423-1.16v-2.76h.497v2.795c0 .357.098.632.293.823s.482.287.86.287c.362 0 .64-.096.836-.288s.293-.47.293-.828v-2.79h.497zM31.54 123.154v-4.283h.5v4.284h-.5z"/>
    </g>
    <g fill="#356282">
        <path d="M18.457 135.193l-.533-1.362h-1.717l-.527 1.363h-.504l1.693-4.3h.418l1.685 4.3h-.516zm-.688-1.81l-.5-1.327c-.063-.168-.13-.374-.198-.618-.043.188-.104.394-.185.618l-.504 1.327h1.386zM21.686 135.193v-2.077c0-.262-.06-.457-.18-.586s-.305-.193-.56-.193c-.335 0-.58.09-.737.272s-.235.48-.235.898v1.685h-.486v-3.21h.395l.08.438h.022c.1-.157.24-.28.42-.366s.38-.13.6-.13c.387 0 .678.093.873.278.195.188.293.485.293.896v2.095h-.487zM23.13 131.112c0-.11.027-.192.082-.245.055-.05.123-.077.205-.077.078 0 .146.026.202.08s.084.133.084.242-.028.19-.085.245-.125.08-.203.08c-.082 0-.15-.026-.205-.08s-.082-.136-.082-.245zm.527 4.08h-.486v-3.21h.487v3.21zM28.782 135.193v-2.09c0-.255-.055-.446-.164-.574s-.28-.193-.51-.193c-.303 0-.526.087-.67.26s-.218.442-.218.804v1.794h-.486v-2.09c0-.255-.055-.446-.164-.574s-.28-.192-.513-.192c-.305 0-.528.092-.67.274s-.21.48-.21.897v1.684h-.487v-3.21h.396l.08.438h.022c.092-.156.22-.278.388-.366s.354-.132.56-.132c.503 0 .83.182.985.545h.024c.096-.17.234-.302.416-.4s.39-.145.62-.145c.364 0 .636.094.817.28.18.187.27.484.27.895v2.095h-.485zM32.244 135.193l-.097-.457h-.023c-.16.2-.32.338-.48.408-.158.07-.357.107-.595.107-.32 0-.57-.08-.75-.245s-.27-.397-.27-.7c0-.648.518-.988 1.555-1.02l.545-.018v-.2c0-.25-.054-.437-.163-.557-.108-.12-.282-.18-.52-.18-.268 0-.57.08-.908.245l-.15-.372c.158-.086.332-.153.52-.202s.377-.072.567-.072c.383 0 .667.085.85.255s.278.442.278.817v2.19h-.36zm-1.098-.343c.303 0 .54-.083.713-.25.172-.165.258-.397.258-.696v-.29l-.486.02c-.387.015-.666.075-.836.18-.17.108-.256.273-.256.498 0 .176.053.31.16.4s.254.138.446.138zM34.644 134.85c.086 0 .17-.006.25-.02s.143-.025.19-.04v.373c-.054.025-.13.046-.234.062s-.195.025-.277.025c-.62 0-.932-.327-.932-.98v-1.91h-.46v-.235l.46-.202.206-.686h.28v.744h.933v.38h-.933v1.89c0 .192.046.34.138.444s.22.156.38.156zM35.684 131.112c0-.11.027-.192.082-.245.055-.05.123-.077.205-.077.08 0 .147.026.203.08s.085.133.085.242-.028.19-.085.245-.124.08-.202.08c-.08 0-.15-.026-.204-.08s-.082-.136-.082-.245zm.527 4.08h-.485v-3.21h.486v3.21zM40.014 133.585c0 .523-.132.933-.396 1.226-.264.296-.628.442-1.093.442-.287 0-.542-.067-.765-.202s-.395-.328-.516-.58-.182-.547-.182-.885c0-.523.13-.93.393-1.224.262-.29.625-.437 1.09-.437.45 0 .806.15 1.07.448s.4.705.4 1.215zm-2.446 0c0 .41.082.723.246.938s.405.322.724.322.56-.106.725-.32c.165-.214.248-.527.248-.94 0-.407-.082-.717-.247-.93-.165-.21-.41-.317-.73-.317s-.56.104-.722.313-.242.52-.242.935zM43.064 135.193v-2.077c0-.262-.06-.457-.18-.586s-.305-.193-.56-.193c-.335 0-.58.09-.737.272s-.234.48-.234.898v1.685h-.486v-3.21h.396l.08.438h.022c.1-.157.24-.28.42-.366s.38-.13.6-.13c.387 0 .678.093.873.278.195.188.293.485.293.896v2.095h-.486z"/>
    </g>
    <g fill="#356282">
        <path d="M19.702 144.986h1.456v2.083c-.227.07-.457.126-.69.163s-.507.056-.815.056c-.648 0-1.153-.193-1.515-.58s-.542-.926-.542-1.62c0-.446.09-.836.268-1.172.18-.334.436-.59.772-.768.336-.176.73-.265 1.18-.265.458 0 .884.084 1.278.252l-.193.44c-.386-.165-.758-.247-1.115-.247-.52 0-.93.155-1.222.466s-.44.74-.44 1.292c0 .578.142 1.017.424 1.315s.697.448 1.244.448c.298 0 .588-.033.87-.102v-1.318h-.957v-.444zM23.578 143.96c.143 0 .27.013.384.036l-.067.45c-.133-.028-.25-.043-.352-.043-.26 0-.482.105-.667.316s-.277.473-.277.787v1.723h-.487v-3.21h.4l.057.594h.023c.12-.21.263-.37.43-.483s.354-.17.555-.17zM26.537 147.23l-.097-.457h-.023c-.16.2-.32.338-.48.408-.158.072-.357.108-.595.108-.318 0-.568-.082-.75-.246s-.27-.397-.27-.7c0-.648.52-.988 1.556-1.02l.545-.018v-.2c0-.25-.054-.437-.163-.557-.108-.12-.282-.18-.52-.18-.268 0-.57.08-.908.245l-.15-.372c.16-.086.333-.153.52-.202s.378-.073.568-.073c.383 0 .667.085.85.255s.278.442.278.817v2.19h-.36zm-1.098-.343c.302 0 .54-.083.712-.25s.26-.397.26-.696v-.29l-.487.022c-.387.014-.666.074-.836.18-.172.107-.257.272-.257.497 0 .175.053.31.16.4s.254.137.446.137zM29.394 147.29c-.21 0-.4-.04-.573-.116-.172-.077-.317-.196-.434-.356h-.035c.024.188.036.365.036.533v1.322H27.9v-4.652h.396l.067.44h.023c.125-.177.27-.304.437-.382s.356-.117.57-.117c.427 0 .755.147.987.438s.347.7.347 1.225c0 .527-.118.938-.353 1.23s-.562.436-.98.436zm-.07-2.916c-.33 0-.566.09-.713.272s-.22.47-.225.867v.108c0 .452.075.775.226.97.15.194.393.29.725.29.277 0 .495-.11.652-.336s.236-.534.236-.93c0-.4-.08-.707-.236-.92-.157-.214-.378-.32-.664-.32zM33.774 147.23v-2.077c0-.262-.06-.457-.18-.586s-.305-.193-.56-.193c-.337 0-.583.092-.74.275s-.232.483-.232.9v1.68h-.486v-4.56h.486v1.38c0 .167-.008.305-.023.414h.028c.096-.154.232-.275.41-.365.176-.09.377-.134.604-.134.393 0 .687.094.883.28.196.187.294.482.294.89v2.094h-.486zM35.218 143.15c0-.112.027-.193.082-.246.055-.05.123-.077.205-.077.078 0 .146.026.202.08s.085.133.085.242-.028.19-.085.244-.124.08-.202.08c-.082 0-.15-.026-.205-.08s-.082-.135-.082-.245zm.527 4.08h-.486v-3.21h.485v3.21zM38.06 147.29c-.465 0-.825-.144-1.08-.43-.255-.286-.382-.69-.382-1.215 0-.537.13-.952.388-1.245s.627-.44 1.106-.44c.154 0 .31.018.463.05s.275.073.363.118l-.15.413c-.106-.042-.224-.077-.35-.106-.128-.027-.24-.042-.338-.042-.652 0-.98.416-.98 1.248 0 .395.08.697.24.908s.395.316.708.316c.268 0 .542-.058.823-.173v.432c-.213.11-.484.167-.81.167zM41.704 146.354c0 .3-.11.53-.334.69s-.535.244-.938.244c-.426 0-.758-.067-.996-.202v-.45c.154.077.32.14.497.184s.347.067.51.067c.255 0 .45-.04.587-.122.137-.08.205-.204.205-.37 0-.125-.054-.23-.163-.32-.108-.09-.32-.194-.634-.315-.3-.11-.51-.208-.637-.29s-.22-.18-.28-.284-.092-.23-.092-.378c0-.262.106-.468.32-.62.212-.15.504-.227.875-.227.346 0 .684.07 1.014.212l-.173.396c-.322-.133-.614-.2-.876-.2-.23 0-.404.037-.52.11s-.177.17-.177.298c0 .086.023.16.067.22s.115.118.212.173.284.133.56.236c.382.14.64.278.773.42s.2.315.2.528z"/>
    </g>
    <g fill="#356282">
        <path d="M21.54 158.13c0 .377-.136.67-.41.882s-.644.316-1.112.316c-.508 0-.898-.065-1.172-.196v-.48c.176.074.367.133.574.176s.412.064.615.064c.332 0 .582-.063.75-.188.168-.127.252-.302.252-.526 0-.148-.03-.27-.09-.364s-.158-.183-.298-.263-.353-.17-.638-.27c-.398-.144-.683-.313-.854-.508s-.256-.45-.256-.765c0-.33.124-.593.372-.788s.576-.294.984-.294c.426 0 .817.078 1.175.234l-.155.434c-.354-.148-.697-.223-1.03-.223-.265 0-.47.058-.62.17s-.222.272-.222.473c0 .148.027.27.082.365s.147.182.277.26c.13.08.33.167.596.263.45.16.76.333.928.517s.253.42.253.713zM23.7 159.328c-.475 0-.85-.145-1.124-.434s-.412-.69-.412-1.204c0-.518.127-.93.382-1.233s.598-.457 1.028-.457c.402 0 .72.133.955.396.233.266.35.614.35 1.048v.308h-2.21c.01.377.104.663.285.858s.435.293.763.293c.346 0 .688-.072 1.025-.217v.434c-.172.074-.334.128-.488.16-.153.032-.338.048-.555.048zm-.132-2.92c-.258 0-.463.083-.617.25s-.243.4-.27.698h1.68c0-.307-.07-.54-.206-.704s-.332-.245-.586-.245zM27.907 159.27v-2.078c0-.262-.06-.457-.18-.586s-.305-.193-.56-.193c-.335 0-.58.09-.737.272s-.234.48-.234.9v1.684h-.486v-3.212h.396l.08.44h.022c.1-.16.24-.28.42-.368s.38-.13.6-.13c.386 0 .677.094.872.28.195.187.293.484.293.895v2.095h-.486zM31.464 158.393c0 .3-.11.53-.334.69s-.535.244-.938.244c-.426 0-.758-.067-.996-.202v-.45c.154.077.32.14.497.184s.347.066.51.066c.255 0 .45-.04.587-.122.137-.08.205-.204.205-.37 0-.125-.054-.23-.163-.32-.108-.09-.32-.194-.634-.315-.3-.112-.51-.21-.637-.292s-.22-.178-.28-.283-.092-.23-.092-.378c0-.262.106-.468.32-.62.212-.15.504-.227.875-.227.346 0 .684.07 1.014.21l-.173.397c-.322-.133-.614-.2-.876-.2-.23 0-.404.037-.52.11s-.177.17-.177.298c0 .086.023.16.067.22s.115.118.212.173.284.134.56.237c.382.14.64.278.773.42s.2.315.2.528zM35.026 157.66c0 .524-.132.934-.396 1.227-.264.295-.628.44-1.093.44-.287 0-.542-.066-.765-.2s-.395-.33-.516-.58-.182-.548-.182-.886c0-.522.13-.93.393-1.223.262-.29.625-.438 1.09-.438.45 0 .806.148 1.07.447s.4.704.4 1.214zm-2.446 0c0 .41.082.724.246.94s.405.32.724.32.56-.105.725-.32c.165-.213.248-.526.248-.938 0-.408-.083-.718-.248-.93-.165-.212-.41-.318-.73-.318s-.56.104-.722.313-.243.52-.243.934zM37.344 156c.143 0 .27.012.384.035l-.067.45c-.132-.028-.25-.043-.35-.043-.26 0-.483.105-.668.316s-.277.474-.277.788v1.723h-.486v-3.212h.4l.056.595h.023c.118-.21.262-.37.43-.483s.352-.17.554-.17zM40.4 158.393c0 .3-.112.53-.335.69s-.535.244-.938.244c-.426 0-.758-.067-.996-.202v-.45c.155.077.32.14.498.184s.347.066.51.066c.255 0 .45-.04.587-.122.137-.08.205-.204.205-.37 0-.125-.054-.23-.163-.32-.108-.09-.32-.194-.634-.315-.3-.112-.51-.21-.637-.292s-.22-.178-.28-.283-.093-.23-.093-.378c0-.262.106-.468.32-.62.212-.15.504-.227.875-.227.346 0 .684.07 1.014.21l-.173.397c-.323-.133-.615-.2-.877-.2-.23 0-.404.037-.52.11s-.177.17-.177.298c0 .086.022.16.066.22s.115.118.212.173.285.134.562.237c.38.14.638.278.772.42s.2.315.2.528z"/>
    </g>
    <g fill="#356282">
        <path d="M23.586 171.366h-.492l-.864-2.868c-.04-.127-.087-.287-.138-.48s-.077-.31-.08-.35c-.042.26-.11.54-.204.848l-.838 2.85h-.492l-1.14-4.282h.527l.677 2.646c.094.37.162.707.205 1.008.053-.357.13-.707.234-1.05l.77-2.603h.526l.806 2.628c.094.303.173.645.237 1.025.036-.277.106-.615.21-1.014l.674-2.64h.527l-1.144 4.282zM28.1 169.758c0 .523-.13.933-.395 1.226-.264.295-.628.44-1.093.44-.287 0-.542-.066-.765-.2s-.395-.33-.516-.58-.18-.548-.18-.886c0-.523.13-.93.392-1.224.262-.29.625-.438 1.09-.438.45 0 .806.15 1.07.448s.4.704.4 1.214zm-2.445 0c0 .41.082.723.246.938s.406.322.725.322.56-.106.725-.32c.165-.214.248-.527.248-.94 0-.407-.083-.717-.248-.93-.165-.21-.41-.317-.73-.317s-.56.105-.722.314-.243.52-.243.934zM30.418 168.096c.143 0 .27.012.384.035l-.067.452c-.133-.03-.25-.044-.352-.044-.26 0-.482.105-.667.316s-.277.474-.277.788v1.723h-.487v-3.21h.4l.057.594h.023c.12-.21.263-.37.43-.484s.354-.17.555-.17zM31.883 169.722c.084-.12.212-.275.384-.47l1.037-1.098h.577l-1.3 1.368 1.392 1.843h-.59l-1.133-1.518-.367.316v1.2h-.48v-4.558h.48v2.417c0 .107-.008.273-.023.498h.023zM35.908 171.425c-.475 0-.85-.145-1.124-.434s-.412-.69-.412-1.203c0-.518.127-.93.382-1.233s.597-.457 1.027-.457c.403 0 .722.133.956.396.234.266.352.614.352 1.048v.31h-2.212c.01.376.105.662.286.857s.436.293.764.293c.346 0 .688-.072 1.025-.217v.434c-.17.074-.333.128-.487.16-.153.032-.338.048-.555.048zm-.13-2.92c-.26 0-.464.083-.618.25s-.244.4-.27.698h1.678c0-.307-.068-.54-.205-.704s-.332-.246-.586-.246zM39.383 168.096c.143 0 .27.012.384.035l-.067.452c-.133-.03-.25-.044-.352-.044-.26 0-.482.105-.667.316s-.276.474-.276.788v1.723h-.486v-3.21h.4l.057.594h.023c.12-.21.263-.37.43-.484s.354-.17.555-.17z"/>
    </g>
    <g fill="#356282">
        <path d="M27.606 181.638c0-.13.03-.23.09-.297.06-.067.144-.1.255-.1.114 0 .203.032.266.1.063.067.095.167.095.298 0 .127-.03.225-.096.293s-.152.104-.264.104c-.1 0-.182-.03-.248-.093-.064-.06-.096-.16-.096-.302zM29.202 181.638c0-.13.03-.23.09-.297.06-.067.144-.1.255-.1.113 0 .202.032.265.1.063.067.095.167.095.298 0 .127-.032.225-.097.293s-.152.104-.264.104c-.1 0-.182-.03-.248-.093-.063-.06-.096-.16-.096-.302zM30.8 181.638c0-.13.03-.23.088-.297.06-.067.145-.1.256-.1.113 0 .202.032.265.1.062.067.094.167.094.298 0 .127-.032.225-.097.293s-.152.104-.264.104c-.1 0-.182-.03-.248-.093-.063-.06-.096-.16-.096-.302z"/>
    </g>
    <path fill="#4278A7" d="M.36 114.595h58.39v.398H.36zM.36 11.595h58.39v.398H.36zM90.36 11.595h58.39v.398H90.36zM.36 126.71h58.39v.17H.36zM.36 138.71h58.39v.17H.36zM.36 150.71h58.39v.17H.36zM.36 162.71h58.39v.17H.36zM.36 174.71h58.39v.17H.36zM.36 186.595h58.39v.398H.36z"/>
    <g fill="#356282">
        <path d="M108.277 134.053c0 .377-.137.67-.41.882s-.645.316-1.113.316c-.508 0-.898-.064-1.172-.195v-.48c.176.074.367.133.574.176s.412.065.615.065c.333 0 .583-.063.75-.188.17-.127.253-.302.253-.526 0-.147-.03-.27-.09-.363s-.16-.183-.3-.263-.35-.17-.636-.272c-.398-.143-.684-.312-.854-.507s-.256-.45-.256-.765c0-.33.124-.593.372-.788s.575-.293.983-.293c.426 0 .817.077 1.175.233l-.155.434c-.354-.148-.697-.223-1.03-.223-.265 0-.47.057-.62.17s-.222.27-.222.472c0 .148.028.27.083.365s.146.183.276.26c.13.08.328.168.596.264.45.16.758.332.927.516s.254.42.254.713zM110.574 135.252c-.21 0-.4-.04-.573-.115-.172-.077-.316-.196-.434-.356h-.035c.024.19.036.366.036.534v1.32h-.486v-4.65h.396l.067.438h.023c.125-.176.27-.303.437-.38s.356-.118.57-.118c.427 0 .755.146.986.437s.347.7.347 1.226c0 .527-.118.938-.354 1.23s-.56.436-.98.436zm-.07-2.915c-.328 0-.565.09-.712.272s-.222.47-.226.866v.108c0 .45.075.774.226.968.15.195.392.292.724.292.277 0 .494-.112.65-.337s.237-.534.237-.93c0-.4-.08-.707-.236-.92-.157-.214-.378-.32-.663-.32zM115.528 133.585c0 .523-.132.933-.396 1.226-.264.296-.628.442-1.093.442-.288 0-.543-.067-.766-.202s-.395-.328-.516-.58-.182-.547-.182-.885c0-.523.13-.93.393-1.224.26-.29.624-.437 1.09-.437.448 0 .805.15 1.07.448s.398.705.398 1.215zm-2.446 0c0 .41.082.723.246.938s.405.322.724.322.56-.106.725-.32c.165-.214.248-.527.248-.94 0-.407-.083-.717-.248-.93-.165-.21-.408-.317-.73-.317-.318 0-.56.104-.72.313s-.245.52-.245.935zM117.845 131.924c.143 0 .27.012.384.035l-.068.45c-.133-.03-.25-.044-.352-.044-.26 0-.482.105-.667.316s-.276.474-.276.788v1.723h-.486v-3.21h.402l.056.594h.023c.12-.21.264-.37.432-.483s.352-.17.553-.17zM119.867 134.85c.086 0 .17-.006.25-.02s.143-.025.19-.04v.373c-.054.025-.132.046-.234.062s-.194.025-.276.025c-.62 0-.932-.327-.932-.98v-1.91h-.46v-.235l.46-.202.205-.686h.28v.744h.933v.38h-.932v1.89c0 .192.047.34.14.444s.217.156.377.156zM123.02 134.317c0 .3-.112.53-.335.69s-.535.244-.938.244c-.426 0-.758-.066-.996-.2v-.452c.155.078.32.14.497.185s.348.067.512.067c.253 0 .448-.04.585-.122.137-.08.205-.204.205-.37 0-.125-.055-.23-.163-.32-.108-.09-.32-.194-.634-.315-.3-.11-.512-.208-.638-.29s-.22-.18-.28-.284-.093-.232-.093-.38c0-.26.106-.467.32-.62.212-.15.504-.226.875-.226.346 0 .684.07 1.014.21l-.172.397c-.322-.132-.614-.198-.876-.198-.23 0-.404.036-.52.108s-.177.172-.177.3c0 .085.02.158.065.22s.115.117.213.172.285.134.562.237c.38.138.638.277.77.418s.204.316.204.53zM128.135 135.193l-.533-1.362h-1.717l-.527 1.363h-.504l1.693-4.3h.42l1.684 4.3h-.515zm-.69-1.81l-.497-1.327c-.064-.168-.13-.374-.2-.618-.042.188-.103.394-.184.618l-.504 1.327h1.386zM131.955 132.158c0 .434-.148.768-.444 1-.295.234-.718.35-1.27.35h-.503v1.686h-.498v-4.283h1.11c1.07 0 1.605.416 1.605 1.248zm-2.218.923h.448c.44 0 .76-.07.958-.213s.296-.37.296-.686c0-.282-.094-.493-.28-.632s-.474-.208-.866-.208h-.557v1.74zM132.85 135.193v-4.283h.5v4.283h-.5z"/>
    </g>
    <g fill="#4278A7">
        <path d="M20.1 2.382c0 .65-.22 1.15-.665 1.5-.443.35-1.08.525-1.905.525h-.756v2.527h-.747V.51h1.666c1.606 0 2.408.624 2.408 1.872zm-3.325 1.384h.672c.662 0 1.14-.107 1.437-.32s.444-.558.444-1.03c0-.424-.14-.74-.417-.948s-.71-.312-1.3-.312h-.835v2.61zM23.37 7.022c-.71 0-1.273-.217-1.684-.65-.412-.434-.618-1.035-.618-1.807 0-.775.19-1.393.574-1.85.382-.457.896-.686 1.54-.686.604 0 1.08.197 1.433.595.352.396.527.92.527 1.57v.462h-3.318c.015.565.157.995.428 1.288s.653.44 1.145.44c.52 0 1.03-.11 1.538-.327v.65c-.258.112-.502.19-.732.24-.23.05-.507.074-.832.074zm-.197-4.38c-.387 0-.695.125-.925.376-.23.253-.366.602-.407 1.047h2.52c0-.46-.104-.812-.31-1.058-.203-.244-.496-.366-.877-.366zM28.627 2.04c.633 0 1.124.215 1.475.647.35.432.525 1.044.525 1.835s-.177 1.405-.53 1.843c-.353.438-.843.657-1.47.657-.313 0-.6-.058-.86-.174-.258-.115-.476-.293-.65-.533h-.054l-.154.62h-.524V.094h.73v1.662c0 .372-.013.706-.036 1.002h.035c.34-.48.844-.72 1.512-.72zm-.106.61c-.497 0-.856.143-1.076.428-.22.286-.33.767-.33 1.444 0 .676.113 1.16.338 1.452.226.29.587.437 1.085.437.448 0 .782-.162 1.002-.488.22-.327.33-.796.33-1.41 0-.625-.11-1.093-.33-1.4s-.56-.463-1.02-.463zM34.142 2.04c.633 0 1.124.215 1.475.647.35.432.525 1.044.525 1.835s-.177 1.405-.53 1.843c-.353.438-.843.657-1.47.657-.313 0-.6-.058-.86-.174-.258-.115-.476-.293-.65-.533h-.054l-.154.62H31.9V.094h.73v1.662c0 .372-.012.706-.035 1.002h.035c.34-.48.844-.72 1.512-.72zm-.106.61c-.498 0-.857.143-1.077.428-.22.286-.33.767-.33 1.444 0 .676.112 1.16.337 1.452.226.29.587.437 1.085.437.448 0 .782-.162 1.002-.488.22-.327.33-.796.33-1.41 0-.625-.11-1.093-.33-1.4s-.558-.463-1.018-.463zM38.145 6.934h-.73V.096h.73v6.838zM41.727 7.022c-.712 0-1.274-.217-1.685-.65-.412-.434-.618-1.035-.618-1.807 0-.775.19-1.393.574-1.85.382-.457.896-.686 1.54-.686.604 0 1.08.197 1.433.595.353.396.528.92.528 1.57v.462H40.18c.015.565.157.995.428 1.288s.653.44 1.145.44c.52 0 1.03-.11 1.538-.327v.65c-.257.112-.5.19-.73.24-.23.05-.508.074-.833.074zm-.198-4.38c-.388 0-.696.125-.926.376-.23.253-.366.602-.407 1.047h2.518c0-.46-.103-.812-.308-1.058-.204-.244-.497-.366-.878-.366z"/>
    </g>
    <g fill="#4278A7">
        <path d="M108.943 6.934l-2.18-5.695h-.035c.04.45.062.986.062 1.607v4.087h-.69V.51h1.125l2.034 5.3h.034l2.053-5.3h1.116v6.425h-.747v-4.14c0-.475.02-.99.062-1.547h-.035l-2.197 5.687h-.603zM118.273 4.522c0 .785-.198 1.397-.594 1.84-.397.44-.942.66-1.64.66-.43 0-.813-.102-1.147-.303-.334-.204-.592-.493-.773-.872-.182-.377-.272-.82-.272-1.326 0-.785.196-1.397.59-1.835.392-.438.937-.657 1.634-.657.674 0 1.21.225 1.606.672.396.45.595 1.055.595 1.82zm-3.67 0c0 .615.123 1.084.37 1.406s.607.482 1.085.482.84-.16 1.088-.48c.247-.32.37-.79.37-1.408 0-.612-.123-1.078-.37-1.396-.248-.318-.613-.478-1.097-.478-.48 0-.84.157-1.082.47s-.365.783-.365 1.404zM121.793 2.04c.633 0 1.124.215 1.475.647.35.432.525 1.044.525 1.835s-.177 1.405-.53 1.843c-.353.438-.843.657-1.47.657-.313 0-.6-.058-.86-.174-.258-.115-.476-.293-.65-.533h-.054l-.154.62h-.523V.094h.73v1.662c0 .372-.013.706-.036 1.002h.035c.34-.48.843-.72 1.51-.72zm-.106.61c-.498 0-.856.143-1.076.428-.22.286-.33.767-.33 1.444 0 .676.114 1.16.34 1.452.226.29.587.437 1.085.437.448 0 .782-.162 1.002-.488.22-.327.33-.796.33-1.41 0-.625-.11-1.093-.33-1.4s-.56-.463-1.02-.463zM125.006.813c0-.168.04-.29.123-.367.08-.078.184-.117.307-.117.117 0 .218.04.303.118s.128.2.128.365-.043.286-.128.366c-.085.08-.186.12-.303.12-.123 0-.226-.04-.308-.12-.083-.08-.124-.203-.124-.367zm.79 6.12h-.728V2.12h.73v4.816zM128.073 6.934h-.73V.096h.73v6.838zM131.654 7.022c-.712 0-1.273-.217-1.685-.65-.413-.434-.62-1.035-.62-1.807 0-.775.192-1.393.575-1.85.382-.457.896-.686 1.54-.686.604 0 1.08.197 1.433.595.352.396.527.92.527 1.57v.462h-3.318c.015.565.157.995.43 1.288.27.293.65.44 1.144.44.52 0 1.032-.11 1.54-.327v.65c-.26.112-.503.19-.732.24-.23.05-.51.074-.834.074zm-.197-4.38c-.387 0-.695.125-.925.376-.23.253-.366.602-.407 1.047h2.52c0-.46-.104-.812-.31-1.058-.204-.244-.497-.366-.878-.366z"/>
    </g>
    <g fill="#356282">
        <path d="M95.67 179.188c0-.11.028-.192.083-.245.055-.05.123-.077.205-.077.078 0 .146.026.202.08s.085.133.085.242-.028.19-.085.245-.124.08-.202.08c-.082 0-.15-.026-.205-.08s-.082-.135-.082-.245zm.528 4.08h-.486v-3.21h.486v3.21zM101.02 181.122c0 .686-.174 1.225-.52 1.617s-.83.588-1.446.588c-.63 0-1.118-.192-1.46-.578s-.515-.93-.515-1.634c0-.697.17-1.237.515-1.622.344-.383.832-.575 1.465-.575.615 0 1.096.194 1.44.585s.52.93.52 1.617zm-3.413 0c0 .58.123 1.02.37 1.32.247.3.606.45 1.077.45.475 0 .833-.15 1.075-.45s.362-.738.362-1.32c0-.576-.12-1.013-.362-1.312-.24-.297-.598-.446-1.07-.446-.475 0-.836.15-1.083.45s-.37.736-.37 1.308zM104.392 182.13c0 .377-.137.67-.41.882s-.645.316-1.113.316c-.51 0-.9-.065-1.173-.196v-.48c.176.074.367.133.574.176s.413.064.616.064c.332 0 .582-.063.75-.188.168-.127.252-.302.252-.526 0-.148-.03-.27-.09-.364s-.16-.183-.3-.263-.35-.17-.636-.27c-.398-.144-.684-.313-.854-.508s-.256-.45-.256-.765c0-.33.124-.593.372-.788s.576-.294.984-.294c.426 0 .817.078 1.175.234l-.155.434c-.354-.148-.697-.223-1.03-.223-.265 0-.47.058-.62.17s-.222.272-.222.473c0 .148.027.27.082.365s.146.182.276.26c.13.08.33.167.597.263.45.16.76.333.928.517s.254.42.254.713zM109.543 180.234c0 .434-.148.768-.444 1-.297.234-.72.35-1.27.35h-.505v1.686h-.498v-4.283h1.11c1.07 0 1.606.415 1.606 1.247zm-2.218.923h.448c.44 0 .76-.07.958-.214s.297-.37.297-.686c0-.283-.093-.494-.278-.633s-.476-.208-.868-.208h-.557v1.74zM110.852 183.27h-.486v-4.56h.486v4.56zM113.858 183.27l-.097-.458h-.022c-.16.2-.32.338-.48.408-.158.07-.356.107-.595.107-.318 0-.568-.082-.75-.246s-.27-.396-.27-.7c0-.647.52-.987 1.556-1.02l.544-.017v-.2c0-.25-.055-.437-.163-.557-.107-.12-.28-.18-.52-.18-.267 0-.57.08-.907.245l-.15-.37c.16-.087.332-.154.52-.203s.38-.073.568-.073c.384 0 .667.085.852.255s.277.44.277.816v2.19h-.362zm-1.098-.343c.303 0 .54-.083.713-.25s.26-.397.26-.696v-.29l-.486.022c-.387.014-.666.074-.837.18-.17.107-.256.272-.256.497 0 .175.053.31.16.4s.254.137.446.137zM116.258 182.927c.086 0 .17-.006.25-.02s.143-.025.19-.04v.373c-.054.025-.132.046-.234.062s-.194.025-.276.025c-.62 0-.932-.327-.932-.98v-1.91h-.46v-.235l.46-.202.205-.686h.282v.744h.932v.378h-.932v1.89c0 .193.046.342.138.445s.217.157.378.157zM118.786 180.436h-.817v2.833h-.487v-2.834h-.574v-.22l.573-.176v-.18c0-.788.345-1.183 1.034-1.183.17 0 .37.034.598.103l-.126.39c-.19-.06-.35-.09-.48-.09-.185 0-.32.06-.408.183s-.132.317-.132.587v.208h.817v.378zM122.143 181.66c0 .524-.132.934-.396 1.227-.264.295-.628.44-1.093.44-.287 0-.542-.066-.765-.2s-.396-.33-.517-.58-.182-.548-.182-.886c0-.522.132-.93.394-1.223.262-.29.625-.438 1.09-.438.45 0 .806.148 1.07.447s.4.704.4 1.214zm-2.446 0c0 .41.082.724.246.94s.405.32.724.32.56-.105.725-.32c.165-.213.248-.526.248-.938 0-.408-.083-.718-.248-.93-.165-.212-.408-.318-.73-.318-.318 0-.56.104-.72.313s-.245.52-.245.934zM124.46 180c.144 0 .272.012.385.035l-.067.45c-.133-.028-.25-.043-.352-.043-.26 0-.482.105-.667.316s-.277.474-.277.788v1.723h-.486v-3.212h.4l.057.595h.023c.12-.21.263-.37.43-.483s.353-.17.554-.17zM129.538 183.27v-2.09c0-.256-.055-.447-.164-.575s-.28-.192-.51-.192c-.303 0-.526.087-.67.26s-.218.442-.218.804v1.793h-.486v-2.09c0-.255-.055-.446-.164-.574s-.28-.192-.513-.192c-.305 0-.528.092-.67.274s-.212.48-.212.897v1.685h-.485v-3.21h.396l.08.438h.023c.092-.156.22-.278.388-.366s.355-.132.563-.132c.502 0 .83.182.984.545h.023c.096-.168.234-.3.416-.398s.39-.146.62-.146c.364 0 .636.095.816.28.18.188.27.485.27.896v2.095h-.484zM135.35 183.27l-.533-1.363H133.1l-.527 1.362h-.504l1.692-4.302h.42l1.684 4.3h-.516zm-.688-1.81l-.498-1.328c-.064-.168-.13-.374-.2-.618-.042.188-.103.394-.184.618l-.504 1.327h1.386zM139.17 180.234c0 .434-.147.768-.443 1-.296.234-.72.35-1.27.35h-.504v1.686h-.498v-4.283h1.11c1.07 0 1.606.415 1.606 1.247zm-2.217.923h.448c.442 0 .762-.07.96-.214s.295-.37.295-.686c0-.283-.093-.494-.278-.633s-.475-.208-.867-.208h-.557v1.74zM140.067 183.27v-4.284h.498v4.283h-.498zM143.738 182.393c0 .3-.11.53-.334.69s-.535.244-.938.244c-.426 0-.758-.067-.996-.202v-.45c.154.077.32.14.496.184s.348.066.512.066c.254 0 .45-.04.586-.122.137-.08.205-.204.205-.37 0-.125-.056-.23-.164-.32-.108-.09-.32-.194-.634-.315-.3-.112-.512-.21-.638-.292s-.22-.178-.28-.283-.093-.23-.093-.378c0-.262.107-.468.32-.62.213-.15.505-.227.876-.227.346 0 .684.07 1.014.21l-.173.397c-.322-.133-.614-.2-.876-.2-.23 0-.403.037-.52.11s-.176.17-.176.298c0 .086.02.16.065.22s.114.118.212.173.285.134.562.237c.38.14.638.278.77.42s.204.315.204.528z"/>
    </g>
    <g fill="#356282">
        <path d="M98.71 161.366l-.534-1.362H96.46l-.528 1.362h-.504l1.693-4.3h.42l1.685 4.3h-.516zm-.69-1.81l-.498-1.328c-.064-.168-.13-.374-.2-.618-.042.188-.103.394-.184.618l-.504 1.327h1.386zM101.937 161.366v-2.077c0-.263-.06-.458-.18-.587s-.305-.193-.56-.193c-.335 0-.58.09-.737.272s-.234.48-.234.9v1.684h-.486v-3.21h.396l.08.438h.022c.1-.158.24-.28.42-.367s.38-.13.6-.13c.387 0 .678.093.873.278.196.188.294.485.294.896v2.096h-.487zM105.608 160.935h-.026c-.225.326-.56.49-1.008.49-.42 0-.747-.145-.98-.432s-.35-.695-.35-1.225.117-.94.352-1.233.56-.44.98-.44c.435 0 .77.16 1 .476h.04l-.022-.23-.012-.226v-1.307h.486v4.56h-.396l-.064-.432zm-.972.082c.332 0 .572-.09.722-.27s.225-.474.225-.876v-.102c0-.455-.076-.78-.228-.974s-.393-.292-.725-.292c-.285 0-.504.11-.655.333s-.227.534-.227.938c0 .41.075.72.226.93s.37.314.662.314zM108.564 158.096c.143 0 .27.012.384.035l-.067.452c-.132-.03-.25-.044-.35-.044-.26 0-.483.105-.668.316s-.276.474-.276.788v1.723h-.486v-3.21h.4l.057.594h.023c.12-.21.263-.37.43-.484s.353-.17.554-.17zM112.32 159.758c0 .523-.132.933-.396 1.226-.264.295-.628.44-1.093.44-.286 0-.54-.066-.764-.2s-.395-.33-.516-.58-.182-.548-.182-.886c0-.523.13-.93.393-1.224.263-.29.626-.438 1.09-.438.45 0 .807.15 1.07.448s.4.704.4 1.214zm-2.446 0c0 .41.082.723.246.938s.405.322.724.322.56-.106.725-.32c.164-.214.247-.527.247-.94 0-.407-.083-.717-.248-.93-.166-.21-.41-.317-.73-.317s-.56.105-.722.314-.244.52-.244.934zM113.132 157.285c0-.11.027-.192.082-.245.055-.05.123-.077.205-.077.077 0 .145.026.2.08s.086.133.086.242-.028.19-.085.245-.123.08-.2.08c-.083 0-.15-.026-.206-.08s-.082-.136-.082-.245zm.527 4.08h-.487v-3.21h.486v3.21zM116.876 160.935h-.026c-.225.326-.56.49-1.008.49-.42 0-.747-.145-.98-.432s-.35-.695-.35-1.225.117-.94.352-1.233.56-.44.98-.44c.435 0 .77.16 1 .476h.04l-.022-.23-.012-.226v-1.307h.486v4.56h-.396l-.064-.432zm-.973.082c.332 0 .572-.09.722-.27s.225-.474.225-.876v-.102c0-.455-.076-.78-.228-.974s-.393-.292-.725-.292c-.285 0-.504.11-.655.333s-.227.534-.227.938c0 .41.075.72.226.93s.372.314.663.314zM122.715 158.33c0 .435-.148.77-.444 1-.295.235-.718.352-1.27.352h-.503v1.685H120v-4.283h1.11c1.07 0 1.605.415 1.605 1.247zm-2.218.924h.448c.44 0 .76-.07.958-.214s.296-.37.296-.686c0-.283-.094-.494-.28-.633s-.474-.207-.866-.207h-.557v1.74zM124.024 161.366h-.486v-4.56h.486v4.56zM127.03 161.366l-.097-.457h-.023c-.16.2-.32.337-.48.407-.158.07-.356.107-.595.107-.318 0-.568-.082-.75-.246s-.27-.397-.27-.7c0-.648.52-.988 1.556-1.02l.546-.018v-.2c0-.25-.055-.437-.163-.557-.108-.12-.28-.18-.52-.18-.268 0-.57.08-.908.245l-.15-.372c.16-.086.332-.153.52-.202s.38-.073.568-.073c.383 0 .666.086.85.256s.278.442.278.817v2.19h-.36zm-1.1-.343c.304 0 .54-.083.714-.25s.26-.397.26-.696v-.29l-.486.02c-.387.015-.666.075-.837.18-.17.108-.255.273-.255.498 0 .176.053.31.16.4s.255.138.446.138zM129.43 161.023c.085 0 .168-.006.248-.02s.144-.025.19-.04v.373c-.053.025-.13.046-.233.062s-.194.025-.276.025c-.622 0-.933-.327-.933-.98v-1.91h-.46v-.235l.46-.202.205-.686h.28v.744h.933v.378h-.932v1.89c0 .193.046.342.138.445s.22.156.38.156zM131.958 158.533h-.817v2.833h-.485v-2.833h-.574v-.22l.575-.176v-.18c0-.788.345-1.183 1.034-1.183.17 0 .368.034.597.103l-.126.39c-.187-.06-.347-.09-.48-.09-.183 0-.318.06-.406.183s-.132.317-.132.587v.208h.817v.378zM135.315 159.758c0 .523-.132.933-.396 1.226-.265.295-.63.44-1.094.44-.287 0-.542-.066-.765-.2s-.394-.33-.515-.58-.182-.548-.182-.886c0-.523.13-.93.393-1.224.262-.29.625-.438 1.09-.438.45 0 .806.15 1.07.448s.4.704.4 1.214zm-2.446 0c0 .41.08.723.245.938s.405.322.724.322.56-.106.724-.32c.165-.214.248-.527.248-.94 0-.407-.083-.717-.248-.93-.165-.21-.408-.317-.73-.317-.318 0-.56.105-.72.314s-.245.52-.245.934zM137.633 158.096c.143 0 .27.012.384.035l-.067.452c-.133-.03-.25-.044-.352-.044-.26 0-.482.105-.667.316s-.275.474-.275.788v1.723h-.486v-3.21h.4l.056.594h.023c.118-.21.262-.37.43-.484s.35-.17.553-.17zM142.71 161.366v-2.09c0-.255-.055-.446-.164-.574s-.28-.192-.51-.192c-.303 0-.526.087-.67.26s-.218.442-.218.804v1.793h-.486v-2.09c0-.255-.055-.446-.164-.574s-.28-.192-.513-.192c-.305 0-.528.093-.67.275s-.212.48-.212.897v1.685h-.486v-3.21h.396l.08.438h.022c.092-.156.22-.278.388-.366s.354-.133.562-.133c.502 0 .83.182.984.545h.022c.096-.168.234-.3.416-.398s.39-.146.62-.146c.364 0 .636.094.816.28.18.187.27.484.27.895v2.095h-.484zM116.864 169.366l-.533-1.362h-1.716l-.527 1.362h-.504l1.693-4.3h.42l1.684 4.3h-.516zm-.688-1.81l-.498-1.328c-.064-.168-.13-.374-.2-.618-.042.188-.103.394-.184.618l-.504 1.327h1.386zM120.684 166.33c0 .435-.148.77-.444 1-.296.235-.72.352-1.27.352h-.504v1.685h-.498v-4.283h1.11c1.07 0 1.606.415 1.606 1.247zm-2.217.924h.448c.44 0 .76-.07.958-.214s.296-.37.296-.686c0-.283-.094-.494-.28-.633s-.474-.207-.866-.207h-.557v1.74zM121.58 169.366v-4.283h.5v4.283h-.5zM125.252 168.49c0 .3-.11.53-.334.69s-.535.244-.938.244c-.426 0-.758-.067-.996-.202v-.45c.154.077.32.14.496.184s.348.067.512.067c.254 0 .45-.04.586-.122.137-.08.205-.203.205-.37 0-.124-.055-.23-.163-.32-.108-.088-.32-.193-.634-.314-.3-.11-.512-.208-.638-.29s-.22-.18-.28-.284-.093-.23-.093-.378c0-.262.106-.468.32-.62.212-.15.504-.227.875-.227.346 0 .684.07 1.014.21l-.173.397c-.32-.133-.613-.2-.875-.2-.23 0-.404.037-.52.11s-.177.17-.177.298c0 .086.02.16.065.22s.115.118.213.173.285.134.562.237c.38.14.638.278.77.42s.204.315.204.528z"/>
    </g>
    <g fill="#4278A7">
        <path d="M61.54 51.05h-2.345v-.35l.94-.943c.287-.29.475-.496.566-.62s.16-.244.206-.36.068-.244.068-.38c0-.19-.058-.34-.173-.452s-.275-.167-.48-.167c-.148 0-.29.023-.42.072-.133.05-.28.138-.444.267l-.215-.276c.33-.272.688-.41 1.075-.41.335 0 .598.087.79.26s.285.4.285.69c0 .228-.063.45-.19.672-.127.222-.365.502-.713.84l-.78.765v.02h1.835v.374zM62.015 49.896v-.37h1.2v.37h-1.2zM66.033 51.05l-.49-1.57c-.032-.095-.09-.312-.174-.653h-.02c-.066.285-.123.505-.172.66l-.505 1.564h-.47l-.73-2.675h.427l.394 1.535c.09.352.142.59.155.71h.02c.017-.092.046-.212.086-.36.04-.146.074-.263.104-.35l.49-1.535h.44l.48 1.535c.09.28.152.516.185.706h.02c.006-.06.024-.15.052-.27.03-.124.198-.78.51-1.972h.42l-.74 2.676h-.484zM69.383 51.05l-.08-.38h-.02c-.134.168-.268.28-.4.34-.133.06-.298.09-.497.09-.265 0-.473-.068-.624-.205-.15-.137-.226-.33-.226-.584 0-.54.432-.822 1.296-.85l.454-.013v-.166c0-.21-.045-.364-.135-.465-.09-.1-.234-.15-.433-.15-.223 0-.475.07-.757.206l-.125-.31c.132-.07.276-.128.433-.168.157-.04.315-.062.473-.062.32 0 .557.07.71.212.154.143.23.37.23.682v1.826h-.297zm-.915-.285c.252 0 .45-.07.594-.208.145-.14.216-.332.216-.58v-.243l-.405.018c-.322.012-.555.062-.697.15-.143.09-.214.227-.214.414 0 .146.044.258.133.334.09.076.213.115.373.115zM70.094 48.375h.435l.585 1.525c.128.35.208.6.24.755h.02c.02-.083.064-.225.132-.426.068-.202.29-.82.663-1.855h.435l-1.15 3.047c-.114.3-.247.515-.4.64-.15.127-.338.19-.56.19-.124 0-.246-.014-.366-.04v-.326c.088.02.188.03.3.03.277 0 .476-.157.595-.47l.15-.38-1.08-2.69zM75.406 51.1c-.387 0-.688-.12-.9-.358-.212-.238-.317-.576-.317-1.012 0-.448.106-.794.322-1.038s.522-.366.922-.366c.128 0 .257.014.386.04.128.03.23.062.303.1l-.125.344c-.09-.036-.187-.065-.293-.09-.105-.022-.2-.034-.28-.034-.544 0-.815.346-.815 1.04 0 .328.066.58.198.757.133.176.33.264.59.264.224 0 .452-.05.687-.145v.36c-.182.09-.407.137-.68.137zM79.027 49.71c0 .437-.11.777-.33 1.022s-.523.367-.91.367c-.24 0-.452-.058-.638-.17-.187-.112-.33-.272-.43-.483-.102-.21-.152-.455-.152-.736 0-.436.11-.775.327-1.02.22-.242.52-.364.908-.364.375 0 .672.125.893.373.22.25.33.585.33 1.01zm-2.04 0c0 .343.07.603.206.782.137.18.338.268.604.268.265 0 .467-.09.604-.267.138-.18.207-.44.207-.782 0-.34-.07-.598-.206-.774-.137-.177-.34-.266-.608-.266-.266 0-.466.088-.6.262-.137.173-.204.433-.204.78zM83.148 51.05v-1.74c0-.213-.046-.373-.137-.48-.09-.105-.232-.16-.424-.16-.253 0-.438.074-.56.22-.12.144-.18.367-.18.668v1.494h-.406v-1.74c0-.214-.045-.374-.137-.48-.09-.106-.233-.16-.427-.16-.254 0-.44.076-.56.23-.116.15-.176.4-.176.747v1.403h-.405v-2.676h.33l.065.366h.02c.077-.13.185-.23.323-.306.14-.072.296-.11.468-.11.42 0 .693.152.82.455h.02c.08-.14.196-.25.348-.332s.324-.122.518-.122c.303 0 .53.078.68.233.15.156.227.404.227.746v1.746h-.405zM87.8 51.05v-1.74c0-.213-.046-.373-.138-.48-.09-.105-.232-.16-.425-.16-.252 0-.438.074-.56.22-.12.144-.18.367-.18.668v1.494h-.405v-1.74c0-.214-.046-.374-.137-.48-.092-.106-.233-.16-.428-.16-.254 0-.44.076-.558.23s-.178.4-.178.747v1.403h-.405v-2.676h.33l.065.366h.02c.076-.13.185-.23.323-.306.14-.072.295-.11.468-.11.418 0 .69.152.82.455h.02c.08-.14.195-.25.347-.332s.323-.122.518-.122c.303 0 .53.078.68.233s.226.404.226.746v1.746H87.8zM90.765 50.32c0 .25-.093.44-.278.576-.186.136-.446.203-.78.203-.356 0-.633-.058-.83-.17v-.376c.127.065.266.117.412.154.146.037.29.057.426.057.21 0 .374-.034.488-.102.113-.067.17-.17.17-.31 0-.103-.045-.192-.135-.267-.092-.074-.268-.162-.53-.263-.248-.093-.426-.174-.53-.243-.105-.07-.184-.147-.234-.235-.052-.088-.077-.192-.077-.315 0-.218.088-.39.266-.516.177-.126.42-.19.73-.19.287 0 .57.06.844.177l-.144.33c-.27-.11-.512-.165-.73-.165-.19 0-.337.03-.435.09s-.145.144-.145.25c0 .07.02.132.055.182.037.05.096.1.178.145.08.046.237.11.47.197.316.115.53.23.642.35.11.116.165.263.165.44zM72.526 54.71c0 .437-.11.777-.33 1.022s-.523.367-.91.367c-.24 0-.453-.058-.638-.17-.186-.112-.33-.272-.43-.483-.1-.21-.15-.455-.15-.736 0-.436.108-.775.326-1.02s.52-.364.908-.364c.375 0 .672.125.892.373.222.25.332.585.332 1.01zm-2.038 0c0 .343.068.603.205.782.137.18.338.268.603.268s.467-.09.604-.267c.137-.18.206-.44.206-.782 0-.34-.07-.598-.206-.774-.138-.177-.34-.266-.61-.266-.264 0-.464.088-.6.262s-.202.433-.202.78zM73.823 56.05l-1.016-2.675h.435l.577 1.587c.13.37.205.612.228.723h.02c.018-.086.074-.265.17-.536.095-.272.31-.863.64-1.774h.436l-1.016 2.676h-.475zM76.872 56.1c-.396 0-.707-.12-.936-.362-.23-.24-.344-.575-.344-1.004 0-.43.106-.773.32-1.027.21-.254.496-.38.854-.38.335 0 .6.11.796.33s.293.51.293.872v.256H76.01c.01.314.09.553.24.716.15.162.36.244.635.244.288 0 .573-.06.854-.182v.36c-.144.063-.28.107-.407.135-.126.026-.28.04-.46.04zm-.11-2.434c-.215 0-.387.07-.514.21-.128.14-.203.333-.227.58h1.4c0-.255-.058-.45-.17-.587-.114-.137-.277-.204-.488-.204zM79.767 53.326c.12 0 .226.01.32.03l-.057.375c-.11-.023-.208-.035-.293-.035-.216 0-.4.088-.556.264-.152.175-.23.394-.23.655v1.436h-.404v-2.675h.335l.047.496h.02c.1-.174.22-.308.36-.402.14-.095.293-.142.46-.142zM63.954 57.48h1.008c.474 0 .816.072 1.028.213.21.143.317.366.317.672 0 .212-.06.386-.177.523-.118.138-.29.227-.516.268v.024c.542.093.813.378.813.854 0 .32-.108.568-.323.747-.216.18-.518.27-.905.27h-1.246v-3.57zm.415 1.53h.683c.293 0 .504-.046.632-.138s.193-.247.193-.466c0-.2-.072-.344-.215-.433s-.37-.134-.684-.134h-.61v1.17zm0 .35v1.337h.744c.288 0 .505-.057.65-.168.146-.112.22-.287.22-.524 0-.222-.075-.384-.225-.488-.15-.104-.376-.156-.68-.156h-.71zM67.538 61.05h-.405v-3.798h.405v3.8zM68.78 58.375v1.736c0 .22.05.382.148.49s.255.16.466.16c.28 0 .484-.077.614-.23.13-.153.194-.403.194-.75v-1.406h.405v2.676h-.334l-.06-.36h-.02c-.084.134-.2.234-.346.304-.147.07-.315.105-.504.105-.326 0-.57-.078-.73-.233-.163-.154-.244-.4-.244-.742v-1.75h.41zM72.597 61.1c-.396 0-.708-.12-.936-.362-.228-.24-.342-.575-.342-1.004 0-.43.106-.773.32-1.027.21-.254.497-.38.854-.38.335 0 .6.11.796.33s.293.51.293.872v.256H71.74c.008.314.087.553.238.716.15.162.363.244.636.244.288 0 .573-.06.854-.182v.36c-.143.063-.28.107-.407.135-.128.026-.282.04-.463.04zm-.11-2.434c-.215 0-.386.07-.514.21-.128.14-.203.333-.226.58h1.4c0-.255-.058-.45-.172-.587s-.276-.204-.488-.204zM75.136 60.765c.07 0 .14-.006.207-.017.067-.01.12-.02.16-.032v.31c-.045.02-.11.04-.195.053-.085.013-.162.02-.23.02-.518 0-.776-.272-.776-.818V58.69h-.384v-.195l.384-.168.17-.57h.235v.62h.776v.313h-.776v1.575c0 .16.038.285.114.37.078.086.183.13.316.13zM78.346 59.71c0 .437-.11.777-.33 1.022s-.522.367-.91.367c-.24 0-.45-.058-.637-.17-.187-.112-.33-.272-.43-.483-.103-.21-.152-.455-.152-.736 0-.436.108-.775.327-1.02.218-.242.52-.364.908-.364.374 0 .672.125.892.373.22.25.33.585.33 1.01zm-2.038 0c0 .343.068.603.205.782.137.18.338.268.603.268.266 0 .467-.09.604-.267.138-.18.206-.44.206-.782 0-.34-.068-.598-.206-.774s-.34-.266-.61-.266c-.264 0-.464.088-.6.262-.134.173-.202.433-.202.78zM81.367 59.71c0 .437-.11.777-.33 1.022s-.523.367-.91.367c-.24 0-.452-.058-.638-.17-.187-.112-.33-.272-.43-.483-.102-.21-.152-.455-.152-.736 0-.436.11-.775.327-1.02.22-.242.52-.364.908-.364.375 0 .672.125.893.373.22.25.33.585.33 1.01zm-2.04 0c0 .343.07.603.206.782.137.18.338.268.604.268.265 0 .467-.09.604-.267.138-.18.207-.44.207-.782 0-.34-.07-.598-.206-.774-.137-.177-.34-.266-.608-.266-.266 0-.466.088-.6.262-.137.173-.204.433-.204.78zM82.94 60.765c.073 0 .142-.006.21-.017.065-.01.118-.02.157-.032v.31c-.044.02-.108.04-.194.053-.085.013-.162.02-.23.02-.518 0-.776-.272-.776-.818V58.69h-.383v-.195l.383-.168.17-.57h.235v.62h.776v.313h-.776v1.575c0 .16.038.285.115.37.076.086.18.13.314.13zM85.674 61.05v-1.73c0-.218-.05-.38-.15-.487-.098-.107-.254-.162-.465-.162-.283 0-.488.078-.617.23-.13.153-.194.404-.194.753v1.398h-.406v-3.798h.405v1.15c0 .138-.008.253-.02.344h.023c.08-.13.193-.23.34-.304.147-.074.315-.11.505-.11.327 0 .572.077.736.232.163.155.245.402.245.74v1.746h-.406z"/>
    </g>
    <path fill="#67A9DC" d="M90.36 115.43c0-1.56 1.276-2.835 2.835-2.835h52.72c1.56 0 2.836 1.276 2.836 2.835v6.615c0 1.56-1.275 2.835-2.834 2.835H93.194c-1.56 0-2.835-1.276-2.835-2.835v-6.615z"/>
    <path fill="#83BBE6" d="M90.36 111.43c0-1.56 1.276-2.835 2.835-2.835h52.72c1.56 0 2.836 1.276 2.836 2.835v6.615c0 1.56-1.275 2.835-2.834 2.835H93.194c-1.56 0-2.835-1.276-2.835-2.835v-6.615z"/>
    <path fill="#83BBE6" d="M90.36 116.737h58.39v10.142H90.36z"/>
    <g fill="#FFF">
        <path d="M109.593 114.214c0 .434-.148.768-.444 1-.297.234-.72.35-1.27.35h-.505v1.686h-.498v-4.283h1.11c1.07 0 1.606.415 1.606 1.247zm-2.218.922h.448c.44 0 .76-.07.958-.214s.297-.37.297-.686c0-.283-.093-.494-.278-.633s-.476-.208-.868-.208h-.557v1.74zM111.772 117.307c-.475 0-.85-.145-1.124-.434s-.41-.69-.41-1.204c0-.52.126-.93.38-1.234s.6-.457 1.028-.457c.402 0 .72.132.955.395.235.266.353.614.353 1.048v.308h-2.212c.01.378.105.664.286.86s.436.292.764.292c.346 0 .688-.072 1.025-.217v.434c-.172.073-.335.127-.488.158-.153.034-.338.05-.555.05zm-.132-2.92c-.258 0-.464.083-.617.25s-.243.4-.27.698h1.678c0-.307-.067-.54-.204-.704s-.332-.244-.586-.244zM115.276 113.985c.422 0 .75.145.982.432.233.29.35.696.35 1.224s-.117.94-.353 1.23-.562.438-.98.438c-.208 0-.4-.04-.572-.115-.173-.077-.317-.196-.435-.356h-.035l-.103.413h-.35v-4.56h.487v1.108c0 .248-.008.47-.023.668h.023c.228-.32.564-.48 1.01-.48zm-.07.407c-.332 0-.57.095-.718.286-.146.19-.22.51-.22.962s.075.774.226.968c.15.195.392.292.724.292.3 0 .52-.108.668-.327.146-.217.22-.53.22-.938 0-.418-.073-.73-.22-.935s-.374-.308-.68-.308zM118.953 113.985c.422 0 .75.145.982.432.233.29.35.696.35 1.224s-.117.94-.353 1.23-.562.438-.98.438c-.208 0-.4-.04-.572-.115-.173-.077-.317-.196-.435-.356h-.035l-.103.413h-.35v-4.56h.487v1.108c0 .248-.008.47-.023.668h.024c.228-.32.564-.48 1.01-.48zm-.07.407c-.332 0-.57.095-.718.286-.146.19-.22.51-.22.962s.075.774.226.968c.15.195.393.292.725.292.3 0 .52-.108.668-.327.146-.217.22-.53.22-.938 0-.418-.073-.73-.22-.935s-.374-.308-.68-.308zM121.622 117.25h-.486v-4.56h.486v4.56zM124.01 117.307c-.475 0-.85-.145-1.124-.434s-.41-.69-.41-1.204c0-.52.126-.93.38-1.234s.6-.457 1.028-.457c.402 0 .72.132.955.395.233.266.35.614.35 1.048v.308h-2.21c.01.378.103.664.284.86s.436.292.764.292c.346 0 .688-.072 1.025-.217v.434c-.172.073-.335.127-.488.158-.154.034-.34.05-.555.05zm-.132-2.92c-.258 0-.464.083-.617.25s-.242.4-.27.698h1.68c0-.307-.07-.54-.206-.704s-.332-.244-.586-.244zM129.186 117.25h-.586l-1.562-2.078-.448.398v1.68h-.498v-4.284h.498v2.124l1.942-2.124h.59l-1.724 1.86 1.788 2.423zM129.66 113.168c0-.11.028-.192.083-.245.055-.05.123-.077.205-.077.078 0 .146.026.202.08s.085.133.085.242-.028.19-.085.245-.124.08-.202.08c-.082 0-.15-.026-.205-.08s-.082-.136-.082-.245zm.528 4.08h-.486v-3.21h.486v3.21zM132.257 116.906c.086 0 .17-.006.25-.02s.143-.025.19-.04v.373c-.054.024-.132.045-.234.06s-.194.026-.276.026c-.62 0-.932-.327-.932-.98v-1.91h-.46v-.235l.46-.2.205-.687h.28v.744h.933v.378h-.932v1.89c0 .193.047.342.14.445s.216.156.377.156zM105.78 123.25l-.532-1.363h-1.717l-.526 1.362h-.504l1.693-4.302h.42l1.684 4.3h-.516zm-.687-1.812l-.498-1.327c-.064-.167-.13-.373-.2-.617-.042.188-.103.394-.184.618l-.503 1.328h1.386zM109.01 123.25v-2.078c0-.262-.06-.457-.18-.586s-.305-.193-.56-.193c-.335 0-.58.09-.737.272s-.234.48-.234.9v1.684h-.487v-3.212h.396l.078.44h.023c.1-.16.24-.28.42-.368s.38-.13.6-.13c.388 0 .68.093.874.278.195.188.293.485.293.896v2.095h-.487zM112.68 122.818h-.026c-.225.326-.56.49-1.008.49-.42 0-.747-.145-.98-.432s-.35-.695-.35-1.225.117-.94.352-1.232.56-.44.98-.44c.435 0 .77.16 1 .476h.04l-.022-.23-.012-.227v-1.307h.486v4.56h-.396l-.064-.432zm-.972.082c.332 0 .572-.09.722-.27s.225-.474.225-.876v-.103c0-.454-.076-.778-.228-.973s-.393-.292-.725-.292c-.285 0-.504.11-.655.333s-.227.534-.227.938c0 .41.075.72.226.93s.37.314.662.314zM115.636 119.98c.143 0 .27.01.384.034l-.067.45c-.133-.028-.25-.043-.352-.043-.26 0-.48.106-.666.317s-.276.474-.276.788v1.723h-.486v-3.21h.4l.057.594h.022c.12-.21.263-.37.43-.483s.353-.17.554-.17zM119.392 121.64c0 .523-.132.933-.396 1.226-.264.295-.628.44-1.093.44-.287 0-.542-.066-.765-.2s-.395-.33-.516-.58-.182-.548-.182-.886c0-.523.13-.93.393-1.224.262-.29.625-.438 1.09-.438.45 0 .806.15 1.07.448s.4.705.4 1.214zm-2.446 0c0 .41.082.723.246.938s.405.322.724.322.56-.106.725-.32c.166-.214.25-.527.25-.94 0-.407-.084-.717-.25-.93-.164-.21-.407-.317-.73-.317-.317 0-.558.104-.72.313s-.244.52-.244.934zM120.204 119.168c0-.11.027-.192.082-.245.055-.05.123-.077.205-.077.08 0 .147.026.203.08s.085.133.085.242-.028.19-.085.245-.124.08-.202.08c-.08 0-.15-.026-.204-.08s-.082-.136-.082-.245zm.527 4.08h-.485v-3.21h.486v3.21zM123.948 122.818h-.026c-.225.326-.56.49-1.008.49-.42 0-.747-.145-.98-.432s-.35-.695-.35-1.225.117-.94.352-1.232.56-.44.98-.44c.435 0 .77.16 1 .476h.04l-.022-.23-.012-.227v-1.307h.486v4.56h-.396l-.064-.432zm-.973.082c.332 0 .572-.09.722-.27s.225-.474.225-.876v-.103c0-.454-.076-.778-.228-.973s-.393-.292-.725-.292c-.286 0-.505.11-.656.333s-.227.534-.227.938c0 .41.075.72.226.93s.37.314.662.314zM127.065 118.966l-1.597 4.283h-.486l1.597-4.284h.485zM127.6 119.168c0-.11.028-.192.083-.245.055-.05.123-.077.205-.077.078 0 .146.026.202.08s.085.133.085.242-.028.19-.085.245-.124.08-.202.08c-.082 0-.15-.026-.205-.08s-.082-.136-.082-.245zm.53 4.08h-.487v-3.21h.486v3.21zM132.95 121.1c0 .687-.173 1.226-.52 1.618s-.828.59-1.445.59c-.63 0-1.118-.193-1.46-.58s-.515-.93-.515-1.633c0-.697.172-1.237.516-1.622.344-.383.832-.575 1.465-.575.616 0 1.097.195 1.442.586s.52.93.52 1.617zm-3.412 0c0 .58.123 1.022.37 1.32.247.3.606.45 1.077.45.475 0 .833-.15 1.075-.448s.363-.74.363-1.32c0-.577-.12-1.014-.362-1.313-.24-.298-.597-.447-1.07-.447-.474 0-.835.15-1.082.45s-.37.736-.37 1.308zM136.323 122.11c0 .376-.137.67-.41.88s-.645.317-1.113.317c-.508 0-.898-.065-1.172-.196v-.48c.176.075.367.134.574.177s.412.064.615.064c.332 0 .582-.062.75-.187.168-.127.252-.302.252-.526 0-.148-.03-.27-.09-.364s-.16-.183-.3-.263-.352-.17-.637-.272c-.398-.143-.684-.312-.854-.507s-.257-.45-.257-.764c0-.33.124-.593.372-.788s.576-.293.984-.293c.425 0 .816.078 1.174.234l-.155.433c-.355-.148-.698-.223-1.032-.223-.264 0-.47.057-.618.17s-.223.27-.223.472c0 .148.027.27.082.365s.145.182.275.26c.13.08.33.167.597.263.45.16.758.332.927.516s.253.42.253.713z"/>
    </g>
    <path fill="#4278A7" d="M90.36 186.595h58.39v.398H90.36zM90.36 150.71h58.39v.397H90.36zM90.36 174.71h58.39v.17H90.36z"/>
    <path fill="none" d="M119.376 34.433h16.013v45.243h-16.014zM126.652 31.38c.368 0 .666-.55.666-1.23s-.3-1.228-.666-1.228h-7.276v2.458h7.276zM119.378 90.826c1.79 0 3.25-1.46 3.25-3.257 0-1.798-1.46-3.252-3.25-3.252h-.003v6.508h.003z"/>
    <path fill="#67A9DC" d="M134.11 25.824h-14.735v3.098h7.276c.37 0 .667.55.667 1.228s-.3 1.23-.666 1.23h-7.275v3.052h16.013v45.243h-16.013v4.643h.003c1.79 0 3.25 1.455 3.25 3.25 0 1.798-1.46 3.258-3.25 3.258h-.003v5.036h14.734c2.814 0 5.096-2.284 5.096-5.097v-59.84c0-2.814-2.28-5.1-5.097-5.1z"/>
    <path fill="#4278A7" d="M116.124 87.57c0 1.796 1.46 3.255 3.252 3.256v-6.508c-1.793.002-3.252 1.456-3.252 3.252zM111.44 30.15c0 .68.295 1.23.665 1.23h7.27v-2.458h-7.27c-.37 0-.664.55-.664 1.228z"/>
    <path fill="#83BBE6" d="M116.124 87.57c0-1.796 1.46-3.25 3.252-3.25v-4.644h-16.01V34.433h16.01V31.38h-7.27c-.37 0-.665-.55-.665-1.23s.295-1.228.665-1.228h7.27v-3.098h-14.733c-2.82 0-5.097 2.287-5.097 5.102v59.84c0 2.812 2.277 5.096 5.097 5.096h14.734v-5.036c-1.793 0-3.252-1.46-3.252-3.256z"/>
    <path fill="#E6E326" d="M122.834 47.04c-.015-1.5 1.222-2.218 1.278-2.254-.695-1.017-1.778-1.157-2.164-1.173-.922-.093-1.798.543-2.266.543-.467 0-1.188-.53-1.953-.515-1.006.016-1.932.585-2.45 1.485-1.043 1.81-.266 4.494.75 5.963.498.72 1.09 1.527 1.87 1.498.748-.03 1.032-.485 1.938-.485.906 0 1.16.486 1.954.47.807-.014 1.317-.732 1.81-1.453.572-.834.807-1.642.82-1.683-.018-.007-1.572-.603-1.588-2.394zm-1.49-4.398c.413-.5.692-1.196.616-1.89-.595.024-1.316.396-1.743.896-.383.444-.718 1.152-.63 1.83.665.053 1.343-.336 1.757-.836z"/>
    <g fill="#E6E326">
        <path d="M115.487 63.472h-.03c-.37 0-.673.303-.673.674v2.933c0 .37.303.673.674.673h.03c.37 0 .673-.303.673-.674v-2.934c0-.37-.302-.674-.673-.674zM116.483 68.21c0 .34.278.618.62.618h.66v1.584c0 .372.303.675.674.675h.03c.37 0 .674-.303.674-.675v-1.584h.925v1.584c0 .372.304.675.675.675h.028c.372 0 .674-.303.674-.675v-1.584h.662c.34 0 .62-.277.62-.618v-4.63h-6.24v4.63zM121.157 60.77l.525-.81c.034-.05.02-.12-.033-.154-.052-.034-.122-.02-.155.033l-.545.838c-.41-.167-.865-.262-1.347-.262s-.938.094-1.348.262l-.544-.84c-.032-.052-.103-.066-.154-.032-.052.033-.067.103-.033.154l.526.81c-.95.466-1.588 1.34-1.588 2.346 0 .062.004.123.01.183h6.263c.005-.06.01-.122.01-.184 0-1.004-.64-1.88-1.588-2.345zm-3.006 1.454c-.165 0-.3-.134-.3-.3s.134-.302.3-.302c.168 0 .303.134.303.3s-.135.302-.302.302zm2.906 0c-.166 0-.302-.134-.302-.3s.135-.302.302-.302c.167 0 .3.134.3.3s-.134.302-.3.302zM123.748 63.472h-.028c-.37 0-.675.303-.675.674v2.933c0 .37.304.673.675.673h.028c.372 0 .674-.303.674-.674v-2.934c0-.37-.303-.674-.674-.674z"/>
    </g>
    <path fill="#4278A7" d="M179.36 11.595h58.39v.398h-58.39z"/>
    <g fill="#356282">
        <path d="M200.995 123.154h-.492l-.864-2.868c-.042-.127-.088-.287-.14-.48s-.076-.31-.078-.35c-.043.26-.11.54-.205.848l-.838 2.85h-.493l-1.14-4.282h.527l.677 2.646c.095.37.163.707.206 1.008.053-.357.13-.707.234-1.05l.768-2.603h.527l.806 2.628c.095.304.174.646.238 1.026.037-.277.107-.615.21-1.014l.675-2.64h.527l-1.145 4.282zM204.094 123.213c-.475 0-.85-.145-1.124-.434s-.41-.69-.41-1.205c0-.518.126-.93.38-1.233s.6-.457 1.028-.457c.402 0 .72.133.955.396.234.267.352.615.352 1.05v.307h-2.212c.01.377.104.663.285.858s.436.293.764.293c.346 0 .688-.072 1.025-.217v.435c-.172.074-.335.128-.488.16-.154.032-.34.048-.556.048zm-.13-2.92c-.26 0-.465.083-.618.25s-.243.4-.27.698h1.678c0-.306-.068-.54-.205-.703s-.333-.245-.587-.245zM208.08 123.154l-.098-.457h-.023c-.16.2-.32.338-.48.408-.16.07-.357.107-.596.107-.318 0-.568-.082-.75-.246s-.27-.397-.27-.7c0-.648.52-.988 1.556-1.02l.545-.018v-.2c0-.25-.055-.437-.163-.557-.108-.12-.28-.18-.52-.18-.268 0-.57.082-.908.246l-.15-.372c.16-.086.332-.153.52-.202s.38-.073.568-.073c.383 0 .666.084.85.254s.278.442.278.817v2.192h-.36zm-1.1-.343c.303 0 .54-.082.713-.248s.26-.398.26-.697v-.29l-.486.02c-.387.015-.666.075-.837.18-.17.108-.256.273-.256.498 0 .176.053.31.16.4s.255.138.446.138zM210.478 122.81c.086 0 .17-.005.25-.018s.143-.026.19-.04v.372c-.054.025-.132.046-.234.062s-.194.025-.276.025c-.62 0-.932-.326-.932-.98v-1.91h-.46v-.234l.46-.202.205-.686h.282v.744h.932v.378h-.932v1.89c0 .193.046.342.138.445s.218.156.378.156zM213.757 123.154v-2.077c0-.262-.06-.457-.18-.586s-.305-.192-.56-.192c-.337 0-.584.092-.74.275s-.23.484-.23.902v1.68h-.487v-4.56h.486v1.38c0 .166-.008.304-.023.413h.03c.095-.154.23-.275.407-.365.177-.088.38-.133.605-.133.393 0 .687.094.883.28.196.187.295.482.295.89v2.094h-.486zM216.598 123.213c-.475 0-.85-.145-1.124-.434s-.41-.69-.41-1.205c0-.518.126-.93.38-1.233s.6-.457 1.028-.457c.402 0 .72.133.955.396.234.267.352.615.352 1.05v.307h-2.213c.01.377.104.663.285.858s.436.293.764.293c.346 0 .688-.072 1.025-.217v.435c-.17.074-.334.128-.487.16-.153.032-.338.048-.555.048zm-.13-2.92c-.26 0-.465.083-.618.25s-.243.4-.27.698h1.678c0-.306-.068-.54-.205-.703s-.333-.245-.586-.245zM220.073 119.885c.143 0 .27.012.384.035l-.067.45c-.133-.028-.25-.043-.352-.043-.26 0-.482.105-.667.316s-.275.474-.275.788v1.724h-.486v-3.21h.4l.056.594h.023c.118-.21.262-.37.43-.483s.352-.17.553-.17z"/>
    </g>
    <g fill="#4278A7">
        <path d="M205.598 6.934h-.738l-1.296-4.303c-.062-.188-.13-.43-.207-.72-.076-.29-.115-.464-.118-.522-.065.387-.168.81-.31 1.27l-1.256 4.276h-.738L199.226.51h.79l1.017 3.967c.14.558.243 1.062.308 1.512.08-.536.197-1.06.353-1.573l1.15-3.907h.792l1.208 3.942c.14.454.26.967.356 1.537.055-.416.16-.923.315-1.52l1.01-3.96h.792l-1.72 6.424zM210.248 7.022c-.712 0-1.273-.217-1.685-.65-.412-.434-.618-1.035-.618-1.807 0-.775.19-1.393.574-1.85.38-.457.895-.686 1.54-.686.603 0 1.08.197 1.432.595.352.396.527.92.527 1.57v.462h-3.32c.016.565.158.995.43 1.288.27.293.652.44 1.145.44.52 0 1.03-.11 1.538-.327v.65c-.258.112-.502.19-.73.24-.233.05-.51.074-.835.074zm-.197-4.38c-.386 0-.694.125-.924.376-.23.253-.366.602-.407 1.047h2.518c0-.46-.103-.812-.308-1.058-.206-.244-.5-.366-.88-.366zM215.504 2.04c.633 0 1.124.215 1.475.647.35.432.524 1.044.524 1.835s-.177 1.405-.53 1.843c-.353.438-.843.657-1.47.657-.313 0-.6-.058-.86-.174-.258-.115-.476-.293-.65-.533h-.054l-.153.62h-.523V.094h.73v1.662c0 .372-.013.706-.036 1.002h.035c.34-.48.843-.72 1.51-.72zm-.106.61c-.498 0-.856.143-1.076.428-.22.286-.33.767-.33 1.444 0 .676.113 1.16.34 1.452.225.29.586.437 1.084.437.448 0 .782-.162 1.002-.488.22-.327.33-.796.33-1.41 0-.625-.11-1.093-.33-1.4s-.56-.463-1.02-.463z"/>
    </g>
    <g fill="#356282">
        <path d="M203.538 134.053c0 .377-.137.67-.41.882s-.645.316-1.113.316c-.508 0-.898-.064-1.172-.195v-.48c.176.074.367.133.574.176s.412.065.615.065c.332 0 .582-.063.75-.188.168-.127.252-.302.252-.526 0-.147-.03-.27-.09-.363s-.16-.183-.3-.263-.35-.17-.636-.272c-.398-.143-.684-.312-.854-.507s-.256-.45-.256-.765c0-.33.124-.593.372-.788s.576-.293.984-.293c.426 0 .817.077 1.175.233l-.156.434c-.354-.148-.697-.223-1.03-.223-.265 0-.47.057-.62.17s-.222.27-.222.472c0 .148.027.27.082.365s.146.183.276.26c.13.08.33.168.597.264.45.16.758.332.927.516s.254.42.254.713zM207.112 133.585c0 .523-.132.933-.396 1.226-.264.296-.628.442-1.093.442-.287 0-.542-.067-.765-.202s-.395-.328-.516-.58-.182-.547-.182-.885c0-.523.13-.93.393-1.224.262-.29.625-.437 1.09-.437.45 0 .806.15 1.07.448s.4.705.4 1.215zm-2.446 0c0 .41.082.723.246.938s.405.322.724.322.56-.106.725-.32c.166-.214.25-.527.25-.94 0-.407-.084-.717-.25-.93-.164-.21-.407-.317-.73-.317-.317 0-.558.104-.72.313s-.244.52-.244.935zM209.248 135.252c-.465 0-.825-.143-1.08-.43-.255-.285-.382-.69-.382-1.214 0-.537.13-.952.388-1.245s.628-.44 1.106-.44c.154 0 .31.018.463.05s.275.073.363.118l-.15.414c-.106-.043-.224-.078-.35-.107-.128-.027-.24-.042-.338-.042-.652 0-.98.416-.98 1.248 0 .395.08.697.24.908s.395.317.707.317c.268 0 .542-.058.823-.173v.43c-.214.112-.484.168-.81.168zM210.78 131.112c0-.11.027-.192.082-.245.055-.05.123-.077.205-.077.078 0 .146.026.202.08s.084.133.084.242-.028.19-.085.245-.125.08-.203.08c-.082 0-.15-.026-.205-.08s-.082-.136-.082-.245zm.527 4.08h-.486v-3.21h.487v3.21zM214.313 135.193l-.097-.457h-.023c-.16.2-.32.338-.48.408-.158.07-.356.107-.595.107-.318 0-.568-.08-.75-.245s-.27-.397-.27-.7c0-.648.52-.988 1.556-1.02l.545-.018v-.2c0-.25-.056-.437-.164-.557-.108-.12-.28-.18-.52-.18-.268 0-.57.08-.908.245l-.15-.372c.16-.086.332-.153.52-.202s.38-.072.568-.072c.383 0 .666.085.85.255s.278.442.278.817v2.19h-.36zm-1.098-.343c.303 0 .54-.083.713-.25s.26-.397.26-.696v-.29l-.486.02c-.387.015-.666.075-.837.18-.17.108-.256.273-.256.498 0 .176.052.31.158.4s.255.138.447.138zM216.162 135.193h-.486v-4.56h.486v4.56z"/>
    </g>
    <g fill="#356282">
        <path d="M197.977 145.048c0 .707-.192 1.248-.576 1.622s-.935.56-1.655.56h-1.187v-4.282h1.312c.666 0 1.184.185 1.553.554s.554.883.554 1.546zm-.527.017c0-.56-.14-.98-.42-1.263s-.697-.425-1.25-.425h-.724v3.422h.606c.594 0 1.04-.147 1.34-.44.3-.29.448-.723.448-1.295zM200.834 147.23l-.097-.457h-.023c-.16.2-.32.338-.48.408-.158.072-.356.108-.595.108-.32 0-.57-.082-.75-.246s-.27-.397-.27-.7c0-.648.518-.988 1.555-1.02l.545-.018v-.2c0-.25-.055-.437-.163-.557-.108-.12-.28-.18-.52-.18-.268 0-.57.08-.908.245l-.15-.372c.158-.086.33-.153.52-.202s.378-.073.567-.073c.383 0 .666.085.85.255s.278.442.278.817v2.19h-.36zm-1.1-.343c.304 0 .54-.083.714-.25s.26-.397.26-.696v-.29l-.486.022c-.387.014-.666.074-.837.18-.17.107-.256.272-.256.497 0 .175.052.31.158.4s.256.137.447.137zM203.233 146.887c.086 0 .17-.006.25-.02s.143-.025.19-.04v.373c-.054.025-.132.046-.234.062s-.195.025-.277.025c-.62 0-.932-.327-.932-.98v-1.91h-.46v-.235l.46-.202.206-.686h.28v.744h.933v.378h-.933v1.89c0 .193.046.342.138.445s.218.157.378.157zM206.29 147.23l-.098-.457h-.023c-.16.2-.32.338-.48.408-.16.072-.357.108-.596.108-.318 0-.568-.082-.75-.246s-.27-.397-.27-.7c0-.648.52-.988 1.556-1.02l.545-.018v-.2c0-.25-.055-.437-.163-.557-.108-.12-.28-.18-.52-.18-.268 0-.57.08-.908.245l-.15-.372c.16-.086.332-.153.52-.202s.38-.073.568-.073c.383 0 .666.085.85.255s.278.442.278.817v2.19h-.36zm-1.1-.343c.303 0 .54-.083.713-.25s.26-.397.26-.696v-.29l-.486.022c-.387.014-.666.074-.837.18-.17.107-.256.272-.256.497 0 .175.053.31.16.4s.255.137.446.137zM209.145 143.967c.422 0 .75.145.982.432.233.288.35.695.35 1.223s-.117.938-.353 1.23-.562.437-.98.437c-.208 0-.4-.04-.572-.115-.173-.077-.317-.196-.435-.356h-.035l-.102.41h-.35v-4.56h.487v1.108c0 .248-.008.47-.023.668h.023c.227-.32.563-.48 1.008-.48zm-.07.407c-.332 0-.57.095-.718.286-.146.19-.22.51-.22.962s.075.774.226.968c.15.195.392.292.724.292.3 0 .52-.108.668-.327.146-.217.22-.53.22-.938 0-.418-.073-.73-.22-.935s-.373-.308-.68-.308zM213.303 147.23l-.097-.457h-.023c-.16.2-.32.338-.48.408-.158.072-.356.108-.595.108-.318 0-.568-.082-.75-.246s-.27-.397-.27-.7c0-.648.52-.988 1.556-1.02l.545-.018v-.2c0-.25-.056-.437-.164-.557-.108-.12-.28-.18-.52-.18-.268 0-.57.08-.908.245l-.15-.372c.16-.086.332-.153.52-.202s.38-.073.568-.073c.383 0 .666.085.85.255s.278.442.278.817v2.19h-.36zm-1.1-.343c.304 0 .54-.083.714-.25s.26-.397.26-.696v-.29l-.486.022c-.386.014-.665.074-.836.18-.17.107-.256.272-.256.497 0 .175.053.31.16.4s.254.137.446.137zM216.736 146.354c0 .3-.11.53-.334.69s-.535.244-.938.244c-.426 0-.758-.067-.996-.202v-.45c.154.077.32.14.496.184s.348.067.512.067c.254 0 .45-.04.586-.122.137-.08.205-.204.205-.37 0-.125-.055-.23-.163-.32-.108-.09-.32-.194-.634-.315-.3-.11-.512-.208-.638-.29s-.22-.18-.28-.284-.093-.23-.093-.378c0-.262.105-.468.318-.62.213-.15.505-.227.876-.227.346 0 .684.07 1.014.212l-.173.396c-.322-.133-.614-.2-.876-.2-.23 0-.405.037-.522.11s-.176.17-.176.298c0 .086.02.16.065.22s.115.118.213.173.285.133.562.236c.38.14.638.278.77.42s.204.315.204.528zM218.884 147.29c-.475 0-.85-.146-1.124-.435s-.41-.69-.41-1.204c0-.517.126-.928.38-1.232s.6-.457 1.028-.457c.402 0 .72.134.955.397.234.266.352.614.352 1.048v.308h-2.212c.01.377.104.663.285.858s.436.294.764.294c.346 0 .688-.072 1.025-.217v.434c-.172.075-.335.13-.488.16-.155.033-.34.05-.556.05zm-.132-2.922c-.258 0-.464.084-.617.252s-.243.4-.27.697h1.678c0-.307-.068-.54-.205-.704s-.332-.245-.586-.245zM222.965 146.354c0 .3-.11.53-.334.69s-.534.244-.937.244c-.426 0-.758-.067-.996-.202v-.45c.154.077.32.14.496.184s.348.067.512.067c.254 0 .45-.04.586-.122.138-.08.206-.204.206-.37 0-.125-.055-.23-.163-.32-.108-.09-.32-.194-.634-.315-.3-.11-.513-.208-.64-.29s-.22-.18-.28-.284-.092-.23-.092-.378c0-.262.106-.468.32-.62.212-.15.504-.227.875-.227.346 0 .684.07 1.014.212l-.173.396c-.322-.133-.614-.2-.876-.2-.23 0-.404.037-.52.11s-.177.17-.177.298c0 .086.022.16.066.22s.115.118.213.173.284.133.56.236c.382.14.64.278.772.42s.203.315.203.528z"/>
    </g>
    <g fill="#356282">
        <path d="M204.886 159.27v-4.284h.498v4.283h-.498zM209.257 157.66c0 .524-.132.934-.396 1.227-.263.295-.627.44-1.092.44-.287 0-.542-.066-.765-.2s-.395-.33-.516-.58-.182-.548-.182-.886c0-.522.13-.93.393-1.223.262-.29.625-.438 1.09-.438.45 0 .806.148 1.07.447s.4.704.4 1.214zm-2.447 0c0 .41.082.724.246.94s.405.32.724.32.56-.105.725-.32c.165-.213.248-.526.248-.938 0-.408-.083-.718-.248-.93-.165-.212-.408-.318-.73-.318-.318 0-.56.104-.72.313s-.245.52-.245.934zM211.5 159.27h-.497v-3.842h-1.356v-.442h3.21v.442h-1.355v3.84z"/>
    </g>
    <g fill="#356282">
        <path d="M206.604 169.638c0-.13.03-.23.09-.297.06-.067.145-.1.256-.1.113 0 .2.032.265.1.063.067.096.167.096.298 0 .127-.03.225-.096.293s-.152.104-.264.104c-.1 0-.183-.03-.248-.093-.066-.06-.098-.16-.098-.302zM208.2 169.638c0-.13.03-.23.09-.297.06-.067.146-.1.257-.1.113 0 .2.032.265.1.063.067.096.167.096.298 0 .127-.032.225-.097.293s-.15.104-.263.104c-.1 0-.183-.03-.248-.093-.067-.06-.1-.16-.1-.302zM209.798 169.638c0-.13.03-.23.09-.297.06-.067.145-.1.256-.1.113 0 .2.032.265.1.062.067.095.167.095.298 0 .127-.032.225-.097.293s-.152.104-.264.104c-.1 0-.183-.03-.248-.093-.066-.06-.098-.16-.098-.302z"/>
    </g>
    <path fill="#4278A7" d="M179.36 114.595h58.39v.398h-58.39zM179.36 126.71h58.39v.17h-58.39zM179.36 138.71h58.39v.17h-58.39zM179.36 150.71h58.39v.17h-58.39zM179.36 162.71h58.39v.17h-58.39zM179.36 174.595h58.39v.398h-58.39z"/>
    <path fill="none" stroke="#4278A7" stroke-width=".5" stroke-miterlimit="10" d="M59.454 65.882h29.698"/>
    <path fill="#4278A7" d="M88.787 67.128l2.16-1.246-2.16-1.247"/>
    <g>
        <path fill="none" stroke="#4278A7" stroke-width=".5" stroke-miterlimit="10" d="M90.946 70.882H61.248"/>
        <path fill="#4278A7" d="M61.612 69.635l-2.158 1.247 2.158 1.246"/>
    </g>
    <g>
        <path fill="none" stroke="#4278A7" stroke-width=".5" stroke-miterlimit="10" d="M147.454 65.882h29.698"/>
        <path fill="#4278A7" d="M176.787 67.128l2.16-1.246-2.16-1.247"/>
    </g>
    <g>
        <path fill="none" stroke="#4278A7" stroke-width=".5" stroke-miterlimit="10" d="M178.946 70.882h-29.698"/>
        <path fill="#4278A7" d="M149.612 69.635l-2.158 1.247 2.158 1.246"/>
    </g>
    <path fill="#83BBE6" d="M208.82 26.82c-4.9 0-9.078 3.347-10.227 7.983-5.7.128-10.298 4.805-10.298 10.536 0 5.81 4.728 10.538 10.54 10.538h9.238l1.482.004V26.856c-.244-.017-.488-.035-.735-.035z"/>
    <path fill="#67A9DC" d="M210.03 26.82c4.9 0 9.078 3.347 10.227 7.983 5.7.128 10.298 4.805 10.298 10.536 0 5.81-4.728 10.538-10.54 10.538h-9.238l-1.482.004V26.856c.244-.017.488-.035.735-.035z"/>
    <g>
        <path fill="#FFF" d="M14.46 43.206h32.91v33.837H14.46z"/>
        <path fill="none" d="M38.093 47.167H21.506c-1.975 0-3.606 1.476-3.884 3.377v20.6c.278 1.9 1.91 3.376 3.884 3.376h16.587c1.975 0 3.606-1.476 3.884-3.377v-20.6c-.278-1.9-1.91-3.376-3.884-3.376z"/>
        <path fill="#4278A7" d="M41.977 29.766c0-2.168-1.774-3.942-3.942-3.942H21.563c-2.168 0-3.942 1.774-3.942 3.942v9.384h24.357v-9.384zM17.622 82.49v9.43c0 2.168 1.774 3.942 3.942 3.942h16.472c2.168 0 3.942-1.774 3.942-3.942v-9.43c.1-.01.193-.044.292-.06H17.343c.095.015.183.05.28.06z"/>
        <path fill="none" d="M38.093 74.52c1.975 0 3.606-1.476 3.884-3.377v-20.6c-.278-1.9-1.91-3.376-3.884-3.376h-8.287V74.52h8.287z"/>
        <path fill="#67A9DC" d="M51.154 56.738v-7.9h-.83c-.02-5.028-3.672-9.113-8.347-9.642v-.046h-12.17v8.016h8.286c1.975 0 3.606 1.476 3.884 3.377v20.6c-.278 1.9-1.91 3.376-3.884 3.376h-8.287v7.91H42.27c4.063-.598 7.283-3.877 7.92-8.1h.963v-7.9h-.825v-.896h.825v-7.9h-.825v-.897h.826z"/>
        <path fill="#83BBE6" d="M21.506 74.52c-1.975 0-3.606-1.476-3.884-3.377v-20.6c.278-1.9 1.91-3.376 3.884-3.376h8.3V39.15H17.622v.046c-4.675.53-8.327 4.614-8.348 9.64h-1.22v7.902H9.27v16.07c0 4.942 3.522 8.96 8.073 9.623h12.463v-7.91h-8.3z"/>
        <g fill="none" stroke="#E6E326" stroke-linecap="round" stroke-linejoin="round" stroke-miterlimit="10">
            <path d="M29.545 51.95v10.098M29.545 62.048l-4.252 4.25"/>
        </g>
    </g>
    <circle fill="#FFF" cx="209.295" cy="42.959" r="7.433"/>
    <path fill="#83BBE6" d="M200.16 66.988h-6.118c-.523-.943-1.53-1.582-2.68-1.582-1.69 0-3.066 1.375-3.066 3.065s1.375 3.066 3.065 3.066c1.153 0 2.16-.64 2.682-1.582h7.602c.82 0 1.483-.664 1.483-1.483v-4.548h-2.967v3.066z"/>
    <path fill="#4278A7" d="M227.75 65.406c-1.21 0-2.258.704-2.756 1.724h-6.045v-3.207h-2.967v4.69c0 .82.664 1.484 1.483 1.484h7.686c.543.864 1.504 1.44 2.598 1.44 1.69 0 3.065-1.374 3.065-3.064s-1.375-3.067-3.066-3.067z"/>
    <g>
        <path fill="#E6E326" d="M209.295 40.476c-1.37 0-2.482 1.114-2.482 2.482 0 1.37 1.113 2.482 2.482 2.482 1.368 0 2.482-1.113 2.482-2.482s-1.113-2.482-2.482-2.482zM209.295 39.747c-.268 0-.484-.217-.484-.484v-.775c0-.268.218-.484.485-.484.268 0 .484.217.484.484v.775c0 .267-.218.484-.485.484zM209.295 46.17c-.268 0-.484.217-.484.484v.775c0 .267.218.484.485.484.268 0 .484-.217.484-.485v-.776c0-.267-.218-.484-.485-.484zM211.566 40.687c-.19-.19-.19-.496 0-.685l.548-.548c.19-.19.496-.19.685 0 .188.19.188.496 0 .685l-.55.547c-.188.19-.495.19-.684 0zM207.024 45.23c-.19-.19-.496-.19-.685 0l-.55.548c-.188.19-.188.496 0 .685.19.19.497.19.686 0l.548-.548c.19-.19.19-.496 0-.685zM212.507 42.96c0-.27.217-.485.484-.485h.776c.268 0 .484.217.484.484s-.217.483-.484.483h-.775c-.266 0-.483-.217-.483-.484zM206.083 42.96c0-.27-.217-.485-.484-.485h-.776c-.268 0-.484.217-.484.484s.217.483.484.483h.775c.266 0 .483-.217.483-.484zM211.566 45.23c.19-.19.496-.19.685 0l.55.548c.188.19.188.496 0 .685-.19.19-.497.19-.686 0l-.548-.548c-.19-.19-.19-.496 0-.685zM207.024 40.687c.19-.19.19-.496 0-.685l-.548-.548c-.19-.19-.496-.19-.685 0-.188.19-.188.496 0 .685l.55.547c.188.19.495.19.684 0z"/>
    </g>
</svg>
