<svg xmlns="http://www.w3.org/2000/svg" viewBox="0 0 238.11 187.09">
    <path fill="#67A9DC" d="M207.812 54.632V89.77c-.943.524-1.582 1.53-1.582 2.682 0 1.69 1.375 3.065 3.065 3.065V54.632h-1.483zM212.36 92.452c0-1.152-.64-2.158-1.582-2.68V54.63h-1.483v40.886c1.69 0 3.065-1.375 3.065-3.066z"/>
    <path fill="#83BBE6" d="M200.16 53.35h2.968V64.74h-2.967z"/>
    <path fill="#4278A7" d="M215.982 53.35h2.966V64.74h-2.966zM103.964 28.922h32.575v61.904h-32.576z"/>
    <path fill="#FFF" d="M99.545 32.487h37.91V82.43h-37.91z"/>
    <g fill="#356282">
        <path d="M30.408 118.87v2.772c0 .488-.147.872-.442 1.15s-.7.42-1.216.42-.915-.14-1.197-.422-.423-.668-.423-1.16v-2.76h.498v2.795c0 .357.098.632.293.823s.483.287.862.287c.36 0 .64-.096.835-.288s.293-.47.293-.828v-2.79h.498zM31.54 123.154v-4.283h.5v4.284h-.5z"/>
    </g>
    <g fill="#356282">
        <path d="M18.457 135.193l-.533-1.362h-1.717l-.527 1.363h-.504l1.693-4.3h.418l1.685 4.3h-.516zm-.688-1.81l-.5-1.327c-.063-.168-.13-.374-.198-.618-.043.188-.104.394-.185.618l-.504 1.327h1.386zM21.686 135.193v-2.077c0-.262-.06-.457-.18-.586s-.305-.193-.56-.193c-.335 0-.58.09-.737.272s-.235.48-.235.898v1.685h-.486v-3.21h.395l.08.438h.022c.1-.157.24-.28.42-.366s.38-.13.6-.13c.387 0 .678.093.873.278.195.188.293.485.293.896v2.095h-.487zM23.13 131.112c0-.11.027-.192.082-.245.055-.05.123-.077.205-.077.078 0 .146.026.202.08s.084.133.084.242-.028.19-.085.245-.125.08-.203.08c-.082 0-.15-.026-.205-.08s-.082-.136-.082-.245zm.528 4.08h-.486v-3.21h.486v3.21zM28.782 135.193v-2.09c0-.255-.055-.446-.164-.574s-.28-.193-.51-.193c-.303 0-.526.087-.67.26s-.218.442-.218.804v1.794h-.486v-2.09c0-.255-.055-.446-.164-.574s-.28-.192-.513-.192c-.305 0-.528.092-.67.274s-.21.48-.21.897v1.684h-.487v-3.21h.396l.08.438h.022c.092-.156.22-.278.388-.366s.354-.132.56-.132c.503 0 .83.182.985.545h.024c.096-.17.234-.302.416-.4s.39-.145.62-.145c.364 0 .636.094.817.28.18.187.27.484.27.895v2.095h-.485zM32.245 135.193l-.097-.457h-.023c-.16.2-.32.338-.48.408-.158.07-.357.107-.595.107-.318 0-.568-.08-.75-.245s-.27-.397-.27-.7c0-.648.52-.988 1.556-1.02l.545-.018v-.2c0-.25-.053-.437-.162-.557-.108-.12-.282-.18-.52-.18-.268 0-.57.08-.908.245l-.15-.372c.16-.086.333-.153.52-.202s.378-.072.568-.072c.383 0 .667.085.85.255s.278.442.278.817v2.19h-.36zm-1.1-.343c.304 0 .542-.083.714-.25.172-.165.258-.397.258-.696v-.29l-.486.02c-.387.015-.666.075-.836.18-.17.108-.256.273-.256.498 0 .176.053.31.16.4s.254.138.446.138zM34.644 134.85c.086 0 .17-.006.25-.02s.143-.025.19-.04v.373c-.054.025-.13.046-.234.062s-.195.025-.277.025c-.62 0-.932-.327-.932-.98v-1.91h-.46v-.235l.46-.202.206-.686h.28v.744h.933v.38h-.933v1.89c0 .192.046.34.138.444s.22.156.38.156zM35.684 131.112c0-.11.027-.192.082-.245.055-.05.123-.077.205-.077.08 0 .147.026.203.08s.085.133.085.242-.028.19-.085.245-.124.08-.202.08c-.08 0-.15-.026-.204-.08s-.082-.136-.082-.245zm.527 4.08h-.485v-3.21h.486v3.21zM40.014 133.585c0 .523-.132.933-.396 1.226-.264.296-.628.442-1.093.442-.287 0-.542-.067-.765-.202s-.395-.328-.516-.58-.182-.547-.182-.885c0-.523.13-.93.393-1.224.262-.29.625-.437 1.09-.437.45 0 .806.15 1.07.448s.4.705.4 1.215zm-2.446 0c0 .41.082.723.246.938s.405.322.724.322.56-.106.725-.32c.165-.214.248-.527.248-.94 0-.407-.082-.717-.247-.93-.165-.21-.41-.317-.73-.317s-.56.104-.722.313-.242.52-.242.935zM43.064 135.193v-2.077c0-.262-.06-.457-.18-.586s-.305-.193-.56-.193c-.335 0-.58.09-.737.272s-.234.48-.234.898v1.685h-.486v-3.21h.396l.08.438h.022c.1-.157.24-.28.42-.366s.38-.13.6-.13c.387 0 .678.093.873.278.195.188.293.485.293.896v2.095h-.486z"/>
    </g>
    <g fill="#356282">
        <path d="M19.703 144.986h1.456v2.083c-.228.07-.458.126-.692.163s-.506.056-.814.056c-.648 0-1.153-.193-1.515-.58s-.543-.926-.543-1.62c0-.446.09-.836.268-1.172.18-.334.436-.59.772-.768.336-.176.73-.265 1.18-.265.458 0 .884.084 1.278.252l-.193.44c-.387-.165-.76-.247-1.116-.247-.52 0-.93.155-1.222.466s-.44.74-.44 1.292c0 .578.142 1.017.424 1.315s.697.448 1.244.448c.297 0 .587-.033.87-.102v-1.318h-.958v-.444zM23.578 143.96c.143 0 .27.013.384.036l-.067.45c-.133-.028-.25-.043-.352-.043-.26 0-.482.105-.667.316s-.277.473-.277.787v1.723h-.487v-3.21h.4l.057.594h.023c.12-.21.263-.37.43-.483s.354-.17.555-.17zM26.537 147.23l-.097-.457h-.023c-.16.2-.32.338-.48.408-.158.072-.357.108-.595.108-.318 0-.568-.082-.75-.246s-.27-.397-.27-.7c0-.648.52-.988 1.556-1.02l.545-.018v-.2c0-.25-.054-.437-.163-.557-.108-.12-.282-.18-.52-.18-.268 0-.57.08-.908.245l-.15-.372c.16-.086.333-.153.52-.202s.378-.073.568-.073c.383 0 .667.085.85.255s.278.442.278.817v2.19h-.36zm-1.098-.342c.302 0 .54-.083.712-.25s.26-.397.26-.696v-.29l-.487.02c-.387.015-.666.075-.836.18-.172.108-.257.273-.257.498 0 .176.053.31.16.4s.254.138.446.138zM29.394 147.29c-.21 0-.4-.04-.573-.116-.172-.077-.317-.196-.434-.356h-.035c.024.188.036.365.036.533v1.322H27.9v-4.652h.396l.067.44h.023c.125-.177.27-.304.437-.382s.356-.117.57-.117c.427 0 .755.147.987.438s.347.7.347 1.225c0 .527-.118.938-.353 1.23s-.562.436-.98.436zm-.07-2.916c-.328 0-.565.09-.712.272s-.222.47-.226.867v.108c0 .452.075.775.226.97.15.194.392.29.724.29.277 0 .495-.11.652-.336s.236-.534.236-.93c0-.4-.08-.707-.236-.92-.158-.214-.38-.32-.664-.32zM33.774 147.23v-2.077c0-.262-.06-.457-.18-.586s-.305-.193-.56-.193c-.337 0-.583.092-.74.275s-.232.483-.232.9v1.68h-.486v-4.56h.486v1.38c0 .167-.008.305-.023.414h.028c.096-.154.232-.275.41-.365.176-.09.377-.134.604-.134.393 0 .687.094.883.28.196.187.294.482.294.89v2.094h-.486zM35.218 143.15c0-.112.027-.193.082-.246.055-.05.123-.077.205-.077.078 0 .146.026.202.08s.085.133.085.242-.028.19-.085.244-.124.08-.202.08c-.082 0-.15-.026-.205-.08s-.082-.135-.082-.245zm.527 4.08h-.486v-3.21h.485v3.21zM38.06 147.29c-.465 0-.825-.144-1.08-.43-.255-.286-.382-.69-.382-1.215 0-.537.13-.952.388-1.245s.627-.44 1.106-.44c.154 0 .31.018.463.05s.275.073.363.118l-.15.413c-.106-.042-.224-.077-.35-.106-.128-.027-.24-.042-.338-.042-.652 0-.98.416-.98 1.248 0 .395.08.697.24.908s.395.316.708.316c.268 0 .542-.058.823-.173v.432c-.213.11-.484.167-.81.167zM41.704 146.354c0 .3-.11.53-.334.69s-.535.244-.938.244c-.426 0-.758-.067-.996-.202v-.45c.154.077.32.14.497.184s.347.067.51.067c.255 0 .45-.04.587-.122.137-.08.205-.204.205-.37 0-.125-.054-.23-.163-.32-.108-.09-.32-.194-.634-.315-.3-.11-.51-.208-.637-.29s-.22-.18-.28-.284-.092-.23-.092-.378c0-.262.106-.468.32-.62.212-.15.504-.227.875-.227.346 0 .684.07 1.014.212l-.173.396c-.322-.133-.614-.2-.876-.2-.23 0-.404.037-.52.11s-.177.17-.177.298c0 .086.023.16.067.22s.115.118.212.173.284.133.56.236c.382.14.64.278.773.42s.2.315.2.528z"/>
    </g>
    <g fill="#356282">
        <path d="M21.54 158.13c0 .377-.136.67-.41.882s-.644.316-1.112.316c-.508 0-.898-.065-1.172-.196v-.48c.176.074.367.133.574.176s.412.064.615.064c.332 0 .582-.063.75-.188.168-.127.252-.302.252-.526 0-.148-.03-.27-.09-.364s-.158-.183-.298-.263-.353-.17-.638-.27c-.398-.144-.683-.313-.854-.508s-.256-.45-.256-.765c0-.33.124-.593.372-.788s.576-.294.984-.294c.426 0 .817.078 1.175.234l-.155.434c-.354-.148-.697-.223-1.03-.223-.265 0-.47.058-.62.17s-.222.272-.222.473c0 .148.027.27.082.365s.147.182.277.26c.13.08.33.167.596.263.45.16.76.333.928.517s.253.42.253.713zM23.7 159.328c-.475 0-.85-.145-1.124-.434s-.412-.69-.412-1.204c0-.518.127-.93.382-1.233s.598-.457 1.028-.457c.402 0 .72.133.955.396.233.266.35.614.35 1.048v.308h-2.21c.01.377.104.663.285.858s.435.293.763.293c.346 0 .688-.072 1.025-.217v.434c-.172.074-.334.128-.488.16-.153.032-.338.048-.555.048zm-.132-2.92c-.258 0-.463.083-.617.25s-.243.4-.27.698h1.68c0-.307-.07-.54-.206-.704s-.332-.245-.586-.245zM27.907 159.27v-2.078c0-.262-.06-.457-.18-.586s-.305-.193-.56-.193c-.335 0-.58.09-.737.272s-.234.48-.234.9v1.684h-.486v-3.212h.396l.08.44h.022c.1-.16.24-.28.42-.368s.38-.13.6-.13c.386 0 .677.094.872.28.195.187.293.484.293.895v2.095h-.486zM31.464 158.393c0 .3-.11.53-.334.69s-.535.244-.938.244c-.426 0-.758-.067-.996-.202v-.45c.154.077.32.14.497.184s.347.066.51.066c.255 0 .45-.04.587-.122.137-.08.205-.204.205-.37 0-.125-.054-.23-.163-.32-.108-.09-.32-.194-.634-.315-.3-.112-.51-.21-.637-.292s-.22-.178-.28-.283-.092-.23-.092-.378c0-.262.106-.468.32-.62.212-.15.504-.227.875-.227.346 0 .684.07 1.014.21l-.173.397c-.322-.133-.614-.2-.876-.2-.23 0-.404.037-.52.11s-.177.17-.177.298c0 .086.023.16.067.22s.115.118.212.173.284.134.56.237c.382.14.64.278.773.42s.2.315.2.528zM35.026 157.66c0 .524-.132.934-.396 1.227-.264.295-.628.44-1.093.44-.287 0-.542-.066-.765-.2s-.395-.33-.516-.58-.182-.548-.182-.886c0-.522.13-.93.393-1.223.262-.29.625-.438 1.09-.438.45 0 .806.148 1.07.447s.4.704.4 1.214zm-2.446 0c0 .41.082.724.246.94s.405.32.724.32.56-.105.725-.32c.165-.213.248-.526.248-.938 0-.408-.083-.718-.248-.93-.165-.212-.41-.318-.73-.318s-.56.104-.722.313-.243.52-.243.934zM37.344 156c.143 0 .27.012.384.035l-.067.45c-.132-.028-.25-.043-.35-.043-.26 0-.483.105-.668.316s-.277.474-.277.788v1.723h-.486v-3.212h.4l.056.595h.023c.118-.21.262-.37.43-.483s.352-.17.554-.17zM40.4 158.393c0 .3-.112.53-.335.69s-.535.244-.938.244c-.426 0-.758-.067-.996-.202v-.45c.155.077.32.14.498.184s.347.066.51.066c.255 0 .45-.04.587-.122.137-.08.205-.204.205-.37 0-.125-.054-.23-.163-.32-.108-.09-.32-.194-.634-.315-.3-.112-.51-.21-.637-.292s-.22-.178-.28-.283-.093-.23-.093-.378c0-.262.106-.468.32-.62.212-.15.504-.227.875-.227.346 0 .684.07 1.014.21l-.173.397c-.323-.133-.615-.2-.877-.2-.23 0-.404.037-.52.11s-.177.17-.177.298c0 .086.022.16.066.22s.115.118.212.173.285.134.562.237c.38.14.638.278.772.42s.2.315.2.528z"/>
    </g>
    <g fill="#356282">
        <path d="M23.586 171.366h-.492l-.864-2.868c-.04-.127-.087-.287-.138-.48s-.077-.31-.08-.35c-.042.26-.11.54-.204.848l-.838 2.85h-.492l-1.14-4.282h.527l.677 2.646c.094.37.162.707.205 1.008.053-.357.13-.707.234-1.05l.77-2.603h.526l.806 2.628c.094.303.173.645.237 1.025.036-.277.106-.615.21-1.014l.674-2.64h.527l-1.144 4.282zM28.1 169.758c0 .523-.13.933-.395 1.226-.264.295-.628.44-1.093.44-.287 0-.542-.066-.765-.2s-.395-.33-.516-.58-.18-.548-.18-.886c0-.523.13-.93.392-1.224.262-.29.625-.438 1.09-.438.45 0 .806.15 1.07.448s.4.704.4 1.214zm-2.445 0c0 .41.082.723.246.938s.406.322.725.322.56-.106.725-.32c.165-.214.248-.527.248-.94 0-.407-.083-.717-.248-.93-.165-.21-.41-.317-.73-.317s-.56.105-.722.314-.243.52-.243.934zM30.418 168.096c.143 0 .27.012.384.035l-.067.452c-.133-.03-.25-.044-.352-.044-.26 0-.482.105-.667.316s-.277.474-.277.788v1.723h-.487v-3.21h.4l.057.594h.023c.12-.21.263-.37.43-.484s.354-.17.555-.17zM31.883 169.722c.084-.12.212-.275.384-.47l1.037-1.098h.577l-1.3 1.368 1.392 1.843h-.59l-1.133-1.518-.367.316v1.2h-.48v-4.558h.48v2.417c0 .107-.008.273-.023.498h.023zM35.91 171.425c-.476 0-.85-.145-1.125-.434s-.412-.69-.412-1.203c0-.518.127-.93.382-1.233s.597-.457 1.027-.457c.402 0 .72.133.955.396.234.266.352.614.352 1.048v.31h-2.213c.01.376.105.662.286.857s.435.293.763.293c.346 0 .688-.072 1.025-.217v.434c-.17.074-.333.128-.487.16-.153.032-.338.048-.554.048zm-.133-2.92c-.258 0-.463.083-.617.25s-.244.4-.27.698h1.678c0-.307-.068-.54-.205-.704s-.332-.246-.586-.246zM39.383 168.096c.143 0 .27.012.384.035l-.067.452c-.133-.03-.25-.044-.352-.044-.26 0-.482.105-.667.316s-.276.474-.276.788v1.723h-.486v-3.21h.4l.057.594h.023c.12-.21.263-.37.43-.484s.354-.17.555-.17z"/>
    </g>
    <g fill="#356282">
        <path d="M27.606 181.638c0-.13.03-.23.09-.297.06-.067.144-.1.255-.1.114 0 .203.032.266.1.063.067.095.167.095.298 0 .127-.03.225-.096.293s-.152.104-.264.104c-.1 0-.182-.03-.248-.093-.063-.06-.096-.16-.096-.302zM29.203 181.638c0-.13.03-.23.09-.297.06-.067.144-.1.255-.1.113 0 .202.032.265.1.063.067.095.167.095.298 0 .127-.032.225-.097.293s-.15.104-.263.104c-.1 0-.182-.03-.248-.093-.065-.06-.097-.16-.097-.302zM30.8 181.638c0-.13.03-.23.088-.297.06-.067.145-.1.256-.1.113 0 .202.032.265.1.062.067.094.167.094.298 0 .127-.032.225-.097.293s-.152.104-.264.104c-.1 0-.182-.03-.248-.093-.063-.06-.096-.16-.096-.302z"/>
    </g>
    <path fill="#4278A7" d="M.36 114.595h58.39v.398H.36zM.36 11.595h58.39v.398H.36zM90.36 11.595h58.39v.398H90.36zM.36 126.71h58.39v.17H.36zM.36 138.71h58.39v.17H.36zM.36 150.71h58.39v.17H.36zM.36 162.71h58.39v.17H.36zM.36 174.71h58.39v.17H.36zM.36 186.595h58.39v.398H.36z"/>
    <g fill="#356282">
        <path d="M116.556 135.192l-.533-1.362h-1.717l-.527 1.362h-.505l1.693-4.3h.42l1.684 4.3h-.516zm-.688-1.81l-.498-1.327c-.064-.168-.13-.374-.2-.618-.042.188-.103.394-.184.618l-.504 1.327h1.386z"/>
        <path d="M117.036 136.32c-.184 0-.328-.026-.434-.08v-.424c.14.04.283.06.434.06.193 0 .34-.06.44-.177s.15-.287.15-.508v-4.283h.5v4.24c0 .372-.095.66-.282.864-.186.204-.456.306-.808.306zM121.955 135.192l-.533-1.362h-1.717l-.527 1.362h-.504l1.693-4.3h.42l1.684 4.3h-.515zm-.688-1.81l-.498-1.327c-.065-.168-.132-.374-.2-.618-.043.188-.104.394-.185.618l-.504 1.327h1.387zM125.91 135.192h-.564l-1.15-1.884-1.173 1.884h-.527l1.424-2.238-1.327-2.045h.55l1.064 1.695 1.072-1.696h.53l-1.328 2.026 1.43 2.256z"/>
    </g>
    <g fill="#4278A7">
        <path d="M20.1 2.382c0 .65-.22 1.15-.665 1.5-.443.35-1.08.525-1.905.525h-.756v2.527h-.747V.51h1.666c1.605 0 2.408.624 2.408 1.872zm-3.326 1.384h.672c.662 0 1.14-.107 1.437-.32s.444-.558.444-1.03c0-.424-.14-.74-.417-.948s-.712-.312-1.3-.312h-.836v2.61zM23.37 7.022c-.712 0-1.274-.217-1.685-.65-.412-.434-.618-1.035-.618-1.807 0-.775.19-1.393.574-1.85.383-.457.897-.686 1.54-.686.605 0 1.082.197 1.434.595.352.396.527.92.527 1.57v.462h-3.317c.015.565.157.995.428 1.288s.654.44 1.146.44c.52 0 1.03-.11 1.538-.327v.65c-.258.112-.502.19-.732.24-.23.05-.506.074-.832.074zm-.197-4.38c-.387 0-.695.125-.925.376-.23.253-.366.602-.407 1.047h2.52c0-.46-.104-.812-.31-1.058-.203-.244-.496-.366-.877-.366zM28.626 2.04c.633 0 1.124.215 1.475.647.35.432.526 1.044.526 1.835s-.177 1.405-.53 1.843c-.353.438-.843.657-1.47.657-.313 0-.6-.058-.86-.174-.258-.115-.476-.293-.65-.533h-.054l-.154.62h-.523V.094h.73v1.662c0 .372-.013.706-.036 1.002h.034c.34-.48.844-.72 1.512-.72zm-.105.61c-.497 0-.856.143-1.076.428-.22.286-.33.767-.33 1.444 0 .676.113 1.16.338 1.452.226.29.587.437 1.085.437.448 0 .782-.162 1.002-.488.22-.327.33-.796.33-1.41 0-.625-.11-1.093-.33-1.4s-.56-.463-1.02-.463zM34.14 2.04c.634 0 1.125.215 1.476.647.35.432.525 1.044.525 1.835s-.176 1.405-.53 1.843c-.352.438-.842.657-1.47.657-.312 0-.6-.058-.858-.174-.26-.115-.477-.293-.652-.533h-.053l-.154.62H31.9V.094h.73v1.662c0 .372-.013.706-.036 1.002h.035c.34-.48.844-.72 1.51-.72zm-.104.61c-.498 0-.857.143-1.077.428-.22.286-.33.767-.33 1.444 0 .676.112 1.16.337 1.452.226.29.587.437 1.085.437.448 0 .782-.162 1.002-.488.22-.327.33-.796.33-1.41 0-.625-.11-1.093-.33-1.4s-.558-.463-1.018-.463zM38.145 6.934h-.73V.096h.73v6.838zM41.726 7.022c-.712 0-1.274-.217-1.685-.65-.41-.434-.617-1.035-.617-1.807 0-.775.19-1.393.574-1.85.382-.457.896-.686 1.54-.686.604 0 1.08.197 1.433.595.352.396.527.92.527 1.57v.462H40.18c.015.565.157.995.428 1.288s.653.44 1.145.44c.52 0 1.03-.11 1.538-.327v.65c-.257.112-.5.19-.73.24-.23.05-.508.074-.834.074zm-.197-4.38c-.388 0-.696.125-.926.376-.23.253-.366.602-.407 1.047h2.518c0-.46-.103-.812-.308-1.058-.204-.244-.497-.366-.878-.366z"/>
    </g>
    <g fill="#4278A7">
        <path d="M108.944 6.934l-2.18-5.695h-.035c.04.45.06.986.06 1.607v4.087h-.69V.51h1.126l2.035 5.3h.036l2.052-5.3h1.116v6.425h-.747v-4.14c0-.475.02-.99.062-1.547h-.036l-2.197 5.687h-.603zM118.273 4.522c0 .785-.197 1.397-.593 1.84-.396.44-.942.66-1.64.66-.43 0-.812-.102-1.146-.303-.334-.204-.592-.493-.773-.872-.18-.377-.27-.82-.27-1.326 0-.785.195-1.397.588-1.835.393-.438.938-.657 1.635-.657.674 0 1.21.225 1.605.672.397.45.595 1.055.595 1.82zm-3.67 0c0 .615.124 1.084.37 1.406s.607.482 1.085.482.84-.16 1.088-.48c.247-.32.37-.79.37-1.408 0-.612-.123-1.078-.37-1.396-.248-.318-.613-.478-1.097-.478-.48 0-.84.157-1.082.47s-.364.783-.364 1.404zM121.793 2.04c.633 0 1.124.215 1.475.647.35.432.524 1.044.524 1.835s-.177 1.405-.53 1.843c-.353.438-.842.657-1.47.657-.312 0-.6-.058-.858-.174-.26-.115-.477-.293-.652-.533h-.053l-.155.62h-.522V.094h.73v1.662c0 .372-.013.706-.036 1.002h.035c.34-.48.843-.72 1.51-.72zm-.105.61c-.498 0-.857.143-1.077.428-.22.286-.328.767-.328 1.444 0 .676.112 1.16.338 1.452.226.29.588.437 1.086.437.448 0 .782-.162 1.002-.488.22-.327.33-.796.33-1.41 0-.625-.11-1.093-.33-1.4s-.56-.463-1.02-.463zM125.005.813c0-.168.04-.29.123-.367.082-.078.185-.117.308-.117.117 0 .22.04.304.118s.127.2.127.365-.042.286-.127.366c-.085.08-.187.12-.304.12-.123 0-.226-.04-.308-.12-.082-.08-.123-.203-.123-.367zm.79 6.12h-.728V2.12h.73v4.816zM128.073 6.934h-.73V.096h.73v6.838zM131.655 7.022c-.712 0-1.274-.217-1.686-.65-.413-.434-.618-1.035-.618-1.807 0-.775.19-1.393.573-1.85.382-.457.896-.686 1.54-.686.604 0 1.08.197 1.433.595.352.396.527.92.527 1.57v.462h-3.317c.015.565.157.995.428 1.288.27.293.653.44 1.146.44.52 0 1.03-.11 1.538-.327v.65c-.258.112-.502.19-.732.24-.23.05-.508.074-.833.074zm-.2-4.38c-.386 0-.694.125-.924.376-.23.253-.364.602-.405 1.047h2.518c0-.46-.103-.812-.308-1.058-.205-.244-.498-.366-.88-.366z"/>
    </g>
    <g fill="#356282">
        <path d="M105.26 144.987h1.455v2.083c-.227.072-.457.127-.69.164s-.507.056-.815.056c-.648 0-1.153-.192-1.515-.578s-.542-.927-.542-1.622c0-.445.09-.835.27-1.17.178-.335.435-.59.77-.77.336-.175.73-.264 1.18-.264.458 0 .884.084 1.278.252l-.192.44c-.387-.165-.76-.247-1.116-.247-.52 0-.93.156-1.222.467s-.44.74-.44 1.292c0 .577.143 1.016.425 1.314s.696.448 1.243.448c.297 0 .587-.034.87-.103v-1.32h-.958v-.443zM109.027 147.29c-.475 0-.85-.145-1.123-.434s-.412-.69-.412-1.204c0-.518.128-.93.383-1.233s.597-.458 1.026-.458c.403 0 .722.133.956.396.234.266.352.614.352 1.048v.308h-2.212c.01.377.105.663.286.858s.435.293.763.293c.346 0 .688-.072 1.025-.217v.434c-.172.074-.334.128-.487.16-.154.032-.34.048-.556.048zm-.132-2.92c-.258 0-.463.083-.616.25s-.245.4-.272.698h1.68c0-.307-.07-.54-.206-.704s-.333-.245-.587-.245zM113.808 145.623c0 .523-.132.933-.396 1.226-.264.294-.628.44-1.093.44-.288 0-.543-.067-.766-.202s-.395-.328-.516-.58-.182-.547-.182-.885c0-.523.13-.93.393-1.224.26-.292.624-.44 1.09-.44.448 0 .806.15 1.07.45s.398.703.398 1.213zm-2.446 0c0 .41.082.723.246.938s.405.323.724.323.56-.106.726-.32c.165-.214.247-.527.247-.94 0-.407-.082-.717-.247-.93-.165-.21-.41-.317-.73-.317s-.56.104-.722.313-.244.52-.244.933zM115.147 147.23h-.486v-4.558h.487v4.56zM118.95 145.623c0 .523-.132.933-.396 1.226-.264.294-.628.44-1.093.44-.286 0-.54-.067-.764-.202s-.395-.328-.516-.58-.182-.547-.182-.885c0-.523.13-.93.393-1.224.263-.292.626-.44 1.09-.44.45 0 .808.15 1.072.45s.398.703.398 1.213zm-2.447 0c0 .41.082.723.246.938s.404.323.723.323.56-.106.726-.32c.164-.214.246-.527.246-.94 0-.407-.082-.717-.247-.93-.166-.21-.41-.317-.732-.317-.318 0-.56.104-.72.313s-.245.52-.245.933zM121.085 147.29c-.465 0-.824-.143-1.08-.43-.254-.285-.382-.69-.382-1.214 0-.537.13-.952.39-1.245s.626-.438 1.104-.438c.154 0 .31.017.463.05s.275.072.363.117l-.15.412c-.106-.043-.224-.078-.35-.107-.128-.027-.24-.042-.338-.042-.652 0-.98.416-.98 1.248 0 .396.08.698.24.91s.395.315.707.315c.268 0 .542-.058.823-.173v.43c-.213.112-.484.168-.81.168zM124.633 147.23l-.097-.456h-.023c-.16.2-.32.338-.48.408-.158.07-.357.107-.596.107-.318 0-.567-.083-.748-.247s-.272-.397-.272-.7c0-.648.52-.988 1.556-1.02l.545-.018v-.2c0-.25-.055-.437-.163-.557-.108-.12-.282-.18-.52-.18-.27 0-.57.08-.91.245l-.148-.372c.157-.085.33-.152.52-.2s.377-.074.566-.074c.383 0 .667.085.852.255s.276.443.276.818v2.19h-.36zm-1.098-.342c.303 0 .54-.083.714-.25s.258-.397.258-.696v-.29l-.486.02c-.387.015-.665.075-.836.18-.17.108-.257.273-.257.498 0 .176.053.31.16.4s.253.138.445.138zM127.033 146.888c.086 0 .17-.006.25-.02s.143-.025.19-.04v.373c-.054.026-.13.047-.233.063s-.195.025-.277.025c-.62 0-.932-.327-.932-.98v-1.91h-.46v-.235l.46-.202.206-.685h.28v.744h.933v.377h-.933v1.89c0 .193.046.342.138.445s.217.156.378.156zM128.073 143.15c0-.11.027-.192.082-.245.055-.05.123-.077.205-.077.078 0 .146.026.202.08s.085.133.085.242-.028.19-.085.245-.124.08-.202.08c-.082 0-.15-.026-.205-.08s-.082-.135-.082-.245zm.527 4.08h-.486v-3.21h.486v3.21zM132.403 145.623c0 .523-.132.933-.396 1.226-.264.294-.628.44-1.093.44-.287 0-.542-.067-.765-.202s-.396-.328-.517-.58-.182-.547-.182-.885c0-.523.132-.93.394-1.224.262-.292.625-.44 1.09-.44.45 0 .807.15 1.07.45s.4.703.4 1.213zm-2.447 0c0 .41.082.723.246.938s.405.323.724.323.56-.106.726-.32c.165-.214.247-.527.247-.94 0-.407-.083-.717-.248-.93-.165-.21-.41-.317-.73-.317s-.56.104-.722.313-.244.52-.244.933zM135.453 147.23v-2.076c0-.262-.06-.457-.18-.586s-.305-.193-.56-.193c-.335 0-.58.09-.737.272s-.234.48-.234.9v1.684h-.486v-3.21h.396l.08.44h.022c.1-.16.24-.28.42-.368s.38-.13.6-.13c.387 0 .678.093.873.278.195.188.293.485.293.896v2.095h-.487z"/>
    </g>
    <g fill="#356282">
        <path d="M103.443 183.27h-.486v-4.56h.486v4.56zM107.245 181.66c0 .524-.132.934-.396 1.227-.265.295-.63.44-1.094.44-.287 0-.542-.066-.765-.2s-.394-.33-.515-.58-.182-.548-.182-.886c0-.522.13-.93.393-1.223.262-.29.625-.438 1.09-.438.45 0 .807.148 1.07.447s.4.704.4 1.214zm-2.446 0c0 .41.08.724.245.94s.405.32.724.32.56-.105.725-.32c.165-.213.247-.526.247-.938 0-.408-.082-.718-.247-.93-.165-.212-.41-.318-.73-.318s-.56.104-.722.313-.244.52-.244.934zM109.38 183.328c-.464 0-.823-.143-1.078-.43-.255-.285-.383-.69-.383-1.214 0-.537.13-.952.388-1.245s.627-.44 1.105-.44c.154 0 .31.017.463.05s.275.072.363.117l-.15.413c-.107-.043-.225-.078-.352-.107-.127-.027-.24-.042-.337-.042-.65 0-.978.417-.978 1.25 0 .394.08.696.24.907s.394.316.706.316c.268 0 .542-.058.823-.173v.43c-.212.112-.483.168-.81.168zM112.93 183.27l-.098-.458h-.023c-.16.2-.32.338-.48.408-.16.07-.358.107-.597.107-.318 0-.567-.082-.748-.246s-.27-.396-.27-.7c0-.647.518-.987 1.555-1.02l.545-.017v-.2c0-.25-.054-.437-.162-.557-.108-.12-.282-.18-.52-.18-.27 0-.57.08-.91.245l-.148-.37c.158-.087.332-.154.52-.203s.378-.073.567-.073c.383 0 .667.085.852.255s.276.44.276.816v2.19h-.36zm-1.1-.343c.303 0 .54-.083.714-.25s.26-.397.26-.696v-.29l-.487.022c-.387.014-.665.074-.836.18-.17.107-.256.272-.256.497 0 .175.054.31.16.4s.255.137.446.137zM114.778 183.27h-.486v-4.56h.486v4.56zM118.3 182.13c0 .377-.138.67-.41.882s-.646.316-1.114.316c-.508 0-.898-.065-1.172-.196v-.48c.176.074.367.133.574.176s.412.064.615.064c.332 0 .582-.063.75-.188.168-.127.252-.302.252-.526 0-.148-.03-.27-.09-.364s-.158-.183-.298-.263-.353-.17-.638-.27c-.4-.144-.684-.313-.855-.508s-.257-.45-.257-.765c0-.33.124-.593.372-.788s.576-.294.984-.294c.426 0 .817.078 1.175.234l-.156.434c-.354-.148-.697-.223-1.03-.223-.265 0-.47.058-.62.17s-.222.272-.222.473c0 .148.027.27.082.365s.147.182.277.26c.13.08.33.167.597.263.45.16.76.333.928.517s.254.42.254.713zM120.14 182.927c.085 0 .168-.006.248-.02s.144-.025.19-.04v.373c-.053.025-.13.046-.232.062s-.195.025-.277.025c-.622 0-.933-.327-.933-.98v-1.91h-.46v-.235l.46-.202.205-.686h.28v.744h.933v.378h-.932v1.89c0 .193.046.342.138.445s.22.157.38.157zM123.992 181.66c0 .524-.132.934-.396 1.227-.264.295-.628.44-1.093.44-.287 0-.542-.066-.765-.2s-.395-.33-.516-.58-.182-.548-.182-.886c0-.522.13-.93.393-1.223.262-.29.625-.438 1.09-.438.45 0 .807.148 1.07.447s.4.704.4 1.214zm-2.447 0c0 .41.082.724.246.94s.406.32.725.32.56-.105.726-.32c.166-.213.248-.526.248-.938 0-.408-.082-.718-.247-.93-.164-.212-.408-.318-.73-.318-.318 0-.56.104-.72.313s-.245.52-.245.934zM126.31 180c.142 0 .27.012.383.035l-.067.45c-.133-.028-.25-.043-.352-.043-.26 0-.48.105-.666.316s-.277.474-.277.788v1.723h-.485v-3.212h.4l.057.595h.023c.12-.21.263-.37.43-.483s.353-.17.554-.17zM129.268 183.27l-.097-.458h-.022c-.16.2-.32.338-.48.408-.158.07-.357.107-.596.107-.318 0-.567-.082-.748-.246s-.27-.396-.27-.7c0-.647.518-.987 1.555-1.02l.544-.017v-.2c0-.25-.054-.437-.162-.557-.108-.12-.282-.18-.52-.18-.27 0-.57.08-.91.245l-.148-.37c.158-.087.332-.154.52-.203s.378-.073.567-.073c.384 0 .668.085.853.255s.276.44.276.816v2.19h-.362zm-1.1-.343c.304 0 .542-.083.715-.25s.26-.397.26-.696v-.29l-.487.022c-.387.014-.665.074-.836.18-.17.107-.257.272-.257.497 0 .175.054.31.16.4s.255.137.446.137zM133.258 180.058v.308l-.595.07c.055.068.104.158.146.27s.063.233.063.372c0 .314-.107.565-.322.753s-.51.282-.884.282c-.096 0-.186-.008-.27-.023-.207.108-.31.246-.31.412 0 .088.035.153.107.195s.196.062.372.062h.568c.348 0 .615.072.802.22s.28.358.28.638c0 .355-.144.626-.43.813-.284.187-.7.28-1.247.28-.42 0-.743-.078-.97-.234s-.343-.377-.343-.662c0-.195.062-.364.188-.507s.3-.24.527-.29c-.082-.037-.15-.095-.206-.173s-.084-.17-.084-.272c0-.117.03-.22.094-.308s.16-.173.296-.255c-.166-.07-.3-.186-.405-.35s-.157-.352-.157-.562c0-.352.105-.622.316-.813.21-.19.51-.285.896-.285.168 0 .32.02.454.06h1.114zm-2.56 3.75c0 .174.073.306.22.396s.356.135.63.135c.408 0 .71-.063.907-.184.196-.123.294-.288.294-.497 0-.175-.055-.295-.162-.363-.107-.066-.31-.1-.606-.1h-.583c-.222 0-.394.052-.517.157s-.185.257-.185.454zm.263-2.72c0 .224.064.394.19.51s.305.172.53.172c.476 0 .713-.23.713-.69 0-.483-.24-.725-.72-.725-.23 0-.405.062-.528.185s-.184.305-.184.547zM135.274 183.328c-.475 0-.85-.145-1.123-.434s-.41-.69-.41-1.204c0-.518.127-.93.382-1.233s.597-.457 1.026-.457c.402 0 .72.133.955.396.234.266.352.614.352 1.048v.308h-2.212c.01.377.105.663.286.858s.434.293.762.293c.346 0 .688-.072 1.025-.217v.434c-.172.074-.334.128-.487.16-.154.032-.34.048-.556.048zm-.132-2.92c-.258 0-.463.083-.616.25s-.244.4-.27.698h1.678c0-.307-.068-.54-.205-.704s-.334-.245-.588-.245z"/>
    </g>
    <g fill="#356282">
        <path d="M102.807 157.467c-.47 0-.842.157-1.114.47-.272.314-.41.743-.41 1.288 0 .56.133.994.396 1.3s.636.458 1.122.458c.3 0 .64-.054 1.022-.16v.436c-.297.11-.663.166-1.1.166-.63 0-1.116-.19-1.46-.574s-.514-.927-.514-1.632c0-.44.083-.828.248-1.16s.403-.588.715-.768.678-.27 1.1-.27c.45 0 .842.082 1.178.246l-.21.428c-.325-.153-.65-.23-.973-.23zM107.456 159.758c0 .523-.132.933-.396 1.226-.264.295-.628.44-1.093.44-.287 0-.542-.066-.765-.2s-.395-.33-.516-.58-.182-.548-.182-.886c0-.523.13-.93.393-1.224.262-.29.625-.438 1.09-.438.45 0 .807.15 1.07.448s.4.704.4 1.214zm-2.446 0c0 .41.082.723.246.938s.405.322.724.322.56-.106.726-.32c.165-.214.247-.527.247-.94 0-.407-.082-.717-.247-.93-.165-.21-.41-.317-.73-.317s-.56.105-.722.314-.244.52-.244.934zM110.506 161.366v-2.077c0-.263-.06-.458-.18-.587s-.305-.193-.56-.193c-.335 0-.58.09-.737.272s-.235.48-.235.9v1.684h-.486v-3.21h.395l.08.438h.022c.1-.158.24-.28.42-.367s.38-.13.6-.13c.387 0 .678.093.873.278.195.188.293.485.293.896v2.096h-.487zM113.44 158.533h-.818v2.833h-.486v-2.833h-.574v-.22l.574-.176v-.18c0-.788.345-1.183 1.034-1.183.17 0 .37.034.598.103l-.126.39c-.188-.06-.348-.09-.48-.09-.184 0-.32.06-.407.183s-.132.317-.132.587v.208h.817v.378zm.544-1.248c0-.11.027-.192.082-.245.055-.05.123-.077.205-.077.08 0 .147.026.203.08s.085.133.085.242-.028.19-.085.245-.124.08-.202.08c-.08 0-.15-.026-.204-.08s-.082-.136-.082-.245zm.527 4.08h-.485v-3.21h.486v3.21zM118.17 158.155v.308l-.595.07c.055.068.104.158.146.27s.065.233.065.372c0 .314-.107.565-.322.753s-.51.28-.885.28c-.096 0-.186-.007-.27-.022-.207.11-.31.247-.31.413 0 .087.035.152.107.194s.196.062.372.062h.568c.348 0 .615.073.802.22s.28.36.28.64c0 .354-.144.625-.43.812-.284.186-.7.28-1.247.28-.42 0-.743-.08-.97-.235s-.343-.377-.343-.662c0-.194.062-.363.188-.506s.3-.24.527-.29c-.082-.037-.15-.095-.206-.173s-.084-.168-.084-.27c0-.118.03-.22.094-.31s.16-.172.296-.254c-.166-.068-.3-.185-.405-.35s-.157-.35-.157-.56c0-.353.105-.623.316-.814.21-.19.51-.285.896-.285.168 0 .32.02.454.06h1.114zm-2.56 3.75c0 .174.073.306.22.396s.356.136.63.136c.408 0 .71-.062.907-.183.196-.123.294-.288.294-.497 0-.174-.053-.294-.16-.362-.107-.066-.31-.1-.606-.1h-.583c-.22 0-.392.052-.515.157s-.185.258-.185.455zm.263-2.722c0 .225.063.395.19.51s.304.173.53.173c.475 0 .712-.23.712-.69 0-.483-.24-.725-.72-.725-.23 0-.405.063-.528.186s-.184.305-.184.547zM119.286 158.155v2.083c0 .262.06.457.18.586s.305.193.56.193c.335 0 .58-.092.736-.275s.232-.483.232-.9v-1.687h.486v3.21h-.4l-.07-.43h-.027c-.1.158-.237.28-.414.363s-.38.126-.606.126c-.39 0-.683-.093-.877-.278s-.292-.482-.292-.89v-2.102h.49zM123.977 158.096c.143 0 .27.012.384.035l-.066.452c-.133-.03-.25-.044-.352-.044-.26 0-.48.105-.666.316s-.277.474-.277.788v1.723h-.487v-3.21h.4l.057.594h.023c.12-.21.263-.37.43-.484s.353-.17.554-.17zM126.936 161.366l-.097-.457h-.024c-.16.2-.32.337-.48.407-.158.07-.357.107-.596.107-.318 0-.567-.082-.748-.246s-.27-.397-.27-.7c0-.648.518-.988 1.555-1.02l.545-.018v-.2c0-.25-.054-.437-.162-.557-.108-.12-.282-.18-.52-.18-.27 0-.57.08-.91.245l-.148-.372c.158-.086.332-.153.52-.202s.378-.073.567-.073c.382 0 .666.086.85.256s.277.442.277.817v2.19h-.36zm-1.1-.343c.304 0 .542-.083.715-.25s.26-.397.26-.696v-.29l-.486.02c-.387.015-.665.075-.836.18-.17.108-.257.273-.257.498 0 .176.055.31.16.4s.256.138.447.138zM129.335 161.023c.086 0 .17-.006.25-.02s.143-.025.19-.04v.373c-.054.025-.13.046-.233.062s-.195.025-.277.025c-.62 0-.932-.327-.932-.98v-1.91h-.46v-.235l.46-.202.205-.686h.28v.744h.933v.378h-.93v1.89c0 .193.045.342.137.445s.218.156.378.156zM130.375 157.285c0-.11.027-.192.082-.245.055-.05.123-.077.205-.077.078 0 .146.026.202.08s.085.133.085.242-.03.19-.086.245-.124.08-.202.08c-.082 0-.15-.026-.205-.08s-.082-.136-.082-.245zm.528 4.08h-.486v-3.21h.486v3.21zM134.705 159.758c0 .523-.132.933-.396 1.226-.265.295-.63.44-1.094.44-.287 0-.542-.066-.765-.2s-.394-.33-.515-.58-.182-.548-.182-.886c0-.523.13-.93.393-1.224.262-.29.625-.438 1.09-.438.45 0 .807.15 1.07.448s.4.704.4 1.214zm-2.446 0c0 .41.08.723.245.938s.405.322.724.322.56-.106.725-.32c.165-.214.247-.527.247-.94 0-.407-.082-.717-.247-.93-.165-.21-.41-.317-.73-.317s-.56.105-.722.314-.244.52-.244.934zM137.755 161.366v-2.077c0-.263-.06-.458-.18-.587s-.305-.193-.56-.193c-.335 0-.58.09-.737.272s-.234.48-.234.9v1.684h-.486v-3.21h.396l.08.438h.022c.1-.158.24-.28.42-.367s.38-.13.6-.13c.387 0 .678.093.873.278.194.188.292.485.292.896v2.096h-.487zM116.058 166.33c0 .435-.147.77-.443 1-.296.235-.72.352-1.27.352h-.505v1.685h-.498v-4.283h1.11c1.07 0 1.606.415 1.606 1.247zm-2.218.924h.448c.44 0 .76-.07.958-.214s.296-.37.296-.686c0-.283-.093-.494-.278-.633s-.475-.207-.867-.207h-.557v1.74zM118.856 169.366l-.097-.457h-.024c-.16.2-.32.337-.48.407-.158.07-.357.107-.596.107-.318 0-.567-.082-.748-.246s-.27-.397-.27-.7c0-.648.518-.988 1.555-1.02l.545-.018v-.2c0-.25-.054-.437-.162-.557-.108-.12-.282-.18-.52-.18-.27 0-.57.08-.91.245l-.148-.372c.158-.086.332-.153.52-.202s.378-.073.567-.073c.382 0 .666.086.85.256s.277.442.277.817v2.19h-.36zm-1.1-.343c.304 0 .542-.083.715-.25s.26-.397.26-.696v-.29l-.486.02c-.387.015-.665.075-.836.18-.17.108-.257.273-.257.498 0 .176.055.31.16.4s.256.138.447.138zM122.846 166.155v.308l-.595.07c.056.068.105.158.147.27s.064.233.064.372c0 .314-.106.565-.32.753s-.51.28-.886.28c-.096 0-.186-.007-.27-.022-.207.11-.31.247-.31.413 0 .087.035.152.107.194s.197.062.373.062h.568c.35 0 .616.073.803.22s.28.36.28.64c0 .354-.144.625-.43.812-.284.186-.7.28-1.247.28-.42 0-.743-.08-.97-.235s-.343-.377-.343-.662c0-.194.062-.363.188-.506s.302-.24.528-.29c-.082-.037-.15-.095-.206-.173s-.084-.168-.084-.27c0-.118.03-.22.094-.31s.16-.172.296-.254c-.166-.068-.3-.185-.405-.35s-.157-.35-.157-.56c0-.353.105-.623.316-.814.21-.19.51-.285.896-.285.168 0 .32.02.454.06h1.114zm-2.56 3.75c0 .174.073.306.22.396s.356.136.63.136c.408 0 .71-.062.907-.183.196-.123.294-.288.294-.497 0-.174-.054-.294-.16-.362-.108-.066-.31-.1-.607-.1h-.583c-.22 0-.393.052-.516.157s-.184.258-.184.455zm.263-2.722c0 .225.062.395.19.51s.303.173.53.173c.474 0 .71-.23.71-.69 0-.483-.24-.725-.72-.725-.23 0-.404.063-.527.186s-.184.305-.184.547zM124.862 169.425c-.475 0-.85-.145-1.123-.434s-.413-.69-.413-1.203c0-.518.128-.93.383-1.233s.597-.457 1.026-.457c.402 0 .72.133.955.396.235.266.353.614.353 1.048v.31h-2.212c.01.376.106.662.287.857s.435.293.763.293c.346 0 .688-.072 1.025-.217v.434c-.172.074-.334.128-.487.16-.154.032-.34.048-.556.048zm-.132-2.92c-.258 0-.463.083-.616.25s-.244.4-.27.698h1.678c0-.307-.068-.54-.205-.704s-.333-.246-.587-.246z"/>
    </g>
    <g fill="#4278A7">
        <path d="M62.853 51.05l-.444-1.134h-1.432l-.44 1.135h-.42l1.412-3.583h.35l1.403 3.584h-.43zm-.573-1.508l-.415-1.106c-.054-.14-.11-.312-.166-.515-.037.157-.088.33-.155.516l-.42 1.106h1.155zM64.958 51.1c-.174 0-.333-.033-.478-.098-.144-.064-.265-.163-.362-.296h-.03c.02.156.03.304.03.443v1.1h-.405v-3.876h.33l.056.366h.02c.103-.146.225-.252.363-.317s.297-.098.476-.098c.354 0 .628.12.82.363.193.243.29.583.29 1.02 0 .44-.098.78-.294 1.024-.198.245-.47.367-.818.367zm-.06-2.43c-.272 0-.47.076-.592.228s-.185.393-.188.723v.092c0 .375.062.645.188.807s.326.24.603.24c.23 0 .41-.092.542-.28.13-.187.197-.444.197-.773 0-.333-.066-.59-.198-.768-.13-.18-.315-.27-.553-.27zM68.022 51.1c-.174 0-.333-.033-.478-.098-.144-.064-.265-.163-.362-.296h-.03c.02.156.03.304.03.443v1.1h-.405v-3.876h.33l.056.366h.02c.104-.146.226-.252.364-.317s.297-.098.476-.098c.355 0 .63.12.82.363.194.243.29.583.29 1.02 0 .44-.097.78-.293 1.024-.198.245-.47.367-.818.367zm-.06-2.43c-.272 0-.47.076-.592.228s-.185.393-.188.723v.092c0 .375.062.645.188.807s.326.24.603.24c.23 0 .412-.092.543-.28.13-.187.197-.444.197-.773 0-.333-.065-.59-.197-.768-.13-.18-.315-.27-.553-.27zM71.48 51.05l-1.21-3.163h-.02c.023.25.034.55.034.894v2.272H69.9v-3.57h.626l1.13 2.945h.02l1.14-2.944h.62v3.57h-.415v-2.3c0-.265.012-.55.035-.86h-.02l-1.22 3.16h-.334zM75.485 51.1c-.396 0-.707-.12-.936-.362-.23-.24-.345-.575-.345-1.004 0-.43.106-.773.32-1.027.21-.254.496-.38.854-.38.334 0 .6.11.795.33s.293.51.293.872v.256h-1.844c.01.314.088.553.238.716.15.162.362.244.636.244.288 0 .573-.06.854-.182v.36c-.143.063-.278.107-.406.135-.126.026-.28.04-.46.04zm-.11-2.434c-.215 0-.387.07-.514.21-.127.14-.202.333-.226.58h1.4c0-.255-.06-.45-.172-.587-.113-.137-.276-.204-.487-.204zM78.886 50.32c0 .25-.093.44-.278.576-.186.136-.446.203-.78.203-.356 0-.633-.058-.83-.17v-.376c.127.065.266.117.412.154.147.037.29.057.427.057.21 0 .374-.034.488-.102.113-.067.17-.17.17-.31 0-.103-.045-.192-.135-.267-.09-.074-.267-.162-.528-.263-.25-.093-.427-.174-.53-.243-.106-.07-.185-.147-.235-.235-.052-.088-.077-.192-.077-.315 0-.218.09-.39.267-.516.177-.126.42-.19.73-.19.287 0 .57.06.844.177l-.143.33c-.27-.11-.512-.165-.73-.165-.19 0-.337.03-.435.09s-.146.144-.146.25c0 .07.02.132.055.182.038.05.097.1.18.145.08.046.236.11.468.197.317.115.53.23.643.35.11.116.166.263.166.44zM81.27 50.32c0 .25-.092.44-.277.576-.186.136-.445.203-.78.203-.355 0-.632-.058-.83-.17v-.376c.128.065.266.117.413.154s.29.057.426.057c.212 0 .375-.034.488-.102.114-.067.17-.17.17-.31 0-.103-.044-.192-.134-.267-.09-.074-.267-.162-.53-.263-.248-.093-.425-.174-.53-.243-.104-.07-.183-.147-.233-.235-.052-.088-.077-.192-.077-.315 0-.218.09-.39.266-.516.178-.126.42-.19.73-.19.288 0 .57.06.845.177l-.145.33c-.27-.11-.512-.165-.73-.165-.19 0-.336.03-.434.09s-.146.144-.146.25c0 .07.02.132.055.182.037.05.096.1.177.145.082.046.238.11.47.197.316.115.53.23.643.35s.164.263.164.44zM83.576 51.05l-.08-.38h-.02c-.134.168-.267.28-.4.34s-.297.09-.496.09c-.265 0-.473-.068-.624-.205-.15-.137-.226-.33-.226-.584 0-.54.433-.822 1.297-.85l.454-.013v-.166c0-.21-.045-.364-.135-.465-.09-.1-.234-.15-.434-.15-.222 0-.474.07-.756.206l-.124-.31c.132-.07.276-.128.433-.168.157-.04.315-.062.473-.062.32 0 .556.07.71.212.153.143.23.37.23.682v1.826h-.3zm-.915-.285c.253 0 .45-.07.595-.208.145-.14.217-.332.217-.58v-.243l-.405.018c-.322.012-.555.062-.697.15s-.214.227-.214.414c0 .146.045.258.133.334.086.076.21.115.37.115zM86.9 48.375v.256l-.494.06c.045.058.086.132.122.224.035.092.054.196.054.312 0 .262-.09.47-.27.627-.18.156-.424.234-.736.234-.08 0-.155-.006-.225-.02-.172.092-.258.206-.258.345 0 .073.03.127.09.162s.164.053.31.053h.475c.29 0 .512.062.668.183.155.123.232.3.232.533 0 .296-.118.52-.356.677-.236.155-.583.233-1.04.233-.35 0-.618-.065-.808-.195-.19-.13-.285-.314-.285-.552 0-.163.053-.304.156-.423.104-.118.25-.2.44-.24-.07-.032-.126-.08-.173-.145-.046-.065-.07-.142-.07-.228 0-.098.026-.183.08-.257.05-.072.133-.144.245-.212-.138-.056-.25-.152-.338-.29s-.13-.292-.13-.468c0-.293.087-.52.263-.678.176-.16.425-.238.747-.238.14 0 .267.017.38.05h.924zM84.768 51.5c0 .145.062.255.184.33.123.074.298.11.525.11.34 0 .593-.05.756-.15.165-.103.246-.24.246-.415 0-.145-.045-.245-.134-.3-.09-.058-.258-.085-.506-.085h-.485c-.184 0-.326.043-.43.13s-.153.216-.153.38zm.22-2.268c0 .187.053.328.16.424.104.097.252.145.44.145.396 0 .594-.19.594-.575 0-.402-.2-.604-.6-.604-.19 0-.337.053-.44.155s-.153.255-.153.457zM88.58 51.1c-.396 0-.707-.12-.936-.362-.23-.24-.344-.575-.344-1.004 0-.43.106-.773.32-1.027.21-.254.496-.38.854-.38.335 0 .6.11.796.33s.293.51.293.872v.256H87.72c.008.314.087.553.237.716.15.162.362.244.636.244.288 0 .573-.06.854-.182v.36c-.143.063-.278.107-.406.135-.125.026-.28.04-.46.04zm-.11-2.434c-.214 0-.386.07-.513.21-.128.14-.203.333-.227.58h1.4c0-.255-.06-.45-.172-.587-.113-.137-.276-.204-.487-.204zM72.526 54.71c0 .437-.11.777-.33 1.022s-.522.367-.91.367c-.24 0-.452-.058-.637-.17-.187-.112-.33-.272-.43-.483-.102-.21-.152-.455-.152-.736 0-.436.11-.775.327-1.02s.52-.364.908-.364c.375 0 .672.125.892.373.22.25.33.585.33 1.01zm-2.038 0c0 .343.068.603.205.782.137.18.338.268.603.268s.467-.09.604-.267c.137-.18.206-.44.206-.782 0-.34-.07-.598-.206-.774-.138-.177-.34-.266-.61-.266-.264 0-.464.088-.6.262s-.202.433-.202.78zM73.823 56.05l-1.016-2.675h.435l.576 1.587c.13.37.206.612.23.723h.02c.017-.086.073-.265.17-.536.094-.272.308-.863.64-1.774h.435l-1.016 2.676h-.474zM76.87 56.1c-.395 0-.706-.12-.935-.362-.23-.24-.344-.575-.344-1.004 0-.43.107-.773.32-1.027.212-.254.497-.38.855-.38.335 0 .6.11.796.33s.294.51.294.872v.256H76.01c.01.314.088.553.238.716.15.162.362.244.636.244.288 0 .573-.06.854-.182v.36c-.143.063-.278.107-.406.135-.126.026-.28.04-.46.04zm-.108-2.434c-.215 0-.387.07-.514.21-.128.14-.203.333-.227.58h1.4c0-.255-.058-.45-.17-.587-.114-.137-.277-.204-.488-.204zM79.767 53.326c.12 0 .226.01.32.03l-.057.375c-.11-.023-.208-.035-.293-.035-.216 0-.4.088-.556.264-.152.175-.23.394-.23.655v1.436h-.404v-2.675h.335l.047.496h.02c.1-.174.22-.308.36-.402.14-.095.293-.142.46-.142zM63.954 57.48h1.008c.474 0 .816.072 1.028.213.21.143.317.366.317.672 0 .212-.06.386-.177.523-.118.138-.29.227-.516.268v.024c.542.093.813.378.813.854 0 .32-.108.568-.323.747-.216.18-.518.27-.905.27h-1.246v-3.57zm.416 1.53h.684c.293 0 .504-.046.632-.138s.193-.247.193-.466c0-.2-.073-.344-.216-.433s-.37-.134-.684-.134h-.61v1.17zm0 .35v1.337h.745c.288 0 .505-.057.65-.168.146-.112.22-.287.22-.524 0-.222-.075-.384-.225-.488-.148-.104-.375-.156-.68-.156h-.71zM67.538 61.05h-.405v-3.798h.405v3.8zM68.78 58.375v1.736c0 .22.05.382.148.49s.255.16.466.16c.28 0 .484-.077.614-.23.13-.153.194-.403.194-.75v-1.406h.405v2.676h-.334l-.06-.36h-.02c-.084.134-.2.234-.346.304-.147.07-.315.105-.504.105-.326 0-.57-.078-.73-.233-.163-.154-.244-.4-.244-.742v-1.75h.41zM72.597 61.1c-.396 0-.708-.12-.936-.362-.228-.24-.342-.575-.342-1.004 0-.43.106-.773.32-1.027.21-.254.497-.38.854-.38.336 0 .6.11.796.33s.293.51.293.872v.256H71.74c.008.314.087.553.238.716.15.162.363.244.636.244.288 0 .572-.06.854-.182v.36c-.144.063-.28.107-.407.135-.128.026-.282.04-.463.04zm-.11-2.434c-.215 0-.386.07-.513.21-.128.14-.203.333-.226.58h1.398c0-.255-.057-.45-.17-.587-.114-.137-.277-.204-.49-.204zM75.136 60.765c.07 0 .14-.006.207-.017.067-.01.12-.02.16-.032v.31c-.045.02-.11.04-.195.053-.085.013-.162.02-.23.02-.518 0-.776-.272-.776-.818V58.69h-.384v-.195l.384-.168.17-.57h.235v.62h.776v.313h-.776v1.575c0 .16.038.285.114.37.078.086.182.13.316.13zM78.346 59.71c0 .437-.11.777-.33 1.022s-.522.367-.91.367c-.24 0-.45-.058-.637-.17-.187-.112-.33-.272-.43-.483-.103-.21-.152-.455-.152-.736 0-.436.108-.775.327-1.02.218-.242.52-.364.908-.364.374 0 .672.125.892.373.22.25.33.585.33 1.01zm-2.038 0c0 .343.068.603.205.782.137.18.338.268.603.268.266 0 .467-.09.604-.267.138-.18.206-.44.206-.782 0-.34-.068-.598-.206-.774s-.34-.266-.61-.266c-.264 0-.464.088-.6.262-.135.173-.202.433-.202.78zM81.367 59.71c0 .437-.11.777-.33 1.022s-.523.367-.91.367c-.24 0-.452-.058-.638-.17-.187-.112-.33-.272-.43-.483-.102-.21-.152-.455-.152-.736 0-.436.11-.775.327-1.02.22-.242.52-.364.908-.364.375 0 .672.125.893.373.22.25.33.585.33 1.01zm-2.04 0c0 .343.07.603.206.782.137.18.338.268.604.268.265 0 .467-.09.604-.267.138-.18.207-.44.207-.782 0-.34-.07-.598-.206-.774-.137-.177-.34-.266-.608-.266-.266 0-.466.088-.6.262-.137.173-.204.433-.204.78zM82.94 60.765c.073 0 .142-.006.21-.017.065-.01.118-.02.157-.032v.31c-.044.02-.108.04-.194.053-.085.013-.162.02-.23.02-.518 0-.776-.272-.776-.818V58.69h-.383v-.195l.383-.168.17-.57h.235v.62h.776v.313h-.776v1.575c0 .16.038.285.115.37.076.086.18.13.314.13zM85.673 61.05v-1.73c0-.218-.05-.38-.15-.487-.098-.107-.254-.162-.465-.162-.282 0-.487.078-.616.23-.13.153-.194.404-.194.753v1.398h-.405v-3.798h.405v1.15c0 .138-.007.253-.02.344h.024c.08-.13.193-.23.34-.304.147-.074.315-.11.505-.11.327 0 .572.077.736.232.163.155.245.402.245.74v1.746h-.405z"/>
    </g>
    <path fill="#67A9DC" d="M90.36 115.43c0-1.56 1.276-2.835 2.835-2.835h52.72c1.56 0 2.836 1.276 2.836 2.835v6.615c0 1.56-1.275 2.835-2.834 2.835H93.194c-1.56 0-2.835-1.276-2.835-2.835v-6.615z"/>
    <path fill="#83BBE6" d="M90.36 111.43c0-1.56 1.276-2.835 2.835-2.835h52.72c1.56 0 2.836 1.276 2.836 2.835v6.615c0 1.56-1.275 2.835-2.834 2.835H93.194c-1.56 0-2.835-1.276-2.835-2.835v-6.615z"/>
    <path fill="#83BBE6" d="M90.36 116.737h58.39v10.142H90.36z"/>
    <g fill="#FFF">
        <path d="M106.366 117.213c0 .434-.148.768-.444 1-.296.234-.72.35-1.27.35h-.504v1.686h-.498v-4.284h1.11c1.07 0 1.606.415 1.606 1.247zm-2.218.923h.448c.44 0 .76-.07.958-.214s.296-.37.296-.686c0-.283-.093-.494-.278-.633s-.475-.208-.867-.208h-.557v1.74zM108.545 120.307c-.475 0-.85-.145-1.124-.434s-.41-.69-.41-1.204c0-.52.127-.93.382-1.234s.598-.457 1.027-.457c.4 0 .72.132.954.395.234.266.352.614.352 1.048v.308h-2.212c.01.378.104.664.285.86s.435.292.763.292c.346 0 .688-.072 1.025-.217v.434c-.172.073-.335.127-.488.158-.153.033-.338.05-.555.05zm-.132-2.92c-.258 0-.464.083-.617.25s-.243.4-.27.698h1.678c0-.307-.068-.54-.205-.704s-.333-.244-.587-.244zM112.05 116.985c.42 0 .748.145.98.432.234.29.352.696.352 1.224s-.118.94-.354 1.23-.562.438-.98.438c-.208 0-.4-.04-.572-.115-.173-.077-.317-.196-.435-.356h-.034l-.103.413h-.35v-4.56h.487v1.108c0 .248-.008.47-.023.668h.023c.228-.32.564-.48 1.01-.48zm-.07.407c-.333 0-.572.095-.72.286-.145.19-.22.51-.22.962s.076.774.227.968c.15.195.392.292.724.292.3 0 .522-.108.67-.327.145-.217.22-.53.22-.938 0-.418-.074-.73-.22-.935s-.374-.308-.68-.308zM115.726 116.985c.422 0 .75.145.982.432.233.29.35.696.35 1.224s-.117.94-.353 1.23-.562.438-.98.438c-.208 0-.4-.04-.572-.115-.173-.077-.317-.196-.435-.356h-.035l-.103.413h-.35v-4.56h.487v1.108c0 .248-.008.47-.023.668h.023c.228-.32.564-.48 1.01-.48zm-.07.407c-.332 0-.57.095-.718.286-.146.19-.22.51-.22.962s.075.774.226.968c.15.195.392.292.724.292.3 0 .52-.108.668-.327.146-.217.22-.53.22-.938 0-.418-.073-.73-.22-.935s-.374-.308-.68-.308zM118.395 120.248h-.486v-4.56h.485v4.56zM120.783 120.307c-.475 0-.85-.145-1.124-.434s-.412-.69-.412-1.204c0-.52.127-.93.382-1.234s.598-.457 1.027-.457c.402 0 .72.132.955.395.234.266.352.614.352 1.048v.308h-2.212c.01.378.104.664.285.86s.436.292.764.292c.347 0 .69-.072 1.026-.217v.434c-.172.073-.335.127-.488.158-.154.033-.34.05-.555.05zm-.132-2.92c-.257 0-.463.083-.616.25s-.243.4-.27.698h1.678c0-.307-.068-.54-.205-.704s-.332-.244-.586-.244zM125.96 120.248h-.587l-1.562-2.077-.447.4v1.678h-.498v-4.283h.498v2.124l1.942-2.125h.59l-1.724 1.86 1.79 2.423zM126.434 116.167c0-.11.027-.192.082-.245.055-.05.123-.077.205-.077.08 0 .147.026.203.08s.085.133.085.242-.028.19-.085.245-.124.08-.202.08c-.08 0-.15-.026-.204-.08s-.082-.135-.082-.245zm.527 4.08h-.485v-3.21h.486v3.21zM129.03 119.906c.086 0 .17-.006.25-.02s.143-.025.19-.04v.373c-.054.024-.132.045-.234.06s-.194.026-.276.026c-.62 0-.932-.327-.932-.98v-1.91h-.46v-.235l.46-.2.205-.687h.28v.744h.933v.378h-.932v1.89c0 .193.046.342.138.445s.218.156.378.156zM131.12 121.376c-.185 0-.33-.026-.435-.08v-.424c.14.04.283.06.434.06.192 0 .34-.06.44-.177s.15-.286.15-.507v-4.283h.498v4.242c0 .37-.094.658-.28.863-.188.204-.458.306-.81.306zM135.762 119.11c0 .376-.137.67-.41.88s-.645.317-1.113.317c-.51 0-.9-.065-1.173-.196v-.48c.176.075.367.134.574.177s.413.064.616.064c.332 0 .582-.062.75-.187.168-.127.252-.302.252-.526 0-.148-.03-.27-.09-.364s-.16-.183-.3-.263-.35-.17-.636-.272c-.398-.143-.684-.312-.854-.507s-.256-.45-.256-.764c0-.33.124-.593.372-.788s.576-.293.984-.293c.426 0 .817.078 1.175.234l-.155.433c-.354-.148-.697-.223-1.03-.223-.265 0-.47.057-.62.17s-.222.27-.222.472c0 .148.027.27.082.365s.146.182.276.26c.13.08.33.167.597.263.45.16.76.332.928.516s.254.42.254.713z"/>
    </g>
    <path fill="#4278A7" d="M90.36 186.595h58.39v.398H90.36zM90.36 138.71h58.39v.17H90.36zM90.36 150.71h58.39v.17H90.36zM90.36 174.71h58.39v.17H90.36z"/>
    <path fill="none" d="M119.376 34.433h16.013v45.243h-16.014zM126.652 31.38c.368 0 .666-.55.666-1.23s-.3-1.228-.666-1.228h-7.276v2.458h7.276zM119.378 90.826c1.79 0 3.25-1.46 3.25-3.257 0-1.798-1.46-3.252-3.25-3.252h-.003v6.508h.003z"/>
    <path fill="#67A9DC" d="M134.11 25.824h-14.735v3.098h7.276c.37 0 .667.55.667 1.228s-.3 1.23-.666 1.23h-7.275v3.052h16.013v45.243h-16.013v4.643h.003c1.79 0 3.25 1.455 3.25 3.25 0 1.798-1.46 3.258-3.25 3.258h-.003v5.036h14.734c2.814 0 5.096-2.284 5.096-5.097v-59.84c0-2.814-2.28-5.1-5.097-5.1z"/>
    <path fill="#4278A7" d="M116.124 87.57c0 1.796 1.46 3.255 3.252 3.256v-6.508c-1.793.002-3.252 1.456-3.252 3.252zM111.44 30.15c0 .68.295 1.23.665 1.23h7.27v-2.458h-7.27c-.37 0-.664.55-.664 1.228z"/>
    <path fill="#83BBE6" d="M116.124 87.57c0-1.796 1.46-3.25 3.252-3.25v-4.644h-16.01V34.433h16.01V31.38h-7.27c-.37 0-.665-.55-.665-1.23s.295-1.228.665-1.228h7.27v-3.098h-14.733c-2.82 0-5.097 2.287-5.097 5.102v59.84c0 2.812 2.277 5.096 5.097 5.096h14.734v-5.036c-1.793 0-3.252-1.46-3.252-3.256z"/>
    <path fill="#E6E326" d="M122.834 47.04c-.015-1.5 1.222-2.218 1.278-2.254-.695-1.017-1.778-1.157-2.164-1.173-.922-.093-1.798.543-2.266.543-.467 0-1.188-.53-1.953-.515-1.006.016-1.932.585-2.45 1.485-1.043 1.81-.266 4.494.75 5.963.498.72 1.09 1.527 1.87 1.498.748-.03 1.032-.485 1.938-.485.906 0 1.16.486 1.954.47.807-.014 1.317-.732 1.81-1.453.572-.834.807-1.642.82-1.683-.018-.008-1.572-.603-1.588-2.394zm-1.49-4.398c.413-.5.692-1.196.616-1.89-.595.024-1.316.396-1.743.896-.383.444-.718 1.152-.63 1.83.665.053 1.343-.336 1.757-.836z"/>
    <g fill="#E6E326">
        <path d="M115.487 63.472h-.03c-.37 0-.673.303-.673.674v2.933c0 .37.303.673.674.673h.03c.37 0 .673-.303.673-.674v-2.934c0-.37-.302-.674-.673-.674zM116.483 68.21c0 .34.278.618.62.618h.66v1.584c0 .372.303.675.674.675h.03c.37 0 .674-.303.674-.675v-1.584h.925v1.584c0 .372.304.675.675.675h.028c.372 0 .674-.303.674-.675v-1.584h.662c.34 0 .62-.277.62-.618v-4.63h-6.24v4.63zM121.157 60.77l.525-.81c.034-.05.02-.12-.033-.154-.052-.034-.122-.02-.155.033l-.545.838c-.41-.167-.865-.262-1.347-.262s-.938.094-1.348.262l-.544-.84c-.032-.052-.103-.066-.154-.032-.052.033-.067.103-.033.154l.526.81c-.95.466-1.588 1.34-1.588 2.346 0 .062.004.123.01.183h6.263c.005-.06.01-.122.01-.184 0-1.004-.64-1.88-1.588-2.345zm-3.006 1.454c-.165 0-.3-.134-.3-.3s.134-.302.3-.302c.168 0 .303.134.303.3s-.135.302-.302.302zm2.906 0c-.166 0-.302-.134-.302-.3s.135-.302.302-.302c.167 0 .3.134.3.3s-.134.302-.3.302zM123.748 63.472h-.028c-.37 0-.675.303-.675.674v2.933c0 .37.304.673.675.673h.028c.372 0 .674-.303.674-.674v-2.934c0-.37-.303-.674-.674-.674z"/>
    </g>
    <path fill="#4278A7" d="M179.36 11.595h58.39v.398h-58.39z"/>
    <g fill="#356282">
        <path d="M200.995 123.154h-.492l-.864-2.868c-.042-.127-.088-.287-.14-.48s-.076-.31-.078-.35c-.043.26-.11.54-.205.848l-.838 2.85h-.493l-1.14-4.282h.527l.677 2.646c.095.37.163.707.206 1.008.053-.357.13-.707.234-1.05l.768-2.603h.527l.806 2.628c.095.304.174.646.238 1.026.037-.277.107-.615.21-1.014l.675-2.64h.527l-1.145 4.282zM204.094 123.213c-.475 0-.85-.145-1.123-.434s-.41-.69-.41-1.205c0-.518.127-.93.382-1.233s.597-.457 1.026-.457c.402 0 .72.133.955.396.234.267.352.615.352 1.05v.307h-2.212c.01.377.105.663.286.858s.434.293.762.293c.346 0 .688-.072 1.025-.217v.435c-.172.074-.334.128-.487.16-.154.032-.34.048-.556.048zm-.132-2.92c-.258 0-.463.083-.616.25s-.244.4-.27.698h1.678c0-.306-.068-.54-.205-.703s-.334-.245-.588-.245zM208.078 123.154l-.097-.457h-.022c-.16.2-.32.338-.48.408-.158.07-.357.107-.596.107-.318 0-.567-.082-.748-.246s-.27-.397-.27-.7c0-.648.518-.988 1.555-1.02l.544-.018v-.2c0-.25-.054-.437-.162-.557-.108-.12-.282-.18-.52-.18-.27 0-.57.082-.91.246l-.148-.372c.158-.086.332-.153.52-.202s.378-.073.567-.073c.384 0 .668.084.853.254s.276.442.276.817v2.192h-.362zm-1.098-.343c.303 0 .54-.082.714-.248s.26-.398.26-.697v-.29l-.487.02c-.387.015-.665.075-.836.18-.17.108-.256.273-.256.498 0 .176.054.31.16.4s.254.138.446.138zM210.478 122.81c.086 0 .17-.005.25-.018s.143-.026.19-.04v.372c-.054.025-.13.046-.233.062s-.195.025-.277.025c-.62 0-.932-.326-.932-.98v-1.91h-.46v-.234l.46-.202.205-.686h.282v.744h.932v.378h-.932v1.89c0 .193.046.342.138.445s.218.156.378.156zM213.756 123.154v-2.077c0-.262-.06-.457-.18-.586s-.305-.192-.56-.192c-.337 0-.583.092-.738.275s-.233.484-.233.902v1.68h-.486v-4.56h.485v1.38c0 .166-.008.304-.023.413h.03c.095-.154.23-.275.408-.365.177-.088.378-.133.604-.133.393 0 .688.094.884.28.196.187.294.482.294.89v2.094h-.486zM216.598 123.213c-.475 0-.85-.145-1.123-.434s-.412-.69-.412-1.205c0-.518.128-.93.383-1.233s.597-.457 1.026-.457c.402 0 .72.133.955.396.234.267.352.615.352 1.05v.307h-2.213c.01.377.105.663.286.858s.435.293.763.293c.346 0 .688-.072 1.025-.217v.435c-.17.074-.333.128-.486.16-.154.032-.34.048-.556.048zm-.132-2.92c-.258 0-.463.083-.616.25s-.244.4-.27.698h1.678c0-.306-.068-.54-.205-.703s-.333-.245-.587-.245zM220.073 119.885c.143 0 .27.012.384.035l-.067.45c-.133-.028-.25-.043-.352-.043-.26 0-.48.105-.666.316s-.277.474-.277.788v1.724h-.486v-3.21h.4l.056.594h.023c.118-.21.262-.37.43-.483s.35-.17.553-.17z"/>
    </g>
    <g fill="#4278A7">
        <path d="M205.6 6.934h-.74l-1.296-4.303c-.062-.188-.13-.43-.206-.72-.076-.29-.116-.464-.12-.522-.063.387-.166.81-.307 1.27l-1.256 4.276h-.738L199.226.51h.792l1.015 3.967c.14.558.243 1.062.308 1.512.08-.536.197-1.06.353-1.573l1.15-3.907h.792l1.21 3.942c.14.454.258.967.354 1.537.055-.416.16-.923.315-1.52l1.01-3.96h.792L205.6 6.933zM210.248 7.022c-.712 0-1.274-.217-1.686-.65-.412-.434-.617-1.035-.617-1.807 0-.775.19-1.393.573-1.85.382-.457.896-.686 1.54-.686.604 0 1.08.197 1.433.595.353.396.528.92.528 1.57v.462H208.7c.016.565.158.995.43 1.288.27.293.652.44 1.145.44.52 0 1.03-.11 1.538-.327v.65c-.258.112-.502.19-.732.24-.23.05-.506.074-.832.074zm-.198-4.38c-.387 0-.695.125-.925.376-.23.253-.365.602-.406 1.047h2.517c0-.46-.103-.812-.308-1.058-.206-.244-.5-.366-.88-.366zM215.504 2.04c.633 0 1.124.215 1.475.647.35.432.523 1.044.523 1.835s-.177 1.405-.53 1.843c-.353.438-.842.657-1.47.657-.312 0-.6-.058-.858-.174-.26-.115-.477-.293-.652-.533h-.053l-.154.62h-.522V.094h.73v1.662c0 .372-.013.706-.036 1.002h.035c.34-.48.843-.72 1.51-.72zm-.105.61c-.5 0-.858.143-1.078.428-.22.286-.33.767-.33 1.444 0 .676.113 1.16.34 1.452.225.29.587.437 1.085.437.448 0 .782-.162 1.002-.488.22-.327.328-.796.328-1.41 0-.625-.11-1.093-.33-1.4s-.56-.463-1.02-.463z"/>
    </g>
    <g fill="#356282">
        <path d="M203.537 134.054c0 .377-.137.67-.41.882s-.645.316-1.113.316c-.508 0-.898-.065-1.172-.196v-.48c.176.074.367.133.574.176s.412.064.615.064c.333 0 .583-.063.75-.188.17-.127.253-.302.253-.526 0-.148-.03-.27-.09-.364s-.158-.183-.298-.263-.353-.17-.638-.272c-.398-.143-.683-.312-.854-.507s-.257-.45-.257-.765c0-.33.124-.592.372-.787s.576-.293.984-.293c.426 0 .817.078 1.175.234l-.155.434c-.354-.148-.697-.223-1.03-.223-.265 0-.47.057-.62.17s-.222.27-.222.472c0 .148.027.27.082.365s.147.182.277.26c.13.08.327.167.595.263.45.16.76.332.928.516s.254.42.254.714zM207.112 133.585c0 .523-.132.933-.396 1.226-.264.296-.628.442-1.093.442-.287 0-.542-.067-.765-.202s-.395-.328-.516-.58-.182-.547-.182-.885c0-.523.13-.93.393-1.224.262-.29.625-.437 1.09-.437.45 0 .807.15 1.07.448s.4.705.4 1.215zm-2.447 0c0 .41.082.723.246.938s.406.322.725.322.56-.106.726-.32c.166-.214.248-.527.248-.94 0-.407-.082-.717-.247-.93-.164-.21-.408-.317-.73-.317-.318 0-.56.104-.72.313s-.245.52-.245.935zM209.247 135.252c-.465 0-.824-.143-1.08-.43-.254-.285-.382-.69-.382-1.214 0-.537.13-.952.39-1.245s.626-.44 1.104-.44c.153 0 .308.018.462.05s.275.073.363.118l-.15.414c-.106-.043-.224-.078-.35-.107-.128-.027-.24-.042-.338-.042-.652 0-.98.416-.98 1.248 0 .395.08.697.24.908s.395.317.707.317c.268 0 .542-.058.823-.173v.43c-.213.112-.483.168-.81.168zM210.78 131.112c0-.11.027-.192.082-.245.055-.05.123-.077.205-.077.078 0 .146.026.202.08s.084.133.084.242-.028.19-.085.245-.125.08-.203.08c-.082 0-.15-.026-.205-.08s-.082-.136-.082-.245zm.527 4.08h-.486v-3.21h.487v3.21zM214.313 135.193l-.097-.457h-.023c-.16.2-.32.338-.48.408-.158.07-.357.107-.596.107-.318 0-.567-.08-.748-.245s-.272-.397-.272-.7c0-.648.52-.988 1.556-1.02l.545-.018v-.2c0-.25-.055-.437-.163-.557-.108-.12-.282-.18-.52-.18-.27 0-.57.08-.91.245l-.148-.372c.157-.086.33-.153.52-.202s.377-.072.566-.072c.383 0 .667.085.852.255s.276.442.276.817v2.19h-.36zm-1.1-.343c.304 0 .542-.083.715-.25s.26-.397.26-.696v-.29l-.487.02c-.386.015-.664.075-.835.18-.17.108-.257.273-.257.498 0 .176.054.31.16.4s.255.138.446.138zM216.16 135.193h-.485v-4.56h.486v4.56z"/>
    </g>
    <g fill="#356282">
        <path d="M197.977 145.048c0 .707-.19 1.248-.575 1.622s-.937.56-1.657.56h-1.187v-4.282h1.312c.666 0 1.184.185 1.553.554s.554.884.554 1.546zm-.527.017c0-.56-.14-.98-.42-1.263s-.697-.425-1.25-.425h-.724v3.422h.606c.594 0 1.04-.147 1.34-.44.298-.29.448-.722.448-1.295zM200.833 147.23l-.097-.457h-.023c-.16.2-.32.338-.48.408-.158.072-.357.108-.596.108-.318 0-.567-.082-.748-.246s-.272-.397-.272-.7c0-.648.52-.988 1.556-1.02l.545-.018v-.2c0-.25-.055-.437-.163-.557-.108-.12-.282-.18-.52-.18-.27 0-.57.08-.91.245l-.148-.372c.157-.086.33-.153.52-.202s.377-.073.566-.073c.383 0 .667.085.852.255s.276.442.276.817v2.19h-.36zm-1.098-.342c.303 0 .54-.083.714-.25s.258-.397.258-.696v-.29l-.486.02c-.387.015-.665.075-.836.18-.17.108-.257.273-.257.498 0 .176.053.31.16.4s.253.138.445.138zM203.233 146.888c.086 0 .17-.006.25-.02s.143-.025.19-.04v.373c-.054.026-.13.047-.233.063s-.195.025-.277.025c-.62 0-.932-.327-.932-.98v-1.91h-.46v-.235l.46-.202.206-.685h.28v.744h.933v.377h-.933v1.89c0 .193.046.342.138.445s.218.156.378.156zM206.288 147.23l-.097-.457h-.022c-.16.2-.32.338-.48.408-.158.072-.357.108-.596.108-.318 0-.567-.082-.748-.246s-.27-.397-.27-.7c0-.648.518-.988 1.555-1.02l.544-.018v-.2c0-.25-.054-.437-.162-.557-.108-.12-.282-.18-.52-.18-.27 0-.57.08-.91.245l-.148-.372c.158-.086.332-.153.52-.202s.378-.073.567-.073c.384 0 .668.085.853.255s.276.442.276.817v2.19h-.362zm-1.098-.342c.303 0 .54-.083.714-.25s.26-.397.26-.696v-.29l-.487.02c-.387.015-.665.075-.836.18-.17.108-.256.273-.256.498 0 .176.054.31.16.4s.254.138.446.138zM209.145 143.967c.422 0 .75.145.983.432.233.288.35.695.35 1.223s-.117.938-.353 1.23-.562.437-.98.437c-.21 0-.4-.04-.572-.115-.173-.077-.318-.196-.436-.356h-.035l-.103.412h-.35v-4.56h.486v1.108c0 .248-.008.47-.023.668h.023c.228-.32.564-.48 1.01-.48zm-.07.407c-.332 0-.57.095-.718.286-.146.19-.22.51-.22.962s.075.774.226.968c.15.195.392.292.724.292.3 0 .52-.108.668-.327.146-.217.22-.53.22-.938 0-.418-.073-.73-.22-.935s-.374-.308-.68-.308zM213.302 147.23l-.097-.457h-.023c-.16.2-.32.338-.48.408-.158.072-.357.108-.596.108-.318 0-.567-.082-.748-.246s-.27-.397-.27-.7c0-.648.518-.988 1.555-1.02l.545-.018v-.2c0-.25-.054-.437-.162-.557-.108-.12-.282-.18-.52-.18-.27 0-.57.08-.91.245l-.148-.372c.158-.086.332-.153.52-.202s.378-.073.567-.073c.383 0 .667.085.852.255s.276.442.276.817v2.19h-.36zm-1.1-.342c.304 0 .542-.083.715-.25s.26-.397.26-.696v-.29l-.487.02c-.387.015-.665.075-.836.18-.17.108-.257.273-.257.498 0 .176.054.31.16.4s.255.138.446.138zM216.736 146.354c0 .3-.11.53-.334.69s-.535.244-.938.244c-.426 0-.758-.067-.996-.202v-.45c.154.077.32.14.497.184s.347.067.51.067c.255 0 .45-.04.587-.122.137-.08.205-.204.205-.37 0-.125-.054-.23-.162-.32-.108-.09-.32-.194-.635-.315-.3-.11-.51-.208-.637-.29s-.22-.18-.28-.284-.094-.23-.094-.378c0-.262.105-.468.318-.62.213-.15.505-.227.876-.227.346 0 .684.07 1.014.212l-.173.396c-.322-.133-.614-.2-.876-.2-.23 0-.405.037-.522.11s-.176.17-.176.298c0 .086.022.16.066.22s.114.118.212.173.285.133.562.236c.38.14.64.278.772.42s.202.315.202.528zM218.883 147.29c-.475 0-.85-.146-1.123-.435s-.412-.69-.412-1.204c0-.517.128-.928.383-1.232s.598-.457 1.027-.457c.402 0 .72.134.955.397.234.266.352.614.352 1.048v.308h-2.212c.01.377.105.663.286.858s.435.294.763.294c.347 0 .69-.072 1.026-.217v.434c-.172.075-.334.13-.487.16-.154.033-.34.05-.557.05zm-.132-2.922c-.257 0-.462.084-.615.252s-.244.4-.27.697h1.678c0-.307-.068-.54-.205-.704s-.333-.245-.587-.245zM222.964 146.354c0 .3-.11.53-.334.69s-.535.244-.938.244c-.426 0-.758-.067-.996-.202v-.45c.154.077.32.14.497.184s.347.067.51.067c.255 0 .45-.04.587-.122.137-.08.205-.204.205-.37 0-.125-.054-.23-.162-.32-.108-.09-.32-.194-.635-.315-.3-.11-.51-.208-.637-.29s-.22-.18-.28-.284-.093-.23-.093-.378c0-.262.106-.468.32-.62.212-.15.504-.227.875-.227.346 0 .684.07 1.014.212l-.173.396c-.322-.133-.614-.2-.876-.2-.23 0-.404.037-.52.11s-.177.17-.177.298c0 .086.022.16.066.22s.114.118.212.173.285.133.562.236c.38.14.64.278.772.42s.202.315.202.528z"/>
    </g>
    <g fill="#356282">
        <path d="M204.885 159.27v-4.284h.498v4.283h-.498zM209.256 157.66c0 .524-.132.934-.396 1.227-.264.295-.628.44-1.093.44-.287 0-.542-.066-.765-.2s-.395-.33-.516-.58-.182-.548-.182-.886c0-.522.13-.93.393-1.223.262-.29.625-.438 1.09-.438.45 0 .807.148 1.07.447s.4.704.4 1.214zm-2.446 0c0 .41.082.724.246.94s.405.32.724.32.56-.105.726-.32c.165-.213.247-.526.247-.938 0-.408-.082-.718-.247-.93-.165-.212-.41-.318-.73-.318s-.56.104-.722.313-.244.52-.244.934zM211.5 159.27h-.498v-3.842h-1.356v-.442h3.21v.442H211.5v3.84z"/>
    </g>
    <g fill="#356282">
        <path d="M206.604 169.638c0-.13.03-.23.09-.297.06-.067.145-.1.256-.1.113 0 .202.032.266.1.063.067.095.167.095.298 0 .127-.03.225-.096.293s-.152.104-.264.104c-.1 0-.182-.03-.247-.093-.066-.06-.1-.16-.1-.302zM208.2 169.638c0-.13.03-.23.09-.297.06-.067.146-.1.257-.1.113 0 .202.032.266.1.063.067.095.167.095.298 0 .127-.032.225-.097.293s-.15.104-.263.104c-.1 0-.182-.03-.247-.093-.066-.06-.1-.16-.1-.302zM209.797 169.638c0-.13.03-.23.09-.297.06-.067.145-.1.256-.1.113 0 .202.032.266.1.062.067.094.167.094.298 0 .127-.032.225-.097.293s-.152.104-.264.104c-.1 0-.182-.03-.247-.093-.066-.06-.1-.16-.1-.302z"/>
    </g>
    <path fill="#4278A7" d="M179.36 114.595h58.39v.398h-58.39zM179.36 126.71h58.39v.17h-58.39zM179.36 138.71h58.39v.17h-58.39zM179.36 150.71h58.39v.17h-58.39zM179.36 162.71h58.39v.17h-58.39zM179.36 174.595h58.39v.398h-58.39z"/>
    <path fill="none" stroke="#4278A7" stroke-width=".5" stroke-miterlimit="10" d="M59.454 65.882h29.698"/>
    <path fill="#4278A7" d="M88.787 67.128l2.16-1.246-2.16-1.247"/>
    <path fill="none" stroke="#4278A7" stroke-width=".5" stroke-miterlimit="10" d="M90.946 70.882H61.248"/>
    <path fill="#4278A7" d="M61.612 69.635l-2.158 1.247 2.158 1.246"/>
    <g fill="#4278A7">
        <path d="M155.64 55.05h-.416v-1.68h-1.88v1.68h-.415v-3.568h.414V53h1.88v-1.52h.415v3.57zM157.716 55.05h-.415v-3.2h-1.13v-.368h2.677v.368h-1.13v3.2zM160.483 55.05h-.415v-3.2h-1.13v-.368h2.675v.368h-1.13v3.2zM164.413 52.52c0 .362-.123.64-.37.835-.246.194-.6.29-1.06.29h-.42v1.405h-.414v-3.57h.925c.892 0 1.338.348 1.338 1.04zm-1.848.77h.374c.366 0 .633-.06.797-.178.165-.12.247-.31.247-.57 0-.237-.077-.413-.232-.528-.154-.115-.396-.174-.723-.174h-.465v1.45zM164.87 53.68c0-.43.063-.835.19-1.21.125-.377.307-.706.545-.99H166c-.234.315-.41.66-.53 1.036-.116.376-.176.763-.176 1.16 0 .39.06.77.18 1.145.122.374.295.714.522 1.022h-.39c-.24-.276-.423-.6-.548-.97-.126-.37-.188-.767-.188-1.19zM168.654 54.1c0 .314-.113.56-.342.735-.228.176-.537.264-.928.264-.423 0-.748-.056-.977-.165v-.4c.146.062.307.11.48.146.172.037.343.056.512.056.276 0 .484-.053.624-.158.14-.104.21-.25.21-.438 0-.124-.024-.226-.074-.305s-.133-.15-.25-.22c-.115-.065-.292-.14-.53-.226-.332-.12-.57-.26-.712-.423-.142-.163-.213-.376-.213-.638 0-.276.104-.495.31-.658.207-.162.48-.244.82-.244.355 0 .682.065.98.195l-.13.36c-.295-.122-.582-.185-.86-.185-.22 0-.392.048-.515.143-.124.095-.186.226-.186.394 0 .124.022.225.068.304.045.08.122.15.23.218.108.065.273.14.497.22.373.132.63.275.77.43.143.152.214.35.214.595zM170.172 53.68c0 .43-.062.827-.19 1.196-.125.37-.307.69-.544.965h-.39c.225-.305.398-.645.52-1.02.12-.372.18-.755.18-1.145 0-.396-.06-.783-.177-1.16s-.293-.72-.527-1.034h.396c.238.286.42.616.546.993.124.377.186.78.186 1.208zM173.456 51.48l-1.33 3.57h-.406l1.33-3.57h.406zM152.467 60.05h-.41l-.72-2.39c-.035-.105-.073-.238-.115-.4-.043-.16-.064-.258-.066-.29-.035.215-.093.45-.17.706l-.7 2.375h-.41l-.948-3.568h.44l.562 2.204c.078.31.136.59.17.84.045-.297.11-.59.196-.873l.64-2.17h.44l.67 2.19c.08.25.145.536.198.853.03-.23.09-.512.176-.844l.562-2.2h.44l-.955 3.57zM155.05 60.1c-.396 0-.708-.12-.937-.362s-.343-.575-.343-1.004c0-.43.105-.773.318-1.027.212-.254.498-.38.855-.38.336 0 .6.11.796.33s.292.51.292.872v.256h-1.843c.007.314.086.553.236.716.15.162.363.244.637.244.288 0 .572-.06.854-.182v.36c-.144.063-.28.107-.407.135-.125.026-.28.04-.46.04zm-.11-2.434c-.215 0-.386.07-.514.21-.128.14-.203.333-.226.58h1.398c0-.255-.057-.45-.17-.587-.113-.137-.276-.204-.488-.204zM157.97 57.33c.352 0 .624.12.82.36.193.24.29.58.29 1.02s-.098.78-.294 1.024-.47.365-.816.365c-.175 0-.333-.033-.478-.098-.144-.064-.265-.163-.362-.296h-.03l-.085.344h-.29v-3.8h.405v.924c0 .207-.007.393-.02.557h.02c.19-.265.47-.4.84-.4zm-.06.34c-.276 0-.476.08-.598.238-.122.16-.183.426-.183.803 0 .376.06.646.187.808.126.162.326.242.604.242.25 0 .436-.09.558-.27s.183-.443.183-.784c0-.348-.06-.607-.182-.778s-.312-.258-.567-.258zM161.864 59.1c0 .314-.113.56-.342.735-.228.176-.537.264-.928.264-.423 0-.748-.056-.977-.165v-.4c.146.062.307.11.48.146.172.037.343.056.512.056.276 0 .484-.053.624-.158.14-.104.21-.25.21-.438 0-.124-.024-.226-.074-.305s-.133-.15-.25-.22c-.115-.065-.292-.14-.53-.226-.332-.12-.57-.26-.712-.423-.142-.163-.213-.376-.213-.638 0-.276.104-.495.31-.658.207-.162.48-.244.82-.244.355 0 .682.065.98.195l-.13.36c-.295-.122-.582-.185-.86-.185-.22 0-.392.048-.515.143-.124.095-.186.226-.186.394 0 .124.022.225.068.304.045.08.122.15.23.218.108.065.273.14.497.22.373.132.63.275.77.43.143.152.214.35.214.595zM164.842 58.71c0 .437-.11.777-.33 1.022s-.522.367-.91.367c-.24 0-.45-.058-.637-.17-.186-.112-.33-.272-.43-.483-.102-.21-.15-.455-.15-.736 0-.436.107-.775.326-1.02.22-.242.522-.364.91-.364.373 0 .67.125.89.373.222.25.332.585.332 1.01zm-2.038 0c0 .343.068.603.205.782.136.18.337.268.602.268.266 0 .467-.09.604-.267.138-.18.206-.44.206-.782 0-.34-.068-.598-.206-.774s-.34-.266-.61-.266c-.264 0-.464.088-.6.262-.135.173-.202.433-.202.78zM166.622 60.1c-.388 0-.688-.12-.9-.358-.212-.238-.318-.576-.318-1.012 0-.448.108-.794.324-1.038.215-.244.522-.366.92-.366.13 0 .26.014.387.04.13.03.23.062.303.1l-.124.344c-.09-.036-.188-.065-.293-.09-.105-.022-.198-.034-.28-.034-.543 0-.815.346-.815 1.04 0 .328.066.58.2.757s.328.264.59.264c.222 0 .45-.05.685-.145v.36c-.18.09-.406.137-.678.137zM168.333 58.68c.07-.1.177-.23.32-.39l.864-.916h.48l-1.084 1.14 1.16 1.536h-.49l-.945-1.265-.306.264v1h-.4v-3.8h.4v2.015c0 .09-.006.23-.02.416h.02zM171.688 60.1c-.396 0-.707-.12-.936-.362-.23-.24-.344-.575-.344-1.004 0-.43.106-.773.32-1.027.21-.254.496-.38.854-.38.335 0 .6.11.796.33s.293.51.293.872v.256h-1.843c.01.314.088.553.238.716.15.162.362.244.636.244.29 0 .574-.06.855-.182v.36c-.143.063-.278.107-.406.135-.127.026-.28.04-.462.04zm-.11-2.434c-.215 0-.387.07-.514.21-.128.14-.203.333-.227.58h1.4c0-.255-.06-.45-.172-.587-.112-.137-.276-.204-.487-.204zM174.227 59.765c.072 0 .14-.006.208-.017.066-.01.12-.02.158-.032v.31c-.044.02-.108.04-.194.053-.086.013-.163.02-.23.02-.52 0-.777-.272-.777-.818V57.69h-.383v-.195l.383-.168.17-.57h.235v.62h.776v.313h-.776v1.575c0 .16.038.285.115.37.076.086.18.13.314.13zM176.854 59.32c0 .25-.093.44-.278.576-.186.136-.445.203-.78.203-.355 0-.632-.058-.83-.17v-.376c.128.065.266.117.413.154s.288.057.425.057c.212 0 .375-.034.488-.102.114-.067.17-.17.17-.31 0-.103-.044-.192-.134-.267-.092-.074-.268-.162-.53-.263-.25-.093-.426-.174-.53-.243-.105-.07-.184-.147-.234-.235-.052-.088-.077-.192-.077-.315 0-.218.088-.39.265-.516.178-.126.42-.19.73-.19.288 0 .57.06.845.177l-.145.33c-.27-.11-.512-.165-.73-.165-.19 0-.336.03-.434.09s-.145.144-.145.25c0 .07.02.132.055.182.037.05.096.1.177.145.082.046.238.11.47.197.316.115.53.23.643.35s.164.263.164.44z"/>
    </g>
    <g>
        <path fill="none" stroke="#4278A7" stroke-width=".5" stroke-miterlimit="10" d="M147.454 65.882h29.698"/>
        <path fill="#4278A7" d="M176.787 67.128l2.16-1.246-2.16-1.247"/>
    </g>
    <g>
        <path fill="none" stroke="#4278A7" stroke-width=".5" stroke-miterlimit="10" d="M178.946 70.882h-29.698"/>
        <path fill="#4278A7" d="M149.612 69.635l-2.158 1.247 2.158 1.246"/>
    </g>
    <path fill="#83BBE6" d="M208.82 26.82c-4.9 0-9.078 3.347-10.227 7.983-5.7.128-10.298 4.805-10.298 10.536 0 5.81 4.728 10.538 10.54 10.538h9.238l1.482.004V26.855c-.244-.016-.488-.034-.735-.034z"/>
    <path fill="#67A9DC" d="M210.03 26.82c4.9 0 9.078 3.347 10.227 7.983 5.7.128 10.298 4.805 10.298 10.536 0 5.81-4.728 10.538-10.54 10.538h-9.238l-1.482.004V26.855c.244-.016.488-.034.735-.034z"/>
    <g>
        <path fill="#FFF" d="M14.46 43.206h32.91v33.837H14.46z"/>
        <path fill="none" d="M38.093 47.167H21.506c-1.975 0-3.606 1.476-3.884 3.377v20.6c.278 1.9 1.91 3.376 3.884 3.376h16.587c1.975 0 3.606-1.476 3.884-3.377v-20.6c-.278-1.9-1.91-3.376-3.884-3.376z"/>
        <path fill="#4278A7" d="M41.977 29.766c0-2.168-1.774-3.942-3.942-3.942H21.563c-2.168 0-3.942 1.774-3.942 3.942v9.384h24.357v-9.384zM17.622 82.49v9.43c0 2.168 1.774 3.942 3.942 3.942h16.472c2.168 0 3.942-1.774 3.942-3.942v-9.43c.1-.01.193-.044.292-.06H17.343c.095.015.183.05.28.06z"/>
        <path fill="none" d="M38.093 74.52c1.975 0 3.606-1.477 3.884-3.378V50.544c-.278-1.9-1.91-3.377-3.884-3.377h-8.287V74.52h8.287z"/>
        <path fill="#67A9DC" d="M51.154 56.738v-7.9h-.83c-.02-5.028-3.672-9.113-8.347-9.642v-.046h-12.17v8.016h8.286c1.975 0 3.606 1.476 3.884 3.377v20.6c-.278 1.9-1.91 3.376-3.884 3.376h-8.287v7.91H42.27c4.063-.598 7.283-3.877 7.92-8.1h.963v-7.9h-.825v-.896h.825v-7.9h-.825v-.897h.826z"/>
        <path fill="#83BBE6" d="M21.506 74.52c-1.975 0-3.606-1.477-3.884-3.378V50.544c.278-1.9 1.91-3.377 3.884-3.377h8.3V39.15H17.622v.046c-4.675.53-8.327 4.614-8.348 9.64h-1.22v7.902H9.27v16.07c0 4.942 3.522 8.96 8.073 9.623h12.463v-7.91h-8.3z"/>
        <g fill="none" stroke="#E6E326" stroke-linecap="round" stroke-linejoin="round" stroke-miterlimit="10">
            <path d="M29.545 51.95v10.097M29.545 62.047L25.293 66.3"/>
        </g>
    </g>
    <circle fill="#FFF" cx="209.295" cy="42.958" r="7.433"/>
    <path fill="#83BBE6" d="M200.16 66.988h-6.118c-.523-.943-1.53-1.582-2.68-1.582-1.69 0-3.066 1.375-3.066 3.065s1.375 3.066 3.065 3.066c1.153 0 2.16-.64 2.682-1.582h7.602c.82 0 1.483-.664 1.483-1.483v-4.548h-2.967v3.066z"/>
    <path fill="#4278A7" d="M227.75 65.406c-1.21 0-2.258.704-2.756 1.724h-6.045v-3.207h-2.967v4.69c0 .82.664 1.484 1.483 1.484h7.686c.543.864 1.504 1.44 2.598 1.44 1.69 0 3.065-1.374 3.065-3.064s-1.375-3.067-3.066-3.067z"/>
    <g>
        <path fill="#E6E326" d="M209.295 40.476c-1.37 0-2.482 1.114-2.482 2.482 0 1.37 1.113 2.482 2.482 2.482 1.368 0 2.482-1.113 2.482-2.482s-1.113-2.482-2.482-2.482zM209.295 39.747c-.268 0-.484-.217-.484-.484v-.775c0-.268.218-.484.485-.484.268 0 .484.217.484.484v.775c0 .267-.218.484-.485.484zM209.295 46.17c-.268 0-.484.217-.484.484v.775c0 .267.218.484.485.484.268 0 .484-.217.484-.485v-.776c0-.267-.218-.484-.485-.484zM211.566 40.687c-.19-.19-.19-.496 0-.685l.548-.548c.19-.19.496-.19.685 0 .188.19.188.496 0 .685l-.55.547c-.188.19-.495.19-.684 0zM207.024 45.23c-.19-.19-.496-.19-.685 0l-.55.548c-.188.19-.188.496 0 .685.19.19.497.19.686 0l.548-.548c.19-.19.19-.496 0-.685zM212.507 42.958c0-.268.217-.484.484-.484h.776c.268 0 .484.217.484.484 0 .268-.217.484-.484.484h-.775c-.266 0-.483-.216-.483-.484zM206.083 42.958c0-.268-.217-.484-.484-.484h-.776c-.268 0-.484.217-.484.484 0 .268.217.484.484.484h.775c.266 0 .483-.216.483-.484zM211.566 45.23c.19-.19.496-.19.685 0l.55.548c.188.19.188.496 0 .685-.19.19-.497.19-.686 0l-.548-.548c-.19-.19-.19-.496 0-.685zM207.024 40.687c.19-.19.19-.496 0-.685l-.548-.548c-.19-.19-.496-.19-.685 0-.188.19-.188.496 0 .685l.55.547c.188.19.495.19.684 0z"/>
    </g>
</svg>
