<svg xmlns="http://www.w3.org/2000/svg" viewBox="0 0 328.82 187.09">
    <path fill="#67A9DC" d="M298.667 54.632V89.77c-.943.524-1.582 1.53-1.582 2.682 0 1.69 1.375 3.065 3.065 3.065V54.632h-1.483zM303.216 92.452c0-1.152-.64-2.158-1.582-2.68V54.63h-1.483v40.886c1.69 0 3.066-1.375 3.066-3.066z"/>
    <path fill="#4278A7" d="M103.82 28.922h32.574v61.904H103.82z"/>
    <path fill="#FFF" d="M99.4 32.487h37.91V82.43H99.4z"/>
    <g fill="#356282">
        <path d="M22.512 123.154l-.533-1.362H20.26l-.527 1.362h-.504l1.694-4.3h.42l1.684 4.3h-.516zm-.688-1.81l-.498-1.327c-.064-.168-.13-.374-.2-.618-.042.187-.103.393-.184.617l-.504 1.327h1.386zM24.827 123.213c-.465 0-.825-.143-1.08-.43-.255-.285-.382-.69-.382-1.214 0-.538.13-.953.388-1.246s.628-.44 1.106-.44c.153 0 .308.018.462.05s.275.073.363.118l-.15.413c-.106-.043-.224-.078-.35-.107-.128-.027-.24-.042-.338-.042-.652 0-.98.416-.98 1.248 0 .395.08.697.24.908s.395.316.707.316c.268 0 .542-.058.823-.173v.43c-.214.112-.484.168-.81.168zM27.437 122.81c.086 0 .17-.005.25-.018s.143-.026.19-.04v.372c-.054.025-.132.046-.234.062s-.194.025-.276.025c-.62 0-.932-.326-.932-.98v-1.91h-.46v-.234l.46-.202.205-.686h.28v.744h.933v.378h-.932v1.89c0 .193.047.342.14.445s.217.156.377.156zM28.477 119.073c0-.11.027-.192.082-.245.054-.05.122-.077.204-.077.078 0 .146.027.202.08s.085.134.085.243-.027.19-.084.245-.124.08-.202.08c-.082 0-.15-.026-.205-.08s-.083-.136-.083-.245zm.527 4.08h-.486v-3.21h.486v3.21zM32.807 121.546c0 .523-.132.933-.396 1.226-.263.295-.627.44-1.092.44-.287 0-.542-.066-.765-.2s-.395-.33-.516-.58-.182-.548-.182-.886c0-.523.13-.93.393-1.224.262-.29.625-.438 1.09-.438.45 0 .806.15 1.07.448s.4.704.4 1.214zm-2.446 0c0 .41.083.723.247.938s.405.322.724.322.56-.106.726-.32c.165-.214.248-.527.248-.94 0-.407-.083-.717-.248-.93-.165-.21-.408-.317-.73-.317-.318 0-.56.103-.72.312s-.245.52-.245.934zM35.857 123.154v-2.077c0-.262-.06-.457-.18-.586s-.305-.192-.56-.192c-.335 0-.58.09-.737.272s-.234.48-.234.9v1.684h-.486v-3.21h.396l.08.438h.022c.1-.158.24-.28.42-.367s.38-.13.6-.13c.387 0 .678.093.873.278.196.188.294.485.294.896v2.094h-.487zM39.413 122.278c0 .3-.11.53-.334.69s-.536.244-.94.244c-.425 0-.757-.067-.995-.202v-.45c.154.077.32.14.496.184s.35.067.513.067c.254 0 .45-.04.586-.12.136-.08.204-.205.204-.37 0-.126-.055-.232-.163-.322-.107-.088-.318-.193-.633-.314-.3-.11-.512-.208-.638-.29s-.22-.18-.282-.284-.092-.23-.092-.378c0-.262.106-.468.32-.62.212-.15.504-.227.875-.227.347 0 .685.07 1.015.21l-.173.397c-.322-.133-.614-.2-.876-.2-.23 0-.404.037-.52.11s-.177.17-.177.298c0 .086.02.16.064.22s.115.118.213.173.285.134.562.237c.38.14.637.278.77.42s.203.315.203.528z"/>
    </g>
    <g fill="#356282">
        <path d="M15.728 135.193h-.568l-2.34-3.595h-.024c.03.422.047.81.047 1.16v2.435h-.46v-4.283h.562l2.335 3.58h.023c-.004-.053-.013-.222-.026-.508s-.02-.49-.015-.614v-2.458h.466v4.283zM19.604 133.585c0 .523-.132.933-.396 1.226-.264.296-.628.442-1.093.442-.287 0-.542-.067-.765-.202s-.395-.328-.516-.58-.182-.547-.182-.885c0-.523.13-.93.393-1.224.262-.29.625-.437 1.09-.437.45 0 .807.15 1.07.448s.4.705.4 1.215zm-2.446 0c0 .41.082.723.246.938s.405.322.724.322.56-.106.726-.32c.165-.214.247-.527.247-.94 0-.407-.08-.717-.246-.93-.165-.21-.41-.317-.73-.317s-.56.104-.722.313-.244.52-.244.935zM21.494 134.85c.086 0 .17-.006.25-.02s.143-.025.19-.04v.373c-.054.025-.13.046-.233.062s-.194.025-.276.025c-.62 0-.932-.327-.932-.98v-1.91h-.46v-.235l.46-.202.205-.686h.28v.744h.933v.38h-.932v1.89c0 .192.046.34.138.444s.217.156.378.156zM22.534 131.112c0-.11.027-.192.082-.245.055-.05.123-.077.205-.077.08 0 .147.026.203.08s.085.133.085.242-.028.19-.085.245-.124.08-.202.08c-.08 0-.15-.026-.204-.08s-.082-.135-.082-.245zm.527 4.08h-.485v-3.21h.486v3.21zM25.54 132.36h-.818v2.833h-.486v-2.833h-.574v-.22l.574-.176v-.18c0-.788.345-1.183 1.034-1.183.17 0 .37.035.598.104l-.126.39c-.188-.06-.348-.09-.48-.09-.184 0-.32.06-.407.183s-.132.317-.132.587v.208h.817v.378zm.544-1.248c0-.11.027-.192.082-.245.055-.05.123-.077.205-.077.08 0 .147.026.203.08s.085.133.085.242-.028.19-.085.245-.124.08-.202.08c-.08 0-.15-.026-.204-.08s-.082-.135-.082-.245zm.528 4.08h-.486v-3.21h.486v3.21zM28.926 135.252c-.465 0-.824-.143-1.08-.43-.254-.285-.382-.69-.382-1.214 0-.537.13-.952.39-1.245s.626-.44 1.104-.44c.154 0 .31.018.463.05s.276.073.364.118l-.15.414c-.106-.043-.224-.078-.35-.107-.128-.027-.24-.042-.338-.042-.652 0-.98.416-.98 1.248 0 .395.08.697.24.908s.395.317.707.317c.268 0 .542-.058.823-.173v.43c-.213.112-.484.168-.81.168zM32.474 135.193l-.097-.457h-.023c-.16.2-.32.338-.48.408-.158.07-.357.107-.596.107-.318 0-.567-.08-.748-.245s-.27-.397-.27-.7c0-.648.518-.988 1.555-1.02l.545-.018v-.2c0-.25-.054-.437-.162-.557-.108-.12-.282-.18-.52-.18-.27 0-.57.08-.91.245l-.148-.372c.158-.086.332-.153.52-.202s.378-.072.567-.072c.383 0 .667.085.852.255s.275.442.275.817v2.19h-.36zm-1.1-.343c.304 0 .542-.083.715-.25.172-.165.258-.397.258-.696v-.29l-.486.02c-.387.015-.665.075-.836.18-.17.108-.257.273-.257.498 0 .176.053.31.16.4s.254.138.445.138zM34.873 134.85c.086 0 .17-.006.25-.02s.143-.025.19-.04v.373c-.054.025-.13.046-.233.062s-.195.025-.277.025c-.62 0-.932-.327-.932-.98v-1.91h-.46v-.235l.46-.202.206-.686h.28v.744h.933v.38h-.933v1.89c0 .192.046.34.138.444s.218.156.378.156zM35.913 131.112c0-.11.027-.192.082-.245.055-.05.123-.077.205-.077.078 0 .146.026.202.08s.085.133.085.242-.028.19-.085.245-.124.08-.202.08c-.082 0-.15-.026-.205-.08s-.082-.135-.082-.245zm.528 4.08h-.485v-3.21h.486v3.21zM40.244 133.585c0 .523-.132.933-.396 1.226-.264.296-.628.442-1.093.442-.287 0-.542-.067-.765-.202s-.395-.328-.516-.58-.182-.547-.182-.885c0-.523.13-.93.393-1.224.262-.29.625-.437 1.09-.437.45 0 .807.15 1.07.448s.4.705.4 1.215zm-2.447 0c0 .41.082.723.246.938s.405.322.724.322.56-.106.726-.32c.165-.214.247-.527.247-.94 0-.407-.082-.717-.247-.93-.165-.21-.41-.317-.73-.317s-.56.104-.722.313-.243.52-.243.935zM43.293 135.193v-2.077c0-.262-.06-.457-.18-.586s-.305-.193-.56-.193c-.335 0-.58.09-.737.272s-.234.48-.234.898v1.685h-.486v-3.21h.396l.08.438h.022c.1-.157.24-.28.42-.366s.38-.13.6-.13c.387 0 .678.093.873.278.195.188.293.485.293.896v2.095h-.487zM46.85 134.317c0 .3-.11.53-.334.69s-.535.244-.938.244c-.426 0-.758-.066-.996-.2v-.452c.154.078.32.14.497.185s.346.067.51.067c.254 0 .45-.04.586-.122.137-.08.205-.204.205-.37 0-.125-.053-.23-.16-.32-.11-.09-.32-.194-.636-.315-.3-.11-.51-.208-.637-.29s-.22-.18-.28-.284-.094-.232-.094-.38c0-.26.106-.467.32-.62.212-.15.504-.226.875-.226.346 0 .684.07 1.014.21l-.173.397c-.323-.132-.615-.198-.877-.198-.23 0-.404.036-.52.108s-.177.172-.177.3c0 .085.022.158.066.22s.114.117.212.172.285.134.562.237c.38.138.64.277.772.418s.202.316.202.53z"/>
    </g>
    <g fill="#356282">
        <path d="M15.44 145.45v1.78h-.497v-4.283h1.175c.525 0 .914.1 1.165.302s.376.503.376.907c0 .566-.288.95-.862 1.148l1.163 1.925h-.588l-1.037-1.78h-.894zm0-.43h.684c.352 0 .61-.068.773-.208s.246-.35.246-.63c0-.282-.083-.486-.25-.61s-.436-.19-.805-.19h-.647v1.64zM19.935 147.288c-.475 0-.85-.145-1.123-.434s-.412-.69-.412-1.204c0-.518.128-.93.383-1.233s.597-.457 1.026-.457c.4 0 .72.133.954.396.234.266.352.614.352 1.048v.308h-2.212c.01.377.105.663.286.858s.435.293.763.293c.346 0 .688-.072 1.025-.217v.434c-.172.074-.334.128-.487.16-.153.033-.338.048-.555.048zm-.132-2.92c-.258 0-.463.084-.616.252s-.244.4-.27.697h1.678c0-.307-.068-.54-.205-.704s-.333-.245-.587-.245zM26.037 147.23v-2.09c0-.255-.055-.446-.164-.574s-.28-.192-.51-.192c-.303 0-.526.087-.67.26s-.218.442-.218.804v1.793h-.485v-2.088c0-.256-.055-.447-.164-.575s-.28-.192-.513-.192c-.305 0-.527.092-.67.274s-.212.48-.212.896v1.685h-.485v-3.21h.396l.08.44h.023c.092-.157.222-.28.39-.367s.353-.132.56-.132c.502 0 .83.183.984.546h.023c.096-.168.234-.3.416-.398s.39-.146.62-.146c.364 0 .637.094.817.28.18.187.27.484.27.895v2.095h-.486zM27.485 143.15c0-.112.027-.193.082-.246.055-.05.123-.077.205-.077.078 0 .146.026.202.08s.085.133.085.242-.03.19-.086.244-.124.08-.202.08c-.082 0-.15-.026-.205-.08s-.082-.136-.082-.245zm.527 4.08h-.486v-3.21h.486v3.21zM31.24 147.23v-2.077c0-.262-.06-.457-.178-.586s-.306-.193-.56-.193c-.336 0-.582.09-.738.272s-.234.48-.234.9v1.684h-.486v-3.21h.396l.08.438h.022c.1-.158.24-.28.42-.367s.38-.13.6-.13c.387 0 .678.094.873.28.195.187.293.484.293.895v2.095h-.487zM34.912 146.8h-.026c-.225.325-.56.488-1.008.488-.42 0-.746-.144-.98-.43s-.35-.696-.35-1.226.117-.94.352-1.233.56-.44.98-.44c.435 0 .77.158 1 .475h.04l-.022-.23-.012-.227v-1.307h.486v4.56h-.396l-.064-.43zm-.973.08c.33 0 .572-.09.722-.27s.224-.473.224-.875v-.103c0-.455-.075-.78-.227-.974s-.395-.292-.727-.292c-.285 0-.503.11-.654.333s-.23.533-.23.937c0 .41.076.72.227.93s.37.314.662.314zM37.76 147.288c-.476 0-.85-.145-1.124-.434s-.412-.69-.412-1.204c0-.518.128-.93.383-1.233s.597-.457 1.026-.457c.402 0 .72.133.955.396.234.266.352.614.352 1.048v.308h-2.212c.01.377.105.663.286.858s.435.293.763.293c.346 0 .688-.072 1.025-.217v.434c-.172.074-.334.128-.487.16-.153.033-.34.048-.556.048zm-.133-2.92c-.258 0-.463.084-.616.252s-.243.4-.27.697h1.68c0-.307-.07-.54-.206-.704s-.333-.245-.587-.245zM41.234 143.96c.143 0 .27.012.384.035l-.067.45c-.132-.028-.25-.043-.35-.043-.26 0-.482.105-.667.316s-.277.474-.277.788v1.723h-.486v-3.212h.4l.057.595h.023c.12-.21.263-.37.43-.483s.353-.17.554-.17zM44.29 146.354c0 .3-.112.53-.335.69s-.535.244-.938.244c-.426 0-.758-.067-.996-.202v-.45c.155.077.32.14.498.184s.347.067.51.067c.255 0 .45-.04.587-.122.137-.08.205-.204.205-.37 0-.125-.054-.23-.162-.32-.108-.09-.32-.194-.635-.315-.3-.11-.51-.208-.637-.29s-.22-.18-.28-.284-.094-.23-.094-.378c0-.262.106-.468.32-.62.212-.15.504-.227.875-.227.346 0 .684.07 1.014.212l-.172.396c-.322-.133-.614-.2-.876-.2-.23 0-.404.037-.52.11s-.177.17-.177.298c0 .086.022.16.066.22s.115.118.213.173.285.133.562.236c.38.14.64.278.772.42s.202.315.202.528z"/>
    </g>
    <path fill="#4278A7" d="M.215 114.595h58.39v.398H.216zM.215 11.595h58.39v.398H.216zM90.215 11.595h58.39v.398h-58.39zM.215 126.71h58.39v.17H.216zM.215 138.71h58.39v.17H.216zM.215 150.71h58.39v.397H.216z"/>
    <g fill="#356282">
        <path d="M103.554 134.054c0 .377-.137.67-.41.882s-.645.316-1.113.316c-.507 0-.897-.065-1.17-.196v-.48c.175.074.366.133.573.176s.412.064.615.064c.332 0 .582-.063.75-.188.168-.127.252-.302.252-.526 0-.148-.03-.27-.09-.364s-.158-.183-.298-.263-.353-.17-.638-.272c-.398-.143-.683-.312-.854-.507s-.257-.45-.257-.765c0-.33.124-.592.372-.787s.576-.293.984-.293c.425 0 .816.078 1.174.234l-.155.434c-.355-.148-.698-.223-1.032-.223-.264 0-.47.057-.618.17s-.223.27-.223.472c0 .148.027.27.082.365s.146.182.276.26c.13.08.328.167.596.263.45.16.76.332.928.516s.254.42.254.714zM104.814 131.982v2.083c0 .262.06.457.18.586s.305.194.56.194c.335 0 .58-.092.736-.275s.232-.484.232-.9v-1.688h.486v3.21h-.4l-.07-.43h-.027c-.1.158-.236.28-.413.363s-.38.126-.605.126c-.39 0-.683-.092-.877-.277s-.292-.482-.292-.89v-2.102h.49zM109.534 131.93c.422 0 .75.145.983.432.233.29.35.696.35 1.224s-.117.938-.353 1.23-.562.437-.98.437c-.21 0-.4-.04-.572-.115-.173-.077-.318-.196-.436-.356h-.035l-.102.413h-.35v-4.56h.487v1.108c0 .248-.008.47-.023.668h.023c.227-.32.563-.48 1.01-.48zm-.07.407c-.333 0-.572.095-.72.286-.145.19-.22.51-.22.962s.076.774.227.968c.15.195.393.292.725.292.3 0 .52-.108.668-.327.146-.217.22-.53.22-.938 0-.418-.073-.73-.22-.935s-.373-.308-.68-.308zM113.787 134.317c0 .3-.11.53-.334.69s-.535.244-.938.244c-.426 0-.758-.066-.996-.2v-.452c.153.078.32.14.496.185s.347.067.51.067c.255 0 .45-.04.587-.122.137-.08.205-.204.205-.37 0-.125-.054-.23-.162-.32-.108-.09-.32-.194-.635-.315-.298-.11-.51-.208-.636-.29s-.22-.18-.28-.284-.094-.232-.094-.38c0-.26.106-.467.32-.62.212-.15.504-.226.875-.226.346 0 .684.07 1.014.21l-.174.397c-.322-.132-.614-.198-.876-.198-.23 0-.404.036-.52.108s-.177.172-.177.3c0 .085.022.158.066.22s.113.117.21.172.286.134.563.237c.38.138.64.277.772.418s.202.316.202.53zM115.862 135.252c-.465 0-.824-.143-1.08-.43-.254-.285-.382-.69-.382-1.214 0-.537.13-.952.39-1.245s.626-.44 1.104-.44c.154 0 .31.018.463.05s.275.073.363.118l-.15.414c-.106-.043-.224-.078-.35-.107-.128-.027-.24-.042-.338-.042-.652 0-.98.416-.98 1.248 0 .395.08.697.24.908s.395.317.707.317c.267 0 .54-.058.822-.173v.43c-.214.112-.484.168-.81.168zM118.9 131.924c.143 0 .27.012.384.035l-.067.45c-.133-.03-.25-.044-.352-.044-.26 0-.48.105-.666.316s-.278.474-.278.788v1.723h-.486v-3.21h.4l.057.594h.023c.12-.21.263-.37.43-.483s.353-.17.554-.17zM119.843 131.112c0-.11.027-.192.082-.245.055-.05.123-.077.205-.077.078 0 .146.026.202.08s.085.133.085.242-.028.19-.085.245-.124.08-.202.08c-.082 0-.15-.026-.205-.08s-.082-.135-.082-.245zm.527 4.08h-.486v-3.21h.486v3.21zM122.896 135.252c-.21 0-.4-.04-.572-.115-.173-.077-.318-.196-.436-.356h-.035c.023.19.035.366.035.534v1.32h-.486v-4.65h.396l.067.438h.023c.125-.176.27-.303.437-.38s.356-.118.57-.118c.427 0 .756.146.987.437s.347.7.347 1.226c0 .527-.118.938-.354 1.23s-.562.436-.98.436zm-.07-2.915c-.328 0-.565.09-.712.272s-.222.47-.226.866v.108c0 .45.075.774.226.968.15.195.392.292.724.292.277 0 .495-.112.652-.337s.235-.534.235-.93c0-.4-.078-.707-.235-.92-.158-.214-.38-.32-.664-.32zM126.116 134.85c.086 0 .17-.006.25-.02s.143-.025.19-.04v.373c-.054.025-.13.046-.233.062s-.195.025-.277.025c-.62 0-.932-.327-.932-.98v-1.91h-.46v-.235l.46-.202.205-.686h.28v.744h.932v.38h-.932v1.89c0 .192.046.34.138.444s.217.156.378.156zM127.156 131.112c0-.11.027-.192.082-.245.055-.05.123-.077.205-.077.078 0 .146.026.202.08s.085.133.085.242-.028.19-.085.245-.124.08-.202.08c-.082 0-.15-.026-.205-.08s-.082-.135-.082-.245zm.527 4.08h-.486v-3.21h.486v3.21zM131.486 133.585c0 .523-.132.933-.396 1.226-.264.296-.628.442-1.093.442-.287 0-.542-.067-.765-.202s-.395-.328-.516-.58-.182-.547-.182-.885c0-.523.13-.93.393-1.224.262-.29.625-.437 1.09-.437.45 0 .807.15 1.07.448s.4.705.4 1.215zm-2.447 0c0 .41.08.723.245.938s.405.322.724.322.56-.106.725-.32c.165-.214.247-.527.247-.94 0-.407-.082-.717-.247-.93-.165-.21-.41-.317-.73-.317s-.56.104-.722.313-.244.52-.244.935zM134.536 135.193v-2.077c0-.262-.06-.457-.18-.586s-.305-.193-.56-.193c-.335 0-.58.09-.737.272s-.235.48-.235.898v1.685h-.486v-3.21h.395l.08.438h.022c.1-.157.24-.28.42-.366s.38-.13.6-.13c.387 0 .678.093.873.278.195.188.293.485.293.896v2.095h-.487zM138.092 134.317c0 .3-.11.53-.334.69s-.535.244-.938.244c-.426 0-.758-.066-.996-.2v-.452c.154.078.32.14.497.185s.348.067.512.067c.254 0 .45-.04.586-.122.137-.08.205-.204.205-.37 0-.125-.054-.23-.162-.32-.107-.09-.32-.194-.634-.315-.3-.11-.51-.208-.637-.29s-.22-.18-.282-.284-.093-.232-.093-.38c0-.26.106-.467.32-.62.212-.15.504-.226.875-.226.346 0 .684.07 1.014.21l-.173.397c-.32-.132-.613-.198-.875-.198-.23 0-.404.036-.52.108s-.177.172-.177.3c0 .085.022.158.066.22s.114.117.212.172.285.134.562.237c.38.138.64.277.772.418s.202.316.202.53z"/>
    </g>
    <g fill="#4278A7">
        <path d="M19.956 2.382c0 .65-.222 1.15-.666 1.5-.443.35-1.08.525-1.905.525h-.756v2.527h-.748V.51h1.666c1.606 0 2.408.624 2.408 1.872zM16.63 3.766h.672c.662 0 1.14-.107 1.437-.32s.443-.558.443-1.03c0-.424-.14-.74-.418-.948s-.712-.312-1.3-.312h-.836v2.61zM23.226 7.022c-.712 0-1.274-.217-1.686-.65-.412-.434-.617-1.035-.617-1.807 0-.775.19-1.393.573-1.85.382-.457.896-.686 1.54-.686.604 0 1.08.197 1.433.595.35.396.526.92.526 1.57v.462H21.68c.014.565.156.995.427 1.288.27.293.653.44 1.146.44.52 0 1.03-.11 1.538-.327v.65c-.257.112-.5.19-.73.24-.23.05-.51.074-.834.074zm-.198-4.38c-.387 0-.695.125-.925.376-.23.253-.365.602-.406 1.047h2.518c0-.46-.103-.812-.308-1.058-.205-.243-.498-.366-.88-.366zM28.482 2.04c.633 0 1.124.215 1.475.647.35.432.524 1.044.524 1.835s-.176 1.405-.528 1.843c-.354.438-.843.657-1.47.657-.313 0-.6-.058-.86-.174-.258-.115-.476-.293-.65-.533h-.054l-.154.62h-.522V.096h.73v1.66c0 .373-.013.707-.036 1.003h.035c.34-.48.844-.72 1.512-.72zm-.106.61c-.498 0-.857.143-1.077.428-.22.286-.33.767-.33 1.444 0 .676.112 1.16.338 1.452.226.29.588.437 1.086.437.448 0 .782-.162 1.002-.488.22-.327.33-.796.33-1.41 0-.625-.11-1.093-.33-1.4s-.56-.463-1.02-.463zM33.996 2.04c.633 0 1.124.215 1.475.647.35.432.526 1.044.526 1.835s-.177 1.405-.53 1.843c-.353.438-.843.657-1.47.657-.313 0-.6-.058-.86-.174-.258-.115-.476-.293-.65-.533h-.054l-.153.62h-.524V.096h.73v1.66c0 .373-.013.707-.036 1.003h.035c.34-.48.844-.72 1.51-.72zm-.105.61c-.497 0-.855.143-1.075.428-.22.286-.33.767-.33 1.444 0 .676.113 1.16.34 1.452.225.29.586.437 1.084.437.447 0 .78-.162 1-.488.22-.327.33-.796.33-1.41 0-.625-.11-1.093-.33-1.4s-.56-.463-1.02-.463zM38 6.934h-.73V.097H38v6.837zM41.58 7.022c-.71 0-1.272-.217-1.684-.65-.412-.434-.618-1.035-.618-1.807 0-.775.19-1.393.574-1.85.382-.457.896-.686 1.54-.686.604 0 1.08.197 1.433.595.352.396.527.92.527 1.57v.462h-3.318c.015.565.157.995.43 1.288.27.293.65.44 1.144.44.52 0 1.03-.11 1.538-.327v.65c-.258.112-.502.19-.73.24-.232.05-.51.074-.835.074zm-.196-4.38c-.387 0-.695.125-.925.376-.23.253-.367.602-.408 1.047h2.52c0-.46-.104-.812-.31-1.058-.204-.243-.497-.366-.878-.366z"/>
    </g>
    <g fill="#4278A7">
        <path d="M108.798 6.934l-2.18-5.695h-.035c.04.45.062.986.062 1.607v4.087h-.69V.51h1.126l2.035 5.3h.035l2.053-5.3h1.116v6.425h-.748v-4.14c0-.475.02-.99.062-1.547h-.035L109.4 6.935h-.604zM118.128 4.522c0 .785-.198 1.397-.594 1.84-.396.44-.94.66-1.64.66-.43 0-.812-.102-1.146-.303-.334-.204-.592-.493-.773-.872-.182-.377-.272-.82-.272-1.326 0-.785.196-1.397.59-1.835.392-.438.937-.657 1.634-.657.674 0 1.21.225 1.606.672.396.45.595 1.055.595 1.82zm-3.67 0c0 .615.123 1.084.37 1.406s.607.482 1.085.482.84-.16 1.088-.48c.248-.32.372-.79.372-1.408 0-.612-.124-1.078-.37-1.396-.25-.318-.614-.478-1.098-.478-.478 0-.838.157-1.08.47s-.366.783-.366 1.404zM121.648 2.04c.633 0 1.124.215 1.475.647.35.432.525 1.044.525 1.835s-.177 1.405-.53 1.843c-.353.438-.843.657-1.47.657-.313 0-.6-.058-.86-.174-.258-.115-.476-.293-.65-.533h-.054l-.153.62h-.522V.096h.73v1.66c0 .373-.013.707-.036 1.003h.035c.34-.48.843-.72 1.51-.72zm-.106.61c-.498 0-.856.143-1.076.428-.22.286-.33.767-.33 1.444 0 .676.113 1.16.34 1.452.225.29.586.437 1.084.437.448 0 .782-.162 1.002-.488.22-.327.33-.796.33-1.41 0-.625-.11-1.093-.33-1.4s-.56-.463-1.02-.463zM124.86.813c0-.168.042-.29.124-.367.082-.078.185-.117.308-.117.117 0 .218.04.303.118s.128.2.128.365-.043.286-.128.366c-.085.08-.186.12-.303.12-.123 0-.226-.04-.308-.12-.082-.08-.123-.203-.123-.367zm.792 6.12h-.73V2.12h.73v4.816zM127.928 6.934h-.73V.097h.73v6.837zM131.51 7.022c-.713 0-1.274-.217-1.686-.65-.412-.434-.618-1.035-.618-1.807 0-.775.19-1.393.574-1.85.382-.457.896-.686 1.54-.686.604 0 1.08.197 1.433.595.352.396.527.92.527 1.57v.462h-3.318c.015.565.157.995.43 1.288.27.293.65.44 1.144.44.52 0 1.03-.11 1.538-.327v.65c-.258.112-.502.19-.73.24-.232.05-.51.074-.835.074zm-.198-4.38c-.387 0-.695.125-.925.376-.23.253-.366.602-.407 1.047h2.52c0-.46-.104-.812-.31-1.058-.204-.243-.497-.366-.878-.366z"/>
    </g>
    <path fill="#67A9DC" d="M90.215 115.43c0-1.56 1.276-2.835 2.835-2.835h52.72c1.56 0 2.836 1.276 2.836 2.835v6.615c0 1.56-1.276 2.835-2.835 2.835H93.05c-1.56 0-2.836-1.276-2.836-2.835v-6.615z"/>
    <path fill="#83BBE6" d="M90.215 111.43c0-1.56 1.276-2.835 2.835-2.835h52.72c1.56 0 2.836 1.276 2.836 2.835v6.615c0 1.56-1.276 2.835-2.835 2.835H93.05c-1.56 0-2.836-1.276-2.836-2.835v-6.615z"/>
    <path fill="#83BBE6" d="M90.215 116.737h58.39v10.142h-58.39z"/>
    <g fill="#FFF">
        <path d="M106.22 117.213c0 .434-.147.768-.443 1-.296.234-.72.35-1.27.35H104v1.686h-.498v-4.284h1.11c1.07 0 1.606.415 1.606 1.247zm-2.218.923h.448c.44 0 .76-.07.958-.214s.296-.37.296-.686c0-.283-.093-.494-.278-.633s-.475-.208-.867-.208H104v1.74zM108.4 120.307c-.475 0-.85-.145-1.123-.434s-.412-.69-.412-1.204c0-.52.128-.93.383-1.234s.597-.457 1.026-.457c.402 0 .72.132.955.395.233.266.35.614.35 1.048v.308h-2.21c.01.378.104.664.285.86s.435.292.763.292c.346 0 .688-.072 1.025-.217v.434c-.172.073-.334.127-.487.158-.154.033-.34.05-.556.05zm-.132-2.92c-.258 0-.463.083-.616.25s-.244.4-.27.698h1.678c0-.307-.068-.54-.205-.704s-.333-.244-.587-.244zM111.904 116.985c.422 0 .75.145.983.432.233.29.35.696.35 1.224s-.117.94-.353 1.23-.562.438-.98.438c-.21 0-.4-.04-.572-.115-.173-.077-.318-.196-.436-.356h-.035l-.102.413h-.35v-4.56h.487v1.108c0 .248-.008.47-.023.668h.023c.227-.32.563-.48 1.01-.48zm-.07.407c-.333 0-.572.095-.72.286-.145.19-.22.51-.22.962s.076.774.227.968c.15.195.393.292.725.292.3 0 .52-.108.668-.327.146-.217.22-.53.22-.938 0-.418-.073-.73-.22-.935s-.373-.308-.68-.308zM115.58 116.985c.422 0 .75.145.983.432.233.29.35.696.35 1.224s-.117.94-.353 1.23-.562.438-.98.438c-.21 0-.4-.04-.572-.115-.173-.077-.318-.196-.436-.356h-.035l-.103.413h-.35v-4.56h.487v1.108c0 .248-.007.47-.022.668h.023c.23-.32.565-.48 1.01-.48zm-.07.407c-.332 0-.57.095-.718.286-.146.19-.22.51-.22.962s.075.774.226.968c.15.195.392.292.724.292.3 0 .52-.108.668-.327.146-.217.22-.53.22-.938 0-.418-.073-.73-.22-.935s-.373-.308-.68-.308zM118.25 120.248h-.487v-4.56h.486v4.56zM120.637 120.307c-.475 0-.85-.145-1.123-.434s-.412-.69-.412-1.204c0-.52.128-.93.383-1.234s.597-.457 1.026-.457c.403 0 .722.132.956.395.234.266.352.614.352 1.048v.308h-2.212c.01.378.105.664.286.86s.435.292.763.292c.346 0 .688-.072 1.025-.217v.434c-.172.073-.334.127-.487.158-.154.033-.34.05-.556.05zm-.132-2.92c-.258 0-.463.083-.616.25s-.245.4-.272.698h1.68c0-.307-.07-.54-.206-.704s-.333-.244-.587-.244zM125.814 120.248h-.586l-1.562-2.077-.448.4v1.678h-.498v-4.283h.498v2.124l1.942-2.125h.59l-1.724 1.86 1.788 2.423zM126.288 116.167c0-.11.027-.192.082-.245.055-.05.123-.077.205-.077.078 0 .146.026.202.08s.085.133.085.242-.028.19-.085.245-.124.08-.202.08c-.082 0-.15-.026-.205-.08s-.082-.135-.082-.245zm.528 4.08h-.486v-3.21h.486v3.21zM128.884 119.906c.086 0 .17-.006.25-.02s.143-.025.19-.04v.373c-.054.024-.13.045-.233.06s-.194.026-.276.026c-.62 0-.932-.327-.932-.98v-1.91h-.46v-.235l.46-.2.205-.687h.28v.744h.933v.378h-.932v1.89c0 .193.046.342.138.445s.218.156.378.156zM130.973 121.376c-.184 0-.328-.026-.434-.08v-.424c.138.04.282.06.433.06.193 0 .34-.06.44-.177s.15-.286.15-.507v-4.283h.5v4.242c0 .37-.095.658-.282.863-.186.204-.455.306-.807.306zM135.617 119.11c0 .376-.137.67-.41.88s-.645.317-1.113.317c-.508 0-.898-.065-1.172-.196v-.48c.176.075.367.134.574.177s.412.064.615.064c.333 0 .583-.062.75-.187.17-.127.253-.302.253-.526 0-.148-.03-.27-.09-.364s-.158-.183-.298-.263-.353-.17-.638-.272c-.398-.143-.683-.312-.854-.507s-.257-.45-.257-.764c0-.33.124-.593.372-.788s.576-.293.984-.293c.426 0 .817.078 1.175.234l-.155.433c-.354-.148-.697-.223-1.03-.223-.265 0-.47.057-.62.17s-.222.27-.222.472c0 .148.027.27.082.365s.147.182.277.26c.13.08.327.167.595.263.45.16.76.332.928.516s.254.42.254.713z"/>
    </g>
    <path fill="#4278A7" d="M90.215 138.71h58.39v.397h-58.39z"/>
    <path fill="none" d="M119.23 34.433h16.014v45.243H119.23zM126.507 31.38c.368 0 .666-.55.666-1.23s-.3-1.228-.666-1.228h-7.276v2.458h7.277zM119.233 90.826c1.79 0 3.25-1.46 3.25-3.257 0-1.798-1.46-3.252-3.25-3.252h-.003v6.508h.003z"/>
    <path fill="#67A9DC" d="M133.964 25.824H119.23v3.098h7.276c.368 0 .666.55.666 1.228s-.3 1.23-.666 1.23h-7.276v3.052h16.013v45.243H119.23v4.643h.003c1.79 0 3.25 1.455 3.25 3.25 0 1.798-1.46 3.258-3.25 3.258h-.003v5.036h14.734c2.815 0 5.097-2.284 5.097-5.097v-59.84c0-2.814-2.28-5.1-5.096-5.1z"/>
    <path fill="#4278A7" d="M115.98 87.57c0 1.796 1.458 3.255 3.25 3.256v-6.508c-1.792.002-3.25 1.456-3.25 3.252zM111.296 30.15c0 .68.294 1.23.664 1.23h7.27v-2.458h-7.27c-.37 0-.664.55-.664 1.228z"/>
    <path fill="#83BBE6" d="M115.98 87.57c0-1.796 1.458-3.25 3.25-3.25v-4.644h-16.01V34.433h16.01V31.38h-7.27c-.37 0-.664-.55-.664-1.23s.294-1.228.664-1.228h7.27v-3.098h-14.733c-2.82 0-5.097 2.287-5.097 5.102v59.84c0 2.812 2.277 5.096 5.097 5.096h14.734v-5.036c-1.792 0-3.25-1.46-3.25-3.256z"/>
    <path fill="#E6E326" d="M122.69 47.04c-.016-1.5 1.22-2.218 1.277-2.254-.695-1.017-1.778-1.157-2.164-1.173-.922-.093-1.798.543-2.266.543-.467 0-1.188-.53-1.953-.515-1.005.016-1.93.585-2.448 1.485-1.044 1.81-.267 4.494.75 5.963.497.72 1.09 1.527 1.868 1.498.75-.03 1.033-.485 1.94-.485.905 0 1.16.486 1.953.47.807-.014 1.317-.732 1.81-1.453.572-.834.807-1.642.82-1.683-.018-.008-1.572-.603-1.588-2.394zm-1.49-4.4c.412-.5.69-1.195.615-1.89-.595.025-1.316.397-1.743.897-.383.444-.718 1.152-.63 1.83.665.054 1.343-.335 1.757-.836z"/>
    <g fill="#E6E326">
        <path d="M115.342 63.472h-.03c-.37 0-.673.303-.673.674v2.933c0 .37.302.673.673.673h.03c.37 0 .673-.303.673-.674v-2.934c0-.37-.303-.674-.674-.674zM116.338 68.21c0 .34.278.618.62.618h.66v1.584c0 .372.303.675.674.675h.03c.37 0 .674-.303.674-.675v-1.584h.924v1.584c0 .372.304.675.675.675h.028c.372 0 .674-.303.674-.675v-1.584h.662c.34 0 .618-.277.618-.618v-4.63h-6.24v4.63zM121.012 60.77l.525-.81c.034-.05.02-.12-.033-.154-.05-.034-.12-.02-.154.033l-.545.838c-.41-.167-.865-.262-1.347-.262s-.938.094-1.348.262l-.544-.84c-.033-.052-.104-.066-.155-.032-.05.033-.066.103-.032.154l.526.81c-.948.466-1.587 1.34-1.587 2.346 0 .062.004.123.01.183h6.263c.005-.06.01-.122.01-.184 0-1.004-.64-1.88-1.588-2.345zm-3.006 1.454c-.166 0-.302-.134-.302-.3s.135-.302.302-.302c.167 0 .302.134.302.3s-.135.302-.302.302zm2.905 0c-.165 0-.3-.134-.3-.3s.134-.302.3-.302c.168 0 .302.134.302.3s-.135.302-.3.302zM123.603 63.472h-.028c-.37 0-.675.303-.675.674v2.933c0 .37.304.673.675.673h.028c.372 0 .674-.303.674-.674v-2.934c0-.37-.303-.674-.674-.674z"/>
    </g>
    <path fill="#4278A7" d="M179.215 11.595h58.39v.398h-58.39z"/>
    <g fill="#356282">
        <path d="M205.927 120.12c0 .433-.148.767-.444 1-.296.233-.72.35-1.27.35h-.504v1.685h-.5v-4.283h1.11c1.072 0 1.607.415 1.607 1.247zm-2.218.922h.447c.44 0 .76-.07.958-.214s.296-.37.296-.686c0-.283-.092-.494-.277-.633s-.475-.21-.867-.21h-.557v1.742zM206.71 119.073c0-.11.026-.192.08-.245.056-.05.124-.077.206-.077.078 0 .146.027.202.08s.085.134.085.243-.028.19-.085.245-.124.08-.202.08c-.082 0-.15-.026-.205-.08s-.08-.136-.08-.245zm.527 4.08h-.486v-3.21h.487v3.21zM210.465 123.154v-2.077c0-.262-.06-.457-.18-.586s-.305-.192-.56-.192c-.335 0-.58.09-.737.272s-.234.48-.234.9v1.684h-.486v-3.21h.396l.08.438h.022c.1-.158.24-.28.42-.367s.38-.13.6-.13c.387 0 .678.093.873.278.194.188.292.485.292.896v2.094h-.487zM214.022 122.278c0 .3-.11.53-.334.69s-.535.244-.938.244c-.426 0-.758-.067-.996-.202v-.45c.154.077.32.14.496.184s.348.067.512.067c.254 0 .45-.04.586-.12.137-.08.205-.205.205-.37 0-.126-.055-.232-.163-.322-.108-.088-.32-.193-.634-.314-.3-.11-.512-.208-.638-.29s-.22-.18-.28-.284-.093-.23-.093-.378c0-.262.106-.468.32-.62.212-.15.504-.227.875-.227.346 0 .684.07 1.014.21l-.173.397c-.32-.133-.613-.2-.875-.2-.23 0-.404.037-.52.11s-.177.17-.177.298c0 .086.02.16.065.22s.115.118.213.173.285.134.562.237c.38.14.638.278.77.42s.204.315.204.528z"/>
    </g>
    <g fill="#4278A7">
        <path d="M185.39 6.934h-.747v-5.76h-2.034V.51h4.815v.663h-2.035v5.76zM188.22.813c0-.168.04-.29.123-.367.082-.078.185-.117.308-.117.118 0 .22.04.305.118s.127.2.127.365-.042.286-.127.366c-.085.08-.187.12-.304.12-.122 0-.225-.04-.307-.12-.082-.08-.123-.203-.123-.367zm.79 6.12h-.728V2.12h.73v4.816zM196.698 6.934V3.802c0-.384-.082-.672-.246-.864-.164-.19-.42-.288-.765-.288-.454 0-.79.13-1.007.392s-.325.662-.325 1.204v2.69h-.73V3.8c0-.384-.08-.672-.245-.864-.164-.19-.42-.288-.77-.288-.456 0-.79.138-1.004.41-.212.275-.318.725-.318 1.348v2.527h-.73V2.118h.595l.118.66h.036c.138-.235.332-.418.582-.55.25-.132.53-.198.842-.198.753 0 1.245.272 1.477.817h.035c.144-.252.352-.45.624-.598s.583-.22.932-.22c.545 0 .953.14 1.224.42.27.278.407.726.407 1.34v3.144h-.732zM200.964 7.022c-.712 0-1.273-.217-1.685-.65-.413-.434-.62-1.035-.62-1.807 0-.775.192-1.393.575-1.85.382-.457.896-.686 1.54-.686.604 0 1.08.197 1.433.595.352.396.527.92.527 1.57v.462h-3.318c.015.565.157.995.43 1.288.27.293.65.44 1.144.44.52 0 1.032-.11 1.54-.327v.65c-.26.112-.503.19-.732.24-.23.05-.51.074-.834.074zm-.197-4.38c-.387 0-.695.125-.925.376-.23.253-.366.602-.407 1.047h2.52c0-.46-.104-.812-.31-1.058-.204-.243-.497-.366-.878-.366zM204.708 6.934h-.73V.097h.73v6.837zM206.194.813c0-.168.04-.29.123-.367.082-.078.185-.117.308-.117.117 0 .22.04.304.118s.126.2.126.365-.042.286-.127.366c-.086.08-.188.12-.305.12-.123 0-.226-.04-.308-.12-.082-.08-.123-.203-.123-.367zm.79 6.12h-.728V2.12h.73v4.816zM211.828 6.934V3.82c0-.394-.09-.687-.268-.88s-.46-.29-.84-.29c-.504 0-.873.136-1.107.408s-.352.723-.352 1.35v2.526h-.728V2.118h.594l.118.66h.035c.148-.238.358-.422.628-.553.27-.13.57-.195.9-.195.58 0 1.017.14 1.31.42.293.28.44.727.44 1.342v3.143h-.73zM216.09 7.022c-.712 0-1.273-.217-1.685-.65-.412-.434-.618-1.035-.618-1.807 0-.775.19-1.393.574-1.85.383-.457.897-.686 1.54-.686.605 0 1.082.197 1.434.595.352.396.527.92.527 1.57v.462h-3.317c.015.565.157.995.43 1.288.27.293.65.44 1.144.44.52 0 1.03-.11 1.538-.327v.65c-.258.112-.502.19-.73.24-.232.05-.51.074-.835.074zm-.197-4.38c-.387 0-.695.125-.925.376-.23.253-.366.602-.407 1.047h2.52c0-.46-.103-.812-.308-1.058-.205-.243-.498-.366-.88-.366zM225.59 6.934l-.8-2.043h-2.574l-.79 2.044h-.757l2.54-6.45h.628l2.526 6.45h-.773zm-1.03-2.715l-.748-1.992c-.097-.25-.196-.56-.3-.927-.063.282-.156.592-.276.928l-.756 1.99h2.08zM231.322 2.382c0 .65-.222 1.15-.666 1.5-.443.35-1.078.525-1.904.525h-.756v2.527h-.747V.51h1.664c1.605 0 2.408.624 2.408 1.872zm-3.327 1.384h.672c.662 0 1.142-.107 1.438-.32s.443-.558.443-1.03c0-.424-.14-.74-.417-.948s-.71-.312-1.3-.312h-.835v2.61zM232.666 6.934V.51h.747v6.425h-.747z"/>
    </g>
    <path fill="#4278A7" d="M179.215 114.595h58.39v.398h-58.39zM179.215 126.71h58.39v.397h-58.39z"/>
    <path fill="none" stroke="#4278A7" stroke-width=".5" stroke-miterlimit="10" d="M59.31 58.715h29.697"/>
    <path fill="#4278A7" d="M88.642 59.962l2.16-1.247-2.16-1.247"/>
    <path fill="none" stroke="#4278A7" stroke-width=".5" stroke-miterlimit="10" d="M90.8 63.715H61.104"/>
    <path fill="#4278A7" d="M61.467 62.468l-2.158 1.247 2.157 1.247"/>
    <path fill="none" stroke="#4278A7" stroke-width=".5" stroke-miterlimit="10" d="M147.31 58.715h29.697"/>
    <path fill="#4278A7" d="M176.642 59.962l2.16-1.247-2.16-1.247"/>
    <path fill="none" stroke="#4278A7" stroke-width=".5" stroke-miterlimit="10" d="M178.8 63.715h-29.697"/>
    <path fill="#4278A7" d="M149.467 62.468l-2.158 1.247 2.157 1.247"/>
    <path fill="#FFF" d="M14.315 43.206h32.91v33.837h-32.91z"/>
    <path fill="none" d="M37.948 47.167H21.36c-1.974 0-3.605 1.476-3.883 3.377v20.6c.278 1.9 1.91 3.376 3.884 3.376H37.95c1.975 0 3.606-1.476 3.884-3.377v-20.6c-.278-1.9-1.91-3.376-3.884-3.376z"/>
    <path fill="#4278A7" d="M41.832 29.766c0-2.168-1.774-3.942-3.942-3.942H21.418c-2.168 0-3.942 1.774-3.942 3.942v9.384h24.356v-9.384zM17.477 82.49v9.43c0 2.168 1.774 3.942 3.942 3.942h16.47c2.17 0 3.943-1.774 3.943-3.942v-9.43c.1-.01.193-.044.292-.06H17.198c.095.015.183.05.28.06z"/>
    <path fill="none" d="M37.948 74.52c1.975 0 3.606-1.477 3.884-3.378V50.544c-.278-1.9-1.91-3.377-3.884-3.377H29.66V74.52h8.288z"/>
    <path fill="#67A9DC" d="M51.01 56.738v-7.9h-.83c-.02-5.028-3.673-9.113-8.348-9.642v-.046h-12.17v8.016h8.286c1.975 0 3.606 1.476 3.884 3.377v20.6c-.278 1.9-1.91 3.376-3.884 3.376H29.66v7.91h12.464c4.063-.597 7.283-3.877 7.92-8.1h.963v-7.9h-.825v-.896h.825v-7.9h-.825v-.897h.827z"/>
    <path fill="#83BBE6" d="M21.36 74.52c-1.974 0-3.605-1.477-3.883-3.378V50.544c.278-1.9 1.91-3.377 3.884-3.377h8.3V39.15H17.478v.046c-4.675.53-8.327 4.614-8.348 9.64H7.907v7.902h1.217v16.07c0 4.942 3.522 8.96 8.073 9.623H29.66v-7.91h-8.3z"/>
    <g fill="none" stroke="#E6E326" stroke-linecap="round" stroke-linejoin="round" stroke-miterlimit="10">
        <path d="M29.4 51.95v10.097M29.4 62.047L25.148 66.3"/>
    </g>
    <path fill="#83BBE6" d="M291.016 53.35h2.967V64.74h-2.967z"/>
    <path fill="#4278A7" d="M306.837 53.35h2.966V64.74h-2.966zM270.215 11.595h58.39v.398h-58.39z"/>
    <g fill="#356282">
        <path d="M277.442 119.88c0 .272-.077.496-.23.67s-.37.29-.65.35v.022c.343.043.598.152.764.328s.25.406.25.69c0 .41-.143.724-.426.942-.283.22-.686.33-1.207.33-.227 0-.435-.018-.623-.05-.188-.035-.37-.096-.55-.182v-.463c.187.092.384.162.594.21s.41.07.597.07c.74 0 1.11-.29 1.11-.87 0-.52-.407-.778-1.224-.778h-.422v-.42h.428c.334 0 .6-.073.794-.222.195-.146.293-.352.293-.613 0-.21-.073-.373-.217-.492s-.338-.18-.584-.18c-.19 0-.365.026-.53.077s-.356.145-.57.28l-.245-.327c.176-.14.378-.247.607-.327.23-.078.472-.118.726-.118.416 0 .74.095.97.286.23.19.344.453.344.785zM279.906 119.885c.143 0 .27.012.384.035l-.067.45c-.133-.028-.25-.043-.352-.043-.26 0-.48.105-.666.316s-.276.474-.276.788v1.724h-.486v-3.21h.4l.057.594h.022c.12-.21.263-.37.43-.483s.352-.17.554-.17zM283.076 122.723h-.026c-.225.326-.56.49-1.008.49-.42 0-.747-.145-.98-.432s-.35-.694-.35-1.224.117-.94.352-1.233.56-.44.98-.44c.435 0 .77.16 1 .476h.04l-.022-.232-.012-.226v-1.307h.486v4.56h-.396l-.064-.432zm-.973.083c.332 0 .572-.09.722-.27s.225-.474.225-.876v-.103c0-.455-.076-.78-.228-.974s-.393-.292-.725-.292c-.285 0-.504.112-.655.334s-.227.534-.227.938c0 .41.075.72.226.93s.372.314.663.314zM288.914 120.12c0 .433-.148.767-.444 1-.296.233-.72.35-1.27.35h-.504v1.685h-.498v-4.283h1.11c1.07 0 1.606.415 1.606 1.247zm-2.217.922h.448c.44 0 .76-.07.958-.214s.296-.37.296-.686c0-.283-.094-.494-.28-.633s-.474-.21-.866-.21h-.557v1.742zM291.712 123.154l-.097-.457h-.023c-.16.2-.32.338-.48.408-.158.07-.356.107-.595.107-.318 0-.568-.082-.75-.246s-.27-.397-.27-.7c0-.648.52-.988 1.556-1.02l.545-.018v-.2c0-.25-.055-.437-.163-.557-.108-.12-.28-.18-.52-.18-.268 0-.57.082-.908.246l-.15-.372c.16-.086.332-.153.52-.202s.38-.073.568-.073c.383 0 .666.084.85.254s.278.442.278.817v2.192h-.36zm-1.098-.343c.303 0 .54-.082.713-.248s.26-.398.26-.697v-.29l-.486.02c-.386.015-.665.075-.836.18-.17.108-.256.273-.256.498 0 .176.053.31.16.4s.254.138.446.138zM294.54 119.885c.142 0 .27.012.383.035l-.067.45c-.133-.028-.25-.043-.352-.043-.26 0-.482.105-.667.316s-.276.474-.276.788v1.724h-.485v-3.21h.4l.057.594h.023c.12-.21.263-.37.43-.483s.353-.17.554-.17zM296.56 122.81c.087 0 .17-.005.25-.018s.144-.026.19-.04v.372c-.053.025-.13.046-.233.062s-.194.025-.276.025c-.62 0-.93-.326-.93-.98v-1.91h-.46v-.234l.46-.202.204-.686h.28v.744h.933v.378h-.932v1.89c0 .193.046.342.138.445s.218.156.378.156zM297.132 119.943h.52l.704 1.83c.154.42.25.72.287.906h.023c.025-.1.078-.27.16-.513.08-.24.346-.982.795-2.225h.522l-1.38 3.656c-.137.36-.297.617-.48.77-.182.15-.405.227-.67.227-.15 0-.296-.017-.44-.05v-.39c.107.023.228.035.36.035.334 0 .572-.188.715-.562l.18-.457-1.295-3.227zM304.714 122.014c0 .377-.137.67-.41.882s-.645.316-1.113.316c-.507 0-.897-.065-1.17-.196v-.48c.175.074.366.133.573.176s.412.064.615.064c.332 0 .582-.063.75-.188.168-.127.252-.302.252-.526 0-.148-.03-.27-.09-.364s-.16-.183-.3-.263-.35-.17-.636-.272c-.398-.143-.684-.312-.854-.507s-.256-.45-.256-.765c0-.33.124-.592.372-.787s.576-.293.984-.293c.426 0 .817.078 1.175.234l-.155.434c-.354-.148-.697-.223-1.03-.223-.265 0-.47.057-.62.17s-.222.27-.222.472c0 .148.027.27.082.365s.146.182.276.26c.13.08.33.167.597.263.45.16.758.332.927.516s.254.422.254.714zM306.873 123.213c-.475 0-.85-.145-1.124-.434s-.412-.69-.412-1.205c0-.518.127-.93.382-1.233s.598-.457 1.027-.457c.402 0 .72.133.955.396.234.267.352.615.352 1.05v.307h-2.212c.01.377.104.663.285.858s.436.293.764.293c.347 0 .69-.072 1.026-.217v.435c-.172.074-.335.128-.488.16-.153.032-.338.048-.555.048zm-.13-2.92c-.26 0-.465.083-.618.25s-.243.4-.27.698h1.678c0-.306-.068-.54-.205-.703s-.333-.245-.586-.245zM310.348 119.885c.143 0 .27.012.384.035l-.067.45c-.133-.028-.25-.043-.352-.043-.26 0-.482.105-.667.316s-.276.474-.276.788v1.724h-.486v-3.21h.4l.057.594h.024c.12-.21.263-.37.43-.483s.353-.17.554-.17zM312.036 123.154l-1.22-3.21h.522l.69 1.903c.157.445.25.734.276.867h.023c.02-.104.09-.318.203-.643.114-.325.37-1.034.77-2.128h.52l-1.218 3.21h-.566zM314.297 119.073c0-.11.027-.192.082-.245.054-.05.122-.077.204-.077.078 0 .146.027.202.08s.085.134.085.243-.027.19-.084.245-.124.08-.202.08c-.082 0-.15-.026-.205-.08s-.083-.136-.083-.245zm.528 4.08h-.486v-3.21h.485v3.21zM317.14 123.213c-.466 0-.826-.143-1.08-.43-.256-.285-.383-.69-.383-1.214 0-.538.13-.953.388-1.246s.628-.44 1.106-.44c.155 0 .31.018.464.05s.275.073.363.118l-.15.413c-.106-.043-.224-.078-.35-.107-.128-.027-.24-.042-.338-.042-.653 0-.98.416-.98 1.248 0 .395.08.697.238.908s.396.316.708.316c.268 0 .542-.058.823-.173v.43c-.214.112-.485.168-.81.168zM320.07 123.213c-.476 0-.85-.145-1.125-.434s-.41-.69-.41-1.205c0-.518.126-.93.38-1.233s.6-.457 1.028-.457c.402 0 .72.133.955.396.234.267.352.615.352 1.05v.307h-2.212c.01.377.104.663.285.858s.436.293.764.293c.346 0 .688-.072 1.025-.217v.435c-.172.074-.335.128-.488.16-.154.032-.338.048-.555.048zm-.133-2.92c-.258 0-.464.083-.617.25s-.243.4-.27.698h1.678c0-.306-.068-.54-.205-.703s-.332-.245-.586-.245zM324.15 122.278c0 .3-.11.53-.334.69s-.535.244-.938.244c-.426 0-.758-.067-.996-.202v-.45c.154.077.32.14.496.184s.348.067.512.067c.254 0 .45-.04.586-.12.137-.08.205-.205.205-.37 0-.126-.054-.232-.162-.322-.108-.088-.32-.193-.634-.314-.3-.11-.512-.208-.638-.29s-.22-.18-.28-.284-.093-.23-.093-.378c0-.262.106-.468.32-.62.212-.15.504-.227.875-.227.346 0 .684.07 1.014.21l-.173.397c-.323-.133-.615-.2-.877-.2-.23 0-.404.037-.52.11s-.177.17-.177.298c0 .086.02.16.065.22s.116.118.214.173.285.134.562.237c.38.14.638.278.77.42s.204.315.204.528z"/>
    </g>
    <g fill="#4278A7">
        <path d="M283.143 2.382c0 .65-.222 1.15-.666 1.5-.443.35-1.08.525-1.905.525h-.756v2.527h-.747V.51h1.665c1.605 0 2.408.624 2.408 1.872zm-3.327 1.384h.673c.66 0 1.14-.107 1.436-.32s.444-.558.444-1.03c0-.424-.14-.74-.418-.948s-.712-.312-1.3-.312h-.836v2.61zM284.316.813c0-.168.04-.29.123-.367.08-.078.184-.117.307-.117.117 0 .22.04.304.118s.128.2.128.365-.042.286-.127.366c-.084.08-.186.12-.303.12-.123 0-.226-.04-.308-.12-.083-.08-.124-.203-.124-.367zm.79 6.12h-.728V2.12h.73v4.816zM289.95 6.934V3.82c0-.394-.09-.687-.268-.88s-.46-.29-.84-.29c-.504 0-.873.136-1.107.408s-.352.723-.352 1.35v2.526h-.73V2.118h.595l.118.66h.035c.15-.238.36-.422.63-.553.27-.13.57-.195.9-.195.58 0 1.017.14 1.31.42.293.28.44.727.44 1.342v3.143h-.73zM298.25 5.225c0 .565-.204 1.006-.614 1.322s-.967.475-1.67.475c-.762 0-1.348-.098-1.758-.295v-.72c.264.112.55.2.86.264.312.066.62.1.924.1.498 0 .873-.096 1.125-.285.252-.188.378-.45.378-.788 0-.223-.045-.405-.134-.548-.09-.143-.238-.273-.447-.395-.21-.12-.528-.256-.956-.408-.598-.214-1.025-.467-1.28-.76-.258-.293-.386-.676-.386-1.147 0-.495.188-.89.56-1.183.372-.292.864-.44 1.477-.44.64 0 1.226.12 1.762.353l-.233.65c-.53-.222-1.046-.334-1.547-.334-.396 0-.705.086-.928.256s-.334.405-.334.707c0 .222.04.404.123.546.083.143.222.272.417.392.194.118.492.25.894.394.675.24 1.14.498 1.393.773.25.274.378.63.378 1.07zM301.49 7.022c-.712 0-1.273-.217-1.685-.65-.412-.434-.618-1.035-.618-1.807 0-.775.19-1.393.574-1.85.383-.457.897-.686 1.54-.686.605 0 1.082.197 1.434.595.352.396.527.92.527 1.57v.462h-3.317c.015.565.157.995.43 1.288.27.293.65.44 1.144.44.52 0 1.03-.11 1.538-.327v.65c-.258.112-.502.19-.73.24-.233.05-.51.074-.835.074zm-.198-4.38c-.387 0-.695.125-.925.376-.23.253-.366.602-.407 1.047h2.52c0-.46-.104-.812-.31-1.058-.204-.243-.497-.366-.878-.366zM306.702 2.03c.214 0 .406.018.576.053l-.102.677c-.2-.044-.375-.065-.527-.065-.39 0-.724.158-1 .475-.277.316-.416.71-.416 1.182v2.584h-.73V2.118h.604l.083.893h.036c.18-.312.395-.555.646-.725s.528-.255.83-.255zM309.233 6.934l-1.828-4.816h.782l1.037 2.856c.234.668.372 1.102.413 1.3h.035c.032-.154.134-.476.306-.964.17-.487.556-1.552 1.153-3.192h.783l-1.828 4.816h-.852zM314.722 7.022c-.712 0-1.274-.217-1.686-.65-.412-.434-.617-1.035-.617-1.807 0-.775.19-1.393.572-1.85.382-.457.896-.686 1.54-.686.604 0 1.08.197 1.433.595.352.396.527.92.527 1.57v.462h-3.317c.015.565.157.995.428 1.288.27.293.653.44 1.146.44.518 0 1.03-.11 1.537-.327v.65c-.258.112-.502.19-.732.24-.23.05-.508.074-.833.074zm-.198-4.38c-.387 0-.695.125-.925.376-.23.253-.366.602-.407 1.047h2.518c0-.46-.102-.812-.307-1.058-.205-.243-.498-.366-.88-.366zM319.934 2.03c.214 0 .405.018.575.053l-.102.677c-.2-.044-.375-.065-.527-.065-.39 0-.722.158-1 .475-.275.316-.414.71-.414 1.182v2.584h-.73V2.118h.603l.083.893h.035c.18-.312.394-.555.646-.725s.528-.255.83-.255z"/>
    </g>
    <g fill="#356282">
        <path d="M291.85 135.193h-.492l-.864-2.868c-.04-.127-.087-.287-.138-.48s-.077-.31-.08-.35c-.042.26-.11.54-.204.848l-.838 2.85h-.492l-1.14-4.282h.527l.676 2.647c.094.37.162.707.205 1.008.054-.357.132-.707.235-1.05l.768-2.603h.527l.806 2.628c.094.303.173.645.237 1.025.037-.277.107-.615.21-1.014l.675-2.64h.527l-1.145 4.283zM294.95 135.252c-.475 0-.85-.145-1.124-.434s-.41-.69-.41-1.204c0-.518.126-.93.38-1.233s.6-.456 1.028-.456c.402 0 .72.133.955.396.233.266.35.614.35 1.048v.308h-2.21c.01.377.103.663.284.858s.436.293.764.293c.346 0 .688-.072 1.025-.217v.434c-.172.074-.335.128-.488.16-.154.032-.34.048-.555.048zm-.132-2.92c-.258 0-.464.083-.617.25s-.242.4-.27.698h1.68c0-.307-.07-.54-.206-.704s-.332-.245-.586-.245zM298.934 135.193l-.097-.457h-.023c-.16.2-.32.338-.48.408-.158.07-.356.107-.595.107-.32 0-.57-.08-.75-.245s-.27-.397-.27-.7c0-.648.518-.988 1.555-1.02l.545-.018v-.2c0-.25-.055-.437-.163-.557-.108-.12-.28-.18-.52-.18-.268 0-.57.08-.908.245l-.15-.372c.158-.086.33-.153.52-.202s.378-.072.567-.072c.383 0 .666.085.85.255s.278.442.278.817v2.19h-.36zm-1.1-.343c.304 0 .54-.083.714-.25s.26-.397.26-.696v-.29l-.486.02c-.387.015-.666.075-.837.18-.17.108-.256.273-.256.498 0 .176.052.31.158.4s.256.138.447.138zM301.333 134.85c.086 0 .17-.006.25-.02s.143-.025.19-.04v.373c-.054.025-.132.046-.234.062s-.195.025-.277.025c-.62 0-.932-.327-.932-.98v-1.91h-.46v-.235l.46-.202.206-.686h.28v.744h.933v.38h-.933v1.89c0 .192.046.34.138.444s.218.156.378.156zM304.612 135.193v-2.077c0-.262-.06-.457-.18-.586s-.305-.193-.56-.193c-.337 0-.584.092-.74.275s-.23.484-.23.902v1.68h-.487v-4.56h.486v1.38c0 .166-.007.304-.022.413h.03c.095-.154.23-.275.407-.365.177-.088.38-.133.605-.133.393 0 .687.093.883.278.196.188.295.483.295.89v2.095h-.486zM307.453 135.252c-.475 0-.85-.145-1.124-.434s-.412-.69-.412-1.204c0-.518.127-.93.382-1.233s.598-.456 1.027-.456c.402 0 .72.133.955.396.234.266.352.614.352 1.048v.308h-2.212c.01.377.104.663.285.858s.436.293.764.293c.347 0 .69-.072 1.026-.217v.434c-.172.074-.335.128-.488.16-.153.032-.338.048-.555.048zm-.13-2.92c-.26 0-.465.083-.618.25s-.243.4-.27.698h1.678c0-.307-.068-.54-.205-.704s-.332-.245-.586-.245zM310.928 131.924c.143 0 .27.012.384.035l-.067.45c-.133-.03-.25-.044-.352-.044-.26 0-.482.105-.667.316s-.276.474-.276.788v1.723h-.486v-3.21h.4l.057.594h.024c.12-.21.263-.37.43-.483s.353-.17.554-.17z"/>
    </g>
    <g fill="#356282">
        <path d="M294.393 146.09c0 .377-.137.67-.41.882s-.645.316-1.113.316c-.508 0-.898-.065-1.172-.196v-.48c.176.074.367.133.574.176s.412.064.615.064c.332 0 .582-.063.75-.188.168-.127.252-.302.252-.526 0-.148-.03-.27-.09-.364s-.16-.183-.3-.263-.352-.17-.637-.27c-.398-.144-.684-.313-.854-.508s-.257-.45-.257-.765c0-.33.124-.593.372-.788s.576-.294.984-.294c.425 0 .816.078 1.174.234l-.155.434c-.355-.148-.698-.223-1.032-.223-.264 0-.47.058-.618.17s-.223.272-.223.473c0 .148.027.27.082.365s.145.182.275.26c.13.08.33.167.597.263.45.16.758.333.927.517s.253.42.253.713zM297.967 145.62c0 .524-.132.934-.396 1.227-.263.295-.627.44-1.092.44-.287 0-.542-.066-.765-.2s-.395-.33-.516-.58-.182-.548-.182-.886c0-.522.13-.93.393-1.223.262-.29.625-.438 1.09-.438.45 0 .806.148 1.07.447s.4.705.4 1.214zm-2.446 0c0 .41.083.724.247.94s.405.32.724.32.56-.105.726-.32c.165-.213.248-.526.248-.938 0-.408-.083-.718-.248-.93-.165-.212-.408-.318-.73-.318-.318 0-.56.104-.72.313s-.245.52-.245.934zM300.103 147.288c-.465 0-.825-.143-1.08-.43-.255-.285-.382-.69-.382-1.214 0-.537.13-.952.39-1.245s.627-.44 1.105-.44c.154 0 .31.017.463.05s.275.072.363.117l-.148.413c-.107-.043-.225-.078-.352-.107-.127-.027-.24-.042-.337-.042-.652 0-.98.417-.98 1.25 0 .394.08.696.24.907s.395.316.707.316c.268 0 .542-.058.823-.173v.43c-.213.113-.484.168-.81.168zM301.635 143.15c0-.112.027-.193.082-.246.055-.05.123-.077.205-.077.078 0 .146.026.202.08s.085.133.085.242-.03.19-.086.244-.124.08-.202.08c-.082 0-.15-.026-.205-.08s-.082-.136-.082-.245zm.527 4.08h-.486v-3.21h.486v3.21zM305.168 147.23l-.097-.457h-.022c-.16.2-.32.338-.48.408-.158.072-.356.108-.595.108-.318 0-.568-.082-.75-.246s-.27-.397-.27-.7c0-.648.52-.988 1.556-1.02l.544-.018v-.2c0-.25-.055-.437-.163-.557-.107-.12-.28-.18-.52-.18-.267 0-.57.08-.907.245l-.15-.372c.16-.086.332-.153.52-.202s.38-.073.568-.073c.384 0 .667.085.852.255s.277.442.277.817v2.19h-.362zm-1.098-.343c.303 0 .54-.083.713-.25s.26-.397.26-.696v-.29l-.486.022c-.387.014-.666.074-.837.18-.17.107-.256.272-.256.497 0 .175.053.31.16.4s.254.137.446.137zM307.017 147.23h-.486v-4.56h.487v4.56z"/>
    </g>
    <g fill="#356282">
        <path d="M288.832 157.086c0 .707-.192 1.248-.576 1.622s-.936.56-1.656.56h-1.187v-4.282h1.312c.666 0 1.184.185 1.553.554s.554.884.554 1.546zm-.527.018c0-.56-.14-.98-.42-1.263s-.697-.424-1.25-.424h-.724v3.422h.607c.594 0 1.04-.146 1.34-.438.3-.29.448-.724.448-1.296zM291.69 159.27l-.098-.458h-.023c-.16.2-.32.338-.48.408-.16.07-.357.107-.596.107-.318 0-.568-.082-.75-.246s-.27-.396-.27-.7c0-.647.52-.987 1.556-1.02l.545-.017v-.2c0-.25-.055-.437-.163-.557-.108-.12-.28-.18-.52-.18-.268 0-.57.08-.908.245l-.15-.37c.16-.087.332-.154.52-.203s.38-.073.568-.073c.383 0 .666.085.85.255s.278.44.278.816v2.19h-.36zm-1.1-.344c.303 0 .54-.083.713-.25s.26-.397.26-.696v-.29l-.486.02c-.387.015-.666.075-.837.18-.17.108-.256.273-.256.498 0 .176.053.31.16.4s.255.138.446.138zM294.088 158.926c.086 0 .17-.006.25-.02s.143-.025.19-.04v.373c-.054.024-.132.045-.234.06s-.194.026-.276.026c-.62 0-.932-.327-.932-.98v-1.91h-.46v-.235l.46-.2.205-.687h.282v.744h.932v.378h-.932v1.89c0 .193.046.342.138.445s.218.156.378.156zM297.144 159.27l-.097-.458h-.023c-.16.2-.32.338-.48.408-.158.07-.356.107-.595.107-.32 0-.57-.082-.75-.246s-.27-.396-.27-.7c0-.647.518-.987 1.555-1.02l.545-.017v-.2c0-.25-.055-.437-.163-.557-.108-.12-.28-.18-.52-.18-.268 0-.57.08-.908.245l-.15-.37c.158-.087.33-.154.52-.203s.378-.073.567-.073c.383 0 .666.085.85.255s.278.44.278.816v2.19h-.36zm-1.1-.344c.304 0 .54-.083.714-.25s.26-.397.26-.696v-.29l-.486.02c-.387.015-.666.075-.837.18-.17.108-.256.273-.256.498 0 .176.052.31.158.4s.256.138.447.138zM300 156.005c.422 0 .75.145.982.432.233.29.35.696.35 1.224s-.117.94-.353 1.23-.563.438-.98.438c-.21 0-.4-.04-.573-.115-.173-.077-.317-.196-.435-.356h-.035l-.103.413h-.35v-4.56h.487v1.108c0 .248-.007.47-.022.668h.023c.23-.32.565-.48 1.01-.48zm-.07.407c-.332 0-.57.095-.718.286-.146.19-.22.51-.22.962s.075.774.226.968c.15.195.392.292.724.292.3 0 .52-.108.668-.327.146-.217.22-.53.22-.938 0-.418-.073-.73-.22-.935s-.373-.308-.68-.308zM304.158 159.27l-.097-.458h-.022c-.16.2-.32.338-.48.408-.158.07-.356.107-.595.107-.318 0-.568-.082-.75-.246s-.27-.396-.27-.7c0-.647.52-.987 1.556-1.02l.544-.017v-.2c0-.25-.055-.437-.163-.557-.107-.12-.28-.18-.52-.18-.267 0-.57.08-.907.245l-.15-.37c.16-.087.332-.154.52-.203s.38-.073.568-.073c.384 0 .667.085.852.255s.277.44.277.816v2.19h-.362zm-1.1-.344c.304 0 .54-.083.714-.25s.26-.397.26-.696v-.29l-.486.02c-.387.015-.666.075-.837.18-.172.108-.257.273-.257.498 0 .176.053.31.16.4s.255.138.446.138zM307.59 158.393c0 .3-.11.53-.333.69s-.535.244-.938.244c-.427 0-.76-.067-.997-.202v-.45c.154.077.32.14.496.184s.347.066.51.066c.255 0 .45-.04.587-.122.137-.08.205-.204.205-.37 0-.125-.055-.23-.163-.32-.11-.09-.32-.194-.635-.315-.3-.112-.512-.21-.638-.292s-.22-.178-.28-.283-.093-.23-.093-.378c0-.262.106-.468.32-.62.212-.15.504-.227.875-.227.345 0 .683.07 1.013.21l-.173.397c-.322-.133-.614-.2-.876-.2-.23 0-.404.037-.52.11s-.177.17-.177.298c0 .086.02.16.065.22s.115.118.213.173.285.134.562.237c.38.14.638.278.77.42s.204.315.204.528zM309.74 159.327c-.476 0-.85-.145-1.125-.434s-.41-.69-.41-1.204c0-.52.126-.93.38-1.234s.6-.457 1.028-.457c.402 0 .72.132.955.395.234.266.352.614.352 1.048v.308h-2.212c.01.378.104.664.285.86s.436.292.764.292c.346 0 .688-.072 1.025-.217v.434c-.172.073-.335.127-.488.158-.154.034-.34.05-.555.05zm-.133-2.92c-.258 0-.464.084-.617.252s-.243.4-.27.696h1.678c0-.307-.068-.54-.205-.704s-.332-.245-.586-.245zM313.82 158.393c0 .3-.11.53-.334.69s-.535.244-.938.244c-.426 0-.758-.067-.996-.202v-.45c.154.077.32.14.496.184s.348.066.512.066c.254 0 .45-.04.586-.122.137-.08.205-.204.205-.37 0-.125-.054-.23-.162-.32-.108-.09-.32-.194-.634-.315-.3-.112-.512-.21-.638-.292s-.22-.178-.28-.283-.093-.23-.093-.378c0-.262.106-.468.32-.62.212-.15.504-.227.875-.227.346 0 .684.07 1.014.21l-.173.397c-.323-.133-.615-.2-.877-.2-.23 0-.404.037-.52.11s-.177.17-.177.298c0 .086.02.16.065.22s.116.118.214.173.285.134.562.237c.38.14.638.278.77.42s.204.315.204.528z"/>
    </g>
    <g fill="#356282">
        <path d="M295.69 170.95v-4.284h.498v4.283h-.498zM300.06 169.34c0 .523-.13.933-.395 1.226-.264.295-.628.44-1.093.44-.287 0-.542-.066-.765-.2s-.395-.33-.516-.58-.18-.548-.18-.886c0-.523.13-.93.392-1.224.262-.29.625-.438 1.09-.438.45 0 .806.15 1.07.448s.4.704.4 1.214zm-2.445 0c0 .41.082.723.246.938s.406.322.725.322.56-.106.725-.32c.165-.214.248-.527.248-.94 0-.407-.083-.717-.248-.93-.165-.21-.408-.317-.73-.317-.318 0-.56.104-.72.313s-.245.52-.245.934zM302.305 170.95h-.498v-3.842h-1.356v-.442h3.212v.442h-1.356v3.84z"/>
    </g>
    <g>
        <path fill="#4278A7" d="M270.215 114.595h58.39v.398h-58.39z"/>
    </g>
    <g>
        <path fill="#4278A7" d="M270.215 126.71h58.39v.17h-58.39z"/>
    </g>
    <g>
        <path fill="#4278A7" d="M270.215 138.71h58.39v.17h-58.39z"/>
    </g>
    <g>
        <path fill="#4278A7" d="M270.215 150.71h58.39v.17h-58.39z"/>
    </g>
    <g>
        <path fill="#4278A7" d="M270.215 162.71h58.39v.17h-58.39z"/>
    </g>
    <g>
        <path fill="#4278A7" d="M270.215 174.71h58.39v.17h-58.39z"/>
    </g>
    <g fill="#356282">
        <path d="M297.46 181.638c0-.13.028-.23.088-.297.06-.067.146-.1.257-.1.113 0 .2.032.265.1.063.067.096.167.096.298 0 .127-.032.225-.097.293s-.153.104-.265.104c-.1 0-.183-.03-.248-.093-.065-.06-.098-.16-.098-.302zM299.056 181.638c0-.13.03-.23.09-.297.06-.067.145-.1.256-.1.113 0 .2.032.265.1.063.067.096.167.096.298 0 .127-.032.225-.097.293s-.152.104-.264.104c-.1 0-.183-.03-.248-.093-.066-.06-.098-.16-.098-.302zM300.653 181.638c0-.13.03-.23.09-.297.06-.067.145-.1.256-.1.112 0 .2.032.264.1.063.067.096.167.096.298 0 .127-.032.225-.097.293s-.152.104-.264.104c-.1 0-.184-.03-.25-.093-.065-.06-.097-.16-.097-.302z"/>
    </g>
    <g>
        <path fill="#4278A7" d="M270.215 186.595h58.39v.398h-58.39z"/>
    </g>
    <g>
        <path fill="none" stroke="#4278A7" stroke-width=".5" stroke-miterlimit="10" d="M269.8 61.215h-29.697"/>
        <path fill="#4278A7" d="M240.467 59.968l-2.158 1.247 2.157 1.247"/>
    </g>
    <path fill="#83BBE6" d="M299.675 26.82c-4.9 0-9.078 3.347-10.227 7.983-5.7.128-10.298 4.805-10.298 10.536 0 5.81 4.728 10.538 10.54 10.538h9.238l1.482.004V26.855c-.244-.017-.488-.034-.735-.034z"/>
    <path fill="#67A9DC" d="M300.885 26.82c4.9 0 9.078 3.347 10.227 7.983 5.7.128 10.298 4.805 10.298 10.536 0 5.81-4.728 10.538-10.54 10.538h-9.238l-1.482.004V26.855c.244-.017.488-.034.735-.034z"/>
    <circle fill="#FFF" cx="300.15" cy="42.958" r="7.433"/>
    <path fill="#83BBE6" d="M291.016 66.988h-6.12c-.522-.943-1.528-1.582-2.68-1.582-1.69 0-3.065 1.375-3.065 3.065s1.376 3.066 3.066 3.066c1.152 0 2.158-.64 2.68-1.582h7.603c.818 0 1.482-.664 1.482-1.483v-4.548h-2.967v3.066z"/>
    <path fill="#4278A7" d="M318.604 65.406c-1.21 0-2.257.704-2.755 1.724h-6.046v-3.207h-2.966v4.69c0 .82.664 1.484 1.483 1.484h7.687c.543.864 1.504 1.44 2.598 1.44 1.69 0 3.065-1.374 3.065-3.064s-1.375-3.067-3.066-3.067z"/>
    <g>
        <path fill="#83BBE6" d="M194.58 38.648h30.107c2.645 0 4.79-2.144 4.79-4.79 0-2.644-2.145-4.788-4.79-4.788H194.58c-2.644 0-4.79 2.144-4.79 4.79.002 2.644 2.147 4.788 4.79 4.788zm0-7.24c1.356 0 2.453 1.097 2.453 2.45s-1.097 2.453-2.452 2.453c-1.354 0-2.45-1.097-2.45-2.45 0-1.356 1.096-2.453 2.45-2.453z"/>
        <path fill="#67A9DC" d="M224.687 42.754H194.58c-2.644 0-4.79 2.144-4.79 4.79 0 2.644 2.146 4.788 4.79 4.788h30.107c2.645 0 4.79-2.144 4.79-4.79 0-2.644-2.145-4.788-4.79-4.788zm-30.106 7.24c-1.354 0-2.45-1.097-2.45-2.45 0-1.355 1.096-2.453 2.45-2.453 1.356 0 2.453 1.1 2.453 2.453 0 1.355-1.096 2.452-2.452 2.452z"/>
        <path fill="#4278A7" d="M224.687 56.438H194.58c-2.644 0-4.79 2.144-4.79 4.79 0 2.645 2.146 4.79 4.79 4.79h30.107c2.645 0 4.79-2.145 4.79-4.79 0-2.646-2.145-4.79-4.79-4.79zM194.58 63.68c-1.354 0-2.45-1.098-2.45-2.452 0-1.354 1.096-2.452 2.45-2.452 1.356 0 2.453 1.098 2.453 2.452 0 1.354-1.096 2.452-2.452 2.452z"/>
        <path fill="#356282" d="M224.687 70.754H194.58c-2.644 0-4.79 2.144-4.79 4.79 0 2.644 2.146 4.788 4.79 4.788h30.107c2.645 0 4.79-2.144 4.79-4.79 0-2.644-2.145-4.788-4.79-4.788zm-30.106 7.24c-1.354 0-2.45-1.097-2.45-2.45 0-1.355 1.096-2.453 2.45-2.453 1.356 0 2.453 1.1 2.453 2.453 0 1.355-1.096 2.452-2.452 2.452z"/>
        <path fill="#294F63" d="M224.687 84.438H194.58c-2.644 0-4.79 2.144-4.79 4.79 0 2.645 2.146 4.79 4.79 4.79h30.107c2.645 0 4.79-2.145 4.79-4.79 0-2.646-2.145-4.79-4.79-4.79zM194.58 91.68c-1.354 0-2.45-1.098-2.45-2.452 0-1.354 1.096-2.452 2.45-2.452 1.356 0 2.453 1.098 2.453 2.452 0 1.354-1.096 2.452-2.452 2.452z"/>
    </g>
    <path fill="#E6E326" d="M301.707 42.093l-.21-3.89c0-.004.004-.008.004-.01 0-.29-.602-.526-1.346-.526-.735 0-1.33.23-1.344.515h-.006l-.21 3.91c-.713.05-1.278.637-1.278 1.363 0 .122.05.24.135.326.087.087.205.136.327.136h1.87l.246 4.09c.008.13.11.235.245.243.143.007.267-.102.275-.246l.242-4.09H302.525c.122 0 .24-.048.326-.134.086-.086.135-.204.135-.326 0-.724-.565-1.312-1.278-1.36z"/>
</svg>
