<svg xmlns="http://www.w3.org/2000/svg" viewBox="0 0 113.39 82.2">
    <g fill="#356282">
        <path d="M73.87 7.216h1.456V9.3c-.227.07-.457.126-.69.163s-.507.056-.815.056c-.647 0-1.152-.193-1.514-.58s-.542-.926-.542-1.62c0-.446.09-.836.268-1.172.18-.334.437-.59.772-.768.336-.176.73-.265 1.18-.265.458 0 .884.084 1.278.252l-.193.44c-.388-.165-.76-.247-1.117-.247-.52 0-.93.155-1.222.466s-.438.74-.438 1.292c0 .578.14 1.017.423 1.315s.697.448 1.244.448c.296 0 .586-.033.87-.102V7.66h-.96v-.444zM77.746 6.19c.143 0 .27.012.384.035l-.067.45c-.133-.028-.25-.043-.352-.043-.26 0-.48.105-.666.316s-.276.474-.276.788V9.46h-.486V6.25h.4l.057.594h.022c.12-.21.263-.37.43-.483s.352-.17.554-.17zM80.705 9.46l-.097-.457h-.023c-.16.2-.32.338-.48.408-.158.072-.356.108-.595.108-.318 0-.568-.082-.75-.246s-.27-.397-.27-.7c0-.648.52-.988 1.556-1.02l.545-.018v-.198c0-.252-.054-.438-.162-.558-.108-.12-.28-.18-.52-.18-.268 0-.57.08-.908.245l-.15-.372c.158-.085.33-.152.52-.2s.378-.074.567-.074c.383 0 .666.085.85.255s.278.443.278.818V9.46h-.36zm-1.1-.343c.304 0 .54-.083.714-.25s.26-.397.26-.696v-.29l-.487.022c-.387.014-.666.074-.837.18-.17.107-.256.272-.256.497 0 .175.053.31.16.4s.255.137.446.137zM83.56 9.518c-.208 0-.4-.04-.572-.115-.173-.077-.317-.196-.435-.356h-.035c.023.188.035.365.035.533v1.32h-.486V6.25h.396l.067.438h.023c.125-.176.27-.303.437-.38s.356-.118.57-.118c.427 0 .755.146.986.437s.348.7.348 1.225c0 .527-.118.937-.354 1.23s-.56.436-.98.436zm-.07-2.915c-.327 0-.564.09-.71.272s-.223.47-.227.867v.108c0 .45.075.774.226.968.15.195.39.292.723.292.277 0 .494-.112.65-.337s.237-.533.237-.928c0-.4-.08-.708-.236-.92-.157-.215-.378-.322-.663-.322zM87.94 9.46V7.383c0-.262-.06-.457-.178-.586s-.306-.193-.56-.193c-.338 0-.585.092-.74.275s-.232.483-.232.9v1.68h-.486V4.9h.486v1.38c0 .167-.008.305-.023.414h.03c.095-.154.23-.275.407-.365.177-.09.38-.134.605-.134.392 0 .686.094.882.28.196.187.295.482.295.89V9.46h-.486zM89.385 5.38c0-.112.027-.193.082-.246.055-.05.123-.077.205-.077.078 0 .146.026.202.08s.085.133.085.242-.03.19-.086.244-.124.08-.202.08c-.082 0-.15-.026-.205-.08s-.082-.136-.082-.245zm.528 4.08h-.486V6.25h.486v3.21zM92.227 9.518c-.465 0-.825-.143-1.08-.43-.255-.285-.382-.69-.382-1.214 0-.537.13-.952.388-1.245s.628-.44 1.106-.44c.153 0 .308.017.462.05s.275.072.363.117l-.15.413c-.106-.043-.224-.078-.35-.107-.128-.027-.24-.042-.338-.042-.652 0-.98.417-.98 1.25 0 .394.08.696.24.907s.395.316.707.316c.268 0 .542-.058.823-.173v.43c-.213.113-.484.168-.81.168zM95.872 8.584c0 .3-.11.53-.334.69s-.536.244-.938.244c-.426 0-.758-.067-.996-.202v-.45c.154.077.32.14.496.184s.348.067.512.067c.254 0 .45-.04.586-.122.137-.08.205-.204.205-.37 0-.125-.055-.23-.163-.32-.108-.09-.32-.194-.634-.315-.3-.11-.512-.208-.638-.29s-.22-.18-.28-.284-.093-.23-.093-.378c0-.262.106-.468.32-.62.212-.15.504-.227.875-.227.346 0 .684.07 1.014.212l-.173.396c-.32-.133-.613-.2-.875-.2-.23 0-.404.037-.52.11s-.177.17-.177.298c0 .086.02.16.065.22s.115.118.213.173.285.133.562.236c.38.14.638.278.77.42.136.138.204.315.204.528z"/>
    </g>
    <g fill="#356282">
        <path d="M72.624 21.5l-.533-1.363h-1.716l-.527 1.362h-.504l1.693-4.302h.42l1.684 4.3h-.516zm-.688-1.812l-.498-1.327c-.064-.167-.13-.373-.2-.617-.042.188-.103.394-.184.618l-.504 1.328h1.386zM75.853 21.5V19.42c0-.262-.06-.457-.18-.586s-.305-.193-.56-.193c-.335 0-.58.09-.737.272s-.234.48-.234.9v1.684h-.486v-3.212h.396l.08.44h.022c.1-.16.24-.28.42-.368s.38-.13.6-.13c.387 0 .678.093.873.278.195.188.293.485.293.896V21.5h-.487zM77.297 17.418c0-.11.027-.192.082-.245.054-.05.122-.077.204-.077.078 0 .146.026.202.08s.085.133.085.242-.027.19-.084.245-.124.08-.202.08c-.082 0-.15-.026-.205-.08s-.083-.136-.083-.245zm.528 4.08h-.486v-3.21h.485v3.21zM82.95 21.5v-2.09c0-.256-.056-.447-.165-.575s-.28-.192-.51-.192c-.303 0-.526.087-.67.26s-.218.442-.218.804V21.5H80.9v-2.09c0-.256-.054-.447-.163-.575s-.28-.192-.513-.192c-.305 0-.528.092-.67.274s-.212.48-.212.897V21.5h-.486v-3.212h.396l.08.44h.022c.092-.157.22-.28.388-.367s.354-.13.562-.13c.502 0 .83.18.984.544h.023c.097-.168.235-.3.417-.398s.39-.146.62-.146c.364 0 .636.094.816.28.18.187.27.484.27.895V21.5h-.484zM86.412 21.5l-.097-.458h-.023c-.16.2-.32.338-.48.408-.158.07-.356.107-.595.107-.318 0-.568-.082-.75-.246s-.27-.396-.27-.7c0-.647.52-.987 1.556-1.02l.545-.017v-.2c0-.25-.055-.437-.163-.557-.108-.12-.28-.18-.52-.18-.268 0-.57.08-.908.245l-.15-.37c.16-.087.332-.154.52-.203s.38-.073.568-.073c.383 0 .666.085.85.255s.278.44.278.816v2.19h-.36zm-1.1-.344c.304 0 .54-.083.714-.25s.26-.397.26-.696v-.29l-.486.02c-.387.015-.666.075-.837.18-.17.108-.256.273-.256.498 0 .176.053.31.16.4s.255.138.446.138zM88.81 21.156c.087 0 .17-.006.25-.02s.144-.025.19-.04v.373c-.053.024-.13.045-.233.06s-.194.026-.276.026c-.62 0-.93-.327-.93-.98v-1.91h-.46v-.235l.46-.2.204-.687h.28v.744h.933v.378h-.932v1.89c0 .193.046.342.138.445s.218.156.378.156zM89.85 17.418c0-.11.028-.192.083-.245.055-.05.123-.077.205-.077.078 0 .146.026.202.08s.085.133.085.242-.028.19-.085.245-.124.08-.202.08c-.082 0-.15-.026-.205-.08s-.082-.136-.082-.245zm.528 4.08h-.486v-3.21h.486v3.21zM94.18 19.89c0 .523-.13.933-.395 1.226-.264.295-.628.44-1.093.44-.287 0-.542-.066-.765-.2s-.395-.33-.516-.58-.18-.548-.18-.886c0-.523.13-.93.392-1.224.262-.29.625-.438 1.09-.438.45 0 .806.15 1.07.448s.4.705.4 1.214zm-2.445 0c0 .41.082.723.246.938s.406.322.725.322.56-.106.725-.32c.165-.214.248-.527.248-.94 0-.407-.083-.717-.248-.93-.165-.21-.408-.317-.73-.317-.318 0-.56.104-.72.313s-.245.52-.245.934zM97.23 21.5V19.42c0-.262-.06-.457-.178-.586s-.306-.193-.56-.193c-.336 0-.582.09-.738.272s-.234.48-.234.9v1.684h-.486v-3.212h.396l.08.44h.022c.1-.16.24-.28.42-.368s.38-.13.6-.13c.387 0 .678.093.873.278.195.188.293.485.293.896V21.5h-.487z"/>
    </g>
    <g fill="#356282">
        <path d="M75.707 32.396c0 .377-.137.67-.41.882s-.645.316-1.113.316c-.508 0-.898-.065-1.172-.196v-.48c.176.074.367.133.574.176s.412.064.615.064c.333 0 .583-.063.75-.188.17-.127.253-.302.253-.526 0-.148-.03-.27-.09-.364-.06-.095-.158-.183-.298-.263s-.353-.17-.638-.272c-.398-.143-.683-.312-.854-.507s-.257-.45-.257-.765c0-.33.124-.593.372-.788s.576-.293.984-.293c.426 0 .817.078 1.175.234l-.155.434c-.354-.148-.697-.223-1.03-.223-.265 0-.47.057-.62.17s-.222.27-.222.472c0 .147.027.27.082.364s.147.182.277.26c.13.08.327.167.595.263.45.16.76.332.928.516s.254.42.254.713zM77.867 33.594c-.475 0-.85-.145-1.123-.434s-.412-.69-.412-1.204c0-.518.128-.93.383-1.233s.597-.457 1.026-.457c.403 0 .722.133.956.396.234.266.352.614.352 1.048v.308h-2.212c.01.377.105.663.286.858s.435.293.763.293c.346 0 .688-.073 1.025-.218v.434c-.172.074-.334.128-.487.16-.154.033-.34.048-.556.048zm-.132-2.92c-.258 0-.463.084-.616.252s-.245.4-.272.697h1.68c0-.307-.07-.54-.206-.704s-.333-.246-.587-.246zM82.074 33.536V31.46c0-.263-.06-.458-.18-.587s-.305-.193-.56-.193c-.335 0-.58.09-.737.272s-.234.48-.234.9v1.684h-.486v-3.21h.396l.08.438h.022c.1-.158.24-.28.42-.367s.38-.13.6-.13c.387 0 .678.093.873.278.195.188.293.485.293.896v2.096h-.486zM85.63 32.66c0 .3-.11.53-.334.69s-.535.244-.938.244c-.426 0-.758-.067-.996-.202v-.45c.154.077.32.14.497.184s.346.067.51.067c.254 0 .45-.04.586-.122.137-.08.205-.203.205-.37 0-.124-.053-.23-.16-.32-.11-.088-.32-.193-.636-.314-.3-.11-.51-.208-.637-.29s-.22-.18-.28-.284-.094-.23-.094-.378c0-.262.106-.468.32-.62.212-.15.504-.227.875-.227.346 0 .684.07 1.014.21l-.173.397c-.323-.133-.615-.2-.877-.2-.23 0-.404.037-.52.11s-.177.17-.177.298c0 .086.022.16.066.22s.114.118.212.173.285.134.562.237c.38.14.64.278.772.42.136.138.202.315.202.528zM89.193 31.927c0 .523-.132.933-.396 1.226-.264.295-.628.44-1.093.44-.287 0-.542-.066-.765-.2s-.396-.33-.517-.58-.182-.548-.182-.886c0-.523.132-.93.394-1.224.262-.29.625-.438 1.09-.438.45 0 .807.15 1.07.448s.4.705.4 1.214zm-2.446 0c0 .41.082.723.246.937s.405.322.724.322.56-.106.726-.32c.165-.214.247-.527.247-.94 0-.407-.082-.717-.247-.93-.165-.21-.41-.317-.73-.317s-.56.103-.722.312-.243.52-.243.935zM91.51 30.266c.143 0 .27.012.384.035l-.067.452c-.133-.03-.25-.044-.352-.044-.26 0-.48.105-.666.316s-.278.474-.278.788v1.723h-.486v-3.21h.4l.057.594h.023c.12-.21.263-.37.43-.484s.353-.17.554-.17zM94.566 32.66c0 .3-.11.53-.334.69s-.535.244-.938.244c-.426 0-.758-.067-.996-.202v-.45c.154.077.32.14.497.184s.347.067.51.067c.255 0 .45-.04.587-.122.137-.08.205-.203.205-.37 0-.124-.054-.23-.162-.32-.108-.088-.32-.193-.635-.314-.3-.11-.51-.208-.637-.29s-.22-.18-.28-.284-.094-.23-.094-.378c0-.262.105-.468.318-.62.213-.15.505-.227.876-.227.346 0 .684.07 1.014.21l-.173.397c-.322-.133-.614-.2-.876-.2-.23 0-.405.037-.522.11s-.176.17-.176.298c0 .086.022.16.066.22s.114.118.212.173.285.134.562.237c.38.14.64.278.772.42.135.138.202.315.202.528z"/>
    </g>
    <g fill="#356282">
        <path d="M74.72 41.292v2.77c0 .49-.148.873-.443 1.152s-.7.42-1.216.42-.914-.142-1.196-.423-.423-.667-.423-1.16v-2.76h.5v2.796c0 .357.097.632.292.823s.482.286.86.286c.362 0 .64-.096.836-.288s.293-.47.293-.828v-2.79h.5zM75.853 45.575v-4.283h.498v4.283h-.497zM79.084 45.575v-4.283h.498v3.832h1.89v.45h-2.388zM84.1 45.575l-.097-.457h-.023c-.16.2-.32.338-.48.408-.158.07-.356.107-.595.107-.318 0-.568-.082-.75-.246s-.27-.397-.27-.7c0-.648.52-.988 1.556-1.02l.546-.018v-.2c0-.252-.055-.438-.163-.558-.108-.12-.28-.18-.52-.18-.268 0-.57.08-.908.245l-.15-.372c.16-.086.332-.153.52-.202s.38-.073.568-.073c.383 0 .666.085.85.255s.278.442.278.817v2.19h-.36zm-1.1-.343c.304 0 .54-.083.714-.25s.26-.397.26-.696v-.29l-.486.02c-.387.015-.666.075-.837.18-.17.108-.255.273-.255.498 0 .176.053.31.16.4s.255.138.446.138zM84.953 42.364h.52l.704 1.83c.154.42.25.72.287.906h.023c.025-.1.078-.27.16-.512.08-.24.346-.982.795-2.225h.52l-1.38 3.656c-.136.36-.296.616-.478.77-.183.15-.406.226-.672.226-.148 0-.295-.017-.44-.05v-.39c.108.023.23.035.36.035.335 0 .573-.187.716-.56l.18-.458-1.295-3.228zM89.842 45.634c-.475 0-.85-.145-1.124-.434s-.41-.69-.41-1.204c0-.518.126-.93.38-1.233s.6-.457 1.028-.457c.402 0 .72.133.955.396.235.266.353.614.353 1.048v.308H88.81c.01.377.105.663.286.858s.436.293.764.293c.346 0 .688-.073 1.025-.218v.434c-.172.074-.335.128-.488.16-.153.032-.338.048-.555.048zm-.132-2.92c-.258 0-.464.083-.617.25s-.243.4-.27.698H90.5c0-.307-.067-.54-.204-.704s-.332-.245-.586-.245zM93.317 42.305c.143 0 .27.012.384.035l-.066.45c-.133-.028-.25-.043-.352-.043-.26 0-.482.105-.667.316s-.276.474-.276.788v1.724h-.487v-3.21h.4l.057.594h.023c.12-.21.263-.37.43-.483s.353-.17.554-.17zM96.373 44.7c0 .298-.11.528-.334.69s-.536.243-.94.243c-.425 0-.757-.067-.995-.202v-.45c.154.078.32.14.496.185s.35.067.513.067c.254 0 .45-.04.586-.122.136-.08.204-.204.204-.37 0-.125-.055-.23-.163-.32-.107-.09-.318-.194-.633-.315-.3-.11-.512-.208-.638-.29s-.22-.18-.282-.284-.092-.23-.092-.377c0-.262.106-.468.32-.62.212-.15.504-.227.875-.227.347 0 .685.07 1.015.21l-.173.397c-.322-.133-.614-.2-.876-.2-.23 0-.404.037-.52.11s-.177.17-.177.298c0 .087.02.16.064.22s.115.12.213.174.285.134.562.237c.38.14.637.28.77.42s.203.316.203.53z"/>
    </g>
    <g fill="#356282">
        <path d="M67.494 54.39h1.21c.568 0 .98.084 1.233.254s.38.438.38.806c0 .254-.07.464-.212.63s-.348.27-.62.32v.028c.65.11.977.453.977 1.025 0 .383-.13.682-.39.896s-.62.32-1.084.32h-1.494v-4.28zm.498 1.833h.82c.352 0 .604-.055.76-.166.153-.11.23-.296.23-.558 0-.24-.086-.414-.258-.522-.172-.105-.445-.16-.82-.16h-.732v1.405zm0 .422v1.603h.894c.346 0 .605-.066.78-.2s.263-.344.263-.63c0-.265-.09-.46-.27-.585s-.45-.188-.815-.188h-.853zM73.283 58.673l-.097-.457h-.023c-.16.2-.32.338-.48.408-.158.07-.356.107-.595.107-.318 0-.568-.08-.75-.245s-.27-.397-.27-.7c0-.648.52-.988 1.556-1.02l.545-.018v-.2c0-.25-.056-.437-.164-.557-.108-.12-.28-.18-.52-.18-.268 0-.57.08-.908.245l-.15-.372c.16-.086.332-.153.52-.202s.38-.072.568-.072c.383 0 .666.085.85.255s.278.442.278.817v2.19h-.36zm-1.1-.343c.304 0 .54-.083.714-.25s.26-.397.26-.696v-.29l-.486.02c-.386.015-.665.075-.836.18-.17.108-.256.273-.256.498 0 .176.053.31.16.4s.255.138.446.138zM75.928 58.73c-.465 0-.825-.142-1.08-.43-.255-.284-.382-.69-.382-1.213 0-.537.13-.952.388-1.245s.628-.44 1.106-.44c.154 0 .31.018.463.05s.275.073.363.118l-.15.413c-.106-.043-.224-.078-.35-.107-.128-.027-.24-.042-.338-.042-.652 0-.98.416-.98 1.248 0 .395.08.697.24.908s.395.316.707.316c.268 0 .542-.058.823-.173v.43c-.213.113-.484.168-.81.168zM77.982 57.03c.084-.12.212-.276.384-.47l1.037-1.1h.577l-1.3 1.37 1.39 1.842h-.588l-1.134-1.518-.366.316v1.2h-.48v-4.558h.48v2.417c0 .106-.008.272-.023.497h.022zM83.28 55.462v.308l-.596.07c.055.068.104.158.146.27s.064.233.064.372c0 .314-.107.565-.322.753s-.51.28-.885.28c-.096 0-.186-.007-.27-.022-.207.11-.31.247-.31.413 0 .088.035.153.107.195s.196.063.372.063h.568c.348 0 .614.073.8.22s.28.36.28.64c0 .354-.142.625-.427.812-.285.186-.7.28-1.248.28-.42 0-.745-.08-.973-.235s-.34-.377-.34-.662c0-.195.06-.364.187-.507s.3-.238.527-.29c-.08-.036-.15-.094-.206-.172s-.083-.17-.083-.272c0-.117.032-.22.095-.308s.16-.173.296-.255c-.165-.068-.3-.185-.405-.35s-.156-.35-.156-.56c0-.353.104-.623.315-.814.21-.19.51-.286.896-.286.17 0 .32.02.455.06h1.114zm-2.562 3.75c0 .174.073.306.22.396s.356.135.63.135c.408 0 .71-.062.906-.183.196-.123.295-.288.295-.497 0-.174-.055-.294-.162-.362-.107-.065-.31-.1-.606-.1h-.583c-.222 0-.394.053-.517.158s-.185.256-.185.454zm.264-2.722c0 .225.063.395.19.51s.304.173.53.173c.475 0 .712-.23.712-.69 0-.483-.24-.725-.72-.725-.23 0-.405.062-.528.185s-.184.305-.184.547zM85.403 55.403c.143 0 .27.012.384.035l-.067.45c-.133-.028-.25-.043-.352-.043-.26 0-.482.105-.667.316s-.275.475-.275.79v1.722h-.486v-3.21h.4l.056.594h.023c.118-.21.262-.37.43-.483s.352-.17.553-.17zM89.16 57.064c0 .523-.133.933-.397 1.226-.264.295-.628.44-1.093.44-.287 0-.542-.066-.765-.2s-.395-.33-.516-.58-.183-.548-.183-.886c0-.523.13-.93.393-1.224.262-.29.625-.438 1.09-.438.45 0 .806.15 1.07.448s.4.704.4 1.214zm-2.448 0c0 .41.082.723.246.938s.405.322.724.322.56-.106.725-.32c.165-.214.248-.527.248-.94 0-.407-.083-.717-.248-.93-.165-.21-.408-.317-.73-.317-.318 0-.56.104-.72.313s-.245.52-.245.934zM90.468 55.462v2.083c0 .262.06.457.18.586s.305.194.56.194c.335 0 .58-.092.735-.275s.233-.484.233-.9v-1.688h.486v3.21h-.4l-.07-.43h-.027c-.1.158-.238.28-.415.363s-.378.126-.604.126c-.39 0-.684-.092-.878-.277s-.29-.482-.29-.89V55.46h.49zM95.89 58.673v-2.077c0-.262-.06-.457-.178-.586s-.306-.193-.56-.193c-.336 0-.582.09-.738.272s-.234.48-.234.898v1.685h-.486v-3.21h.396l.08.438h.022c.1-.157.24-.28.42-.366s.38-.13.6-.13c.387 0 .678.093.873.278.195.188.293.485.293.896v2.095h-.487zM99.562 58.242h-.026c-.225.326-.56.49-1.008.49-.42 0-.747-.145-.98-.432s-.35-.695-.35-1.225.117-.94.352-1.233.56-.44.98-.44c.435 0 .77.16 1 .476h.04l-.022-.23-.012-.227v-1.306h.486v4.56h-.396l-.064-.432zm-.973.082c.33 0 .57-.09.72-.27s.226-.474.226-.876v-.103c0-.455-.076-.78-.228-.974s-.393-.29-.725-.29c-.285 0-.504.11-.655.332s-.227.534-.227.938c0 .41.076.72.227.93s.37.314.662.314zM77.75 64.673h-.49l-.865-2.868c-.04-.127-.087-.287-.138-.48s-.077-.31-.08-.35c-.042.26-.11.54-.204.848l-.838 2.85h-.492l-1.14-4.282h.527l.677 2.647c.094.37.162.707.205 1.008.053-.357.13-.707.234-1.05l.768-2.603h.527l.807 2.628c.094.303.173.645.237 1.025.037-.277.107-.615.21-1.014l.675-2.64h.526l-1.145 4.283zM82.266 63.064c0 .523-.132.933-.396 1.226-.264.295-.628.44-1.093.44-.287 0-.542-.066-.765-.2s-.395-.33-.516-.58-.182-.548-.182-.886c0-.523.13-.93.393-1.224.262-.29.625-.438 1.09-.438.45 0 .807.15 1.07.448s.4.704.4 1.214zm-2.446 0c0 .41.082.723.246.938s.405.322.724.322.56-.106.726-.32c.165-.214.247-.527.247-.94 0-.407-.082-.717-.247-.93-.165-.21-.41-.317-.73-.317s-.56.104-.722.313-.244.52-.244.934zM84.583 61.403c.143 0 .27.012.384.035l-.067.45c-.133-.028-.25-.043-.352-.043-.26 0-.48.105-.666.316s-.277.475-.277.79v1.722h-.486v-3.21h.4l.056.594h.023c.118-.21.262-.37.43-.483s.352-.17.553-.17zM86.048 63.03c.084-.12.212-.276.384-.47l1.037-1.1h.576l-1.3 1.37 1.39 1.842h-.588l-1.134-1.518-.366.316v1.2h-.48v-4.558h.48v2.417c0 .106-.008.272-.023.497h.023zM90.074 64.73c-.475 0-.85-.144-1.123-.433s-.41-.69-.41-1.204c0-.518.127-.93.382-1.233s.597-.457 1.026-.457c.402 0 .72.133.955.396.234.265.352.613.352 1.047v.308h-2.212c.01.377.105.663.286.858s.434.293.762.293c.346 0 .688-.072 1.025-.217v.433c-.172.074-.334.128-.487.16-.154.033-.34.048-.556.048zm-.132-2.92c-.258 0-.463.084-.616.252s-.244.4-.27.697h1.678c0-.308-.068-.542-.205-.705s-.334-.245-.588-.245zM93.548 61.403c.143 0 .27.012.384.035l-.067.45c-.133-.028-.25-.043-.352-.043-.26 0-.48.105-.666.316s-.277.475-.277.79v1.722h-.486v-3.21h.4l.057.594h.024c.12-.21.263-.37.43-.483s.353-.17.554-.17z"/>
    </g>
    <g fill="#356282">
        <path d="M81.77 75.944c0-.13.03-.23.09-.297.06-.068.146-.102.257-.102.113 0 .202.033.266.102.063.066.095.166.095.297 0 .127-.032.225-.097.293s-.15.103-.263.103c-.1 0-.182-.03-.247-.093-.066-.06-.1-.162-.1-.303zM83.368 75.944c0-.13.03-.23.09-.297.06-.068.145-.102.256-.102.113 0 .202.033.266.102.063.066.095.166.095.297 0 .127-.032.225-.097.293s-.152.103-.264.103c-.1 0-.182-.03-.247-.093-.066-.06-.1-.162-.1-.303zM84.964 75.944c0-.13.03-.23.09-.297.06-.068.145-.102.256-.102.113 0 .202.033.266.102.063.066.095.166.095.297 0 .127-.03.225-.096.293s-.152.103-.264.103c-.1 0-.182-.03-.247-.093-.065-.06-.1-.162-.1-.303z"/>
    </g>
    <path fill="#4278A7" d="M54.527.9h58.39v.4h-58.39zM54.527 13.015h58.39v.17h-58.39zM54.527 25.015h58.39v.17h-58.39zM54.527 37.015h58.39v.17h-58.39zM54.527 49.015h58.39v.17h-58.39zM54.527 69.015h58.39v.17h-58.39zM54.527 80.9h58.39v.4h-58.39z"/>
    <g>
        <path fill="#FFF" d="M6.88 24.78h32.91v33.837H6.88z"/>
        <path fill="none" d="M30.512 28.74H13.925c-1.975 0-3.606 1.477-3.884 3.378v20.6c.28 1.9 1.91 3.376 3.885 3.376h16.587c1.975 0 3.606-1.476 3.884-3.377v-20.6c-.277-1.9-1.91-3.376-3.884-3.376z"/>
        <path fill="#4278A7" d="M34.397 11.34c0-2.168-1.774-3.942-3.942-3.942H13.983c-2.168 0-3.942 1.774-3.942 3.942v9.384h24.357V11.34zM10.04 64.064v9.43c0 2.168 1.775 3.942 3.943 3.942h16.472c2.168 0 3.942-1.774 3.942-3.942v-9.43c.1-.01.193-.044.292-.06H9.76c.095.015.183.05.28.06z"/>
        <path fill="none" d="M30.512 56.094c1.975 0 3.606-1.476 3.884-3.377v-20.6c-.278-1.9-1.91-3.376-3.884-3.376h-8.287v27.354h8.287z"/>
        <path fill="#67A9DC" d="M43.573 38.312v-7.9h-.83c-.02-5.028-3.672-9.113-8.347-9.642v-.046h-12.17v8.016h8.287c1.975 0 3.606 1.476 3.884 3.377v20.6c-.278 1.9-1.91 3.376-3.884 3.376h-8.287v7.91H34.69c4.062-.596 7.282-3.876 7.92-8.098h.962v-7.9h-.825v-.897h.825v-7.9h-.825v-.897h.826z"/>
        <path fill="#83BBE6" d="M13.925 56.094c-1.975 0-3.606-1.476-3.884-3.377v-20.6c.28-1.9 1.91-3.376 3.885-3.376h8.3v-8.015H10.04v.046c-4.674.53-8.326 4.615-8.347 9.642H.473v7.9H1.69v16.07c0 4.943 3.522 8.962 8.073 9.624h12.463v-7.91h-8.3z"/>
        <g fill="none" stroke="#E6E326" stroke-linecap="round" stroke-linejoin="round" stroke-miterlimit="10">
            <path d="M21.964 33.523v10.1M21.964 43.622l-4.252 4.252"/>
        </g>
    </g>
</svg>
