<svg xmlns="http://www.w3.org/2000/svg" viewBox="0 0 238.11 187.09">
    <path fill="#83BBE6" d="M200.16 59.35h2.968V70.74h-2.967z"/>
    <path fill="#4278A7" d="M215.982 59.35h2.966V70.74h-2.966zM103.964 34.923h32.575v61.904h-32.576z"/>
    <path fill="#FFF" d="M99.545 38.487h37.91V88.43h-37.91z"/>
    <g fill="#356282">
        <path d="M18.916 131.155h-2.388v-4.283h2.388v.442h-1.89v1.38H18.8v.44h-1.774v1.575h1.89v.445zM20.565 129.51l-1.116-1.566h.553l.847 1.23.844-1.23h.548l-1.116 1.567 1.175 1.645h-.55l-.9-1.3-.907 1.3h-.55l1.172-1.644zM24.292 131.214c-.475 0-.85-.145-1.124-.434s-.412-.69-.412-1.204c0-.518.127-.93.382-1.233s.597-.457 1.027-.457c.402 0 .72.133.955.396.234.266.352.614.352 1.048v.308H23.26c.01.377.105.663.286.858s.435.293.763.293c.345 0 .687-.073 1.024-.218v.434c-.172.074-.334.128-.488.16-.152.032-.337.048-.554.048zm-.132-2.92c-.258 0-.463.083-.617.25s-.244.4-.27.698h1.678c0-.307-.067-.54-.204-.704s-.332-.245-.586-.245zM27.585 131.214c-.465 0-.825-.143-1.08-.43-.255-.285-.382-.69-.382-1.214 0-.537.13-.952.388-1.245s.628-.44 1.107-.44c.154 0 .31.018.463.05s.275.073.363.118l-.15.413c-.106-.043-.224-.078-.35-.107-.128-.028-.24-.043-.338-.043-.652 0-.98.416-.98 1.248 0 .395.08.697.24.908s.395.316.708.316c.268 0 .542-.06.823-.174v.43c-.214.112-.485.168-.81.168zM29.615 127.944v2.083c0 .262.06.457.18.586s.305.193.56.193c.335 0 .58-.092.736-.275s.234-.482.234-.898v-1.687h.486v3.21h-.4l-.07-.43h-.027c-.1.158-.238.28-.415.363s-.378.126-.605.126c-.39 0-.683-.093-.877-.278s-.292-.482-.292-.89v-2.102h.49zM33.878 130.812c.086 0 .17-.006.25-.02s.143-.025.19-.04v.373c-.054.025-.13.046-.234.062s-.195.025-.277.025c-.62 0-.932-.327-.932-.98v-1.91h-.46v-.235l.46-.202.205-.686h.28v.743h.933v.378h-.932v1.89c0 .194.047.343.14.446s.218.156.378.156zM34.918 127.074c0-.11.027-.192.082-.245.055-.052.123-.078.205-.078.078 0 .146.026.202.08s.085.133.085.242-.028.19-.085.245-.124.08-.202.08c-.082 0-.15-.027-.205-.08s-.082-.137-.082-.246zm.527 4.08h-.486v-3.21h.485v3.21zM39.248 129.547c0 .523-.132.933-.396 1.226-.264.295-.628.44-1.093.44-.288 0-.543-.066-.766-.2s-.395-.33-.516-.58-.182-.548-.182-.886c0-.523.13-.93.393-1.224.26-.29.624-.437 1.09-.437.448 0 .805.15 1.07.448s.398.703.398 1.213zm-2.446 0c0 .41.082.723.246.938s.405.322.724.322.56-.106.725-.32c.165-.214.248-.527.248-.94 0-.407-.083-.717-.248-.93-.165-.21-.41-.317-.73-.317s-.56.104-.722.313-.243.52-.243.934zM42.298 131.155v-2.077c0-.262-.06-.457-.18-.586s-.305-.193-.56-.193c-.335 0-.58.09-.737.27s-.233.482-.233.9v1.685H40.1v-3.21h.397l.08.438h.022c.1-.158.238-.28.418-.367.18-.087.38-.13.6-.13.388 0 .68.093.874.278.195.188.293.485.293.896v2.095h-.487zM14.557 139.155H12.17v-4.283h2.387v.442h-1.89v1.38h1.775v.44h-1.775v1.575h1.89v.445zM17.63 139.155v-2.077c0-.262-.06-.457-.18-.586s-.305-.193-.56-.193c-.335 0-.58.09-.737.27s-.234.482-.234.9v1.685h-.487v-3.21h.396l.078.438h.023c.1-.158.24-.28.42-.367s.38-.13.6-.13c.388 0 .68.093.874.278.195.188.293.485.293.896v2.095h-.487zM19.818 139.155l-1.22-3.21h.522l.69 1.903c.157.445.25.734.276.867h.023c.02-.104.088-.318.203-.643.114-.326.37-1.035.77-2.13h.52l-1.22 3.212h-.565zM22.08 135.074c0-.11.027-.192.082-.245.055-.052.123-.078.205-.078.078 0 .146.026.202.08s.084.133.084.242-.028.19-.085.245-.125.08-.203.08c-.082 0-.15-.027-.205-.08s-.082-.137-.082-.246zm.527 4.08h-.486v-3.21h.487v3.21zM25.104 135.885c.143 0 .27.012.384.035l-.067.45c-.132-.028-.25-.043-.35-.043-.26 0-.483.105-.668.316s-.277.474-.277.788v1.724h-.486v-3.21h.4l.056.594h.023c.118-.21.262-.37.43-.483s.352-.17.554-.17zM28.86 137.547c0 .523-.133.933-.397 1.226-.264.295-.628.44-1.093.44-.287 0-.542-.066-.765-.2s-.395-.33-.516-.58-.183-.548-.183-.886c0-.523.13-.93.393-1.224.262-.29.625-.438 1.09-.438.45 0 .806.15 1.07.448s.4.704.4 1.214zm-2.447 0c0 .41.082.723.246.938s.404.322.723.322.56-.106.725-.32c.165-.214.248-.527.248-.94 0-.407-.083-.717-.248-.93-.165-.21-.41-.317-.73-.317s-.56.104-.722.313-.243.52-.243.934zM31.91 139.155v-2.077c0-.262-.06-.457-.18-.586s-.306-.193-.56-.193c-.336 0-.582.09-.738.27s-.234.482-.234.9v1.685h-.486v-3.21h.396l.08.438h.022c.1-.158.24-.28.42-.367s.38-.13.6-.13c.387 0 .678.093.873.278.195.188.293.485.293.896v2.095h-.487zM37.487 139.155v-2.09c0-.255-.055-.446-.164-.574s-.28-.19-.51-.19c-.303 0-.526.086-.67.26s-.218.44-.218.803v1.793h-.485v-2.09c0-.255-.055-.446-.164-.574s-.28-.192-.513-.192c-.305 0-.528.092-.67.274s-.21.48-.21.897v1.686h-.487v-3.21h.396l.08.438h.022c.092-.156.22-.278.388-.366s.354-.132.56-.132c.503 0 .83.182.985.545h.023c.096-.167.234-.3.416-.397s.39-.146.62-.146c.364 0 .636.094.817.28.18.187.27.484.27.895v2.095h-.486zM40.332 139.214c-.475 0-.85-.145-1.124-.434s-.412-.69-.412-1.204c0-.518.127-.93.382-1.233s.597-.457 1.027-.457c.402 0 .72.133.955.396.234.266.352.614.352 1.048v.308H39.3c.01.377.105.663.286.858s.435.293.763.293c.345 0 .687-.073 1.024-.218v.434c-.172.074-.334.128-.488.16-.152.032-.337.048-.554.048zm-.132-2.92c-.258 0-.463.083-.617.25s-.244.4-.27.698h1.678c0-.307-.067-.54-.204-.704s-.332-.245-.586-.245zM44.54 139.155v-2.077c0-.262-.06-.457-.18-.586s-.306-.193-.56-.193c-.336 0-.582.09-.738.27s-.234.482-.234.9v1.685h-.486v-3.21h.396l.08.438h.022c.1-.158.24-.28.42-.367s.38-.13.6-.13c.387 0 .678.093.873.278.195.188.293.485.293.896v2.095h-.487zM47.062 138.812c.086 0 .17-.006.25-.02s.143-.025.19-.04v.373c-.054.025-.13.046-.234.062s-.195.025-.277.025c-.62 0-.93-.327-.93-.98v-1.91h-.46v-.235l.46-.202.205-.686h.28v.743h.933v.378h-.932v1.89c0 .194.046.343.138.446s.217.156.378.156z"/>
    </g>
    <path fill="#4278A7" d="M.36 120.595h58.39v.398H.36zM.36 17.595h58.39v.398H.36zM90.36 17.595h58.39v.398H90.36zM.36 144.71h58.39v.397H.36z"/>
    <g fill="#4278A7">
        <path d="M20.1 8.382c0 .65-.22 1.15-.665 1.5-.443.35-1.08.525-1.905.525h-.756v2.527h-.747V6.51h1.666c1.605 0 2.408.624 2.408 1.872zm-3.326 1.384h.672c.662 0 1.14-.107 1.437-.32s.444-.558.444-1.03c0-.424-.14-.74-.417-.948s-.712-.312-1.3-.312h-.836v2.61zM23.37 13.022c-.71 0-1.273-.217-1.684-.65-.412-.434-.618-1.035-.618-1.807 0-.775.19-1.393.574-1.85.382-.457.896-.686 1.54-.686.604 0 1.08.197 1.433.595.352.396.527.92.527 1.57v.462h-3.318c.015.565.157.995.428 1.288s.653.44 1.145.44c.52 0 1.03-.11 1.538-.327v.65c-.258.112-.502.19-.732.24-.23.05-.507.074-.832.074zm-.197-4.38c-.387 0-.695.125-.925.376-.23.253-.366.602-.407 1.047h2.52c0-.46-.104-.812-.31-1.058-.203-.244-.496-.366-.877-.366zM28.627 8.04c.633 0 1.124.215 1.475.647.35.432.525 1.044.525 1.835s-.177 1.405-.53 1.843c-.353.438-.843.657-1.47.657-.313 0-.6-.058-.86-.174-.258-.115-.476-.293-.65-.533h-.054l-.154.62h-.524v-6.84h.73v1.662c0 .372-.013.706-.036 1.002h.035c.34-.48.844-.72 1.512-.72zm-.106.61c-.497 0-.856.143-1.076.428-.22.286-.33.767-.33 1.444 0 .676.113 1.16.338 1.452.226.29.587.437 1.085.437.448 0 .782-.162 1.002-.488.22-.327.33-.796.33-1.41 0-.625-.11-1.093-.33-1.4s-.56-.463-1.02-.463zM34.142 8.04c.633 0 1.124.215 1.475.647.35.432.525 1.044.525 1.835s-.177 1.405-.53 1.843c-.353.438-.843.657-1.47.657-.313 0-.6-.058-.86-.174-.258-.115-.476-.293-.65-.533h-.054l-.154.62H31.9v-6.84h.73v1.662c0 .372-.013.706-.036 1.002h.035c.34-.48.844-.72 1.512-.72zm-.106.61c-.498 0-.857.143-1.077.428-.22.286-.33.767-.33 1.444 0 .676.112 1.16.337 1.452.226.29.587.437 1.085.437.448 0 .782-.162 1.002-.488.22-.327.33-.796.33-1.41 0-.625-.11-1.093-.33-1.4s-.558-.463-1.018-.463zM38.145 12.934h-.73V6.096h.73v6.838zM41.727 13.022c-.712 0-1.274-.217-1.685-.65-.412-.434-.618-1.035-.618-1.807 0-.775.19-1.393.574-1.85.382-.457.896-.686 1.54-.686.604 0 1.08.197 1.433.595.353.396.528.92.528 1.57v.462H40.18c.015.565.157.995.428 1.288s.653.44 1.145.44c.52 0 1.03-.11 1.538-.327v.65c-.257.112-.5.19-.73.24-.23.05-.508.074-.833.074zm-.198-4.38c-.388 0-.696.125-.926.376-.23.253-.366.602-.407 1.047h2.518c0-.46-.103-.812-.308-1.058-.204-.244-.497-.366-.878-.366z"/>
    </g>
    <g fill="#4278A7">
        <path d="M108.943 12.934l-2.18-5.695h-.035c.04.45.062.986.062 1.607v4.087h-.69V6.51h1.125l2.035 5.3h.035l2.052-5.3h1.116v6.424h-.747v-4.14c0-.475.02-.99.062-1.547h-.035l-2.197 5.687h-.603zM118.273 10.522c0 .785-.197 1.397-.593 1.84-.396.44-.942.66-1.64.66-.43 0-.812-.102-1.146-.303-.334-.204-.592-.493-.773-.872-.18-.377-.27-.82-.27-1.326 0-.785.195-1.397.588-1.835.393-.438.938-.657 1.635-.657.674 0 1.21.225 1.605.672.396.45.595 1.055.595 1.82zm-3.67 0c0 .615.124 1.084.37 1.406s.607.482 1.085.482.84-.16 1.088-.48c.247-.32.37-.79.37-1.408 0-.612-.123-1.078-.37-1.396-.248-.318-.613-.478-1.097-.478-.48 0-.84.157-1.082.47s-.364.783-.364 1.404zM121.793 8.04c.633 0 1.124.215 1.475.647.35.432.524 1.044.524 1.835s-.177 1.405-.53 1.843c-.353.438-.842.657-1.47.657-.312 0-.6-.058-.858-.174-.26-.115-.477-.293-.652-.533h-.053l-.155.62h-.522v-6.84h.73v1.662c0 .372-.013.706-.036 1.002h.035c.34-.48.843-.72 1.51-.72zm-.105.61c-.498 0-.857.143-1.077.428-.22.286-.328.767-.328 1.444 0 .676.112 1.16.338 1.452.226.29.588.437 1.086.437.448 0 .782-.162 1.002-.488.22-.327.33-.796.33-1.41 0-.625-.11-1.093-.33-1.4s-.56-.463-1.02-.463zM125.005 6.813c0-.168.04-.29.123-.367.082-.078.185-.117.308-.117.117 0 .22.04.304.118s.127.2.127.365-.042.286-.127.366c-.085.08-.187.12-.304.12-.123 0-.226-.04-.308-.12-.082-.08-.123-.203-.123-.367zm.79 6.12h-.728V8.12h.73v4.816zM128.072 12.934h-.73V6.096h.73v6.838zM131.654 13.022c-.712 0-1.274-.217-1.686-.65-.412-.434-.617-1.035-.617-1.807 0-.775.19-1.393.574-1.85.382-.457.896-.686 1.54-.686.604 0 1.08.197 1.433.595.352.396.527.92.527 1.57v.462h-3.317c.015.565.157.995.428 1.288.27.293.653.44 1.146.44.52 0 1.032-.11 1.54-.327v.65c-.26.112-.503.19-.733.24-.23.05-.507.074-.833.074zm-.198-4.38c-.387 0-.695.125-.925.376-.23.253-.364.602-.405 1.047h2.518c0-.46-.103-.812-.308-1.058-.205-.244-.498-.366-.88-.366z"/>
    </g>
    <g fill="#4278A7">
        <path d="M67.23 54.52c0 .362-.123.64-.37.835-.246.194-.6.29-1.058.29h-.42v1.405h-.415v-3.57h.925c.892 0 1.338.348 1.338 1.04zm-1.848.77h.373c.368 0 .634-.06.8-.178.163-.12.245-.31.245-.57 0-.237-.077-.413-.23-.528-.156-.115-.397-.174-.724-.174h-.464v1.45zM69.046 57.1c-.396 0-.707-.12-.936-.362-.23-.24-.344-.575-.344-1.004 0-.43.106-.773.32-1.027.21-.254.496-.38.854-.38.335 0 .6.11.796.33s.293.51.293.872v.256h-1.845c.01.314.088.553.238.716.15.162.362.244.636.244.287 0 .572-.06.853-.182v.36c-.143.063-.278.107-.406.135-.126.026-.28.04-.46.04zm-.11-2.434c-.214 0-.386.07-.513.21-.128.14-.203.333-.227.58h1.4c0-.255-.06-.45-.172-.587-.113-.137-.276-.204-.487-.204zM71.966 54.33c.352 0 .625.12.82.36s.29.58.29 1.02-.098.78-.294 1.024c-.195.243-.468.365-.816.365-.174 0-.333-.033-.478-.098-.144-.064-.265-.163-.362-.296h-.03l-.084.344h-.29v-3.8h.404v.924c0 .207-.006.393-.02.557h.02c.19-.265.47-.4.84-.4zm-.06.34c-.275 0-.475.08-.597.238-.123.16-.185.426-.185.803 0 .376.062.646.188.808.125.162.326.242.603.242.25 0 .435-.09.557-.27s.184-.443.184-.784c0-.348-.062-.607-.184-.778s-.31-.258-.566-.258zM75.03 54.33c.352 0 .624.12.82.36.193.24.29.58.29 1.02s-.098.78-.294 1.024-.47.365-.816.365c-.175 0-.333-.033-.478-.098-.144-.064-.265-.163-.362-.296h-.03l-.085.344h-.29v-3.8h.405v.924c0 .207-.007.393-.02.557h.02c.19-.265.47-.4.84-.4zm-.058.34c-.277 0-.477.08-.6.238-.12.16-.182.426-.182.803 0 .376.062.646.188.808.126.162.326.242.604.242.25 0 .435-.09.557-.27s.182-.443.182-.784c0-.348-.06-.607-.183-.778s-.313-.258-.568-.258zM77.254 57.05h-.405v-3.8h.404v3.8zM79.244 57.1c-.396 0-.708-.12-.937-.362s-.343-.575-.343-1.004c0-.43.105-.773.318-1.027.212-.254.498-.38.855-.38.336 0 .6.11.796.33s.293.51.293.872v.256h-1.843c.008.314.087.553.237.716.15.162.363.244.637.244.288 0 .572-.06.854-.182v.36c-.143.063-.278.107-.406.135-.125.026-.28.04-.46.04zm-.11-2.434c-.215 0-.386.07-.514.21-.128.14-.203.333-.226.58h1.398c0-.255-.057-.45-.17-.587-.113-.137-.276-.204-.488-.204zM80.86 56.792c0-.11.024-.19.074-.248.05-.056.12-.084.214-.084s.168.028.22.084c.054.057.08.14.08.248 0 .105-.026.188-.08.244s-.127.085-.22.085c-.083 0-.152-.024-.206-.075-.054-.052-.082-.136-.082-.253zM81.925 58.252c-.155 0-.28-.02-.376-.06v-.33c.11.03.222.048.33.048.128 0 .22-.034.28-.104s.09-.175.09-.316v-3.115h.404v3.086c0 .528-.243.792-.73.792zm.29-4.602c0-.094.023-.16.068-.204.046-.043.103-.065.17-.065.066 0 .122.023.17.067.047.044.07.11.07.203 0 .09-.023.158-.07.203-.048.045-.104.067-.17.067-.067 0-.124-.022-.17-.067-.045-.045-.068-.112-.068-.203zM85.24 56.32c0 .25-.093.44-.278.576-.186.136-.446.203-.78.203-.356 0-.633-.058-.83-.17v-.376c.127.065.266.117.412.154.147.037.29.057.427.057.212 0 .375-.034.49-.102.112-.067.17-.17.17-.31 0-.103-.046-.192-.136-.267-.09-.074-.267-.162-.528-.263-.25-.093-.427-.174-.53-.243-.106-.07-.185-.147-.235-.235-.05-.088-.076-.192-.076-.315 0-.218.09-.39.267-.516.178-.126.422-.19.73-.19.288 0 .57.06.845.177l-.144.33c-.268-.11-.51-.165-.73-.165-.19 0-.336.03-.434.09s-.146.144-.146.25c0 .07.02.132.055.182.037.05.096.1.178.145.08.046.237.11.47.197.316.115.53.23.642.35.11.116.165.263.165.44zM62.686 58.8c-.392 0-.702.13-.93.393-.226.26-.34.62-.34 1.072 0 .468.11.828.33 1.083.22.255.53.382.936.382.25 0 .533-.044.852-.134v.364c-.247.092-.553.14-.916.14-.526 0-.93-.16-1.217-.48-.284-.32-.427-.772-.427-1.36 0-.367.07-.69.207-.966.137-.277.336-.49.596-.64.26-.15.565-.226.917-.226.375 0 .702.068.982.205l-.176.357c-.273-.125-.544-.19-.814-.19zM66.56 60.71c0 .437-.108.777-.328 1.022s-.523.367-.91.367c-.24 0-.452-.058-.638-.17-.186-.112-.33-.272-.43-.483-.102-.21-.15-.455-.15-.736 0-.436.107-.775.326-1.02.218-.242.52-.364.908-.364.374 0 .672.125.892.373.22.25.33.585.33 1.01zm-2.037 0c0 .343.068.603.205.782.137.18.338.268.603.268.267 0 .468-.09.605-.267.138-.18.206-.44.206-.782 0-.34-.067-.598-.205-.774s-.34-.266-.61-.266c-.264 0-.464.088-.6.262-.135.173-.202.433-.202.78zM70.682 62.05v-1.74c0-.214-.045-.374-.137-.48-.09-.106-.232-.16-.425-.16-.252 0-.438.073-.56.218-.12.145-.18.368-.18.67v1.493h-.405v-1.74c0-.213-.046-.373-.137-.48-.092-.105-.233-.16-.428-.16-.254 0-.44.077-.558.23s-.177.402-.177.748v1.404h-.405v-2.676h.33l.065.366h.02c.076-.13.185-.23.323-.306.14-.072.295-.11.468-.11.418 0 .69.152.82.455h.02c.08-.14.195-.25.347-.33s.323-.123.518-.123c.304 0 .53.078.68.233s.227.403.227.745v1.746h-.405zM75.333 62.05v-1.74c0-.214-.046-.374-.137-.48-.092-.106-.233-.16-.425-.16-.252 0-.437.073-.56.218-.12.145-.18.368-.18.67v1.493h-.405v-1.74c0-.213-.045-.373-.137-.48-.09-.105-.233-.16-.427-.16-.253 0-.44.077-.558.23-.117.152-.177.402-.177.748v1.404h-.405v-2.676h.33l.065.366h.02c.077-.13.185-.23.323-.306.14-.072.296-.11.468-.11.42 0 .692.152.82.455h.02c.08-.14.195-.25.347-.33s.324-.123.518-.123c.304 0 .53.078.68.233.152.155.228.403.228.745v1.746h-.405zM78.22 62.05l-.082-.38h-.02c-.133.167-.267.28-.398.34-.133.06-.3.09-.497.09-.266 0-.474-.07-.624-.206s-.227-.33-.227-.584c0-.54.432-.823 1.296-.85l.453-.014v-.166c0-.21-.045-.365-.135-.466-.09-.1-.235-.15-.434-.15-.224 0-.476.07-.757.206l-.125-.31c.132-.072.276-.13.434-.17.157-.04.314-.06.473-.06.317 0 .555.07.708.21.154.144.23.37.23.683v1.826h-.3zm-.917-.285c.253 0 .45-.07.595-.208.145-.14.216-.332.216-.58v-.243l-.405.018c-.323.012-.556.062-.697.15-.143.09-.214.227-.214.414 0 .146.043.258.132.334s.212.115.37.115zM81.185 62.05v-1.73c0-.22-.05-.38-.148-.488-.1-.107-.255-.162-.467-.162-.28 0-.484.076-.615.228-.13.15-.195.4-.195.75v1.403h-.405v-2.675h.33l.065.366h.02c.083-.13.2-.233.35-.306.15-.072.316-.108.5-.108.322 0 .565.078.728.233.163.154.244.402.244.744v1.746h-.407zM84.244 61.69h-.022c-.187.273-.467.41-.84.41-.35 0-.622-.12-.816-.36-.194-.238-.292-.58-.292-1.02 0-.44.098-.784.293-1.028s.468-.366.815-.366c.363 0 .642.132.835.396h.032l-.02-.192-.01-.188v-1.09h.406v3.8h-.33l-.052-.36zm-.81.07c.276 0 .478-.076.602-.227.125-.15.187-.394.187-.73v-.083c0-.38-.062-.65-.188-.812-.127-.162-.328-.242-.604-.242-.237 0-.42.092-.545.276s-.19.446-.19.782c0 .342.063.6.19.774.122.175.305.26.55.26zM87.213 61.32c0 .25-.093.44-.278.576-.186.136-.446.203-.78.203-.356 0-.633-.058-.83-.17v-.376c.127.065.266.117.412.154.147.037.29.057.427.057.21 0 .374-.034.488-.102.113-.067.17-.17.17-.31 0-.103-.045-.192-.135-.267-.09-.074-.267-.162-.528-.263-.25-.093-.428-.174-.532-.243-.105-.07-.184-.147-.234-.235-.052-.088-.077-.192-.077-.315 0-.218.09-.39.267-.516.177-.126.42-.19.73-.19.287 0 .57.06.844.177l-.144.33c-.27-.11-.512-.165-.73-.165-.19 0-.337.03-.435.09s-.147.144-.147.25c0 .07.02.132.055.182.037.05.096.1.178.145.08.046.237.11.47.197.316.115.53.23.642.35.11.116.165.263.165.44zM89.227 58.48l-1.33 3.57h-.405l1.33-3.57h.405zM69.798 67.05h-1.99v-3.57h1.99v.37h-1.574V65h1.48v.366h-1.48v1.313h1.574v.37zM71.114 67.05l-1.016-2.676h.435l.576 1.587c.13.372.205.613.228.724h.02c.018-.086.074-.265.17-.536.095-.27.31-.862.64-1.773h.436l-1.016 2.676h-.474zM74.163 67.1c-.396 0-.707-.12-.936-.362-.23-.24-.344-.575-.344-1.004 0-.43.106-.773.32-1.027.21-.254.496-.38.854-.38.335 0 .6.11.796.33s.293.51.293.872v.256h-1.844c.01.314.088.553.238.716.15.162.362.244.636.244.288 0 .573-.06.854-.182v.36c-.143.063-.278.107-.406.135-.126.026-.28.04-.46.04zm-.11-2.434c-.214 0-.386.07-.513.21-.128.14-.203.333-.227.58h1.4c0-.255-.06-.45-.172-.587-.112-.137-.275-.204-.486-.204zM77.67 67.05v-1.73c0-.22-.05-.38-.15-.488-.1-.107-.254-.162-.466-.162-.28 0-.484.076-.615.228-.13.15-.196.4-.196.75v1.403h-.405v-2.675h.33l.064.366h.02c.083-.13.2-.233.35-.306.15-.072.316-.108.5-.108.322 0 .565.078.728.233.163.154.244.402.244.744v1.746h-.407zM79.772 66.765c.07 0 .14-.006.207-.017.066-.01.12-.02.158-.032v.31c-.044.02-.108.04-.194.053-.085.013-.162.02-.23.02-.518 0-.776-.272-.776-.818V64.69h-.384v-.195l.384-.168.17-.57h.235v.62h.776v.313h-.777v1.575c0 .16.038.285.114.37.076.086.18.13.315.13zM82.398 66.32c0 .25-.093.44-.278.576-.186.136-.446.203-.78.203-.356 0-.633-.058-.83-.17v-.376c.127.065.266.117.412.154.147.037.29.057.427.057.21 0 .373-.034.487-.102.113-.067.17-.17.17-.31 0-.103-.045-.192-.135-.267-.09-.074-.267-.162-.528-.263-.25-.093-.427-.174-.53-.243-.106-.07-.185-.147-.235-.235-.053-.088-.078-.192-.078-.315 0-.218.09-.39.267-.516.176-.126.42-.19.728-.19.288 0 .57.06.845.177l-.144.33c-.27-.11-.513-.165-.73-.165-.192 0-.338.03-.436.09s-.146.144-.146.25c0 .07.02.132.055.182.037.05.096.1.178.145.082.046.238.11.47.197.317.115.53.23.643.35.11.116.165.263.165.44z"/>
    </g>
    <path fill="none" d="M119.376 40.433h16.013v45.243h-16.014zM126.652 37.38c.368 0 .666-.55.666-1.23s-.3-1.228-.666-1.228h-7.276v2.458h7.276zM119.378 96.826c1.79 0 3.25-1.46 3.25-3.257 0-1.798-1.46-3.252-3.25-3.252h-.003v6.508h.003z"/>
    <path fill="#67A9DC" d="M134.11 31.824h-14.735v3.098h7.276c.37 0 .667.55.667 1.228s-.3 1.23-.666 1.23h-7.275v3.052h16.013v45.243h-16.013v4.643h.003c1.79 0 3.25 1.455 3.25 3.25 0 1.798-1.46 3.258-3.25 3.258h-.003v5.036h14.734c2.814 0 5.096-2.284 5.096-5.097v-59.84c0-2.814-2.28-5.1-5.097-5.1z"/>
    <path fill="#4278A7" d="M116.124 93.57c0 1.796 1.46 3.255 3.252 3.256v-6.508c-1.793.002-3.252 1.456-3.252 3.252zM111.44 36.15c0 .68.295 1.23.665 1.23h7.27v-2.458h-7.27c-.37 0-.664.55-.664 1.228z"/>
    <path fill="#83BBE6" d="M116.124 93.57c0-1.796 1.46-3.25 3.252-3.25v-4.644h-16.01V40.433h16.01V37.38h-7.27c-.37 0-.665-.55-.665-1.23s.295-1.228.665-1.228h7.27v-3.098h-14.733c-2.82 0-5.097 2.287-5.097 5.102v59.84c0 2.812 2.277 5.096 5.097 5.096h14.734v-5.036c-1.793 0-3.252-1.46-3.252-3.256z"/>
    <path fill="#E6E326" d="M122.834 53.04c-.015-1.498 1.222-2.217 1.278-2.253-.695-1.017-1.778-1.157-2.164-1.173-.922-.093-1.798.543-2.266.543-.467 0-1.188-.53-1.953-.515-1.006.015-1.932.584-2.45 1.484-1.043 1.81-.266 4.494.75 5.963.498.718 1.09 1.526 1.87 1.497.748-.03 1.032-.485 1.938-.485.906 0 1.16.485 1.954.47.807-.015 1.317-.733 1.81-1.454.572-.834.807-1.642.82-1.683-.018-.008-1.572-.604-1.588-2.394zm-1.49-4.398c.413-.5.692-1.196.616-1.89-.595.024-1.316.396-1.743.896-.383.444-.718 1.152-.63 1.83.665.053 1.343-.336 1.757-.836z"/>
    <g fill="#E6E326">
        <path d="M115.487 69.472h-.03c-.37 0-.673.303-.673.674v2.933c0 .37.303.673.674.673h.03c.37 0 .673-.303.673-.674v-2.934c0-.37-.302-.674-.673-.674zM116.483 74.21c0 .34.278.618.62.618h.66v1.584c0 .372.303.675.674.675h.03c.37 0 .674-.303.674-.675v-1.584h.925v1.584c0 .372.304.675.675.675h.028c.372 0 .674-.303.674-.675v-1.584h.662c.34 0 .62-.277.62-.618v-4.63h-6.24v4.63zM121.157 66.77l.525-.81c.034-.05.02-.12-.033-.154-.052-.034-.122-.02-.155.033l-.545.838c-.41-.167-.865-.262-1.347-.262s-.938.094-1.348.262l-.544-.84c-.032-.052-.103-.066-.154-.032-.052.033-.067.103-.033.154l.526.81c-.95.466-1.588 1.34-1.588 2.346 0 .062.004.123.01.183h6.263c.005-.06.01-.122.01-.184 0-1.004-.64-1.88-1.588-2.345zm-3.006 1.454c-.165 0-.3-.134-.3-.3 0-.168.134-.302.3-.302.168 0 .303.134.303.3 0 .168-.135.302-.302.302zm2.906 0c-.166 0-.302-.134-.302-.3 0-.168.135-.302.302-.302.167 0 .3.134.3.3 0 .168-.134.302-.3.302zM123.748 69.472h-.028c-.37 0-.675.303-.675.674v2.933c0 .37.304.673.675.673h.028c.372 0 .674-.303.674-.674v-2.934c0-.37-.303-.674-.674-.674z"/>
    </g>
    <path fill="#4278A7" d="M179.36 17.595h58.39v.398h-58.39z"/>
    <g fill="#356282">
        <path d="M200.995 129.154h-.492l-.864-2.868c-.042-.127-.088-.287-.14-.48s-.076-.31-.078-.35c-.043.26-.11.54-.205.848l-.838 2.85h-.493l-1.14-4.282h.527l.677 2.646c.095.37.163.707.206 1.008.053-.357.13-.707.234-1.05l.768-2.603h.527l.806 2.628c.095.304.174.646.238 1.026.037-.277.107-.615.21-1.014l.675-2.64h.527l-1.145 4.282zM204.095 129.213c-.475 0-.85-.145-1.124-.434s-.41-.69-.41-1.205c0-.518.127-.93.382-1.233s.598-.457 1.027-.457c.4 0 .72.133.954.396.234.267.352.615.352 1.05v.307h-2.212c.01.377.104.663.285.858s.435.293.763.293c.346 0 .688-.072 1.025-.217v.435c-.172.074-.335.128-.488.16-.154.032-.338.048-.555.048zm-.132-2.92c-.258 0-.464.083-.617.25s-.243.4-.27.698h1.678c0-.306-.068-.54-.205-.703s-.333-.245-.587-.245zM208.08 129.154l-.098-.457h-.023c-.16.2-.32.338-.48.408-.16.07-.357.107-.596.107-.318 0-.568-.082-.75-.246s-.27-.397-.27-.7c0-.648.52-.988 1.556-1.02l.545-.018v-.2c0-.25-.055-.437-.163-.557-.108-.12-.28-.18-.52-.18-.268 0-.57.082-.908.246l-.15-.372c.16-.086.332-.153.52-.202s.38-.073.568-.073c.383 0 .666.084.85.254s.278.442.278.817v2.192h-.36zm-1.1-.343c.304 0 .54-.082.714-.248s.26-.398.26-.697v-.29l-.486.02c-.387.015-.666.075-.837.18-.17.108-.255.273-.255.498 0 .176.053.31.16.4s.254.138.446.138zM210.48 128.81c.085 0 .168-.005.248-.018s.144-.026.19-.04v.372c-.053.025-.13.046-.233.062s-.194.025-.276.025c-.622 0-.933-.326-.933-.98v-1.91h-.46v-.234l.46-.202.205-.686h.28v.744h.933v.378h-.932v1.89c0 .193.046.342.138.445s.218.156.38.156zM213.757 129.154v-2.077c0-.262-.06-.457-.18-.586s-.305-.192-.56-.192c-.337 0-.584.092-.74.275s-.23.484-.23.902v1.68h-.487v-4.56h.486v1.38c0 .166-.008.304-.023.413h.03c.095-.154.23-.275.407-.365.177-.088.38-.133.605-.133.393 0 .687.094.883.28.196.187.295.482.295.89v2.094h-.486zM216.6 129.213c-.476 0-.85-.145-1.125-.434s-.41-.69-.41-1.205c0-.518.126-.93.38-1.233s.6-.457 1.028-.457c.402 0 .72.133.955.396.234.267.352.615.352 1.05v.307h-2.212c.01.377.104.663.285.858s.436.293.764.293c.346 0 .688-.072 1.025-.217v.435c-.172.074-.335.128-.488.16-.154.032-.34.048-.555.048zm-.133-2.92c-.258 0-.464.083-.617.25s-.243.4-.27.698h1.678c0-.306-.068-.54-.205-.703s-.332-.245-.586-.245zM220.073 125.884c.143 0 .27.012.384.035l-.067.45c-.133-.03-.25-.044-.352-.044-.26 0-.482.105-.667.316s-.275.474-.275.788v1.723h-.486v-3.21h.4l.056.594h.023c.118-.21.262-.37.43-.483s.352-.17.553-.17z"/>
    </g>
    <g fill="#4278A7">
        <path d="M205.6 12.934h-.74l-1.296-4.303c-.062-.188-.13-.43-.206-.72-.076-.29-.116-.464-.12-.522-.063.387-.166.81-.307 1.27l-1.256 4.276h-.738l-1.71-6.425h.792l1.015 3.967c.14.558.243 1.062.308 1.512.08-.536.197-1.06.353-1.573l1.15-3.907h.792l1.21 3.942c.14.454.258.967.354 1.537.055-.416.16-.923.315-1.52l1.01-3.96h.792l-1.718 6.424zM210.248 13.022c-.712 0-1.274-.217-1.686-.65-.412-.434-.617-1.035-.617-1.807 0-.775.19-1.393.573-1.85.382-.457.896-.686 1.54-.686.604 0 1.08.197 1.433.595.353.396.528.92.528 1.57v.462H208.7c.016.565.158.995.43 1.288.27.293.652.44 1.145.44.52 0 1.03-.11 1.538-.327v.65c-.258.112-.502.19-.732.24-.23.05-.507.074-.832.074zm-.198-4.38c-.387 0-.695.125-.925.376-.23.253-.365.602-.406 1.047h2.517c0-.46-.103-.812-.308-1.058-.206-.244-.5-.366-.88-.366zM215.504 8.04c.633 0 1.124.215 1.475.647.35.432.523 1.044.523 1.835s-.177 1.405-.53 1.843c-.353.438-.842.657-1.47.657-.312 0-.6-.058-.858-.174-.26-.115-.477-.293-.652-.533h-.053l-.154.62h-.522v-6.84h.73v1.662c0 .372-.013.706-.036 1.002h.035c.34-.48.843-.72 1.51-.72zm-.106.61c-.498 0-.857.143-1.077.428-.22.286-.328.767-.328 1.444 0 .676.112 1.16.338 1.452.226.29.588.437 1.086.437.448 0 .782-.162 1.002-.488.22-.327.33-.796.33-1.41 0-.625-.11-1.093-.33-1.4s-.56-.463-1.02-.463z"/>
    </g>
    <g fill="#356282">
        <path d="M203.538 140.053c0 .377-.137.67-.41.882s-.645.316-1.113.316c-.508 0-.898-.064-1.172-.195v-.48c.176.074.367.133.574.176s.412.065.615.065c.332 0 .582-.063.75-.188.168-.127.252-.302.252-.526 0-.147-.03-.27-.09-.363s-.16-.183-.3-.263-.35-.17-.636-.272c-.398-.143-.684-.312-.854-.507s-.256-.45-.256-.765c0-.33.124-.593.372-.788s.576-.293.984-.293c.426 0 .817.077 1.175.233l-.156.434c-.354-.148-.697-.223-1.03-.223-.265 0-.47.057-.62.17s-.222.27-.222.472c0 .148.027.27.082.365s.146.183.276.26c.13.08.33.168.597.264.45.16.758.332.927.516s.254.42.254.713zM207.112 139.585c0 .523-.132.933-.396 1.226-.264.296-.628.442-1.093.442-.287 0-.542-.067-.765-.202s-.395-.328-.516-.58-.182-.547-.182-.885c0-.523.13-.93.393-1.224.262-.29.625-.437 1.09-.437.45 0 .806.15 1.07.448s.4.705.4 1.215zm-2.446 0c0 .41.082.723.246.938s.405.322.724.322.56-.106.725-.32c.166-.214.25-.527.25-.94 0-.407-.084-.717-.25-.93-.164-.21-.407-.317-.73-.317-.317 0-.558.104-.72.313s-.244.52-.244.935zM209.248 141.252c-.465 0-.825-.143-1.08-.43-.255-.285-.382-.69-.382-1.214 0-.537.13-.952.388-1.245s.628-.44 1.106-.44c.154 0 .31.018.463.05s.275.073.363.118l-.15.414c-.106-.043-.224-.078-.35-.107-.128-.027-.24-.042-.338-.042-.652 0-.98.416-.98 1.248 0 .395.08.697.24.908s.395.317.707.317c.268 0 .542-.058.823-.173v.43c-.213.112-.484.168-.81.168zM210.78 137.112c0-.11.027-.192.082-.245.055-.05.123-.077.205-.077.078 0 .146.026.202.08s.084.133.084.242-.028.19-.085.245-.125.08-.203.08c-.082 0-.15-.026-.205-.08s-.082-.136-.082-.245zm.528 4.08h-.486v-3.21h.486v3.21zM214.314 141.193l-.097-.457h-.023c-.16.2-.32.338-.48.408-.158.07-.356.107-.595.107-.32 0-.57-.08-.75-.245s-.27-.397-.27-.7c0-.648.518-.988 1.555-1.02l.545-.018v-.2c0-.25-.055-.437-.163-.557-.108-.12-.28-.18-.52-.18-.268 0-.57.08-.908.245l-.15-.372c.158-.086.33-.153.52-.202s.378-.072.567-.072c.383 0 .666.085.85.255s.278.442.278.817v2.19h-.36zm-1.1-.343c.304 0 .54-.083.714-.25s.26-.397.26-.696v-.29l-.486.02c-.387.015-.666.075-.837.18-.17.108-.256.273-.256.498 0 .176.052.31.158.4s.255.138.447.138zM216.162 141.193h-.486v-4.56h.486v4.56z"/>
    </g>
    <g fill="#356282">
        <path d="M197.978 151.048c0 .707-.192 1.248-.576 1.622s-.936.56-1.656.56h-1.187v-4.282h1.31c.667 0 1.185.185 1.554.554s.554.883.554 1.546zm-.528.017c0-.56-.14-.98-.42-1.263s-.697-.425-1.25-.425h-.724v3.422h.606c.594 0 1.04-.147 1.34-.44.3-.29.448-.723.448-1.295zM200.834 153.23l-.097-.457h-.023c-.16.2-.32.338-.48.408-.158.072-.356.108-.595.108-.32 0-.57-.082-.75-.246s-.27-.397-.27-.7c0-.648.518-.988 1.555-1.02l.545-.018v-.2c0-.25-.055-.437-.163-.557-.108-.12-.28-.18-.52-.18-.268 0-.57.08-.908.245l-.15-.372c.158-.086.33-.153.52-.202s.378-.073.567-.073c.383 0 .666.085.85.255s.278.442.278.817v2.19h-.36zm-1.1-.343c.304 0 .54-.083.714-.25s.26-.397.26-.696v-.29l-.486.022c-.387.014-.666.074-.837.18-.17.107-.256.272-.256.497 0 .175.052.31.158.4s.256.137.447.137zM203.233 152.887c.086 0 .17-.006.25-.02s.143-.025.19-.04v.373c-.054.025-.132.046-.234.062s-.195.025-.277.025c-.62 0-.932-.327-.932-.98v-1.91h-.46v-.235l.46-.202.206-.686h.28v.744h.933v.378h-.933v1.89c0 .193.046.342.138.445s.218.157.378.157zM206.29 153.23l-.098-.457h-.023c-.16.2-.32.338-.48.408-.16.072-.357.108-.596.108-.318 0-.568-.082-.75-.246s-.27-.397-.27-.7c0-.648.52-.988 1.556-1.02l.545-.018v-.2c0-.25-.055-.437-.163-.557-.108-.12-.28-.18-.52-.18-.268 0-.57.08-.908.245l-.15-.372c.16-.086.332-.153.52-.202s.38-.073.568-.073c.383 0 .666.085.85.255s.278.442.278.817v2.19h-.36zm-1.1-.343c.303 0 .54-.083.713-.25s.26-.397.26-.696v-.29l-.486.022c-.387.014-.666.074-.837.18-.17.107-.256.272-.256.497 0 .175.053.31.16.4s.255.137.446.137zM209.146 149.967c.422 0 .75.145.982.432.233.288.35.695.35 1.223s-.117.938-.353 1.23-.562.437-.98.437c-.208 0-.4-.04-.572-.115-.173-.077-.317-.196-.435-.356h-.035l-.103.41h-.35v-4.56h.487v1.108c0 .248-.008.47-.023.668h.023c.227-.32.563-.48 1.01-.48zm-.07.407c-.333 0-.572.095-.72.286-.145.19-.22.51-.22.962s.076.774.227.968c.15.195.392.292.724.292.3 0 .52-.108.668-.327.146-.217.22-.53.22-.938 0-.418-.073-.73-.22-.935s-.373-.308-.68-.308zM213.303 153.23l-.097-.457h-.023c-.16.2-.32.338-.48.408-.158.072-.356.108-.595.108-.318 0-.568-.082-.75-.246s-.27-.397-.27-.7c0-.648.52-.988 1.556-1.02l.545-.018v-.2c0-.25-.056-.437-.164-.557-.108-.12-.28-.18-.52-.18-.268 0-.57.08-.908.245l-.15-.372c.16-.086.332-.153.52-.202s.38-.073.568-.073c.383 0 .666.085.85.255s.278.442.278.817v2.19h-.36zm-1.1-.343c.304 0 .54-.083.714-.25s.26-.397.26-.696v-.29l-.486.022c-.386.014-.665.074-.836.18-.17.107-.256.272-.256.497 0 .175.053.31.16.4s.255.137.446.137zM216.736 152.354c0 .3-.11.53-.334.69s-.535.244-.938.244c-.426 0-.758-.067-.996-.202v-.45c.154.077.32.14.496.184s.348.067.512.067c.254 0 .45-.04.586-.122.137-.08.205-.204.205-.37 0-.125-.055-.23-.163-.32-.108-.09-.32-.194-.634-.315-.3-.11-.512-.208-.638-.29s-.22-.18-.28-.284-.093-.23-.093-.378c0-.262.105-.468.318-.62.213-.15.505-.227.876-.227.346 0 .684.07 1.014.212l-.173.396c-.322-.133-.614-.2-.876-.2-.23 0-.405.037-.522.11s-.176.17-.176.298c0 .086.02.16.065.22s.115.118.213.173.285.133.562.236c.38.14.638.278.77.42s.204.315.204.528zM218.884 153.29c-.475 0-.85-.146-1.124-.435s-.41-.69-.41-1.204c0-.517.126-.928.38-1.232s.6-.457 1.028-.457c.402 0 .72.134.955.397.234.266.352.614.352 1.048v.308h-2.212c.01.377.104.663.285.858s.436.294.764.294c.346 0 .688-.072 1.025-.217v.434c-.172.075-.335.13-.488.16-.155.033-.34.05-.556.05zm-.132-2.922c-.258 0-.464.084-.617.252s-.243.4-.27.697h1.678c0-.307-.068-.54-.205-.704s-.332-.245-.586-.245zM222.965 152.354c0 .3-.11.53-.334.69s-.534.244-.937.244c-.426 0-.758-.067-.996-.202v-.45c.154.077.32.14.496.184s.348.067.512.067c.254 0 .45-.04.586-.122.138-.08.206-.204.206-.37 0-.125-.055-.23-.163-.32-.108-.09-.32-.194-.634-.315-.3-.11-.513-.208-.64-.29s-.22-.18-.28-.284-.092-.23-.092-.378c0-.262.106-.468.32-.62.212-.15.504-.227.875-.227.346 0 .684.07 1.014.212l-.173.396c-.322-.133-.614-.2-.876-.2-.23 0-.404.037-.52.11s-.177.17-.177.298c0 .086.022.16.066.22s.115.118.213.173.284.133.56.236c.382.14.64.278.772.42s.203.315.203.528z"/>
    </g>
    <g fill="#356282">
        <path d="M204.886 165.27v-4.284h.498v4.283h-.498zM209.257 163.66c0 .524-.132.934-.396 1.227-.263.295-.627.44-1.092.44-.287 0-.542-.066-.765-.2s-.395-.33-.516-.58-.182-.548-.182-.886c0-.522.13-.93.393-1.223.262-.29.625-.438 1.09-.438.45 0 .806.148 1.07.447s.4.704.4 1.214zm-2.446 0c0 .41.083.724.247.94s.405.32.724.32.56-.105.726-.32c.165-.213.248-.526.248-.938 0-.408-.083-.718-.248-.93-.165-.212-.408-.318-.73-.318-.318 0-.56.104-.72.313s-.245.52-.245.934zM211.5 165.27h-.497v-3.842h-1.356v-.442h3.21v.442h-1.355v3.84z"/>
    </g>
    <g fill="#356282">
        <path d="M206.605 175.638c0-.13.03-.23.09-.297.06-.067.145-.1.256-.1.114 0 .202.032.266.1.063.067.096.167.096.298 0 .127-.032.225-.097.293s-.152.104-.264.104c-.1 0-.182-.03-.247-.093-.066-.06-.098-.16-.098-.302zM208.2 175.638c0-.13.03-.23.09-.297.06-.067.146-.1.257-.1.113 0 .2.032.265.1.063.067.096.167.096.298 0 .127-.032.225-.097.293s-.15.104-.263.104c-.1 0-.183-.03-.248-.093-.067-.06-.1-.16-.1-.302zM209.798 175.638c0-.13.03-.23.09-.297.06-.067.145-.1.256-.1.113 0 .2.032.265.1.062.067.095.167.095.298 0 .127-.032.225-.097.293s-.152.104-.264.104c-.1 0-.183-.03-.248-.093-.066-.06-.098-.16-.098-.302z"/>
    </g>
    <path fill="#4278A7" d="M179.36 120.595h58.39v.398h-58.39zM179.36 132.71h58.39v.17h-58.39zM179.36 144.71h58.39v.17h-58.39zM179.36 156.71h58.39v.17h-58.39zM179.36 168.71h58.39v.17h-58.39zM179.36 180.595h58.39v.398h-58.39z"/>
    <g fill="#356282">
        <path d="M110.768 130.282c-.184 0-.328-.026-.434-.08v-.424c.14.04.283.06.434.06.193 0 .34-.06.44-.177s.15-.285.15-.506v-4.283h.5v4.243c0 .37-.095.658-.282.863-.187.203-.457.306-.808.306zM115.41 128.014c0 .377-.136.67-.41.882s-.644.316-1.112.316c-.508 0-.898-.065-1.172-.196v-.48c.176.074.367.133.574.176s.412.064.615.064c.332 0 .582-.063.75-.188.168-.127.252-.302.252-.526 0-.148-.03-.27-.09-.364s-.16-.183-.3-.263-.35-.17-.636-.272c-.397-.143-.683-.312-.853-.507s-.256-.45-.256-.765c0-.33.125-.592.373-.787s.576-.293.984-.293c.426 0 .817.078 1.175.234l-.155.434c-.354-.148-.697-.223-1.03-.223-.265 0-.47.057-.62.17s-.222.27-.222.472c0 .148.027.27.082.365s.146.182.276.26c.13.08.33.167.597.263.45.16.758.332.927.516s.254.42.254.714zM120.538 129.154l-.533-1.362h-1.717l-.527 1.362h-.503l1.693-4.3h.42l1.684 4.3h-.516zm-.688-1.81l-.498-1.328c-.064-.168-.13-.374-.2-.618-.042.188-.103.394-.184.618l-.504 1.327h1.386zM123.064 129.213c-.21 0-.4-.04-.573-.115-.172-.077-.316-.196-.434-.356h-.035c.024.188.036.365.036.533v1.32h-.486v-4.65h.396l.067.438h.023c.125-.176.27-.303.437-.38s.356-.118.57-.118c.427 0 .755.146.986.437s.347.7.347 1.225c0 .527-.118.937-.354 1.23s-.56.436-.98.436zm-.07-2.915c-.33 0-.566.09-.713.272s-.22.47-.225.867v.108c0 .45.075.774.226.968.15.195.393.292.725.292.277 0 .494-.112.65-.337s.237-.534.237-.93c0-.4-.08-.707-.236-.92-.157-.214-.378-.32-.663-.32zM126.74 129.213c-.21 0-.4-.04-.573-.115-.173-.077-.317-.196-.435-.356h-.035c.023.188.035.365.035.533v1.32h-.486v-4.65h.396l.067.438h.022c.125-.176.27-.303.437-.38s.355-.118.57-.118c.426 0 .754.146.985.437s.348.7.348 1.225c0 .527-.118.937-.354 1.23s-.562.436-.98.436zm-.07-2.915c-.328 0-.565.09-.712.272s-.222.47-.226.867v.108c0 .45.075.774.226.968.15.195.392.292.724.292.277 0 .494-.112.65-.337s.237-.534.237-.93c0-.4-.08-.707-.237-.92-.157-.214-.378-.32-.663-.32z"/>
    </g>
    <g fill="#356282">
        <path d="M116.557 141.193l-.533-1.362h-1.717l-.527 1.363h-.504l1.693-4.3h.418l1.685 4.3h-.516zm-.69-1.81l-.497-1.327c-.064-.168-.13-.374-.2-.618-.042.188-.103.394-.184.618l-.504 1.327h1.386z"/>
        <path d="M117.037 142.32c-.184 0-.328-.025-.434-.078v-.425c.14.04.283.06.434.06.193 0 .34-.06.44-.177s.15-.286.15-.507v-4.283h.5v4.242c0 .37-.095.658-.282.863-.187.203-.456.306-.808.306zM121.956 141.193l-.533-1.362h-1.717l-.527 1.363h-.505l1.693-4.3h.42l1.684 4.3h-.516zm-.688-1.81l-.498-1.327c-.064-.168-.13-.374-.2-.618-.042.188-.103.394-.184.618l-.504 1.327h1.386zM125.91 141.193h-.564l-1.15-1.884-1.173 1.883h-.527l1.424-2.238-1.327-2.045h.55l1.064 1.696 1.072-1.696h.53l-1.328 2.027 1.43 2.256z"/>
    </g>
    <g fill="#356282">
        <path d="M105.26 150.986h1.456v2.083c-.227.07-.457.126-.69.163s-.507.056-.815.056c-.647 0-1.152-.193-1.514-.58s-.542-.926-.542-1.62c0-.446.09-.836.268-1.172.18-.334.437-.59.772-.768.336-.176.73-.265 1.18-.265.458 0 .884.084 1.278.252l-.193.44c-.388-.165-.76-.247-1.117-.247-.52 0-.93.155-1.222.466s-.438.74-.438 1.292c0 .578.14 1.017.423 1.315s.697.448 1.244.448c.296 0 .586-.033.87-.102v-1.318h-.96v-.444zM109.027 153.29c-.475 0-.85-.146-1.124-.435s-.41-.69-.41-1.204c0-.517.126-.928.38-1.232s.6-.457 1.028-.457c.403 0 .722.134.956.397.234.266.352.614.352 1.048v.308h-2.212c.01.377.104.663.285.858s.437.294.765.294c.346 0 .688-.072 1.025-.217v.434c-.172.075-.335.13-.488.16-.153.033-.338.05-.555.05zm-.13-2.922c-.26 0-.465.084-.618.252s-.244.4-.272.697h1.68c0-.307-.07-.54-.206-.704s-.333-.245-.586-.245zM113.81 151.622c0 .523-.133.933-.397 1.226-.264.295-.628.44-1.093.44-.287 0-.542-.066-.765-.2s-.395-.33-.516-.58-.183-.548-.183-.886c0-.523.13-.93.393-1.224.262-.29.625-.438 1.09-.438.45 0 .806.15 1.07.448s.4.704.4 1.214zm-2.448 0c0 .41.082.723.246.938s.405.322.724.322.56-.106.725-.32c.165-.214.248-.527.248-.94 0-.407-.083-.717-.248-.93-.165-.21-.408-.317-.73-.317-.318 0-.56.104-.72.313s-.245.52-.245.934zM115.148 153.23h-.486v-4.56h.486v4.56zM118.95 151.622c0 .523-.132.933-.396 1.226-.264.295-.628.44-1.093.44-.286 0-.54-.066-.764-.2s-.395-.33-.516-.58-.18-.548-.18-.886c0-.523.13-.93.393-1.224.262-.29.625-.438 1.09-.438.45 0 .806.15 1.07.448s.397.704.397 1.214zm-2.446 0c0 .41.082.723.246.938s.405.322.724.322.56-.106.725-.32c.164-.214.247-.527.247-.94 0-.407-.083-.717-.248-.93-.166-.21-.41-.317-.73-.317s-.56.104-.722.313-.244.52-.244.934zM121.086 153.29c-.465 0-.825-.144-1.08-.43-.255-.286-.382-.69-.382-1.215 0-.537.13-.952.388-1.245s.628-.44 1.106-.44c.154 0 .31.018.463.05s.276.073.364.118l-.15.413c-.106-.042-.224-.077-.35-.106-.128-.027-.24-.042-.338-.042-.652 0-.98.416-.98 1.248 0 .395.08.697.24.908s.395.316.707.316c.268 0 .542-.058.823-.173v.432c-.213.11-.484.167-.81.167zM124.634 153.23l-.097-.457h-.023c-.16.2-.32.338-.48.408-.158.072-.356.108-.595.108-.32 0-.57-.082-.75-.246s-.27-.397-.27-.7c0-.648.518-.988 1.555-1.02l.545-.018v-.2c0-.25-.055-.437-.163-.557-.108-.12-.28-.18-.52-.18-.268 0-.57.08-.908.245l-.15-.372c.158-.086.33-.153.52-.202s.378-.073.567-.073c.383 0 .666.085.85.255s.278.442.278.817v2.19h-.36zm-1.1-.343c.304 0 .54-.083.714-.25s.26-.397.26-.696v-.29l-.486.022c-.387.014-.666.074-.837.18-.17.107-.256.272-.256.497 0 .175.052.31.158.4s.256.137.447.137zM127.033 152.887c.086 0 .17-.006.25-.02s.143-.025.19-.04v.373c-.054.025-.132.046-.234.062s-.195.025-.277.025c-.62 0-.932-.327-.932-.98v-1.91h-.46v-.235l.46-.202.206-.686h.28v.744h.933v.378h-.933v1.89c0 .193.046.342.138.445s.218.157.378.157zM128.073 149.15c0-.112.027-.193.082-.246.055-.05.123-.077.205-.077.078 0 .146.026.202.08s.085.133.085.242-.028.19-.085.244-.124.08-.202.08c-.082 0-.15-.026-.205-.08s-.082-.136-.082-.245zm.528 4.08h-.485v-3.21h.486v3.21zM132.403 151.622c0 .523-.132.933-.396 1.226-.264.295-.628.44-1.093.44-.287 0-.542-.066-.765-.2s-.396-.33-.517-.58-.182-.548-.182-.886c0-.523.132-.93.394-1.224.262-.29.625-.438 1.09-.438.45 0 .806.15 1.07.448s.4.704.4 1.214zm-2.446 0c0 .41.082.723.246.938s.405.322.724.322.56-.106.725-.32c.165-.214.248-.527.248-.94 0-.407-.083-.717-.248-.93-.165-.21-.408-.317-.73-.317-.318 0-.56.104-.72.313s-.245.52-.245.934zM135.453 153.23v-2.077c0-.262-.06-.457-.18-.586s-.305-.193-.56-.193c-.335 0-.58.09-.737.272s-.234.48-.234.9v1.684h-.486v-3.21h.396l.08.438h.022c.1-.158.24-.28.42-.367s.38-.13.6-.13c.387 0 .678.094.873.28.195.187.293.484.293.895v2.095h-.487z"/>
    </g>
    <g fill="#356282">
        <path d="M107.566 165.27l-.533-1.363h-1.717l-.527 1.362h-.505l1.693-4.302h.42l1.684 4.3h-.516zm-.688-1.81l-.498-1.328c-.064-.168-.13-.374-.2-.618-.042.188-.103.394-.184.618l-.504 1.327h1.386zM110.092 165.328c-.21 0-.4-.04-.572-.115-.173-.077-.318-.196-.436-.356h-.035c.022.188.034.365.034.533v1.32h-.486v-4.65h.396l.067.438h.024c.125-.176.27-.303.437-.38s.357-.118.572-.118c.426 0 .755.146.986.437s.347.7.347 1.225c0 .527-.117.938-.353 1.23s-.562.436-.98.436zm-.07-2.915c-.328 0-.565.09-.712.272s-.222.47-.226.867v.108c0 .45.075.774.226.968.15.195.392.292.724.292.277 0 .495-.112.652-.337s.235-.534.235-.93c0-.4-.077-.707-.234-.92-.158-.214-.38-.32-.664-.32zM113.77 165.328c-.21 0-.4-.04-.573-.115-.173-.077-.318-.196-.436-.356h-.034c.023.188.035.365.035.533v1.32h-.485v-4.65h.396l.068.438h.023c.126-.176.272-.303.438-.38s.356-.118.57-.118c.427 0 .756.146.987.437s.347.7.347 1.225c0 .527-.117.938-.353 1.23s-.563.436-.98.436zm-.072-2.915c-.328 0-.565.09-.712.272s-.222.47-.226.867v.108c0 .45.075.774.226.968.15.195.392.292.724.292.277 0 .495-.112.652-.337s.235-.534.235-.93c0-.4-.078-.707-.235-.92-.157-.214-.38-.32-.664-.32zM119.417 161.37c-.47 0-.842.157-1.114.47-.272.314-.41.743-.41 1.288 0 .56.133.994.396 1.3s.636.458 1.122.458c.3 0 .64-.054 1.022-.16v.436c-.297.11-.663.167-1.1.167-.63 0-1.116-.192-1.46-.575s-.514-.927-.514-1.632c0-.44.083-.828.248-1.16s.403-.588.715-.768.678-.27 1.1-.27c.45 0 .842.082 1.178.246l-.21.43c-.325-.154-.65-.23-.973-.23zM124.066 163.66c0 .524-.132.934-.396 1.227-.264.295-.628.44-1.093.44-.287 0-.542-.066-.765-.2s-.395-.33-.516-.58-.182-.548-.182-.886c0-.522.13-.93.393-1.223.262-.29.625-.438 1.09-.438.45 0 .807.148 1.07.447s.4.704.4 1.214zm-2.446 0c0 .41.082.724.246.94s.405.32.724.32.56-.105.726-.32c.165-.213.247-.526.247-.938 0-.408-.082-.718-.247-.93-.165-.212-.41-.318-.73-.318s-.56.104-.722.313-.244.52-.244.934zM127.116 165.27v-2.078c0-.262-.06-.457-.18-.586s-.305-.193-.56-.193c-.335 0-.58.09-.737.272s-.235.48-.235.9v1.684h-.486v-3.212h.395l.08.44h.022c.1-.16.24-.28.42-.368s.38-.13.6-.13c.387 0 .678.093.873.278.195.188.293.485.293.896v2.095h-.487zM130.05 162.436h-.818v2.833h-.486v-2.834h-.574v-.22l.574-.176v-.18c0-.788.345-1.183 1.034-1.183.17 0 .37.034.598.103l-.126.39c-.188-.06-.348-.09-.48-.09-.184 0-.32.06-.407.183s-.132.317-.132.587v.208h.817v.378zm.544-1.248c0-.11.027-.192.082-.245.055-.05.123-.077.205-.077.08 0 .147.026.203.08s.085.133.085.242-.028.19-.085.245-.124.08-.202.08c-.08 0-.15-.026-.204-.08s-.082-.135-.082-.245zm.527 4.08h-.485v-3.21h.486v3.21zM134.78 162.058v.308l-.595.07c.055.068.104.158.146.27s.065.233.065.372c0 .314-.107.565-.322.753s-.51.282-.885.282c-.096 0-.186-.008-.27-.023-.207.108-.31.246-.31.412 0 .088.035.153.107.195s.196.062.372.062h.568c.348 0 .615.072.802.22s.28.358.28.638c0 .355-.144.626-.43.813-.284.187-.7.28-1.247.28-.42 0-.743-.078-.97-.234s-.343-.377-.343-.662c0-.195.062-.364.188-.507s.3-.24.527-.29c-.082-.037-.15-.095-.206-.173s-.084-.17-.084-.272c0-.117.03-.22.094-.308s.16-.173.296-.255c-.166-.07-.3-.186-.405-.35s-.157-.352-.157-.562c0-.352.105-.622.316-.813.21-.19.51-.285.896-.285.168 0 .32.02.454.06h1.114zm-2.56 3.75c0 .174.073.306.22.396s.356.135.63.135c.408 0 .71-.063.907-.184.196-.123.294-.288.294-.497 0-.175-.053-.295-.16-.363-.107-.066-.31-.1-.606-.1h-.583c-.22 0-.392.052-.515.157s-.185.257-.185.454zm.263-2.72c0 .224.063.394.19.51s.304.172.53.172c.475 0 .712-.23.712-.69 0-.483-.24-.725-.72-.725-.23 0-.405.062-.528.185s-.184.304-.184.547z"/>
    </g>
    <g fill="#356282">
        <path d="M103.393 176.95h-.486v-4.56h.486v4.56zM107.195 175.34c0 .524-.132.934-.396 1.227-.265.295-.63.44-1.094.44-.287 0-.542-.066-.765-.2s-.394-.33-.515-.58-.182-.548-.182-.886c0-.522.13-.93.393-1.223.262-.29.625-.438 1.09-.438.45 0 .806.148 1.07.447s.4.704.4 1.214zm-2.446 0c0 .41.08.724.245.94s.405.32.724.32.56-.105.724-.32c.165-.213.248-.526.248-.938 0-.408-.083-.718-.248-.93-.165-.212-.408-.318-.73-.318-.318 0-.56.104-.72.313s-.245.52-.245.934zM109.33 177.008c-.464 0-.824-.143-1.08-.43-.254-.285-.38-.69-.38-1.214 0-.537.128-.952.387-1.245s.628-.44 1.106-.44c.154 0 .31.017.463.05s.275.072.363.117l-.15.413c-.107-.043-.225-.078-.352-.107-.127-.027-.24-.042-.337-.042-.65 0-.978.417-.978 1.25 0 .394.08.696.238.907s.396.316.708.316c.268 0 .542-.058.823-.173v.43c-.212.112-.483.168-.81.168zM112.88 176.95l-.098-.458h-.023c-.16.2-.32.338-.48.408-.16.07-.357.107-.596.107-.318 0-.568-.082-.75-.246s-.27-.396-.27-.7c0-.647.52-.987 1.556-1.02l.545-.017v-.2c0-.25-.055-.437-.163-.557-.108-.12-.28-.18-.52-.18-.268 0-.57.08-.908.245l-.15-.37c.16-.087.332-.154.52-.203s.38-.073.568-.073c.383 0 .666.085.85.255s.278.44.278.816v2.19h-.36zm-1.1-.344c.303 0 .54-.083.713-.25s.26-.397.26-.696v-.29l-.486.02c-.387.015-.666.075-.837.18-.17.108-.256.273-.256.498 0 .176.053.31.16.4s.255.138.446.138zM114.728 176.95h-.486v-4.56h.486v4.56zM118.25 175.81c0 .376-.138.67-.41.88s-.646.317-1.114.317c-.508 0-.898-.065-1.172-.196v-.48c.176.075.367.134.574.177s.412.064.615.064c.332 0 .582-.062.75-.187.168-.127.252-.302.252-.526 0-.148-.03-.27-.09-.364s-.16-.183-.3-.263-.35-.17-.636-.272c-.4-.143-.685-.312-.855-.507s-.256-.45-.256-.764c0-.33.123-.593.37-.788s.577-.293.985-.293c.426 0 .817.078 1.175.234l-.155.433c-.354-.148-.697-.223-1.03-.223-.265 0-.47.057-.62.17s-.222.27-.222.472c0 .148.027.27.082.365s.146.182.276.26c.13.08.33.167.598.263.45.16.758.332.927.516s.254.42.254.713zM120.09 176.606c.085 0 .168-.006.248-.02s.144-.025.19-.04v.373c-.053.024-.13.045-.233.06s-.194.026-.276.026c-.622 0-.933-.327-.933-.98v-1.91h-.46v-.235l.46-.2.205-.687h.28v.744h.933v.378h-.932v1.89c0 .193.046.342.138.445s.22.156.38.156zM123.94 175.34c0 .524-.13.934-.395 1.227-.264.295-.628.44-1.093.44-.287 0-.542-.066-.765-.2s-.395-.33-.516-.58-.18-.548-.18-.886c0-.522.13-.93.392-1.223.262-.29.625-.438 1.09-.438.45 0 .806.148 1.07.447s.4.704.4 1.214zm-2.445 0c0 .41.082.724.246.94s.406.32.725.32.56-.105.725-.32c.165-.213.248-.526.248-.938 0-.408-.083-.718-.248-.93-.165-.212-.408-.318-.73-.318-.318 0-.56.104-.72.313s-.245.52-.245.934zM126.26 173.68c.142 0 .27.01.383.034l-.067.45c-.133-.028-.25-.043-.352-.043-.26 0-.482.106-.667.317s-.276.474-.276.788v1.723h-.485v-3.21h.4l.057.594h.023c.12-.21.263-.37.43-.483s.353-.17.554-.17zM129.218 176.95l-.097-.458h-.022c-.16.2-.32.338-.48.408-.158.07-.356.107-.595.107-.318 0-.568-.082-.75-.246s-.27-.396-.27-.7c0-.647.52-.987 1.556-1.02l.544-.017v-.2c0-.25-.055-.437-.163-.557-.107-.12-.28-.18-.52-.18-.267 0-.57.08-.907.245l-.15-.37c.16-.087.332-.154.52-.203s.38-.073.568-.073c.384 0 .667.085.852.255s.277.44.277.816v2.19h-.362zm-1.1-.344c.304 0 .54-.083.714-.25s.26-.397.26-.696v-.29l-.486.02c-.387.015-.666.075-.837.18-.172.108-.257.273-.257.498 0 .176.053.31.16.4s.255.138.446.138zM133.208 173.738v.308l-.595.07c.055.068.104.158.146.27s.063.233.063.372c0 .314-.107.565-.322.753s-.51.282-.884.282c-.096 0-.186-.008-.27-.023-.207.108-.31.246-.31.412 0 .088.035.153.107.195s.196.062.372.062h.568c.348 0 .614.072.8.22s.28.358.28.638c0 .355-.142.626-.427.813-.285.187-.7.28-1.248.28-.42 0-.744-.078-.972-.234s-.34-.377-.34-.662c0-.195.06-.364.187-.507s.3-.24.527-.29c-.082-.037-.15-.095-.207-.173s-.083-.17-.083-.272c0-.117.03-.22.094-.308s.16-.173.296-.255c-.166-.07-.302-.186-.406-.35s-.156-.352-.156-.562c0-.352.105-.622.316-.813.21-.19.51-.285.896-.285.168 0 .32.02.454.06h1.114zm-2.56 3.75c0 .174.073.306.22.396s.356.135.63.135c.408 0 .71-.063.906-.184.196-.123.295-.288.295-.497 0-.175-.055-.295-.162-.363-.107-.066-.31-.1-.606-.1h-.583c-.222 0-.394.052-.517.157s-.185.257-.185.454zm.263-2.722c0 .225.064.395.19.51s.305.173.53.173c.476 0 .713-.23.713-.692 0-.482-.24-.724-.72-.724-.23 0-.405.062-.528.185s-.184.304-.184.546zM135.224 177.008c-.475 0-.85-.145-1.124-.434s-.41-.69-.41-1.204c0-.518.126-.93.38-1.233s.6-.457 1.028-.457c.402 0 .72.133.955.396.234.266.352.614.352 1.048v.308h-2.212c.01.377.104.663.285.858s.436.293.764.293c.346 0 .688-.072 1.025-.217v.434c-.172.074-.335.128-.488.16-.155.032-.34.048-.556.048zm-.132-2.92c-.258 0-.464.083-.617.25s-.243.4-.27.698h1.678c0-.307-.068-.54-.205-.704s-.332-.245-.586-.245z"/>
    </g>
    <path fill="#4278A7" d="M90.36 120.595h58.39v.398H90.36zM90.36 132.71h58.39v.17H90.36zM90.36 144.71h58.39v.17H90.36zM90.36 156.71h58.39v.17H90.36zM90.36 168.71h58.39v.17H90.36zM90.36 180.595h58.39v.398H90.36z"/>
    <g>
        <path fill="none" stroke="#4278A7" stroke-width=".5" stroke-miterlimit="10" d="M59.454 71.882h29.698"/>
        <path fill="#4278A7" d="M88.787 73.128l2.16-1.246-2.16-1.247"/>
    </g>
    <g>
        <path fill="none" stroke="#4278A7" stroke-width=".5" stroke-miterlimit="10" d="M90.946 76.882H61.248"/>
        <path fill="#4278A7" d="M61.612 75.635l-2.158 1.247 2.158 1.246"/>
    </g>
    <g>
        <path fill="none" stroke="#4278A7" stroke-width=".5" stroke-miterlimit="10" d="M147.454 71.882h29.698"/>
        <path fill="#4278A7" d="M176.787 73.128l2.16-1.246-2.16-1.247"/>
    </g>
    <g>
        <path fill="none" stroke="#4278A7" stroke-width=".5" stroke-miterlimit="10" d="M178.946 76.882h-29.698"/>
        <path fill="#4278A7" d="M149.612 75.635l-2.158 1.247 2.158 1.246"/>
    </g>
    <path fill="#83BBE6" d="M208.82 32.82c-4.9 0-9.078 3.347-10.227 7.983-5.7.128-10.298 4.805-10.298 10.536 0 5.81 4.728 10.538 10.54 10.538h9.238l1.482.004V32.856c-.244-.017-.488-.035-.735-.035z"/>
    <path fill="#67A9DC" d="M210.03 32.82c4.9 0 9.078 3.347 10.227 7.983 5.7.128 10.298 4.805 10.298 10.536 0 5.81-4.728 10.538-10.54 10.538h-9.238l-1.482.004V32.856c.244-.017.488-.035.735-.035z"/>
    <g>
        <path fill="#FFF" d="M14.46 49.206h32.91v33.837H14.46z"/>
        <path fill="none" d="M38.093 53.167H21.506c-1.975 0-3.606 1.476-3.884 3.377v20.6c.278 1.9 1.91 3.376 3.884 3.376h16.587c1.975 0 3.606-1.476 3.884-3.377v-20.6c-.278-1.9-1.91-3.376-3.884-3.376z"/>
        <path fill="#4278A7" d="M41.977 35.766c0-2.168-1.774-3.942-3.942-3.942H21.563c-2.168 0-3.942 1.774-3.942 3.942v9.384h24.357v-9.384zM17.622 88.49v9.43c0 2.168 1.774 3.942 3.942 3.942h16.472c2.168 0 3.942-1.774 3.942-3.942v-9.43c.1-.01.193-.044.292-.06H17.343c.095.015.183.05.28.06z"/>
        <path fill="none" d="M38.093 80.52c1.975 0 3.606-1.476 3.884-3.377v-20.6c-.278-1.9-1.91-3.376-3.884-3.376h-8.287V80.52h8.287z"/>
        <path fill="#67A9DC" d="M51.154 62.738v-7.9h-.83c-.02-5.028-3.672-9.113-8.347-9.642v-.046h-12.17v8.016h8.286c1.975 0 3.606 1.476 3.884 3.377v20.6c-.278 1.9-1.91 3.376-3.884 3.376h-8.287v7.91H42.27c4.063-.598 7.283-3.877 7.92-8.1h.963v-7.9h-.825v-.896h.825v-7.9h-.825v-.897h.826z"/>
        <path fill="#83BBE6" d="M21.506 80.52c-1.975 0-3.606-1.476-3.884-3.377v-20.6c.278-1.9 1.91-3.376 3.884-3.376h8.3V45.15H17.622v.046c-4.675.53-8.327 4.614-8.348 9.64h-1.22v7.902H9.27v16.07c0 4.942 3.522 8.96 8.073 9.623h12.463v-7.91h-8.3z"/>
        <g fill="none" stroke="#E6E326" stroke-linecap="round" stroke-linejoin="round" stroke-miterlimit="10">
            <path d="M29.545 57.95v10.098M29.545 68.048L25.293 72.3"/>
        </g>
    </g>
    <circle fill="#FFF" cx="209.295" cy="48.959" r="7.433"/>
    <path fill="#83BBE6" d="M200.16 72.988h-6.118c-.523-.943-1.53-1.582-2.68-1.582-1.69 0-3.066 1.375-3.066 3.065s1.375 3.066 3.065 3.066c1.153 0 2.16-.64 2.682-1.582h7.602c.82 0 1.483-.664 1.483-1.483v-4.548h-2.967v3.066z"/>
    <path fill="#4278A7" d="M227.75 71.406c-1.21 0-2.258.704-2.756 1.724h-6.045v-3.207h-2.967v4.69c0 .82.664 1.484 1.483 1.484h7.686c.543.864 1.504 1.44 2.598 1.44 1.69 0 3.065-1.374 3.065-3.064s-1.375-3.067-3.066-3.067z"/>
    <g>
        <path fill="#E6E326" d="M209.295 46.476c-1.37 0-2.482 1.114-2.482 2.482 0 1.37 1.113 2.482 2.482 2.482 1.368 0 2.482-1.113 2.482-2.482s-1.113-2.482-2.482-2.482zM209.295 45.747c-.268 0-.484-.217-.484-.484v-.775c0-.268.218-.484.485-.484.268 0 .484.217.484.484v.775c0 .267-.218.484-.485.484zM209.295 52.17c-.268 0-.484.217-.484.484v.775c0 .267.218.484.485.484.268 0 .484-.217.484-.485v-.776c0-.267-.218-.484-.485-.484zM211.566 46.687c-.19-.19-.19-.496 0-.685l.548-.548c.19-.19.496-.19.685 0 .188.19.188.496 0 .685l-.55.547c-.188.19-.495.19-.684 0zM207.024 51.23c-.19-.19-.496-.19-.685 0l-.55.548c-.188.19-.188.496 0 .685.19.19.497.19.686 0l.548-.548c.19-.19.19-.496 0-.685zM212.507 48.96c0-.27.217-.485.484-.485h.776c.268 0 .484.217.484.484s-.217.483-.484.483h-.775c-.266 0-.483-.217-.483-.484zM206.083 48.96c0-.27-.217-.485-.484-.485h-.776c-.268 0-.484.217-.484.484s.217.483.484.483h.775c.266 0 .483-.217.483-.484zM211.566 51.23c.19-.19.496-.19.685 0l.55.548c.188.19.188.496 0 .685-.19.19-.497.19-.686 0l-.548-.548c-.19-.19-.19-.496 0-.685zM207.024 46.687c.19-.19.19-.496 0-.685l-.548-.548c-.19-.19-.496-.19-.685 0-.188.19-.188.496 0 .685l.55.547c.188.19.495.19.684 0z"/>
    </g>
    <path fill="#67A9DC" d="M207.812 60.632V95.77c-.943.524-1.582 1.53-1.582 2.682 0 1.69 1.375 3.065 3.065 3.065V60.632h-1.483zM212.36 98.453c0-1.152-.64-2.158-1.58-2.68V60.63h-1.484v40.886c1.69 0 3.065-1.375 3.065-3.065z"/>
</svg>
