<svg version="1.1" id="Layer_1" xmlns="http://www.w3.org/2000/svg" xmlns:xlink="http://www.w3.org/1999/xlink" x="0px" y="0px"
   viewBox="0 0 960 394.4" enable-background="new 0 0 960 394.4" xml:space="preserve">
<rect x="0" y="281.3" fill="#0D9D57" width="960.1" height="113.9"/>
<rect x="0" y="0" fill="#F88F1E" width="960.1" height="286.7"/>
<g>
  <line fill="none" stroke="#D28032" stroke-width="6.0819" stroke-miterlimit="10" x1="41.6" y1="259.9" x2="41.6" y2="286.7"/>
  <line fill="none" stroke="#D28032" stroke-width="6.0819" stroke-miterlimit="10" x1="68.8" y1="259.9" x2="68.8" y2="286.7"/>
  <line fill="none" stroke="#D28032" stroke-width="4.3442" stroke-miterlimit="10" x1="99.4" y1="259.9" x2="99.4" y2="286.7"/>
  <line fill="none" stroke="#D28032" stroke-width="4.3442" stroke-miterlimit="10" x1="61.9" y1="257.7" x2="42.9" y2="276.6"/>
  <circle fill="#5EBD7F" cx="41.6" cy="235.2" r="28.8"/>
  <circle fill="#0D9D57" cx="68.8" cy="250.2" r="19.8"/>
  <ellipse fill="#5EBD7F" cx="101" cy="238.6" rx="22.8" ry="22.4"/>
</g>
<g>
  <line fill="none" stroke="#D28032" stroke-width="6.0819" stroke-miterlimit="10" x1="177" y1="259.9" x2="177" y2="286.7"/>
  <line fill="none" stroke="#D28032" stroke-width="6.0819" stroke-miterlimit="10" x1="204.1" y1="259.9" x2="204.1" y2="286.7"/>
  <path fill="none" stroke="#D28032" stroke-width="4.3442" stroke-miterlimit="10" d="M234.8,286.7"/>
  <path fill="none" stroke="#D28032" stroke-width="4.3442" stroke-miterlimit="10" d="M234.8,259.9"/>
  <line fill="none" stroke="#D28032" stroke-width="4.3442" stroke-miterlimit="10" x1="197.2" y1="257.7" x2="178.3" y2="276.6"/>
  <circle fill="#5EBD7F" cx="177" cy="235.2" r="28.8"/>
  <circle fill="#0D9D57" cx="204.1" cy="250.2" r="19.8"/>
</g>
<g>
  <g>
    <polygon fill="#B7B7B7" points="36.7,155.2 54.8,155.2 57.8,125.7 33.6,125.7     "/>
    <path fill="#543D3D" d="M59.5,127.4L59.5,127.4c0-3.9-3.2-5.3-7-5.3H39c-3.9,0-7,1.4-7,5.3v0L59.5,127.4z"/>
    <rect x="36.1" y="121.2" fill="#543D3D" width="19.1" height="3.6"/>
  </g>
  <rect x="116" y="232.1" fill="#F2E1BB" width="22" height="114.2"/>
  <rect x="151.2" y="232.4" fill="#F2E1BB" width="22" height="50.6"/>
  <path fill="#A04E9D" d="M111.5,148c8.9-9.4,13.8-21.7,13.8-34.7l-20.5,0c0,7.7-2.9,15-8.2,20.6L111.5,148z"/>
  <path fill="#F2E1BB" d="M49.4,163.9h25.1c13.8,0,27.2-5.8,36.7-15.8l-14.9-14.1c-5.7,6.1-13.5,9.4-21.8,9.4H49.4L49.4,163.9z"/>
  <path fill="#A04E9D" d="M173.5,194.1l0-70.1l1.7-9.1c0-5.2-4.3-9.5-9.5-9.5l-51.6,0c-5.2,0-9.5,4.3-9.5,9.5l11.1,25.1l0.1,54.1
    L173.5,194.1z"/>
  <polygon fill="#F3E2BC" points="123.8,91.6 123.9,91.6 123.9,55.2 172.5,55.2 172.5,91.6 163.6,91.6 163.6,105.4 163.6,105.4 
    143.9,105.4 123.8,105.4 123.8,105.4   "/>
  <path fill="#333333" d="M123.9,55.2c0-13.4,10.9-24.3,24.3-24.3c13.4,0,24.3,10.9,24.3,24.3l-27.9,0v27.4l-20.8,0L123.9,55.2
    L123.9,55.2z"/>
  <polygon fill="#A04E9D" points="188.4,105.4 166.9,105.4 173.2,126.2 188.4,126.2   "/>
  <rect x="187.5" y="105.4" fill="#F3E2BC" width="50" height="20.8"/>
  <path fill="#F3E2BC" d="M217.2,105.4c0,11.5,9.3,20.8,20.8,20.8c11.5,0,20.8-9.3,20.8-20.8L217.2,105.4z"/>
  <path fill="#F3E2BC" d="M31.2,143.3c0,11.3,9.2,20.5,20.5,20.5s20.5-9.2,20.5-20.5L31.2,143.3z"/>
  <polygon fill="#CE7677" points="228.6,126.2 234.2,126.2 234.3,105.4 228.7,105.4   "/>
  <polygon fill="#3A3A3A" points="228.7,108.5 228.7,109.9 234.2,109.9 234.2,108.5 236.3,108.5 236.3,122.2 234.3,122.2 
    234.3,120.8 228.8,120.8 228.8,122.2 226.7,122.2 226.7,108.5   "/>
  <rect x="228.6" y="111.7" fill="#FFFFFF" width="5.6" height="6.9"/>
  <polygon fill="#F8A265" points="120.2,153.2 127.7,156 135.2,153.2 135.2,138.2 120.2,138.2   "/>
  <path fill="#F2E1BB" d="M138.5,316.1H89v-22h49.5c7,0,12.7-5.7,12.7-12.7h22C173.2,300.5,157.6,316.1,138.5,316.1z"/>
  <path fill="#38B1A5" d="M160.1,356.5c0-6.3-5.2-11.5-11.5-11.5h-32.7l0,11.5H160.1z"/>
  <path fill="#38B1A5" d="M77.8,338.3c6.3,0,11.5-5.2,11.5-11.5l0-32.7l-11.5,0L77.8,338.3z"/>
  <circle fill="#E78A2B" cx="184" cy="366.3" r="6.3"/>
  <circle fill="#E78A2B" cx="83.6" cy="366.3" r="6.3"/>
  
    <line fill="none" stroke="#231F20" stroke-width="3.4754" stroke-linecap="round" stroke-miterlimit="10" x1="210.4" y1="356.5" x2="54.6" y2="356.5"/>
  <polygon fill="#FFFFFF" points="173.3,194.1 173.3,246.5 151.2,246.5 151.2,230.8 138,230.8 138,246.5 115.8,246.5 115.8,194.1   
    "/>
  <g>
    <defs>
      <path id="SVGID_1_" d="M123.9,55.2c0-13.4,10.9-24.3,24.3-24.3c13.4,0,24.3,10.9,24.3,24.3l-21,1.3l0,31.3l-33.7,0.5L123.9,55.2
        L123.9,55.2z"/>
    </defs>
    <clipPath id="SVGID_2_">
      <use xlink:href="#SVGID_1_"  overflow="visible"/>
    </clipPath>
    <g clip-path="url(#SVGID_2_)">
      <circle fill="#E14226" cx="136.2" cy="71.1" r="14.4"/>
      <circle fill="#F4A18D" cx="136.2" cy="71.1" r="7.3"/>
      <rect x="131" y="32.2" fill="#F4A18D" width="8.9" height="27.1"/>
    </g>
  </g>
</g>
<g>
  <g>
    <polygon fill="#874287" points="917.7,185.9 819.5,185.5 819.7,118.9 918,119.3 901.8,152.5     "/>
    <polygon fill="#874287" points="300,117.4 398.2,117.8 398,184.4 299.7,184 315.9,150.8     "/>
  </g>
  <polygon fill="#7A3B7A" points="398,184.4 397.9,149.7 357.6,149.6   "/>
  <polygon fill="#7A3B7A" points="819.5,185.5 819.8,150.9 860.1,151   "/>
  <polygon fill="#A04E9D" points="860.1,151 357.6,149.6 357.8,83 860.3,84.4   "/>
  <g>
    <path fill="#6B266B" d="M439.9,121.9c0,1.9-0.3,3.5-1,5.1c-0.7,1.5-1.5,2.8-2.7,3.9c-1.1,1.1-2.5,1.9-4.1,2.5
      c-1.6,0.6-3.3,0.9-5.1,0.9l-14.2,0L413,96l14.3,0c1.9,0,3.6,0.3,5.2,0.9c1.6,0.6,2.9,1.4,4,2.5c1.1,1.1,2,2.4,2.6,4
      c0.6,1.6,0.9,3.3,0.9,5.2L439.9,121.9z M436,109.3c0-1.8-0.3-3.3-0.8-4.5c-0.6-1.2-1.3-2.2-2.2-3c-0.9-0.8-1.9-1.3-3-1.7
      c-1.1-0.4-2.3-0.5-3.4-0.5l-9.7,0l-0.1,31.4l9.3,0c1.1,0,2.3-0.2,3.5-0.5c1.2-0.3,2.2-0.9,3.1-1.7c0.9-0.8,1.7-1.8,2.3-3
      c0.6-1.2,0.9-2.7,0.9-4.5L436,109.3z"/>
    <path fill="#6B266B" d="M449,122.1l0,2.2c0,1.3,0.2,2.4,0.6,3.3c0.4,0.9,1,1.7,1.7,2.2c0.7,0.6,1.5,1,2.4,1.3
      c0.9,0.3,1.9,0.4,2.9,0.4c1.2,0,2.4-0.2,3.6-0.7c1.2-0.4,2.4-1.2,3.5-2.2l2.3,2.5c-1.3,1.3-2.8,2.2-4.4,2.7
      c-1.6,0.5-3.3,0.8-5.1,0.8c-1.6,0-3-0.2-4.4-0.6c-1.4-0.4-2.5-1-3.5-1.9c-1-0.8-1.8-1.9-2.4-3.1c-0.6-1.3-0.9-2.7-0.9-4.4l0-7.4
      c0-1.6,0.3-3,0.8-4.4s1.3-2.4,2.3-3.3c1-0.9,2.1-1.6,3.4-2.1c1.3-0.5,2.8-0.7,4.4-0.7c1.6,0,3,0.3,4.4,0.7
      c1.3,0.5,2.4,1.2,3.4,2.1c0.9,0.9,1.7,2,2.2,3.3c0.5,1.3,0.8,2.7,0.8,4.2l0,5.2L449,122.1z M463.4,117.4c0-1.3-0.2-2.5-0.6-3.4
      c-0.4-0.9-0.9-1.7-1.6-2.3c-0.7-0.6-1.4-1-2.3-1.3c-0.9-0.3-1.7-0.4-2.6-0.4c-0.9,0-1.8,0.1-2.7,0.4c-0.9,0.3-1.6,0.7-2.3,1.3
      c-0.7,0.6-1.2,1.3-1.6,2.2c-0.4,0.9-0.6,2-0.6,3.2l0,1.8l14.3,0L463.4,117.4z"/>
    <path fill="#6B266B" d="M481.6,129.6l3.5-10.4l4.2-12.1l3.9,0l-9.9,27.4l-3.7,0c-1.7-4.6-3.3-9.1-4.9-13.7
      c-1.6-4.6-3.2-9.1-4.9-13.7l3.9,0l4,11.8c0.4,1.1,0.7,2.2,1.1,3.3c0.4,1.1,0.7,2.1,1,3.1c0.3,1,0.6,1.8,0.8,2.6
      c0.3,0.8,0.5,1.4,0.6,1.8L481.6,129.6z"/>
    <path fill="#6B266B" d="M500.1,122.3l0,2.2c0,1.3,0.2,2.4,0.6,3.3c0.4,0.9,1,1.7,1.7,2.2c0.7,0.6,1.5,1,2.4,1.3
      c0.9,0.3,1.9,0.4,2.9,0.4c1.2,0,2.4-0.2,3.6-0.7c1.2-0.4,2.4-1.2,3.5-2.2l2.3,2.5c-1.3,1.3-2.8,2.2-4.4,2.7
      c-1.6,0.5-3.3,0.8-5.1,0.8c-1.6,0-3-0.2-4.4-0.6s-2.5-1-3.5-1.9c-1-0.8-1.8-1.9-2.4-3.1c-0.6-1.3-0.9-2.7-0.9-4.4l0-7.4
      c0-1.6,0.3-3,0.8-4.4s1.3-2.4,2.3-3.3c1-0.9,2.1-1.6,3.4-2.1c1.3-0.5,2.8-0.7,4.4-0.7c1.6,0,3,0.3,4.4,0.7
      c1.3,0.5,2.4,1.2,3.4,2.1c0.9,0.9,1.7,2,2.2,3.3c0.5,1.3,0.8,2.7,0.8,4.2l0,5.2L500.1,122.3z M514.4,117.6c0-1.3-0.2-2.5-0.6-3.4
      c-0.4-0.9-0.9-1.7-1.6-2.3c-0.7-0.6-1.4-1-2.3-1.3c-0.9-0.3-1.7-0.4-2.6-0.4c-0.9,0-1.8,0.1-2.7,0.4c-0.9,0.3-1.6,0.7-2.3,1.3
      c-0.7,0.6-1.2,1.3-1.6,2.2c-0.4,0.9-0.6,2-0.6,3.2l0,1.8l14.3,0L514.4,117.6z"/>
    <path fill="#6B266B" d="M528.6,127.8c0,1.6,0.3,2.6,1,3.1c0.6,0.4,1.7,0.6,3.3,0.6l0.1,3.4c-0.4,0.1-0.8,0.1-1.2,0.1
      c-0.4,0-0.7,0-1.1,0c-2.2,0-3.7-0.6-4.5-1.7c-0.8-1.1-1.2-2.8-1.2-4.9l0.1-33.5l3.6,0L528.6,127.8z"/>
    <path fill="#6B266B" d="M559.7,125.1c0,1.6-0.3,3-0.8,4.2c-0.6,1.2-1.3,2.3-2.3,3.1c-1,0.8-2.2,1.5-3.5,1.9
      c-1.4,0.4-2.8,0.7-4.4,0.7c-1.6,0-3.1-0.2-4.4-0.7c-1.4-0.4-2.5-1.1-3.5-2c-1-0.9-1.7-1.9-2.3-3.1c-0.6-1.2-0.8-2.6-0.8-4.2l0-8.1
      c0-1.6,0.3-2.9,0.9-4.2c0.6-1.2,1.4-2.3,2.4-3.1c1-0.8,2.2-1.5,3.5-2c1.4-0.5,2.8-0.7,4.3-0.7c1.6,0,3.1,0.2,4.4,0.7
      c1.4,0.5,2.5,1.1,3.5,2c1,0.9,1.7,1.9,2.3,3.1s0.8,2.6,0.8,4.2L559.7,125.1z M556.1,117.7c0-1.3-0.2-2.5-0.7-3.4
      c-0.4-0.9-1-1.7-1.8-2.3c-0.7-0.6-1.5-1-2.4-1.3s-1.7-0.4-2.6-0.4c-0.9,0-1.8,0.1-2.7,0.4c-0.9,0.3-1.7,0.7-2.4,1.3
      c-0.7,0.6-1.3,1.3-1.8,2.3c-0.4,0.9-0.7,2-0.7,3.4l0,6.5c0,1.3,0.2,2.5,0.6,3.4c0.4,0.9,1,1.7,1.6,2.3c0.7,0.6,1.5,1,2.4,1.3
      c0.9,0.3,1.9,0.4,2.9,0.4c0.9,0,1.8-0.1,2.7-0.4c0.9-0.3,1.7-0.7,2.4-1.3c0.7-0.6,1.3-1.3,1.7-2.3c0.4-0.9,0.6-2.1,0.7-3.4
      L556.1,117.7z"/>
    <path fill="#6B266B" d="M568.2,107.4l0.5,3.2c1.2-0.7,2.3-1.3,3.2-1.8c1-0.5,1.8-0.8,2.6-1.1c0.8-0.3,1.4-0.4,2-0.5
      c0.6-0.1,1.1-0.1,1.7-0.1c2.7,0,4.8,0.8,6.4,2.4c1.6,1.6,2.5,4,2.4,7.3l0,8.8c0,3.1-0.9,5.5-2.6,7.2c-1.7,1.7-4.1,2.5-7,2.5
      c-1.1,0-2.3-0.1-3.7-0.3c-1.4-0.2-3.1-0.8-5.1-1.8l0,12.9l-3.6,0l0.1-38.5L568.2,107.4z M568.6,129.5c1.9,0.9,3.5,1.5,4.8,1.8
      c1.3,0.3,2.5,0.5,3.7,0.5c1.9,0,3.5-0.5,4.6-1.5c1.1-1,1.7-2.7,1.7-5.1l0-7.9c0-2.4-0.5-4.1-1.5-5.1c-1-1-2.3-1.5-4.1-1.5
      c-0.6,0-1.2,0.1-2,0.3c-0.8,0.2-1.5,0.4-2.4,0.8c-0.8,0.3-1.6,0.7-2.5,1.2s-1.6,0.9-2.4,1.5L568.6,129.5z"/>
    <path fill="#6B266B" d="M595.9,122.6l0,2.2c0,1.3,0.2,2.4,0.6,3.3c0.4,0.9,1,1.7,1.7,2.2c0.7,0.6,1.5,1,2.4,1.3
      c0.9,0.3,1.9,0.4,2.9,0.4c1.2,0,2.4-0.2,3.6-0.7c1.2-0.4,2.4-1.2,3.5-2.2l2.3,2.5c-1.3,1.3-2.8,2.2-4.4,2.7
      c-1.6,0.5-3.3,0.8-5.1,0.8c-1.6,0-3-0.2-4.4-0.6c-1.4-0.4-2.5-1-3.5-1.9c-1-0.8-1.8-1.9-2.4-3.1c-0.6-1.3-0.9-2.7-0.9-4.4l0-7.4
      c0-1.6,0.3-3,0.8-4.4c0.5-1.3,1.3-2.4,2.3-3.3c1-0.9,2.1-1.6,3.4-2.1c1.3-0.5,2.8-0.7,4.4-0.7c1.6,0,3,0.3,4.4,0.7
      c1.3,0.5,2.4,1.2,3.4,2.1c0.9,0.9,1.7,2,2.2,3.3c0.5,1.3,0.8,2.7,0.8,4.2l0,5.2L595.9,122.6z M610.2,117.9c0-1.3-0.2-2.5-0.6-3.4
      c-0.4-0.9-0.9-1.7-1.6-2.3c-0.7-0.6-1.4-1-2.3-1.3c-0.9-0.3-1.7-0.4-2.6-0.4c-0.9,0-1.8,0.1-2.7,0.4c-0.9,0.3-1.6,0.7-2.3,1.3
      c-0.7,0.6-1.2,1.3-1.6,2.2c-0.4,0.9-0.6,2-0.6,3.2l0,1.8l14.3,0L610.2,117.9z"/>
    <path fill="#6B266B" d="M633.3,111.2c-2.5,0.3-4.6,0.7-6.2,1.5c-1.6,0.7-2.9,1.4-3.8,2l-0.1,20.3l-3.6,0l0.1-27.5l3.2,0l0.4,4.1
      l0.1,0c0.5-0.5,1.2-1,1.9-1.5c0.8-0.5,1.6-1,2.5-1.4c0.9-0.4,1.8-0.7,2.7-1c0.9-0.3,1.9-0.4,2.8-0.5L633.3,111.2z"/>
    <path fill="#6B266B" d="M652.8,135.1l-3.9,0l0.1-38.3l15.5,0c1.9,0,3.5,0.3,4.9,1c1.4,0.7,2.5,1.5,3.4,2.6c0.9,1.1,1.5,2.3,2,3.6
      c0.4,1.4,0.6,2.7,0.6,4c0,1.1-0.2,2.1-0.5,3.2c-0.3,1.1-0.8,2.1-1.4,3c-0.6,0.9-1.4,1.8-2.3,2.5c-0.9,0.7-1.9,1.3-3.1,1.7
      l7.3,16.6l-4.3,0l-6.7-15.9l-11.4,0L652.8,135.1z M652.9,100.4l0,15.2l10.8,0c1.1,0,2.1-0.2,3-0.5c0.9-0.3,1.8-0.8,2.5-1.5
      c0.7-0.6,1.2-1.4,1.6-2.4c0.4-0.9,0.6-2,0.6-3.2c0-1.1-0.2-2.2-0.6-3.1c-0.4-0.9-0.9-1.8-1.6-2.4c-0.7-0.7-1.5-1.2-2.4-1.5
      c-0.9-0.4-2-0.5-3-0.5L652.9,100.4z"/>
    <path fill="#6B266B" d="M683.5,122.9l0,2.2c0,1.3,0.2,2.4,0.6,3.3c0.4,0.9,1,1.7,1.7,2.2c0.7,0.6,1.5,1,2.4,1.3
      c0.9,0.3,1.9,0.4,2.9,0.4c1.2,0,2.4-0.2,3.6-0.7c1.2-0.4,2.4-1.2,3.5-2.2l2.3,2.5c-1.3,1.3-2.8,2.2-4.4,2.7
      c-1.6,0.5-3.3,0.8-5.1,0.8c-1.6,0-3-0.2-4.4-0.6c-1.4-0.4-2.5-1-3.5-1.9c-1-0.8-1.8-1.9-2.4-3.1c-0.6-1.3-0.9-2.7-0.9-4.4l0-7.4
      c0-1.6,0.3-3,0.8-4.4c0.5-1.3,1.3-2.4,2.3-3.3c1-0.9,2.1-1.6,3.4-2.1c1.3-0.5,2.8-0.7,4.4-0.7c1.6,0,3,0.3,4.4,0.7
      c1.3,0.5,2.4,1.2,3.4,2.1c0.9,0.9,1.7,2,2.2,3.3c0.5,1.3,0.8,2.7,0.8,4.2l0,5.2L683.5,122.9z M697.8,118.2c0-1.3-0.2-2.5-0.6-3.4
      c-0.4-0.9-0.9-1.7-1.6-2.3c-0.7-0.6-1.4-1-2.3-1.3c-0.9-0.3-1.7-0.4-2.6-0.4c-0.9,0-1.8,0.1-2.7,0.4c-0.9,0.3-1.6,0.7-2.3,1.3
      c-0.7,0.6-1.2,1.3-1.6,2.2c-0.4,0.9-0.6,2-0.6,3.2l0,1.8l14.3,0L697.8,118.2z"/>
    <path fill="#6B266B" d="M722.3,134.8c-1,0.3-1.9,0.5-2.9,0.6c-1,0.1-1.8,0.2-2.3,0.2c-2.8,0-4.8-0.7-6-1.9
      c-1.2-1.3-1.8-3.4-1.8-6.4l0.1-16l-4.1,0l0-3.4l4.1,0l1-6.4l2.6,0l0,6.4l7.9,0l0,3.4l-7.9,0l0,15c0,2.3,0.4,3.9,1.1,4.7
      c0.8,0.8,1.9,1.3,3.5,1.3c0.6,0,1.2,0,1.9-0.1c0.7-0.1,1.5-0.2,2.3-0.3L722.3,134.8z"/>
    <path fill="#6B266B" d="M740.3,111.6c-2.5,0.3-4.6,0.7-6.2,1.5c-1.6,0.7-2.9,1.4-3.8,2l-0.1,20.3l-3.6,0l0.1-27.5l3.2,0l0.4,4.1
      l0.1,0c0.5-0.5,1.2-1,1.9-1.5s1.6-1,2.5-1.4c0.9-0.4,1.8-0.7,2.7-1c0.9-0.3,1.9-0.4,2.8-0.5L740.3,111.6z"/>
    <path fill="#6B266B" d="M746.7,123.1l0,2.2c0,1.3,0.2,2.4,0.6,3.3c0.4,0.9,1,1.7,1.7,2.2c0.7,0.6,1.5,1,2.4,1.3
      c0.9,0.3,1.9,0.4,2.9,0.4c1.2,0,2.4-0.2,3.6-0.7c1.2-0.4,2.4-1.2,3.5-2.2l2.3,2.5c-1.3,1.3-2.8,2.2-4.4,2.7s-3.3,0.8-5.1,0.8
      c-1.6,0-3-0.2-4.4-0.6c-1.4-0.4-2.5-1-3.5-1.9c-1-0.8-1.8-1.9-2.4-3.1c-0.6-1.3-0.9-2.7-0.9-4.4l0-7.4c0-1.6,0.3-3,0.8-4.4
      c0.5-1.3,1.3-2.4,2.3-3.3c1-0.9,2.1-1.6,3.4-2.1c1.3-0.5,2.8-0.7,4.4-0.7c1.6,0,3,0.3,4.4,0.7c1.3,0.5,2.4,1.2,3.4,2.1
      c0.9,0.9,1.7,2,2.2,3.3c0.5,1.3,0.8,2.7,0.8,4.2l0,5.2L746.7,123.1z M761.1,118.4c0-1.3-0.2-2.5-0.6-3.4c-0.4-0.9-0.9-1.7-1.6-2.3
      c-0.7-0.6-1.4-1-2.3-1.3c-0.9-0.3-1.7-0.4-2.6-0.4c-0.9,0-1.8,0.1-2.7,0.4s-1.6,0.7-2.3,1.3c-0.7,0.6-1.2,1.3-1.6,2.2
      c-0.4,0.9-0.6,2-0.6,3.2l0,1.8l14.3,0L761.1,118.4z"/>
    <path fill="#6B266B" d="M787.2,132.5c-2.4,1.4-4.4,2.3-5.9,2.7s-2.8,0.6-3.9,0.6c-2.6,0-4.7-0.7-6.3-2.1c-1.6-1.4-2.4-3.4-2.4-5.9
      c0-1.5,0.3-2.7,1-3.7c0.7-1,1.5-1.8,2.4-2.5c1-0.6,2-1.1,3.1-1.4c1.1-0.3,2.1-0.4,3.1-0.4l9,0l0-2.4c0-2.1-0.6-3.7-1.7-4.7
      c-1.2-1-2.9-1.5-5.2-1.5c-1.1,0-2.4,0.2-3.8,0.5c-1.4,0.3-2.8,1-4.2,2.1l-1.8-2.8c1.7-1.2,3.4-2.1,5-2.5c1.7-0.4,3.4-0.6,5-0.6
      c3.7,0,6.3,0.8,7.9,2.5s2.4,4,2.4,7l-0.1,18.3l-3.1,0l-0.5-2.9L787.2,132.5z M787.4,122.8l-8.1,0c-0.7,0-1.4,0-2.2,0.1
      c-0.8,0.1-1.5,0.3-2.2,0.7c-0.7,0.4-1.2,0.8-1.7,1.5c-0.4,0.6-0.7,1.5-0.7,2.6c0,1.6,0.5,2.8,1.6,3.6c1.1,0.8,2.4,1.1,3.9,1.2
      c0.7,0,1.5-0.1,2.3-0.3s1.6-0.5,2.4-0.8c0.8-0.3,1.6-0.7,2.4-1.1c0.8-0.4,1.5-0.8,2.1-1.2L787.4,122.8z"/>
    <path fill="#6B266B" d="M812.3,135.1c-1,0.3-1.9,0.5-2.9,0.6c-1,0.1-1.8,0.2-2.3,0.2c-2.8,0-4.8-0.7-6-1.9
      c-1.2-1.3-1.8-3.4-1.8-6.4l0.1-16l-4.1,0l0-3.4l4.1,0l1-6.4l2.6,0l0,6.4l7.9,0l0,3.4l-7.9,0l0,15c0,2.3,0.4,3.9,1.1,4.7
      c0.8,0.8,1.9,1.3,3.5,1.3c0.6,0,1.2,0,1.9-0.1c0.7-0.1,1.5-0.2,2.3-0.3L812.3,135.1z"/>
  </g>
  <g>
    <path fill="#FFFFFF" d="M438.4,120.4c0,1.9-0.3,3.5-1,5.1c-0.7,1.5-1.5,2.8-2.7,3.9c-1.1,1.1-2.5,1.9-4.1,2.5
      c-1.6,0.6-3.3,0.9-5.1,0.9l-14.2,0l0.1-38.3l14.3,0c1.9,0,3.6,0.3,5.2,0.9c1.6,0.6,2.9,1.4,4,2.5c1.1,1.1,2,2.4,2.6,4
      c0.6,1.6,0.9,3.3,0.9,5.2L438.4,120.4z M434.5,107.8c0-1.8-0.3-3.3-0.8-4.5c-0.6-1.2-1.3-2.2-2.2-3c-0.9-0.8-1.9-1.3-3-1.7
      c-1.1-0.4-2.3-0.5-3.4-0.5l-9.7,0l-0.1,31.4l9.3,0c1.1,0,2.3-0.2,3.5-0.5c1.2-0.3,2.2-0.9,3.1-1.7c0.9-0.8,1.7-1.8,2.3-3
      c0.6-1.2,0.9-2.7,0.9-4.5L434.5,107.8z"/>
    <path fill="#FFFFFF" d="M447.5,120.6l0,2.2c0,1.3,0.2,2.4,0.6,3.3c0.4,0.9,1,1.7,1.7,2.2c0.7,0.6,1.5,1,2.4,1.3
      c0.9,0.3,1.9,0.4,2.9,0.4c1.2,0,2.4-0.2,3.6-0.7c1.2-0.4,2.4-1.2,3.5-2.2l2.3,2.5c-1.3,1.3-2.8,2.2-4.4,2.7
      c-1.6,0.5-3.3,0.8-5.1,0.8c-1.6,0-3-0.2-4.4-0.6c-1.4-0.4-2.5-1-3.5-1.9c-1-0.8-1.8-1.9-2.4-3.1c-0.6-1.3-0.9-2.7-0.9-4.4l0-7.4
      c0-1.6,0.3-3,0.8-4.4s1.3-2.4,2.3-3.3c1-0.9,2.1-1.6,3.4-2.1c1.3-0.5,2.8-0.7,4.4-0.7c1.6,0,3,0.3,4.4,0.7
      c1.3,0.5,2.4,1.2,3.4,2.1c0.9,0.9,1.7,2,2.2,3.3c0.5,1.3,0.8,2.7,0.8,4.2l0,5.2L447.5,120.6z M461.9,115.9c0-1.3-0.2-2.5-0.6-3.4
      c-0.4-0.9-0.9-1.7-1.6-2.3c-0.7-0.6-1.4-1-2.3-1.3c-0.9-0.3-1.7-0.4-2.6-0.4c-0.9,0-1.8,0.1-2.7,0.4c-0.9,0.3-1.6,0.7-2.3,1.3
      c-0.7,0.6-1.2,1.3-1.6,2.2c-0.4,0.9-0.6,2-0.6,3.2l0,1.8l14.3,0L461.9,115.9z"/>
    <path fill="#FFFFFF" d="M480,128.1l3.5-10.4l4.2-12.1l3.9,0l-9.9,27.4l-3.7,0c-1.7-4.6-3.3-9.1-4.9-13.7
      c-1.6-4.6-3.2-9.1-4.9-13.7l3.9,0l4,11.8c0.4,1.1,0.7,2.2,1.1,3.3c0.4,1.1,0.7,2.1,1,3.1c0.3,1,0.6,1.8,0.8,2.6
      c0.3,0.8,0.5,1.4,0.6,1.8L480,128.1z"/>
    <path fill="#FFFFFF" d="M498.6,120.8l0,2.2c0,1.3,0.2,2.4,0.6,3.3c0.4,0.9,1,1.7,1.7,2.2c0.7,0.6,1.5,1,2.4,1.3
      c0.9,0.3,1.9,0.4,2.9,0.4c1.2,0,2.4-0.2,3.6-0.7c1.2-0.4,2.4-1.2,3.5-2.2l2.3,2.5c-1.3,1.3-2.8,2.2-4.4,2.7
      c-1.6,0.5-3.3,0.8-5.1,0.8c-1.6,0-3-0.2-4.4-0.6c-1.4-0.4-2.5-1-3.5-1.9c-1-0.8-1.8-1.9-2.4-3.1c-0.6-1.3-0.9-2.7-0.9-4.4l0-7.4
      c0-1.6,0.3-3,0.8-4.4s1.3-2.4,2.3-3.3c1-0.9,2.1-1.6,3.4-2.1c1.3-0.5,2.8-0.7,4.4-0.7c1.6,0,3,0.3,4.4,0.7
      c1.3,0.5,2.4,1.2,3.4,2.1c0.9,0.9,1.7,2,2.2,3.3c0.5,1.3,0.8,2.7,0.8,4.2l0,5.2L498.6,120.8z M512.9,116.1c0-1.3-0.2-2.5-0.6-3.4
      c-0.4-0.9-0.9-1.7-1.6-2.3c-0.7-0.6-1.4-1-2.3-1.3c-0.9-0.3-1.7-0.4-2.6-0.4c-0.9,0-1.8,0.1-2.7,0.4c-0.9,0.3-1.6,0.7-2.3,1.3
      c-0.7,0.6-1.2,1.3-1.6,2.2c-0.4,0.9-0.6,2-0.6,3.2l0,1.8l14.3,0L512.9,116.1z"/>
    <path fill="#FFFFFF" d="M527.1,126.3c0,1.6,0.3,2.6,1,3.1c0.6,0.4,1.7,0.6,3.3,0.6l0.1,3.4c-0.4,0.1-0.8,0.1-1.2,0.1
      c-0.4,0-0.7,0-1.1,0c-2.2,0-3.7-0.6-4.5-1.7c-0.8-1.1-1.2-2.8-1.2-4.9l0.1-33.5l3.6,0L527.1,126.3z"/>
    <path fill="#FFFFFF" d="M558.2,123.6c0,1.6-0.3,3-0.8,4.2c-0.6,1.2-1.3,2.3-2.3,3.1c-1,0.8-2.2,1.5-3.5,1.9
      c-1.4,0.4-2.8,0.7-4.4,0.7c-1.6,0-3.1-0.2-4.4-0.7c-1.4-0.4-2.5-1.1-3.5-2c-1-0.9-1.7-1.9-2.3-3.1c-0.6-1.2-0.8-2.6-0.8-4.2l0-8.1
      c0-1.6,0.3-2.9,0.9-4.2c0.6-1.2,1.4-2.3,2.4-3.1c1-0.8,2.2-1.5,3.5-2c1.4-0.5,2.8-0.7,4.3-0.7c1.6,0,3.1,0.2,4.4,0.7
      c1.4,0.5,2.5,1.1,3.5,2c1,0.9,1.7,1.9,2.3,3.1s0.8,2.6,0.8,4.2L558.2,123.6z M554.6,116.2c0-1.3-0.2-2.5-0.7-3.4
      c-0.4-0.9-1-1.7-1.8-2.3c-0.7-0.6-1.5-1-2.4-1.3s-1.7-0.4-2.6-0.4c-0.9,0-1.8,0.1-2.7,0.4c-0.9,0.3-1.7,0.7-2.4,1.3
      c-0.7,0.6-1.3,1.3-1.8,2.3c-0.4,0.9-0.7,2-0.7,3.4l0,6.5c0,1.3,0.2,2.5,0.6,3.4c0.4,0.9,1,1.7,1.6,2.3c0.7,0.6,1.5,1,2.4,1.3
      c0.9,0.3,1.9,0.4,2.9,0.4c0.9,0,1.8-0.1,2.7-0.4c0.9-0.3,1.7-0.7,2.4-1.3c0.7-0.6,1.3-1.3,1.7-2.3c0.4-0.9,0.6-2.1,0.7-3.4
      L554.6,116.2z"/>
    <path fill="#FFFFFF" d="M566.7,105.9l0.5,3.2c1.2-0.7,2.3-1.3,3.2-1.8c1-0.5,1.8-0.8,2.6-1.1c0.8-0.3,1.4-0.4,2-0.5
      c0.6-0.1,1.1-0.1,1.7-0.1c2.7,0,4.8,0.8,6.4,2.4c1.6,1.6,2.5,4,2.4,7.3l0,8.8c0,3.1-0.9,5.5-2.6,7.2c-1.7,1.7-4.1,2.5-7,2.5
      c-1.1,0-2.3-0.1-3.7-0.3c-1.4-0.2-3.1-0.8-5.1-1.8l0,12.9l-3.6,0l0.1-38.5L566.7,105.9z M567.1,128c1.9,0.9,3.5,1.5,4.8,1.8
      c1.3,0.3,2.5,0.5,3.7,0.5c1.9,0,3.5-0.5,4.6-1.5c1.1-1,1.7-2.7,1.7-5.1l0-7.9c0-2.4-0.5-4.1-1.5-5.1c-1-1-2.3-1.5-4.1-1.5
      c-0.6,0-1.2,0.1-2,0.3c-0.8,0.2-1.5,0.4-2.4,0.8c-0.8,0.3-1.6,0.7-2.5,1.2s-1.6,0.9-2.4,1.5L567.1,128z"/>
    <path fill="#FFFFFF" d="M594.4,121.1l0,2.2c0,1.3,0.2,2.4,0.6,3.3c0.4,0.9,1,1.7,1.7,2.2c0.7,0.6,1.5,1,2.4,1.3
      c0.9,0.3,1.9,0.4,2.9,0.4c1.2,0,2.4-0.2,3.6-0.7c1.2-0.4,2.4-1.2,3.5-2.2l2.3,2.5c-1.3,1.3-2.8,2.2-4.4,2.7
      c-1.6,0.5-3.3,0.8-5.1,0.8c-1.6,0-3-0.2-4.4-0.6c-1.4-0.4-2.5-1-3.5-1.9c-1-0.8-1.8-1.9-2.4-3.1c-0.6-1.3-0.9-2.7-0.9-4.4l0-7.4
      c0-1.6,0.3-3,0.8-4.4c0.5-1.3,1.3-2.4,2.3-3.3c1-0.9,2.1-1.6,3.4-2.1c1.3-0.5,2.8-0.7,4.4-0.7c1.6,0,3,0.3,4.4,0.7
      c1.3,0.5,2.4,1.2,3.4,2.1c0.9,0.9,1.7,2,2.2,3.3c0.5,1.3,0.8,2.7,0.8,4.2l0,5.2L594.4,121.1z M608.7,116.4c0-1.3-0.2-2.5-0.6-3.4
      c-0.4-0.9-0.9-1.7-1.6-2.3c-0.7-0.6-1.4-1-2.3-1.3c-0.9-0.3-1.7-0.4-2.6-0.4c-0.9,0-1.8,0.1-2.7,0.4c-0.9,0.3-1.6,0.7-2.3,1.3
      c-0.7,0.6-1.2,1.3-1.6,2.2c-0.4,0.9-0.6,2-0.6,3.2l0,1.8l14.3,0L608.7,116.4z"/>
    <path fill="#FFFFFF" d="M631.8,109.7c-2.5,0.3-4.6,0.7-6.2,1.5c-1.6,0.7-2.9,1.4-3.8,2l-0.1,20.3l-3.6,0l0.1-27.5l3.2,0l0.4,4.1
      l0.1,0c0.5-0.5,1.2-1,1.9-1.5c0.8-0.5,1.6-1,2.5-1.4c0.9-0.4,1.8-0.7,2.7-1s1.9-0.4,2.8-0.5L631.8,109.7z"/>
    <path fill="#FFFFFF" d="M651.3,133.6l-3.9,0l0.1-38.3l15.5,0c1.9,0,3.5,0.3,4.9,1c1.4,0.7,2.5,1.5,3.4,2.6c0.9,1.1,1.5,2.3,2,3.6
      c0.4,1.4,0.6,2.7,0.6,4c0,1.1-0.2,2.1-0.5,3.2c-0.3,1.1-0.8,2.1-1.4,3c-0.6,0.9-1.4,1.8-2.3,2.5c-0.9,0.7-1.9,1.3-3.1,1.7
      l7.3,16.6l-4.3,0l-6.7-15.9l-11.4,0L651.3,133.6z M651.4,98.9l0,15.2l10.8,0c1.1,0,2.1-0.2,3-0.5c0.9-0.3,1.8-0.8,2.5-1.5
      c0.7-0.6,1.2-1.4,1.6-2.4c0.4-0.9,0.6-2,0.6-3.2c0-1.1-0.2-2.2-0.6-3.1c-0.4-0.9-0.9-1.8-1.6-2.4c-0.7-0.7-1.5-1.2-2.4-1.5
      c-0.9-0.4-2-0.5-3-0.5L651.4,98.9z"/>
    <path fill="#FFFFFF" d="M682,121.4l0,2.2c0,1.3,0.2,2.4,0.6,3.3c0.4,0.9,1,1.7,1.7,2.2c0.7,0.6,1.5,1,2.4,1.3
      c0.9,0.3,1.9,0.4,2.9,0.4c1.2,0,2.4-0.2,3.6-0.7c1.2-0.4,2.4-1.2,3.5-2.2l2.3,2.5c-1.3,1.3-2.8,2.2-4.4,2.7
      c-1.6,0.5-3.3,0.8-5.1,0.8c-1.6,0-3-0.2-4.4-0.6s-2.5-1-3.5-1.9c-1-0.8-1.8-1.9-2.4-3.1c-0.6-1.3-0.9-2.7-0.9-4.4l0-7.4
      c0-1.6,0.3-3,0.8-4.4c0.5-1.3,1.3-2.4,2.3-3.3c1-0.9,2.1-1.6,3.4-2.1c1.3-0.5,2.8-0.7,4.4-0.7c1.6,0,3,0.3,4.4,0.7
      c1.3,0.5,2.4,1.2,3.4,2.1c0.9,0.9,1.7,2,2.2,3.3c0.5,1.3,0.8,2.7,0.8,4.2l0,5.2L682,121.4z M696.3,116.7c0-1.3-0.2-2.5-0.6-3.4
      c-0.4-0.9-0.9-1.7-1.6-2.3c-0.7-0.6-1.4-1-2.3-1.3c-0.9-0.3-1.7-0.4-2.6-0.4c-0.9,0-1.8,0.1-2.7,0.4c-0.9,0.3-1.6,0.7-2.3,1.3
      c-0.7,0.6-1.2,1.3-1.6,2.2c-0.4,0.9-0.6,2-0.6,3.2l0,1.8l14.3,0L696.3,116.7z"/>
    <path fill="#FFFFFF" d="M720.8,133.3c-1,0.3-1.9,0.5-2.9,0.6c-1,0.1-1.8,0.2-2.3,0.2c-2.8,0-4.8-0.7-6-1.9
      c-1.2-1.3-1.8-3.4-1.8-6.4l0.1-16l-4.1,0l0-3.4l4.1,0l1-6.4l2.6,0l0,6.4l7.9,0l0,3.4l-7.9,0l0,15c0,2.3,0.4,3.9,1.1,4.7
      c0.8,0.8,1.9,1.3,3.5,1.3c0.6,0,1.2,0,1.9-0.1c0.7-0.1,1.5-0.2,2.3-0.3L720.8,133.3z"/>
    <path fill="#FFFFFF" d="M738.8,110c-2.5,0.3-4.6,0.7-6.2,1.5c-1.6,0.7-2.9,1.4-3.8,2l-0.1,20.3l-3.6,0l0.1-27.5l3.2,0l0.4,4.1
      l0.1,0c0.5-0.5,1.2-1,1.9-1.5c0.8-0.5,1.6-1,2.5-1.4c0.9-0.4,1.8-0.7,2.7-1c0.9-0.3,1.9-0.4,2.8-0.5L738.8,110z"/>
    <path fill="#FFFFFF" d="M745.2,121.6l0,2.2c0,1.3,0.2,2.4,0.6,3.3c0.4,0.9,1,1.7,1.7,2.2c0.7,0.6,1.5,1,2.4,1.3
      c0.9,0.3,1.9,0.4,2.9,0.4c1.2,0,2.4-0.2,3.6-0.7c1.2-0.4,2.4-1.2,3.5-2.2l2.3,2.5c-1.3,1.3-2.8,2.2-4.4,2.7s-3.3,0.8-5.1,0.8
      c-1.6,0-3-0.2-4.4-0.6s-2.5-1-3.5-1.9c-1-0.8-1.8-1.9-2.4-3.1c-0.6-1.3-0.9-2.7-0.9-4.4l0-7.4c0-1.6,0.3-3,0.8-4.4
      c0.5-1.3,1.3-2.4,2.3-3.3c1-0.9,2.1-1.6,3.4-2.1c1.3-0.5,2.8-0.7,4.4-0.7c1.6,0,3,0.3,4.4,0.7c1.3,0.5,2.4,1.2,3.4,2.1
      c0.9,0.9,1.7,2,2.2,3.3c0.5,1.3,0.8,2.7,0.8,4.2l0,5.2L745.2,121.6z M759.6,116.9c0-1.3-0.2-2.5-0.6-3.4c-0.4-0.9-0.9-1.7-1.6-2.3
      c-0.7-0.6-1.4-1-2.3-1.3c-0.9-0.3-1.7-0.4-2.6-0.4c-0.9,0-1.8,0.1-2.7,0.4c-0.9,0.3-1.6,0.7-2.3,1.3c-0.7,0.6-1.2,1.3-1.6,2.2
      c-0.4,0.9-0.6,2-0.6,3.2l0,1.8l14.3,0L759.6,116.9z"/>
    <path fill="#FFFFFF" d="M785.7,131c-2.4,1.4-4.4,2.3-5.9,2.7s-2.8,0.6-3.9,0.6c-2.6,0-4.7-0.7-6.3-2.1c-1.6-1.4-2.4-3.4-2.4-5.9
      c0-1.5,0.3-2.7,1-3.7c0.7-1,1.5-1.8,2.4-2.5c1-0.6,2-1.1,3.1-1.4c1.1-0.3,2.1-0.4,3.1-0.4l9,0l0-2.4c0-2.1-0.6-3.7-1.7-4.7
      c-1.2-1-2.9-1.5-5.2-1.5c-1.1,0-2.4,0.2-3.8,0.5c-1.4,0.3-2.8,1-4.2,2.1l-1.8-2.8c1.7-1.2,3.4-2.1,5-2.5c1.7-0.4,3.4-0.6,5-0.6
      c3.7,0,6.3,0.8,7.9,2.5s2.4,4,2.4,7l-0.1,18.3l-3.1,0l-0.5-2.9L785.7,131z M785.9,121.3l-8.1,0c-0.7,0-1.4,0-2.2,0.1
      c-0.8,0.1-1.5,0.3-2.2,0.7c-0.7,0.4-1.2,0.8-1.7,1.5c-0.4,0.6-0.7,1.5-0.7,2.6c0,1.6,0.5,2.8,1.6,3.6c1.1,0.8,2.4,1.1,3.9,1.2
      c0.7,0,1.5-0.1,2.3-0.3s1.6-0.5,2.4-0.8c0.8-0.3,1.6-0.7,2.4-1.1c0.8-0.4,1.5-0.8,2.1-1.2L785.9,121.3z"/>
    <path fill="#FFFFFF" d="M810.8,133.6c-1,0.3-1.9,0.5-2.9,0.6c-1,0.1-1.8,0.2-2.3,0.2c-2.8,0-4.8-0.7-6-1.9
      c-1.2-1.3-1.8-3.4-1.8-6.4l0.1-16l-4.1,0l0-3.4l4.1,0l1-6.4l2.6,0l0,6.4l7.9,0l0,3.4l-7.9,0l0,15c0,2.3,0.4,3.9,1.1,4.7
      c0.8,0.8,1.9,1.3,3.5,1.3c0.6,0,1.2,0,1.9-0.1c0.7-0.1,1.5-0.2,2.3-0.3L810.8,133.6z"/>
  </g>
</g>
<g>
  <path fill="#BC6915" d="M568.7,188.5c0,1.8-0.4,3.6-1.2,5.2c-0.8,1.7-1.9,3.2-3.1,4.7c-1.3,1.5-2.7,2.8-4.2,4.1
    c-1.6,1.2-3.1,2.3-4.6,3.3c-1.2,0.8-2.5,1.7-4,2.8c-1.5,1-2.9,2.2-4.2,3.5c-1.3,1.3-2.4,2.7-3.3,4.3c-0.9,1.6-1.3,3.3-1.4,5.1
    l0,2.1l25.7,0.1l0,4.5l-31-0.1l0-5.4c0-2.3,0.4-4.4,1.2-6.3c0.8-1.9,1.9-3.7,3.2-5.3c1.3-1.7,2.9-3.2,4.6-4.5
    c1.7-1.4,3.5-2.7,5.4-3.9c1.5-1,3-2,4.4-3c1.4-1.1,2.6-2.2,3.7-3.4c1-1.2,1.9-2.4,2.5-3.6c0.6-1.2,1-2.5,1-3.9
    c0-1.6-0.3-2.9-0.9-4.1c-0.6-1.1-1.5-2.1-2.5-2.8c-1-0.7-2.2-1.3-3.5-1.6c-1.3-0.4-2.7-0.5-4-0.5c-2.3,0-4.5,0.4-6.4,1.2
    c-1.9,0.8-3.6,1.7-5,2.9c-0.4-0.6-0.9-1.2-1.4-1.9c-0.5-0.7-1-1.4-1.4-1.9c1.6-1.3,3.6-2.5,6-3.5c2.4-1,5-1.5,8-1.5
    c2.1,0,4.1,0.3,6.1,0.7c2,0.5,3.7,1.3,5.3,2.4c1.5,1.1,2.8,2.5,3.7,4.2C568.2,184,568.7,186.1,568.7,188.5z"/>
  <path fill="#BC6915" d="M605.9,215.2c0,2.1-0.4,4-1.3,5.6c-0.9,1.7-2,3.1-3.5,4.2c-1.5,1.2-3.1,2.1-5,2.7c-1.9,0.6-3.9,0.9-5.9,0.9
    c-2.1,0-4.1-0.3-6-1c-1.9-0.6-3.5-1.6-5-2.8c-1.4-1.2-2.6-2.6-3.4-4.3c-0.9-1.7-1.3-3.5-1.3-5.5l0.1-26.3c0-2.1,0.5-4,1.4-5.7
    c0.9-1.7,2.1-3.1,3.5-4.3c1.5-1.2,3.1-2.1,5-2.8c1.9-0.7,3.8-1,5.8-1c2,0,4,0.3,5.9,1c1.9,0.7,3.5,1.6,5,2.8
    c1.4,1.2,2.6,2.6,3.5,4.3c0.9,1.7,1.3,3.6,1.3,5.7L605.9,215.2z M600.9,190.2c0-1.9-0.3-3.5-1-4.8s-1.5-2.4-2.6-3.2
    c-1-0.8-2.1-1.4-3.4-1.8c-1.2-0.4-2.4-0.5-3.6-0.5c-1.1,0-2.3,0.2-3.6,0.5c-1.2,0.4-2.4,0.9-3.4,1.7c-1,0.8-1.9,1.9-2.6,3.2
    c-0.7,1.3-1,2.9-1,4.8l-0.1,23.7c0,1.9,0.3,3.5,1,4.8c0.7,1.3,1.5,2.3,2.6,3.1c1,0.8,2.1,1.4,3.4,1.7c1.2,0.4,2.4,0.5,3.6,0.5
    c1.1,0,2.3-0.2,3.6-0.5c1.2-0.4,2.4-0.9,3.4-1.7c1-0.8,1.9-1.8,2.6-3.1c0.7-1.3,1-2.9,1-4.8L600.9,190.2z"/>
  <path fill="#BC6915" d="M628.6,228.4l0.2-46.5c-0.4,0.3-1,0.7-1.7,1.3c-0.7,0.6-1.5,1.2-2.3,1.8c-0.8,0.6-1.6,1.3-2.3,1.9
    c-0.8,0.6-1.3,1.1-1.7,1.4l-2.7-3.8c0.6-0.5,1.4-1.2,2.4-2c1-0.8,2-1.6,3.1-2.5s2.1-1.6,3.1-2.4c1-0.8,1.8-1.4,2.4-1.9l4.9,0
    l-0.2,52.7L628.6,228.4z"/>
  <path fill="#BC6915" d="M676.5,220.2l0,8.3l-5.2,0l0-8.3l-23.3-0.1l0-4.5c3-6.6,6-13.2,9-19.9s6-13.3,8.9-19.9l5.4,0l-17.7,39.6
    l17.7,0.1l0.1-16.1l5.2,0l-0.1,16.1l4.6,0l0,4.7L676.5,220.2z"/>
</g>
<g>
  <path fill="#FFFFFF" d="M568.7,187c0,1.8-0.4,3.6-1.2,5.2c-0.8,1.7-1.9,3.2-3.1,4.7c-1.3,1.5-2.7,2.8-4.2,4.1
    c-1.6,1.2-3.1,2.3-4.6,3.3c-1.2,0.8-2.5,1.7-4,2.8c-1.5,1-2.9,2.2-4.2,3.5c-1.3,1.3-2.4,2.7-3.3,4.3c-0.9,1.6-1.3,3.3-1.4,5.1
    l0,2.1l25.7,0.1l0,4.5l-31-0.1l0-5.4c0-2.3,0.4-4.4,1.2-6.3c0.8-1.9,1.9-3.7,3.2-5.3c1.3-1.7,2.9-3.2,4.6-4.5
    c1.7-1.4,3.5-2.7,5.4-3.9c1.5-1,3-2,4.4-3c1.4-1.1,2.6-2.2,3.7-3.4c1-1.2,1.9-2.4,2.5-3.6c0.6-1.2,1-2.5,1-3.9
    c0-1.6-0.3-2.9-0.9-4.1c-0.6-1.1-1.5-2.1-2.5-2.8c-1-0.7-2.2-1.3-3.5-1.6c-1.3-0.4-2.7-0.5-4-0.5c-2.3,0-4.5,0.4-6.4,1.2
    c-1.9,0.8-3.6,1.7-5,2.9c-0.4-0.6-0.9-1.2-1.4-1.9c-0.5-0.7-1-1.4-1.4-1.9c1.6-1.3,3.6-2.5,6-3.5c2.4-1,5-1.5,8-1.5
    c2.1,0,4.1,0.3,6.1,0.7c2,0.5,3.7,1.3,5.3,2.4c1.5,1.1,2.8,2.5,3.7,4.2C568.2,182.5,568.7,184.6,568.7,187z"/>
  <path fill="#FFFFFF" d="M605.9,213.7c0,2.1-0.4,4-1.3,5.6c-0.9,1.7-2,3.1-3.5,4.2c-1.5,1.2-3.1,2.1-5,2.7c-1.9,0.6-3.9,0.9-5.9,0.9
    c-2.1,0-4.1-0.3-6-1c-1.9-0.6-3.5-1.6-5-2.8c-1.4-1.2-2.6-2.6-3.4-4.3c-0.9-1.7-1.3-3.5-1.3-5.5l0.1-26.3c0-2.1,0.5-4,1.4-5.7
    c0.9-1.7,2.1-3.1,3.5-4.3c1.5-1.2,3.1-2.1,5-2.8c1.9-0.7,3.8-1,5.8-1c2,0,4,0.3,5.9,1c1.9,0.7,3.5,1.6,5,2.8
    c1.4,1.2,2.6,2.6,3.5,4.3c0.9,1.7,1.3,3.6,1.3,5.7L605.9,213.7z M600.9,188.7c0-1.9-0.3-3.5-1-4.8s-1.5-2.4-2.6-3.2
    c-1-0.8-2.1-1.4-3.4-1.8c-1.2-0.4-2.4-0.5-3.6-0.5c-1.1,0-2.3,0.2-3.6,0.5c-1.3,0.4-2.4,0.9-3.4,1.7c-1,0.8-1.9,1.9-2.6,3.2
    c-0.7,1.3-1,2.9-1,4.8l-0.1,23.7c0,1.9,0.3,3.5,1,4.8c0.7,1.3,1.5,2.3,2.6,3.1c1,0.8,2.1,1.4,3.4,1.7c1.2,0.4,2.4,0.5,3.6,0.5
    c1.1,0,2.3-0.2,3.6-0.5c1.2-0.4,2.4-0.9,3.4-1.7c1-0.8,1.9-1.8,2.6-3.1c0.7-1.3,1-2.9,1-4.8L600.9,188.7z"/>
  <path fill="#FFFFFF" d="M628.6,226.9l0.2-46.5c-0.4,0.3-1,0.7-1.7,1.3c-0.7,0.6-1.5,1.2-2.3,1.8c-0.8,0.6-1.6,1.3-2.3,1.9
    c-0.8,0.6-1.3,1.1-1.7,1.4l-2.7-3.8c0.6-0.5,1.4-1.2,2.4-2c1-0.8,2-1.6,3.1-2.5s2.1-1.6,3.1-2.4c1-0.8,1.8-1.4,2.4-1.9l4.9,0
    l-0.2,52.7L628.6,226.9z"/>
  <path fill="#FFFFFF" d="M676.5,218.7l0,8.3l-5.2,0l0-8.3l-23.3-0.1l0-4.5c3-6.6,6-13.2,9-19.9s6-13.3,8.9-19.9l5.4,0L653.6,214
    l17.7,0.1l0.1-16.1l5.2,0l-0.1,16.1l4.6,0l0,4.7L676.5,218.7z"/>
</g>
<g>
  <g>
    <path fill="#FFFFFF" d="M803.2,334.8h2.2v5.1c2-3,4.9-5.7,9.4-5.7c5.5,0,11.2,4.5,11.2,11.9v0.1c0,7.5-5.6,12-11.2,12
      c-4.6,0-7.6-2.6-9.4-5.5v12.1h-2.2V334.8z M823.6,346.4L823.6,346.4c0-6.1-4.2-10-9-10c-4.8,0-9.4,4-9.4,9.9v0.1
      c0,5.9,4.6,9.8,9.4,9.8C819.6,356.2,823.6,352.5,823.6,346.4z"/>
    <path fill="#FFFFFF" d="M858.2,352.8v4.9H856v-32.8h2.2v15c2-3,4.9-5.7,9.4-5.7c5.5,0,11.2,4.5,11.2,11.9v0.1
      c0,7.5-5.6,12-11.2,12C863,358.3,860.1,355.7,858.2,352.8z M876.4,346.4L876.4,346.4c0-6.1-4.2-10-9-10c-4.8,0-9.4,4-9.4,9.9v0.1
      c0,5.9,4.6,9.8,9.4,9.8C872.4,356.2,876.4,352.5,876.4,346.4z"/>
    <path fill="#FFFFFF" d="M885.4,352.8v4.9h-2.2v-32.8h2.2v15c2-3,4.9-5.7,9.4-5.7c5.5,0,11.2,4.5,11.2,11.9v0.1
      c0,7.5-5.6,12-11.2,12C890.2,358.3,887.3,355.7,885.4,352.8z M903.6,346.4L903.6,346.4c0-6.1-4.2-10-9-10c-4.8,0-9.4,4-9.4,9.9
      v0.1c0,5.9,4.6,9.8,9.4,9.8C899.6,356.2,903.6,352.5,903.6,346.4z"/>
    <path fill="#FFFFFF" d="M910.4,324.9h2.2v32.8h-2.2V324.9z"/>
    <path fill="#FFFFFF" d="M832.9,348.6c0.9,4.8,4.7,7.6,8.8,7.6c3.6,0,6-1.6,7.9-3.6l1.5,1.3c-2.3,2.5-5.1,4.3-9.5,4.3
      c-6,0-11.2-4.8-11.2-12v-0.1c0-6.7,4.7-12,10.9-12c5.2,0,8.9,3.4,10.1,8.4c0.1,0.3,0.1,0.6,0.2,1L832.9,348.6z M848.9,342.3
      c-1.1-3.4-3.6-6-7.7-6c-4.5,0-8.1,3.8-8.5,8.9v1.4L848.9,342.3z"/>
    <path fill="#FFFFFF" d="M919.5,348.6c0.9,4.8,4.7,7.6,8.8,7.6c3.6,0,6-1.6,7.9-3.6l1.5,1.3c-2.3,2.5-5.1,4.3-9.5,4.3
      c-6,0-11.2-4.8-11.2-12v-0.1c0-6.7,4.7-12,10.9-12c5.2,0,8.9,3.4,10.1,8.4c0.1,0.3,0.1,0.6,0.2,1L919.5,348.6z M935.4,342.3
      c-1.1-3.4-3.6-6-7.7-6c-4.5,0-8.1,3.8-8.5,8.9v1.4L935.4,342.3z"/>
  </g>
</g>
</svg>
