<svg xmlns="http://www.w3.org/2000/svg" viewBox="0 0 960 459.6"><path fill="#066AC4" d="M0 0h960v460H0z"/><g opacity=".41" fill="#FFF" stroke="#000" stroke-width="3" stroke-linecap="round" stroke-linejoin="round" stroke-miterlimit="10"><path d="M815.3 220.6c0 3.4-4.5 6.1-10 6.1s-10-6.1-10-6.1 4.5-6.1 10-6.1c5.6 0 10 2.7 10 6.1z"/><path d="M789.5 214.5l6.1 6.2-6.1 6.5z"/></g><g opacity=".41" fill="#FFF" stroke="#000" stroke-width="3" stroke-linecap="round" stroke-linejoin="round" stroke-miterlimit="10"><path d="M840 196.7c0 3.4-4.5 6.1-10 6.1s-10-6.1-10-6.1 4.5-6.1 10-6.1c5.6 0 10 2.7 10 6.1zM813.5 190.6l6.1 6.2-6.1 6.5z"/></g><path fill="none" stroke="#000" stroke-width="3" stroke-linecap="round" stroke-linejoin="round" stroke-miterlimit="10" d="M213.6 190.1c6.2 0 6.2 8 12.4 8s6.2-8 12.4-8 6.2 8 12.4 8 6.2-8 12.4-8 6.2 8 12.4 8M46.6 427.1c6.2 0 6.2 8 12.4 8s6.2-8 12.4-8 6.2 8 12.4 8 6.2-8 12.4-8 6.2 8 12.4 8M443.5 413.3c6.2 0 6.2 8 12.4 8s6.2-8 12.4-8 6.2 8 12.4 8 6.2-8 12.4-8 6.2 8 12.4 8M810.8 417.2c6.2 0 6.2 8 12.4 8s6.2-8 12.4-8 6.2 8 12.4 8 6.2-8 12.4-8 6.2 8 12.4 8" opacity=".25"/><g opacity=".39"><circle fill="#FFF" stroke="#000" stroke-width="3" stroke-linecap="round" stroke-linejoin="round" stroke-miterlimit="10" cx="510.9" cy="163" r="2.4"/><g fill="#FFF" stroke="#000" stroke-width="3" stroke-linecap="round" stroke-linejoin="round" stroke-miterlimit="10"><path d="M383.3 413.7c-43.3 0-78.6-35.3-78.6-78.7 0-8-6.5-14.5-14.5-14.5s-14.5 6.5-14.5 14.5c0 4.2-3.4 7.6-7.6 7.6-4.2 0-7.6-3.4-7.6-7.6 0-16.3 13.3-29.7 29.7-29.7 16.3 0 29.7 13.3 29.7 29.7 0 35 28.5 63.6 63.4 63.6s63.4-28.5 63.4-63.6c0-4.2 3.4-7.6 7.6-7.6 4.2 0 7.6 3.4 7.6 7.6 0 43.4-35.3 78.7-78.6 78.7z"/><path d="M390.7 376.5c-33.1 0-60.2-26.9-60.2-60v-44.1c0-8.6-6.8-15.6-15.4-15.6-8.6 0-15.5 7-15.5 15.6 0 4.2-3.3 7.6-7.5 7.6s-7.6-3.4-7.6-7.6c0-16.9 14-30.7 31-30.7s31 13.8 31 30.7v44.1c0 24.7 19.9 44.9 44.6 44.9 24.7 0 44.7-20.1 44.7-44.9 0-4.2 3.3-7.6 7.5-7.6s7.5 3.4 7.5 7.6c0 33.1-27 60-60.1 60z"/><path d="M454.5 290.5c0-16.2-13.2-29.4-29.4-29.4s-29.4 13.2-29.4 29.4c0 4.2 3.4 7.6 7.6 7.6 4.2 0 7.6-3.4 7.6-7.6 0-7.9 6.4-14.2 14.2-14.2s14.2 6.4 14.2 14.2c0 .5.1 1 .1 1.4-.2.6-.3 1.3-.3 2 0 16.3-13.1 29.5-29.4 29.5s-29.4-13.2-29.4-29.5v-85.2c0-8.2 6.6-14.9 14.8-14.9s14.9 6.7 14.9 14.9c0 4.2 3.4 7.6 7.5 7.6 4.2 0 7.6-3.4 7.6-7.6 0-16.6-13.3-30.1-29.9-30.1s-29.9 13.5-29.9 30.1V294c0 24.6 19.8 44.6 44.4 44.6 24.6 0 44.5-20 44.5-44.6 0-.5-.1-1-.2-1.4.5-.7.5-1.4.5-2.1zM585.2 413.7c43.3 0 78.6-35.3 78.6-78.7 0-8 6.5-14.5 14.5-14.5s14.5 6.5 14.5 14.5c0 4.2 3.4 7.6 7.6 7.6s7.6-3.4 7.6-7.6c0-16.3-13.3-29.7-29.7-29.7-16.3 0-29.7 13.3-29.7 29.7 0 35-28.5 63.6-63.4 63.6S521.7 370 521.7 335c0-4.2-3.4-7.6-7.6-7.6-4.2 0-7.6 3.4-7.6 7.6.1 43.4 35.3 78.7 78.7 78.7z"/><path d="M577.5 376.5c33.1 0 60-26.9 60-60v-44.1c0-8.6 7-15.6 15.6-15.6s15.6 7 15.6 15.6c0 4.2 3.4 7.6 7.6 7.6 4.2 0 7.6-3.4 7.6-7.6 0-16.9-13.7-30.7-30.7-30.7-16.9 0-30.7 13.8-30.7 30.7v44.1c0 24.7-20.2 44.9-44.9 44.9s-44.9-20.1-44.9-44.9c0-4.2-3.4-7.6-7.6-7.6s-7.6 3.4-7.6 7.6c.1 33.1 26.9 60 60 60z"/><path d="M514 290.5c0-16.2 13.2-29.4 29.4-29.4s29.4 13.2 29.4 29.4c0 4.2-3.4 7.6-7.6 7.6-4.2 0-7.6-3.4-7.6-7.6 0-7.9-6.4-14.2-14.2-14.2-7.9 0-14.2 6.4-14.2 14.2 0 .5-.1 1-.1 1.4.2.6.3 1.3.3 2 0 16.3 13.4 29.5 29.6 29.5s29.6-13.2 29.6-29.5v-85.2c0-8.2-6.8-14.9-15.1-14.9s-15 6.7-15 14.9c0 4.2-3.4 7.6-7.6 7.6s-7.6-3.4-7.6-7.6c0-16.6 13.5-30.1 30.1-30.1s30.1 13.5 30.1 30.1V294c0 24.6-20.1 44.6-44.7 44.6s-44.7-20-44.7-44.6c0-.5 0-1 .1-1.4-.1-.7-.2-1.4-.2-2.1z"/></g><path fill="#FFF" stroke="#000" stroke-width="3" stroke-linecap="round" stroke-linejoin="round" stroke-miterlimit="10" d="M481.4 360.9c-28.6 0-47.9-23.2-47.9-51.9l-4-82.5c0-28.6 23.2-51.9 51.9-51.9s51.9 23.2 51.9 51.9l-4 82.5c0 28.7-19.2 51.9-47.9 51.9z"/><circle fill="#FFF" stroke="#000" stroke-width="3" stroke-linecap="round" stroke-linejoin="round" stroke-miterlimit="10" cx="435.2" cy="238.9" r="12.4"/><path fill="none" stroke="#000" stroke-width="3" stroke-linecap="round" stroke-linejoin="round" stroke-miterlimit="10" d="M427.9 238.5c.2-4 3.5-7.1 7.5-6.9s7.1 3.5 6.9 7.5"/><circle cx="435.2" cy="240.5" r="2.4"/><circle fill="#FFF" stroke="#000" stroke-width="3" stroke-linecap="round" stroke-linejoin="round" stroke-miterlimit="10" cx="533.3" cy="238.9" r="12.4"/><path fill="none" stroke="#000" stroke-width="3" stroke-linecap="round" stroke-linejoin="round" stroke-miterlimit="10" d="M526.1 238.5c.2-4 3.5-7.1 7.5-6.9 4 .2 7.1 3.5 6.9 7.5"/><circle cx="533.3" cy="240.5" r="2.4"/><path fill="#FFF" stroke="#000" stroke-width="3" stroke-linecap="round" stroke-linejoin="round" stroke-miterlimit="10" d="M519.2 262c0 11.3-16.9 20.5-37.8 20.5s-37.8-9.2-37.8-20.5"/><g fill="#FFF" stroke="#000" stroke-width="3" stroke-linecap="round" stroke-linejoin="round" stroke-miterlimit="10"><path d="M372.9 404.3c.5-3.4 2.8-6.1 5.8-7.2-.8-.3-1.7-.5-2.6-.6-5-.3-9.4 3.5-9.7 8.5-.3 5 3.5 9.4 8.5 9.7 1.4.1 2.7-.1 3.9-.6-4-1.5-6.5-5.5-5.9-9.8z"/><path d="M366.5 401.5h7v8h-7z"/></g><g fill="#FFF" stroke="#000" stroke-width="3" stroke-linecap="round" stroke-linejoin="round" stroke-miterlimit="10"><path d="M339.9 296.6c3.4.5 6.1 2.8 7.2 5.8.3-.8.5-1.7.6-2.6.3-5-3.5-9.4-8.5-9.7-5-.3-9.4 3.5-9.7 8.5-.1 1.4.1 2.7.6 3.9 1.5-4 5.5-6.5 9.8-5.9z"/><path d="M334.5 290.5h9v6h-9z"/></g><g fill="#FFF" stroke="#000" stroke-width="3" stroke-linecap="round" stroke-linejoin="round" stroke-miterlimit="10"><path d="M371.2 229.3c-3.4-.5-6.1-2.8-7.2-5.8-.3.8-.5 1.7-.6 2.6-.3 5 3.5 9.4 8.5 9.7 5 .3 9.4-3.5 9.7-8.5.1-1.4-.1-2.7-.6-3.9-1.5 4.1-5.5 6.6-9.8 5.9z"/><path d="M368.5 228.5h8v7h-8z"/></g><g fill="#FFF" stroke="#000" stroke-width="3" stroke-linecap="round" stroke-linejoin="round" stroke-miterlimit="10"><path d="M311.1 345.5c-3.4-.5-6.1-2.8-7.2-5.8-.3.8-.5 1.7-.6 2.6-.3 5 3.5 9.4 8.5 9.7 5 .3 9.4-3.5 9.7-8.5.1-1.4-.1-2.7-.6-3.9-1.5 4.1-5.5 6.6-9.8 5.9z"/><path d="M307.5 345.5h9v7h-9z"/></g><g fill="#FFF" stroke="#000" stroke-width="3" stroke-linecap="round" stroke-linejoin="round" stroke-miterlimit="10"><path d="M594 246.3c-3.4-.5-6.1-2.8-7.2-5.8-.3.8-.5 1.7-.6 2.6-.3 5 3.5 9.4 8.5 9.7 5 .3 9.4-3.5 9.7-8.5.1-1.4-.1-2.7-.6-3.9-1.4 4-5.5 6.5-9.8 5.9z"/><path d="M590.5 245.5h9v7h-9z"/></g><g fill="#FFF" stroke="#000" stroke-width="3" stroke-linecap="round" stroke-linejoin="round" stroke-miterlimit="10"><path d="M596.7 279.3c3.4.5 6.1 2.8 7.2 5.8.3-.8.5-1.7.6-2.6.3-5-3.5-9.4-8.5-9.7-5-.3-9.4 3.5-9.7 8.5-.1 1.4.1 2.7.6 3.9 1.4-4.1 5.5-6.6 9.8-5.9z"/><path d="M591.5 272.5h8v7h-8z"/></g><g fill="#FFF" stroke="#000" stroke-width="3" stroke-linecap="round" stroke-linejoin="round" stroke-miterlimit="10"><path d="M630.5 317c3.4.5 6.1 2.8 7.2 5.8.3-.8.5-1.7.6-2.6.3-5-3.5-9.4-8.5-9.7-5-.3-9.4 3.5-9.7 8.5-.1 1.4.1 2.7.6 3.9 1.4-4 5.5-6.5 9.8-5.9z"/><path d="M625.5 310.5h8v7h-8z"/></g><g fill="#FFF" stroke="#000" stroke-width="3" stroke-linecap="round" stroke-linejoin="round" stroke-miterlimit="10"><path d="M671.5 315.4c.6 3.1-.6 6.1-2.8 8.1.8 0 1.7-.1 2.5-.3 4.5-1.2 7.1-5.9 5.9-10.4-1.2-4.5-5.9-7.1-10.4-5.9-1.2.3-2.3.9-3.2 1.7 3.8.1 7.2 2.9 8 6.8z"/><path d="M678.26 316.205l-6.132 2.155-2.52-7.17 6.133-2.155z" stroke-width="3.00012"/></g><g fill="#FFF" stroke="#000" stroke-width="3" stroke-linecap="round" stroke-linejoin="round" stroke-miterlimit="10"><path d="M662.3 254.5c-2.7 2.1-6.2 2.3-9.2 1.1.4.8.9 1.6 1.5 2.3 3.3 3.8 9.1 4.1 12.9.8 3.8-3.3 4.1-9.1.8-12.9-.9-1-2-1.8-3.1-2.3 1.6 3.8.5 8.4-2.9 11z"/><path d="M664.667 261.425l-4.973-4.927 5.77-5.825 4.974 4.927z"/></g><g fill="#FFF" stroke="#000" stroke-width="3" stroke-linecap="round" stroke-linejoin="round" stroke-miterlimit="10"><path d="M410 273.5c-1.3-3.2-.6-6.6 1.4-9.1-.9.1-1.7.4-2.6.8-4.5 2.2-6.4 7.7-4.1 12.2 2.2 4.5 7.7 6.4 12.2 4.1 1.2-.6 2.2-1.4 3-2.4-4.2.7-8.3-1.6-9.9-5.6z"/><path d="M402.618 274.005l6.058-3.507 4.108 7.098-6.06 3.506z"/></g><g fill="#FFF" stroke="#000" stroke-width="3" stroke-linecap="round" stroke-linejoin="round" stroke-miterlimit="10"><path d="M400 330.9c-1.4 3.1-4.3 5.1-7.5 5.4.7.5 1.5 1 2.4 1.3 4.8 1.7 9.9-.9 11.6-5.6 1.7-4.8-.9-9.9-5.6-11.6-1.3-.4-2.6-.6-3.9-.5 3.4 2.5 4.8 7 3 11z"/><path d="M405.52 335.716l-6.75-1.852 2.17-7.908 6.75 1.852z" stroke-width="3.00012"/></g><g fill="#FFF" stroke="#000" stroke-width="3" stroke-linecap="round" stroke-linejoin="round" stroke-miterlimit="10"><path d="M549.4 271.2c-1.4 3.1-4.3 5.1-7.5 5.4.7.5 1.5 1 2.4 1.3 4.8 1.7 9.9-.9 11.6-5.6 1.7-4.8-.9-9.9-5.6-11.6-1.3-.4-2.6-.6-3.9-.5 3.4 2.5 4.7 7 3 11z"/><path d="M554.94 275.972l-6.75-1.852 2.17-7.908 6.75 1.852z" stroke-width="3.00012"/></g><g fill="#FFF" stroke="#000" stroke-width="3" stroke-linecap="round" stroke-linejoin="round" stroke-miterlimit="10"><path d="M373.5 262.4c3.4.6 6 3 7 6 .3-.8.6-1.7.7-2.6.5-5-3.2-9.5-8.2-10-5-.5-9.5 3.2-10 8.2-.1 1.4 0 2.7.5 3.9 1.6-3.9 5.7-6.3 10-5.5z"/><path d="M376.93 255.842l-.213 6.996-8.196-.248.213-6.996z" stroke-width="2.99988"/></g><g fill="#FFF" stroke="#000" stroke-width="3" stroke-linecap="round" stroke-linejoin="round" stroke-miterlimit="10"><path d="M519.5 366.9c-3.4.5-6.6-.9-8.6-3.5-.1.9 0 1.8.2 2.7 1.1 4.9 6 8 10.9 6.9 4.9-1.1 8-6 6.9-10.9-.3-1.3-.9-2.5-1.7-3.5-.2 4.2-3.4 7.7-7.7 8.3z"/><path d="M518.306 374.12l-2.012-6.705 7.854-2.356 2.012 6.703z" stroke-width="2.9999700000000002"/></g><g fill="#FFF" stroke="#000" stroke-width="3" stroke-linecap="round" stroke-linejoin="round" stroke-miterlimit="10"><path d="M291.2 264.8c-2.4-2.4-3.2-5.8-2.4-8.9-.7.5-1.4 1.1-2 1.8-3.2 3.9-2.7 9.6 1.1 12.8 3.9 3.2 9.6 2.7 12.8-1.1.9-1 1.5-2.2 1.8-3.5-3.5 2.3-8.2 2-11.3-1.1z"/><path d="M284.616 268.24l4.132-5.65 6.62 4.84-4.133 5.65z" stroke-width="3.00003"/></g><g fill="#FFF" stroke="#000" stroke-width="3" stroke-linecap="round" stroke-linejoin="round" stroke-miterlimit="10"><path d="M443.2 372c-2.4-2.4-3.2-5.8-2.4-8.9-.7.5-1.4 1.1-2 1.8-3.2 3.9-2.7 9.6 1.1 12.8 3.9 3.2 9.6 2.7 12.8-1.1.9-1 1.5-2.2 1.8-3.5-3.5 2.3-8.2 1.9-11.3-1.1z"/><path d="M436.71 375.36l4.132-5.65 6.62 4.84-4.133 5.65z" stroke-width="3.00003"/></g><g fill="#FFF" stroke="#000" stroke-width="3" stroke-linecap="round" stroke-linejoin="round" stroke-miterlimit="10"><path d="M550.1 200.2c-2.4-2.4-3.2-5.8-2.4-8.9-.7.5-1.4 1.1-2 1.8-3.2 3.9-2.7 9.6 1.1 12.8 3.9 3.2 9.6 2.7 12.8-1.1.9-1 1.5-2.2 1.8-3.5-3.5 2.3-8.2 2-11.3-1.1z"/><path d="M543.65 203.646l4.13-5.65 6.62 4.84-4.132 5.65z" stroke-width="3.00003"/></g><g fill="#FFF" stroke="#000" stroke-width="3" stroke-linecap="round" stroke-linejoin="round" stroke-miterlimit="10"><path d="M571.2 372c-2 2.7-5.3 4-8.5 3.6.6.7 1.3 1.3 2.1 1.8 4.3 2.7 9.9 1.4 12.6-2.9 2.7-4.3 1.4-9.9-2.9-12.6-1.2-.7-2.4-1.1-3.7-1.3 2.7 3.1 3 7.9.4 11.4z"/><path d="M575.517 377.876l-6.162-3.32 3.89-7.22 6.162 3.32z" stroke-width="3.00009"/></g><g fill="#FFF" stroke="#000" stroke-width="3" stroke-linecap="round" stroke-linejoin="round" stroke-miterlimit="10"><path d="M378.9 369.4c-2 2.7-5.3 4-8.5 3.6.6.7 1.3 1.3 2.1 1.8 4.3 2.7 9.9 1.4 12.6-2.9 2.7-4.3 1.4-9.9-2.9-12.6-1.2-.7-2.4-1.1-3.7-1.3 2.7 3.2 3 7.9.4 11.4z"/><path d="M383.16 375.42L377 372.1l3.89-7.218 6.162 3.32z" stroke-width="3.00009"/></g><g fill="#FFF" stroke="#000" stroke-width="3" stroke-linecap="round" stroke-linejoin="round" stroke-miterlimit="10"><path d="M599.5 404.6c-1.2-3.2-.5-6.7 1.6-9.1-.9.1-1.8.4-2.6.8-4.6 2.1-6.6 7.5-4.4 12.1 2.1 4.6 7.5 6.6 12.1 4.4 1.2-.6 2.3-1.4 3.1-2.4-4.2.7-8.3-1.7-9.8-5.8z"/><path d="M592.126 404.992l6.144-3.355 3.93 7.196-6.143 3.355z" stroke-width="2.99988"/></g><g fill="#FFF" stroke="#000" stroke-width="3" stroke-linecap="round" stroke-linejoin="round" stroke-miterlimit="10"><path d="M564.7 286.5c3.3-.9 6.7.1 8.9 2.3 0-.9-.2-1.8-.5-2.7-1.7-4.7-7-7.1-11.7-5.4-4.7 1.7-7.1 7-5.4 11.7.5 1.3 1.2 2.4 2.1 3.3-.3-4.1 2.4-8 6.6-9.2z"/><path d="M564.907 279.115l2.845 6.396-7.493 3.332-2.845-6.396z" stroke-width="2.99988"/></g><circle fill="#FFF" stroke="#000" stroke-width="3" stroke-linecap="round" stroke-linejoin="round" stroke-miterlimit="10" cx="508.6" cy="200.3" r="5.8"/><circle fill="#FFF" stroke="#000" stroke-width="3" stroke-linecap="round" stroke-linejoin="round" stroke-miterlimit="10" cx="516.7" cy="177.6" r="2.4"/><g fill="none" stroke="#000" stroke-width="3" stroke-linecap="round" stroke-linejoin="round" stroke-miterlimit="10"><path d="M271.3 410.1c0 3.9-5.2 7.1-11.6 7.1-6.4 0-11.6-7.1-11.6-7.1s5.2-7.1 11.6-7.1c6.4.1 11.6 3.2 11.6 7.1zM241 403.1l7.1 7.2-7 7.6z"/></g><g stroke="#000" stroke-width="3" stroke-linecap="round" stroke-linejoin="round" stroke-miterlimit="10"><path fill="#066AC4" d="M346 396.1c0 3.9-5.2 7.1-11.6 7.1-6.4 0-11.6-7.1-11.6-7.1s5.2-7.1 11.6-7.1c6.4 0 11.6 3.2 11.6 7.1z"/><path fill="#5081F9" d="M315.7 389.1l7.2 7.1-7.1 7.7z"/></g><g fill="none" stroke="#000" stroke-width="3" stroke-linecap="round" stroke-linejoin="round" stroke-miterlimit="10"><path d="M299.9 382.4c0 3.9-5.2 7.1-11.6 7.1-6.4 0-11.6-7.1-11.6-7.1s5.2-7.1 11.6-7.1c6.4 0 11.6 3.2 11.6 7.1z"/><path d="M269.6 375.3l7.2 7.2-7.1 7.6z"/></g><g fill="none" stroke="#000" stroke-width="3" stroke-linecap="round" stroke-linejoin="round" stroke-miterlimit="10"><path d="M325.2 430.8c0 3.9-5.2 7.1-11.6 7.1-6.4 0-11.6-7.1-11.6-7.1s5.2-7.1 11.6-7.1c6.4 0 11.6 3.1 11.6 7.1zM294.9 423.7l7.1 7.2-7.1 7.6z"/></g><g><path fill="#FFF" stroke="#000" stroke-width="3" stroke-linecap="round" stroke-linejoin="round" stroke-miterlimit="10" d="M695.5 330.2c0-10.9 8.7-19.8 19.6-20 11.2-.2 20.4 9.2 20.4 20.5v35.8h-33.1c-3.7 0-6.9-3.5-6.9-7.2v-29.1z"/><path fill="#FFF" stroke="#000" stroke-width="3" stroke-linecap="round" stroke-linejoin="round" stroke-miterlimit="10" d="M745.1 358.5c.4 0-.3 0 0 0 4.5 0 8.4 3 8.4 8h-28v-8h19.6z"/><g fill="#FFF" stroke="#000" stroke-width="3" stroke-linecap="round" stroke-linejoin="round" stroke-miterlimit="10"><path d="M665.1 371.4h9.9c7.1 0 12.8-5.7 12.8-12.8v-.9h-13c-5.3 0-9.7 4.3-9.7 9.6v4.1z"/><path d="M665.2 371.4h-9.9c-7.1 0-12.8-5.7-12.8-12.8v-.9h13c5.3 0 9.6 4.3 9.6 9.7l.1 4z"/></g><path fill="#FFF" stroke="#000" stroke-width="3" stroke-linecap="round" stroke-linejoin="round" stroke-miterlimit="10" d="M700.8 371.4c0 8.2-6.6 14.8-14.8 14.8s-14.8-6.6-14.8-14.8h-9.6c0 19.1 15.5 35.6 34.6 35.6s34.6-15.5 34.6-34.6"/><path fill="#FFF" stroke="#000" stroke-width="3" stroke-linecap="round" stroke-linejoin="round" stroke-miterlimit="10" d="M730.5 349.6c0-7.8-6.3-14.1-14.1-14.1h-1.7c-7.8 0-14.1 6.3-14.1 14.1v21.7c0 7.8 6.3 14.1 14.1 14.1h1.7c7.8 0 14.1-6.3 14.1-14.1v-21.7z"/><g fill="none" stroke="#000" stroke-width="3" stroke-linecap="round" stroke-linejoin="round" stroke-miterlimit="10"><path d="M720 351.9c0 3 2.4 5.4 5.4 5.4s5.4-2.4 5.4-5.4M709.2 351.9c0 3 2.4 5.4 5.4 5.4s5.4-2.4 5.4-5.4"/></g><circle cx="719.9" cy="372.4" r="1.1"/><circle fill="#FFF" stroke="#000" stroke-width="3" stroke-linecap="round" stroke-linejoin="round" stroke-miterlimit="10" cx="718.7" cy="323.9" r="12.4"/><path fill="none" stroke="#000" stroke-width="3" stroke-linecap="round" stroke-linejoin="round" stroke-miterlimit="10" d="M709.5 348v35"/><circle cx="724.2" cy="321.1" r="1.1"/><circle cx="717.8" cy="321.1" r="1.1"/><path fill="#FFF" stroke="#000" stroke-width="3" stroke-linecap="round" stroke-linejoin="round" stroke-miterlimit="10" d="M715.5 327.8c0 1.1 2.5 3.1 5.5 3.1s5.5-2 5.5-3.1-2.5-1-5.5-1-5.5-.1-5.5 1z"/><path fill="none" stroke="#000" stroke-width="3" stroke-linecap="round" stroke-linejoin="round" stroke-miterlimit="10" d="M753.5 366l53.8-21.1"/><path fill="#FFF" stroke="#000" stroke-width="3" stroke-linecap="round" stroke-linejoin="round" stroke-miterlimit="10" d="M795.5 330.5h23v14h-23z"/><path fill="#FFF" stroke="#000" stroke-width="3" stroke-linecap="round" stroke-linejoin="round" stroke-miterlimit="10" d="M800.5 334.5h11v6h-11z"/><path fill="none" stroke="#000" stroke-width="3" stroke-linecap="round" stroke-linejoin="round" stroke-miterlimit="10" d="M781 336.5h7M786 326l4.9 5M785.7 346.5l5-4.8"/><path fill="#FFF" stroke="#000" stroke-width="3" stroke-linecap="round" stroke-linejoin="round" stroke-miterlimit="10" d="M698.5 366.5h6v5h-6z"/><path fill="none" stroke="#000" stroke-width="3" stroke-linecap="round" stroke-linejoin="round" stroke-miterlimit="10" d="M704 369.5h5"/><circle cx="815.1" cy="337.9" r="1.5"/></g></g><g opacity=".32" fill="#FFF" stroke="#000" stroke-width="3" stroke-linecap="round" stroke-linejoin="round" stroke-miterlimit="10"><path d="M907.8 370l-21.8 8-8.6-37.8 12.3-4.6z"/><path d="M924.8 363.7l-21.8 8.1-8.6-37.9 12.3-4.6zM913.9 367.7l-3.7-10M896.9 374l-3.7-10M884.9 341.5c-3.5 1.3-7.4-.5-8.7-4l-13-35.2 12.6-4.7 13 35.2c1.3 3.5-.4 7.4-3.9 8.7z"/><path d="M901.8 335.2c-3.5 1.3-7.4-.5-8.7-4l-13-35.2 12.6-4.7 13 35.2c1.4 3.5-.4 7.4-3.9 8.7zM843.7 259.1l1.9-4.2-4.7-12.6c-3.3-8.9 1.2-18.7 10.1-22 8.9-3.3 18.7 1.2 22 10.1l4.7 12.6 3.8 2.1-37.8 14z"/><path d="M868.5 229.2l-1.8.7c-3-4.5-8.7-6.6-14-4.6-5.3 2-8.3 7.3-7.6 12.6l-1.8.7 1.7 4.7 1.7-.6c2.9 4.7 8.8 6.9 14.2 4.9s8.5-7.5 7.6-12.9l1.7-.6-1.7-4.9zM849 227.6l7.6 20.5M857.1 224.6l7.6 20.5M865.6 228.5l-20.5 7.6M868.6 236.6l-20.5 7.6"/><path d="M842.74 247.212l-1.78.66-1.84-4.972 1.782-.66zM846.824 258.03l30.95-11.45 13.048 35.264-30.95 11.45zM858.114 293.98l33.295-12.32 3.053 8.255-33.296 12.318z" stroke-width="3.00009"/><path d="M862.6 292.2l3.1 8.3M868.7 290l3 8.3M874.8 287.8l3 8.2M880.8 285.5l3.1 8.3M886.9 283.3l3 8.2"/><circle cx="876.6" cy="263.6" r="1.9"/><circle cx="879.3" cy="271" r="1.9"/><path d="M853.8 277l-24.2 9-3-8c-1.8-4.9.7-10.3 5.6-12.1l15.4-5.7 6.2 16.8zM849.7 269l-14.9 5.5"/><path d="M842.586 269.16l3.752-1.388 1.526 4.127-3.75 1.387zM844.917 273.634l2.626-.97 2.568 6.94-2.625.97z" stroke-width="3.00009"/><path d="M852.2 277.6l10.4-3.8c-1.7-4.6-6.9-7-11.5-5.3l-2 .7 3.1 8.4z"/><path d="M877.916 246.52l33.108-12.248 2.846 7.69-33.108 12.25z" stroke-width="3.00009"/><path d="M921.7 239.3l-7.8 2.8-4.5-12.2 2.2-.9 2.9 3.9 6.6-2.5zM894.1 290l-7.7 13.9c-1.9 3.4-6 4.9-9.6 3.5l-14.9-5.6 32.2-11.8z"/></g><g opacity=".41" fill="#FFF" stroke="#000" stroke-width="3" stroke-linecap="round" stroke-linejoin="round" stroke-miterlimit="10"><path d="M925.2 273.2c0 1.9-2.5 3.4-5.6 3.4-3.1 0-5.6-3.4-5.6-3.4s2.5-3.4 5.6-3.4c3.1 0 5.6 1.5 5.6 3.4zM910.5 269.8l3.4 3.4-3.4 3.7z"/></g><g opacity=".41" fill="#FFF" stroke="#000" stroke-width="3" stroke-linecap="round" stroke-linejoin="round" stroke-miterlimit="10"><path d="M938.9 259.9c0 1.9-2.5 3.4-5.6 3.4-3.1 0-5.6-3.4-5.6-3.4s2.5-3.4 5.6-3.4c3.2 0 5.6 1.5 5.6 3.4z"/><path d="M924.5 256.5l3.4 3.4-3.4 3.7z"/></g><g fill="#FCFF7B"><path d="M41.8 294.8h-4.4c-1.6 0-3-1.3-3-2.8v-21.7c0-1.5 1.4-2.8 3-2.8h4.4c8.7 0 11.7 4.8 11.7 10.1v6.6c0 5.6-3 10.6-11.7 10.6zm6.3-17c0-2.9-1.5-5.2-5.7-5.2h-2.6V290h2.6c4.2 0 5.7-2.5 5.7-5.5v-6.7zM71.2 294.8H61c-1.9 0-3.6-.7-3.6-2.7v-21.7c0-1.3 1.3-2.7 3-2.7h10.4c1.5 0 2.7 1.2 2.7 2.5 0 1.4-1.2 2.4-2.7 2.4h-8v6.2h7.3c1.3 0 2.7 1 2.7 2.4s-1.2 2.5-2.7 2.5h-7.3v6.3h8.4c1.4 0 2.7 1.1 2.7 2.4 0 1.3-1.3 2.4-2.7 2.4zM92.3 269.1c.4-1.1 1.6-1.8 2.6-1.8 1.6 0 2.8 1 2.8 2.5 0 .2 0 .7-.1.8l-7.5 21.9c-.5 1.5-1.3 2.6-3.2 2.6s-2.6-1.1-3.1-2.6l-7.5-21.9c-.1-.2-.1-.7-.1-.8 0-1.5 1.3-2.5 2.8-2.5.9 0 2.2.7 2.5 1.8l4.7 14.9c.3 1.1.5 2.6.7 3.8.2-1.2.3-2.7.7-3.8l4.7-14.9zM114.7 294.8h-10.2c-1.9 0-3.6-.7-3.6-2.7v-21.7c0-1.3 1.3-2.7 3-2.7h10.4c1.5 0 2.7 1.2 2.7 2.5 0 1.4-1.2 2.4-2.7 2.4h-8v6.2h7.3c1.3 0 2.7 1 2.7 2.4s-1.2 2.5-2.7 2.5h-7.3v6.3h8.4c1.4 0 2.7 1.1 2.7 2.4-.1 1.3-1.3 2.4-2.7 2.4zM134.4 294.8h-10.9c-1.5 0-2.9-1.2-2.9-2.7v-22.4c0-1.3 1.2-2.5 2.7-2.5 1.5 0 2.7 1.2 2.7 2.5V290h8.4c1.4 0 2.6 1 2.6 2.4s-1.1 2.4-2.6 2.4zM139 285v-7.6c0-5.5 2.8-10.1 10-10.1s10 4.6 10 10.1v7.6c0 5.6-3.4 10.1-10 10.1s-10-4.4-10-10.1zm5.4-7.6v7.6c0 3.1 1.5 5.2 4.6 5.2s4.6-2.2 4.6-5.2v-7.6c0-3.1-1.2-5.2-4.6-5.2-3.4 0-4.6 2.1-4.6 5.2zM168.5 285.6v7.1c0 1.3-1.2 2.5-2.7 2.5-1.4 0-2.7-1.2-2.7-2.5v-22.2c0-1.5 1.4-2.8 3-2.8h5.7c7.2 0 9.8 4.3 9.8 9 0 5.7-3.9 8.9-9.8 8.9h-3.3zm0-4.9h3.3c2.9 0 4.4-1.3 4.4-4 0-2-.8-4.1-4.4-4.1h-3.3v8.1zM198.9 294.8h-10.2c-1.9 0-3.6-.7-3.6-2.7v-21.7c0-1.3 1.3-2.7 3-2.7h10.4c1.5 0 2.7 1.2 2.7 2.5 0 1.4-1.2 2.4-2.7 2.4h-8v6.2h7.3c1.3 0 2.7 1 2.7 2.4s-1.2 2.5-2.7 2.5h-7.3v6.3h8.4c1.4 0 2.7 1.1 2.7 2.4 0 1.3-1.2 2.4-2.7 2.4zM218.8 283.2l5.3 7.9c1.3 1.9-.6 4-2.4 4-1 0-1.8-.4-2.3-1.2l-6.5-10.1h-2.6v8.8c0 1.3-1.3 2.5-2.7 2.5-1.4 0-2.7-1.2-2.7-2.5v-22.2c0-1.5 1.3-2.8 2.9-2.8h6.7c7.2 0 9.6 4.1 9.6 8.2 0 3.8-2 6.4-5.3 7.4zm-4.4-10.6h-4.1v6.4h4.3c2.7 0 4.1-1.1 4.1-3.1 0-1.7-.8-3.3-4.3-3.3zM48.3 329.5l5.3 7.9c1.3 1.9-.6 4-2.4 4-1 0-1.8-.4-2.3-1.2l-6.5-10.1h-2.6v8.8c0 1.3-1.3 2.5-2.7 2.5-1.4 0-2.7-1.2-2.7-2.5v-22.2c0-1.5 1.3-2.8 2.9-2.8H44c7.2 0 9.6 4.1 9.6 8.2 0 3.8-2 6.3-5.3 7.4zm-4.4-10.7h-4.1v6.4h4.3c2.7 0 4.1-1.1 4.1-3.1 0-1.6-.8-3.3-4.3-3.3zM71.6 341.1H61.3c-1.9 0-3.6-.7-3.6-2.7v-21.7c0-1.3 1.3-2.7 3-2.7h10.4c1.5 0 2.7 1.2 2.7 2.5 0 1.4-1.2 2.4-2.7 2.4h-8v6.2h7.3c1.3 0 2.7 1 2.7 2.4s-1.2 2.5-2.7 2.5h-7.3v6.3h8.4c1.4 0 2.7 1.1 2.7 2.4.1 1.3-1.2 2.4-2.6 2.4zM83.4 318.8h-4.1c-1.5 0-2.7-1.1-2.7-2.4 0-1.1 1.2-2.5 2.7-2.5h13.6c1.4 0 2.7 1.1 2.7 2.5 0 1.3-1.3 2.4-2.7 2.4h-4.1V339c0 1.3-1.2 2.5-2.7 2.5-1.5 0-2.7-1.2-2.7-2.5v-20.2zM112.6 329.5l5.3 7.9c1.3 1.9-.6 4-2.4 4-1 0-1.8-.4-2.3-1.2l-6.5-10.1h-2.6v8.8c0 1.3-1.3 2.5-2.7 2.5-1.4 0-2.7-1.2-2.7-2.5v-22.2c0-1.5 1.3-2.8 2.9-2.8h6.7c7.2 0 9.6 4.1 9.6 8.2.1 3.8-2 6.3-5.3 7.4zm-4.3-10.7h-4.1v6.4h4.3c2.7 0 4.1-1.1 4.1-3.1 0-1.6-.8-3.3-4.3-3.3zM135.9 341.1h-10.2c-1.9 0-3.6-.7-3.6-2.7v-21.7c0-1.3 1.3-2.7 3-2.7h10.4c1.5 0 2.7 1.2 2.7 2.5 0 1.4-1.2 2.4-2.7 2.4h-8v6.2h7.3c1.3 0 2.7 1 2.7 2.4s-1.2 2.5-2.7 2.5h-7.3v6.3h8.4c1.4 0 2.7 1.1 2.7 2.4 0 1.3-1.2 2.4-2.7 2.4zM146.4 339.6c-.4 1.1-1.6 1.8-2.5 1.8-1.5 0-2.8-1-2.8-2.5 0-.2 0-.7.1-.8l7.5-21.9c.5-1.5 1.3-2.6 3.1-2.6s2.6 1.1 3.2 2.6l7.5 21.9c.1.2.1.7.1.8 0 1.5-1.2 2.5-2.8 2.5-1 0-2.2-.7-2.6-1.8l-1.3-3.9h-8.2l-1.3 3.9zm6.1-14.9c-.3-1.1-.5-2.6-.7-3.8-.2 1.2-.3 2.7-.7 3.8l-2 6.6h5.4l-2-6.6zM168.1 318.8H164c-1.5 0-2.7-1.1-2.7-2.4 0-1.1 1.2-2.5 2.7-2.5h13.6c1.4 0 2.7 1.1 2.7 2.5 0 1.3-1.3 2.4-2.7 2.4h-4.1V339c0 1.3-1.2 2.5-2.7 2.5-1.5 0-2.7-1.2-2.7-2.5v-20.2zM48.8 387.3H36.1c-1.6 0-2.7-1.1-2.7-2.5 0-.5 0-1.2.3-1.8 1.5-3.4 4.4-5.9 7.1-8.3 2.1-1.9 5.2-4.1 5.2-7 0-2-1.2-3.5-3.6-3.5-1.3 0-2.3.2-3.2.6-.8.3-1.6 1-2.7 1-1.3 0-2.6-.9-2.6-2.4 0-2.8 5.5-4 8.6-4 5.6 0 8.9 3.5 8.9 7.8 0 3.3-1.3 5.4-3 7.3-2.6 2.7-6 5.1-8.1 7.9h8.6c1.5 0 2.7 1 2.7 2.4-.2 1.5-1.3 2.5-2.8 2.5zM72.1 368.7v10.6c0 4.7-3.2 8.4-8.9 8.4s-8.9-3.7-8.9-8.4v-10.6c0-5.1 2.7-9.2 8.9-9.2s8.9 4.1 8.9 9.2zm-12.4-.3v10.9c0 2.2 1.2 3.7 3.5 3.7s3.5-1.5 3.5-3.7v-10.9c0-2.5-1-4.2-3.5-4.2s-3.5 1.7-3.5 4.2zM83.7 366.5l-3 1.8c-.7.5-1.4.8-2.3.8-1.2 0-2.5-.6-2.5-2.2 0-1 .5-1.7 1.2-2.2l7.6-4.5c.5-.3 1-.4 1.5-.4 1.6 0 2.9 1.1 2.9 2.6v22.8c0 1.3-1.2 2.5-2.7 2.5-1.5 0-2.7-1.2-2.7-2.5v-18.7zM104.7 387.7c-1.8 0-8.6-.5-8.6-3.7 0-1.3 1.1-2.4 2.6-2.4s2.6 1.4 5.2 1.4c3.4 0 4.5-2.3 4.5-4.5 0-2.9-1.6-4.2-3.7-4.2-.8 0-1.5.2-2.1.5 0 0-1.5 1.2-2.8 1.2-1.5 0-2.7-1.1-2.7-2.6l.4-10.6c0-1.6 1.5-2.6 2.9-2.6h9.3c1.4 0 2.9.7 2.9 2.4s-1.5 2.4-2.9 2.4h-7.2l-.2 5c.8-.2 1.7-.3 2.5-.3 5.3 0 9 3.2 9 8.7-.2 4.4-2.8 9.3-9.1 9.3z"/></g><g fill="#FCFF7B"><path d="M46.4 226.9c-6.6 0-12-5.3-12-11.9 0-6.6 5.3-12 11.9-12 6.6 0 12 5.3 12 11.9 0 6.5-5.3 11.9-11.9 12zm-.1-21.8c-5.4 0-9.8 4.5-9.7 9.9 0 5.4 4.5 9.8 9.9 9.7 5.4 0 9.8-4.5 9.7-9.9s-4.5-9.7-9.9-9.7z"/><path d="M34.342 215.01l2.1-.012.117 19.2-2.1.013zM103 226.3c-7 0-12-4.8-12-11.9 0-6.6 5.3-12 11.9-12 6.6 0 12 5.3 12 11.9 0 6.6-5.3 12-11.9 12zm-.2-21.7c-5.4 0-9.8 4.5-9.7 9.9 0 5.9 4 9.8 9.9 9.7 5.4 0 9.8-4.5 9.7-9.9 0-5.4-4.5-9.7-9.9-9.7z"/><path d="M90.843 195.21l2.1-.012.117 19.2-2.1.012zM130.9 226.2c-7 0-12-4.8-12-11.9 0-6.6 5.3-12 11.9-12 6.6 0 12 5.3 12 11.9s-5.3 11.9-11.9 12zm-.1-21.8c-5.4 0-9.8 4.5-9.7 9.9 0 5.9 4 9.8 9.9 9.7 5.4 0 9.8-4.5 9.7-9.9-.1-5.3-4.5-9.7-9.9-9.7z"/><path d="M118.744 195.11l2.1-.012.117 19.2-2.1.012zM152.9 225.9c-3 0-5.5-2.4-5.5-5.4l-.2-25.6h2.1l.2 25.6c0 1.8 1.5 3.3 3.4 3.3v2.1zM84.2 216.2c-.7 4.1-3.9 7.3-8 8-2.6.5-5.3-.1-7.5-1.6-1.9-1.3-3.3-3.2-3.9-5.4l21.7-4-.2-1.1c-1.2-6.6-7.5-11-14.1-9.8-3.2.6-6 2.4-7.8 5-1.8 2.7-2.5 5.9-2 9.1.6 3.2 2.4 6 5 7.8 2.1 1.4 4.5 2.2 7 2.2.7 0 1.4-.1 2.1-.2 5.3-1 9.3-5.2 9.9-10.5h-.1l-2.1.5zm-18.1-7.5c1.5-2.2 3.8-3.7 6.4-4.2.6-.1 1.2-.2 1.7-.2 4.4 0 8.4 2.9 9.7 7.2l-19.6 3.6c-.1-2.3.5-4.5 1.8-6.4zM176.3 215.6c-.7 4.1-3.9 7.3-8 8-2.6.5-5.3-.1-7.5-1.6-1.9-1.3-3.3-3.2-3.9-5.4l21.7-4-.2-1.1c-1.2-6.6-7.5-11-14.1-9.8-6.6 1.2-11 7.5-9.8 14.1.6 3.2 2.4 6 5 7.8 2.1 1.4 4.5 2.2 7 2.2.7 0 1.4-.1 2.1-.2 5.3-1 9.2-5.2 9.9-10.5h-.1l-2.1.5zM164.7 204c.6-.1 1.2-.2 1.7-.2 4.4 0 8.4 2.9 9.7 7.2l-19.6 3.6c-.4-5.1 3.1-9.7 8.2-10.6z"/></g><path fill="none" stroke="#FCFF7B" stroke-width="3" stroke-linecap="round" stroke-miterlimit="10" d="M31 252.3h173.6"/><g fill="none" stroke="#AD0D09" stroke-width="3" stroke-linecap="round" stroke-linejoin="round" stroke-miterlimit="10"><path d="M759.8 47.2c0 38.3-31 69.3-69.3 69.3s-69.3-31-69.3-69.3M621.1 47.2c0 34.2-24.8 62.7-57.4 68.3M829.1 116.5c-38.3 0-69.3-31-69.3-69.3M566 117.5h288M621.5 48v97M759.5 48v89"/><g><path d="M575.5 114v3M581.5 110v7M588.5 107v10M594.5 103v14M601.5 97v20M607.5 89v28M613.5 78v39"/><g><path d="M666.5 114v3M660.5 110v7M654.5 107v10M647.5 103v14M640.5 97v20M634.5 89v28M628.5 78v39"/></g></g><g><path d="M714.5 114v3M720.5 110v7M727.5 107v10M733.5 102v15M740.5 97v20M746.5 89v28M753.5 78v39"/><g><path d="M805.5 114v3M799.5 110v7M793.5 107v10M787.5 102v15M779.5 97v20M773.5 89v28M767.5 78v39"/></g></g></g><path fill="none" stroke="#243B6D" stroke-width="3" stroke-linecap="round" stroke-linejoin="round" stroke-miterlimit="10" d="M1 136.4c10 0 10 8 20 8s10-8 20-8 10 8 20 8 10-8 20-8 10 8 20 8 10-8 20-8 10 8 20 8 10-8 20-8 10 8 20 8 10-8 20-8 10 8 20 8 10-8 20-8 10 8 20 8 10-8 20-8 10 8 20 8 10-8 20-8 10 8 20 8 10-8 20-8 10 8 20 8 10-8 20-8 10 8 20 8 10-8 20-8 10 8 20 8 10-8 20-8 10 8 20 8 10-8 20-8 10 8 20 8 10-8 20-8 10 8 20 8 10-8 20-8 10 8 20 8 10-8 20-8 10 8 20 8 10-8 20-8 10 8 20 8 10-8 20-8 10 8 20 8 10-8 20-8 10 8 20 8 10-8 20-8 10 8 20 8 10-8 20-8 10 8 20 8 10-8 20-8 10 8 20 8 10-8 20-8 10 8 20 8 10-8 20-8"/><g opacity=".76" fill="#FFF" stroke="#000" stroke-width="3" stroke-linecap="round" stroke-linejoin="round" stroke-miterlimit="10"><path d="M566.6 123.5c0-14-11.1-22.8-24.8-22.8-3.9 0-7.6.8-10.9 2.4-6.1-16.6-22.1-28.4-40.8-28.4-15.5 0-29 8.1-36.8 20.3-6.2-4.6-13.8-7.2-22-7.2-20.4 0-37 14.7-37 35.7h172.3zM148.9 109.5c0-9-6.9-14.3-15.4-14.3-2.4 0-4.7.4-6.7 1.4-3.8-10.3-13.7-17.7-25.3-17.7-9.6 0-18 5-22.8 12.6-3.8-2.8-8.5-4.3-13.7-4.3-12.7 0-23 9.3-23 22.3h106.9zM851.2 123.5c0-14 11.1-22.8 24.8-22.8 3.9 0 7.6.8 10.9 2.4 6.1-16.6 22.1-28.4 40.8-28.4 15.5 0 29 8.1 36.8 20.3 6.2-4.6 13.8-7.2 22-7.2 20.4 0 37 14.7 37 35.7H851.2z"/><path d="M898.6 105.1c-1.8 0-3.5.3-5 .8-1.2-5.4-6-9.5-11.8-9.5-2.5 0-4.9.8-6.8 2.1-1.7-8.4-9.1-14.7-18-14.7-10.1 0-18.4 8.4-18.4 18.5 0 3.7 1.1 7.1 3 10.1H911c-2.5-4.9-7.1-7.3-12.4-7.3zM918 112.5h-69M49.9 105.1c-1.8 0-3.5.3-5 .8-1.2-5.4-6-9.5-11.8-9.5-2.5 0-4.9.8-6.8 2.1-1.7-8.4-9.1-14.7-18-14.7-10.1 0-18.4 8.4-18.4 18.5 0 3.7 1.1 7.1 3 10.1h69.4c-2.5-4.9-7.1-7.3-12.4-7.3zM70 112.5H0"/><g><path d="M291.8 104.1c2 0 3.9.3 5.7 1 1.4-6.2 6.8-10.8 13.4-10.8 2.9 0 5.6.9 7.8 2.4 1.9-9.6 10.4-16.8 20.5-16.8 11.6 0 20.9 9.6 20.9 21.1 0 4.2-1.2 7.6-3.4 11.6h-79.1c2.9-5.1 8.1-8.5 14.2-8.5zM278 112.5h79"/></g><g><path d="M434.2 101c0-10.6-8.6-19.2-19.2-19.2-7 0-13.2 3.8-16.5 9.5-2.3-2.1-5.4-3.4-8.8-3.4-6.3 0-11.5 4.4-12.8 10.2-3.6-2.5-8-4-12.7-4-8 0-15 4.3-19.1 10.3h88.8c.2-.9.3-2.2.3-3.4zM433 104.5h-88"/></g></g></svg>